<?xml version="1.0" encoding="UTF-8" standalone="no"?>
<!DOCTYPE svg PUBLIC "-//W3C//DTD SVG 20010904//EN"
              "http://www.w3.org/TR/2001/REC-SVG-20010904/DTD/svg10.dtd">

<svg xmlns="http://www.w3.org/2000/svg"
     width="15in" height="15in"
     viewBox="0 0 1080 1080">
  <path id="Cs"
        fill="#78ff65" stroke="none" stroke-width="1"
        d="M 319.00,280.28
           C 301.61,284.56 291.53,295.13 279.00,306.97
             279.00,306.97 260.00,324.09 260.00,324.09
             260.00,324.09 243.00,340.96 243.00,340.96
             243.00,340.96 235.04,348.09 235.04,348.09
             235.04,348.09 227.91,356.00 227.91,356.00
             227.91,356.00 216.17,368.00 216.17,368.00
             216.17,368.00 209.70,376.00 209.70,376.00
             205.32,381.12 201.63,383.84 197.93,390.00
             197.93,390.00 192.48,402.00 192.48,402.00
             192.48,402.00 187.32,411.00 187.32,411.00
             187.32,411.00 182.19,425.00 182.19,425.00
             173.36,448.28 167.69,467.17 164.72,492.00
             164.72,492.00 162.92,510.00 162.92,510.00
             162.92,510.00 162.92,521.00 162.92,521.00
             162.92,521.00 161.00,535.00 161.00,535.00
             160.72,559.37 162.18,550.76 164.71,570.00
             164.71,570.00 168.00,596.00 168.00,596.00
             168.00,596.00 172.34,611.00 172.34,611.00
             172.34,611.00 175.22,625.00 175.22,625.00
             175.22,625.00 178.45,633.00 178.45,633.00
             178.45,633.00 180.55,640.00 180.55,640.00
             180.55,640.00 190.91,667.00 190.91,667.00
             190.91,667.00 193.55,677.00 193.55,677.00
             193.55,677.00 197.77,687.00 197.77,687.00
             197.77,687.00 200.55,696.00 200.55,696.00
             200.55,696.00 217.35,735.00 217.35,735.00
             219.81,739.42 230.08,751.53 233.87,756.00
             243.58,767.45 244.58,768.85 256.00,779.17
             259.23,782.09 261.29,784.54 265.00,787.05
             275.66,794.26 285.02,796.91 297.00,801.08
             297.00,801.08 311.00,806.78 311.00,806.78
             311.00,806.78 320.00,809.09 320.00,809.09
             320.00,809.09 335.00,813.20 335.00,813.20
             344.21,815.89 352.23,819.89 362.00,820.00
             377.38,820.17 390.86,812.94 391.91,796.00
             392.55,785.60 386.47,775.67 377.00,771.35
             377.00,771.35 361.00,767.09 361.00,767.09
             361.00,767.09 351.00,763.22 351.00,763.22
             351.00,763.22 328.00,756.91 328.00,756.91
             328.00,756.91 316.00,751.92 316.00,751.92
             309.88,749.52 302.78,747.80 297.00,744.59
             294.08,742.97 286.72,736.37 284.04,733.83
             284.04,733.83 261.92,707.00 261.92,707.00
             258.93,701.96 255.53,691.68 253.46,686.00
             253.46,686.00 246.08,669.00 246.08,669.00
             246.08,669.00 240.45,649.00 240.45,649.00
             240.45,649.00 235.93,639.00 235.93,639.00
             235.93,639.00 232.77,629.00 232.77,629.00
             232.77,629.00 225.22,609.00 225.22,609.00
             225.22,609.00 222.87,599.00 222.87,599.00
             222.87,599.00 219.47,587.00 219.47,587.00
             219.47,587.00 218.71,579.00 218.71,579.00
             218.71,579.00 215.71,560.00 215.71,560.00
             214.14,548.32 212.84,549.67 213.00,536.00
             213.00,536.00 213.96,525.00 213.96,525.00
             214.73,507.39 217.04,484.83 222.20,468.00
             222.20,468.00 229.77,447.00 229.77,447.00
             233.53,436.84 236.96,427.21 242.96,418.00
             242.96,418.00 274.01,384.00 274.01,384.00
             274.01,384.00 294.00,364.17 294.00,364.17
             294.00,364.17 302.99,356.83 302.99,356.83
             302.99,356.83 313.01,346.30 313.01,346.30
             313.01,346.30 330.00,332.10 330.00,332.10
             336.62,326.16 349.97,321.31 348.91,304.00
             348.12,291.23 337.77,280.88 325.00,280.28
             322.63,279.95 321.30,280.15 319.00,280.28 Z
           M 553.00,464.00
           C 553.00,464.00 530.00,462.94 530.00,462.94
             530.00,462.94 523.00,462.94 523.00,462.94
             518.92,462.22 516.34,460.42 511.00,460.09
             497.09,459.24 484.95,470.12 484.09,484.00
             483.49,493.71 488.06,500.60 495.00,506.90
             502.64,513.83 506.74,513.17 516.00,514.28
             531.30,516.12 540.84,515.97 556.00,516.00
             558.18,516.00 561.74,515.78 563.57,517.02
             567.59,519.74 567.95,533.24 568.58,538.00
             568.58,538.00 574.00,591.00 574.00,591.00
             574.00,591.00 574.00,605.00 574.00,605.00
             564.89,601.67 556.58,600.99 547.00,601.00
             531.97,601.02 519.10,608.69 518.09,625.00
             517.40,636.21 524.44,646.68 535.00,650.45
             535.00,650.45 554.00,653.60 554.00,653.60
             558.23,654.45 570.75,655.85 572.98,659.30
             574.21,661.21 574.00,664.76 574.00,667.00
             574.00,667.00 574.00,703.00 574.00,703.00
             574.00,703.00 572.00,730.00 572.00,730.00
             572.00,730.00 570.96,752.00 570.96,752.00
             570.43,763.98 565.31,774.35 573.64,786.00
             584.65,801.41 608.16,800.53 617.64,784.00
             622.16,776.10 621.47,764.84 622.09,756.00
             622.09,756.00 624.04,741.00 624.04,741.00
             624.04,741.00 624.04,726.00 624.04,726.00
             624.04,726.00 625.96,708.00 625.96,708.00
             625.96,708.00 625.00,693.00 625.00,693.00
             625.00,693.00 625.00,658.00 625.00,658.00
             625.00,658.00 659.00,652.44 659.00,652.44
             659.00,652.44 668.00,651.54 668.00,651.54
             668.00,651.54 694.00,646.29 694.00,646.29
             694.00,646.29 710.00,644.17 710.00,644.17
             710.00,644.17 727.00,642.56 727.00,642.56
             727.00,642.56 752.00,637.00 752.00,637.00
             752.00,637.00 757.00,677.00 757.00,677.00
             757.00,677.00 757.00,726.00 757.00,726.00
             757.03,732.86 757.98,738.44 762.39,744.00
             773.49,758.00 794.35,757.09 804.03,742.00
             807.64,736.38 807.99,731.42 808.00,725.00
             808.00,725.00 808.00,666.00 808.00,666.00
             807.98,654.45 805.50,645.10 804.00,634.00
             804.00,634.00 842.00,633.32 842.00,633.32
             846.14,632.37 849.78,630.59 852.98,627.79
             870.49,612.51 861.27,583.31 835.00,583.00
             835.00,583.00 797.00,583.00 797.00,583.00
             797.00,583.00 791.49,565.00 791.49,565.00
             791.49,565.00 788.34,550.00 788.34,550.00
             788.34,550.00 783.42,531.00 783.42,531.00
             783.42,531.00 778.44,501.00 778.44,501.00
             778.44,501.00 777.00,490.00 777.00,490.00
             777.00,490.00 793.00,487.29 793.00,487.29
             793.00,487.29 835.00,481.80 835.00,481.80
             842.35,480.42 848.93,481.87 856.00,478.65
             865.47,474.33 871.55,464.40 870.91,454.00
             869.90,437.69 857.03,430.02 842.00,430.00
             830.69,429.98 823.13,430.82 812.00,432.29
             812.00,432.29 803.00,433.83 803.00,433.83
             791.91,434.99 780.69,435.47 770.00,439.00
             770.00,439.00 765.29,416.00 765.29,416.00
             765.29,416.00 764.56,408.00 764.56,408.00
             764.56,408.00 759.61,384.00 759.61,384.00
             759.61,384.00 758.17,371.00 758.17,371.00
             757.01,359.39 757.45,340.79 749.79,332.02
             738.61,319.22 718.54,320.15 708.64,334.00
             704.30,340.06 703.92,345.87 704.00,353.00
             704.00,353.00 706.00,367.00 706.00,367.00
             706.00,367.00 706.00,377.00 706.00,377.00
             706.00,377.00 708.30,392.00 708.30,392.00
             708.30,392.00 710.80,402.00 710.80,402.00
             710.80,402.00 718.00,445.00 718.00,445.00
             712.55,446.33 712.70,445.67 708.00,446.29
             696.52,447.80 696.94,447.98 685.00,448.00
             676.11,448.01 655.75,450.40 647.00,452.43
             647.00,452.43 635.00,455.98 635.00,455.98
             635.00,455.98 624.00,457.29 624.00,457.29
             624.00,457.29 606.00,461.00 606.00,461.00
             606.00,461.00 603.79,451.00 603.79,451.00
             603.79,451.00 601.33,443.00 601.33,443.00
             601.33,443.00 598.83,417.00 598.83,417.00
             598.83,417.00 595.00,387.00 595.00,387.00
             595.00,387.00 595.00,362.00 595.00,362.00
             595.18,346.62 602.40,338.55 600.70,327.00
             598.78,313.97 587.20,304.28 574.00,305.09
             562.06,305.83 551.73,315.95 548.22,327.00
             546.19,333.39 546.51,336.91 545.71,343.00
             544.77,350.17 544.01,349.65 544.00,358.00
             544.00,358.00 544.00,397.00 544.00,397.00
             544.01,405.98 545.07,405.77 545.83,413.00
             545.83,413.00 549.44,449.00 549.44,449.00
             549.44,449.00 553.00,464.00 553.00,464.00 Z
           M 726.00,497.00
           C 726.00,497.00 729.56,522.00 729.56,522.00
             729.56,522.00 730.46,531.00 730.46,531.00
             730.46,531.00 737.34,560.00 737.34,560.00
             737.34,560.00 744.00,586.00 744.00,586.00
             744.00,586.00 721.00,590.70 721.00,590.70
             721.00,590.70 687.00,594.61 687.00,594.61
             687.00,594.61 659.00,600.39 659.00,600.39
             659.00,600.39 647.00,601.80 647.00,601.80
             647.00,601.80 625.00,606.00 625.00,606.00
             625.00,606.00 625.00,576.00 625.00,576.00
             625.00,576.00 620.29,536.00 620.29,536.00
             620.29,536.00 617.00,512.00 617.00,512.00
             617.00,512.00 634.00,508.29 634.00,508.29
             634.00,508.29 643.00,507.33 643.00,507.33
             643.00,507.33 660.00,502.80 660.00,502.80
             660.00,502.80 703.00,499.00 703.00,499.00
             703.00,499.00 726.00,497.00 726.00,497.00 Z" />
</svg>
