<?xml version="1.0" encoding="UTF-8" standalone="no"?>
<!DOCTYPE svg PUBLIC "-//W3C//DTD SVG 20010904//EN"
              "http://www.w3.org/TR/2001/REC-SVG-20010904/DTD/svg10.dtd">

<svg xmlns="http://www.w3.org/2000/svg"
     width="3.6in" height="3.6in"
     viewBox="0 0 1080 1080">
  <path id="Selection"
        fill="#57c7ff" stroke="none" stroke-width="1"
        d="M 795.00,263.44
           C 795.00,263.44 779.00,267.76 779.00,267.76
             767.67,270.52 756.02,272.84 746.00,279.18
             733.22,287.26 734.21,286.20 724.54,298.00
             724.54,298.00 717.96,306.00 717.96,306.00
             715.72,309.44 713.81,314.22 712.14,318.00
             707.00,329.63 703.06,335.76 703.00,349.00
             703.00,349.00 703.00,360.00 703.00,360.00
             703.04,368.82 703.98,368.25 706.08,376.00
             706.08,376.00 708.93,387.00 708.93,387.00
             711.78,394.29 714.61,396.93 718.13,403.00
             718.13,403.00 727.92,421.00 727.92,421.00
             727.92,421.00 735.78,432.00 735.78,432.00
             735.78,432.00 742.61,443.00 742.61,443.00
             742.61,443.00 759.83,462.00 759.83,462.00
             764.24,466.95 765.47,469.90 771.00,474.70
             796.19,496.54 814.34,500.45 839.83,529.00
             839.83,529.00 856.39,551.00 856.39,551.00
             856.39,551.00 865.33,568.00 865.33,568.00
             870.86,577.60 875.78,584.29 873.53,596.00
             872.09,603.49 868.00,606.71 863.09,612.00
             855.69,619.97 856.36,621.98 845.00,622.00
             845.00,622.00 824.00,622.00 824.00,622.00
             805.33,621.97 771.37,602.55 757.83,629.00
             756.29,632.01 755.30,635.62 755.09,639.00
             754.22,653.13 765.07,663.58 778.00,667.07
             782.11,668.19 784.10,667.80 788.00,668.29
             799.55,669.73 801.58,673.93 816.00,674.00
             816.00,674.00 852.00,674.00 852.00,674.00
             860.58,673.96 874.78,670.68 882.00,666.03
             887.49,662.50 900.51,648.42 905.28,643.00
             905.28,643.00 915.07,632.00 915.07,632.00
             920.48,624.59 925.89,610.21 926.00,601.00
             926.00,601.00 926.00,584.00 926.00,584.00
             925.93,568.93 918.07,553.92 910.86,541.00
             910.86,541.00 900.45,522.00 900.45,522.00
             890.27,506.16 869.38,482.30 855.00,470.46
             846.71,463.64 837.94,458.28 829.00,452.46
             829.00,452.46 819.00,445.22 819.00,445.22
             819.00,445.22 810.04,439.32 810.04,439.32
             806.06,436.11 803.35,431.73 799.91,428.00
             795.59,423.32 784.35,411.63 781.47,407.00
             773.06,393.48 756.76,370.54 755.17,355.00
             754.48,348.19 756.36,346.66 759.19,341.00
             760.68,338.03 761.35,335.72 763.41,333.00
             771.57,322.27 781.19,321.23 793.00,318.08
             800.87,315.98 799.60,314.80 809.00,315.01
             809.00,315.01 834.00,319.39 834.00,319.39
             845.34,321.38 845.17,318.09 863.00,325.59
             872.81,329.72 875.76,337.15 888.00,337.91
             904.14,338.90 916.52,324.85 914.83,309.00
             913.98,301.06 908.90,293.37 902.99,288.21
             898.89,284.64 887.27,277.88 882.00,276.22
             882.00,276.22 872.00,273.78 872.00,273.78
             864.60,271.45 865.32,270.05 855.00,268.44
             855.00,268.44 841.00,267.56 841.00,267.56
             825.37,265.12 829.83,264.20 812.00,264.00
             804.53,263.91 803.28,262.38 795.00,263.44 Z
           M 570.00,265.44
           C 570.00,265.44 553.00,267.93 553.00,267.93
             547.21,269.49 542.30,272.98 537.00,275.63
             532.81,277.73 529.96,278.29 526.00,281.39
             526.00,281.39 519.00,287.83 519.00,287.83
             495.70,308.88 489.12,329.71 485.83,360.00
             485.06,367.07 484.02,365.04 484.00,375.00
             484.00,375.00 484.00,396.00 484.00,396.00
             484.16,409.05 491.06,423.59 498.63,434.00
             502.67,439.55 514.42,450.17 519.83,455.42
             519.83,455.42 526.30,463.00 526.30,463.00
             530.23,467.52 538.88,474.15 544.00,477.45
             544.00,477.45 569.00,492.22 569.00,492.22
             569.00,492.22 582.00,498.48 582.00,498.48
             582.00,498.48 600.99,513.29 600.99,513.29
             609.31,520.77 610.82,526.53 615.32,536.00
             615.32,536.00 620.10,545.00 620.10,545.00
             622.43,550.24 626.93,568.11 627.00,574.00
             627.04,578.05 627.41,583.36 625.55,586.99
             622.82,592.30 616.01,595.91 611.00,598.78
             599.88,605.15 607.67,603.16 594.00,606.93
             594.00,606.93 584.00,610.90 584.00,610.90
             584.00,610.90 576.00,612.92 576.00,612.92
             566.42,615.51 560.28,617.98 550.00,617.91
             550.00,617.91 526.00,617.91 526.00,617.91
             519.32,617.11 516.30,615.10 508.00,615.00
             492.59,614.82 476.95,613.65 469.93,631.00
             468.92,633.51 468.26,636.30 468.09,639.00
             467.35,651.03 475.41,661.93 487.00,665.07
             493.05,666.71 497.36,665.49 503.00,666.30
             511.38,667.49 511.98,668.98 522.00,669.00
             522.00,669.00 562.00,669.00 562.00,669.00
             572.21,668.88 582.32,665.64 592.00,662.77
             592.00,662.77 601.00,660.45 601.00,660.45
             601.00,660.45 609.00,657.22 609.00,657.22
             609.00,657.22 622.00,653.66 622.00,653.66
             622.00,653.66 640.00,643.22 640.00,643.22
             648.52,638.44 660.71,632.15 666.04,624.00
             671.42,615.76 677.95,599.85 678.00,590.00
             678.00,590.00 678.00,563.00 678.00,563.00
             677.89,553.69 675.22,547.59 672.78,539.00
             672.78,539.00 670.45,529.00 670.45,529.00
             667.05,519.31 652.19,491.62 645.70,484.00
             636.03,472.66 617.84,459.43 605.00,451.53
             605.00,451.53 592.00,445.22 592.00,445.22
             592.00,445.22 569.00,430.47 569.00,430.47
             569.00,430.47 556.00,417.10 556.00,417.10
             556.00,417.10 547.17,409.90 547.17,409.90
             543.21,405.87 537.06,395.59 536.11,390.00
             536.11,390.00 536.11,379.00 536.11,379.00
             536.15,366.58 539.71,342.79 547.39,333.00
             552.41,326.59 556.12,324.79 563.00,321.22
             569.10,318.06 569.94,317.09 577.00,317.00
             585.24,316.90 588.98,316.87 597.00,319.52
             606.07,322.51 610.36,326.29 621.00,326.91
             643.18,328.20 656.47,301.83 641.79,285.02
             638.28,281.00 628.07,274.36 623.00,272.55
             623.00,272.55 613.00,270.08 613.00,270.08
             599.30,266.37 584.28,263.61 570.00,265.44 Z
           M 289.00,288.23
           C 289.00,288.23 271.00,292.52 271.00,292.52
             271.00,292.52 258.00,297.78 258.00,297.78
             252.91,299.43 243.37,301.88 239.00,304.36
             239.00,304.36 231.00,310.04 231.00,310.04
             216.90,319.10 212.24,320.49 200.17,334.00
             191.97,343.18 192.06,345.93 186.54,355.00
             186.54,355.00 178.35,367.00 178.35,367.00
             178.35,367.00 174.80,376.00 174.80,376.00
             174.80,376.00 167.33,392.00 167.33,392.00
             167.33,392.00 164.45,401.00 164.45,401.00
             164.45,401.00 158.92,415.00 158.92,415.00
             158.92,415.00 156.29,428.00 156.29,428.00
             156.29,428.00 155.47,436.00 155.47,436.00
             155.47,436.00 152.66,445.00 152.66,445.00
             150.21,454.83 148.02,468.92 148.00,479.00
             148.00,479.00 148.00,542.00 148.00,542.00
             148.01,550.61 148.69,548.91 149.94,556.00
             149.94,556.00 149.94,563.00 149.94,563.00
             150.52,566.12 153.13,574.67 154.22,578.00
             154.22,578.00 157.78,587.00 157.78,587.00
             157.78,587.00 160.22,597.00 160.22,597.00
             160.22,597.00 170.35,620.00 170.35,620.00
             174.42,627.48 190.50,649.79 196.17,655.99
             196.17,655.99 208.00,667.00 208.00,667.00
             220.21,679.07 234.30,691.51 251.00,696.78
             251.00,696.78 264.00,699.60 264.00,699.60
             269.57,700.71 274.27,701.93 280.00,702.00
             280.00,702.00 335.00,702.00 335.00,702.00
             350.03,701.98 362.90,694.31 363.91,678.00
             364.99,660.48 351.09,651.03 335.00,651.00
             335.00,651.00 308.00,651.00 308.00,651.00
             290.53,651.00 277.06,651.87 261.00,642.97
             256.58,640.52 245.14,629.92 241.00,625.96
             223.11,608.85 213.16,590.29 205.81,567.00
             202.32,555.93 200.06,548.88 200.00,537.00
             200.00,537.00 200.00,482.00 200.00,482.00
             200.00,482.00 201.61,463.00 201.61,463.00
             203.09,457.20 204.75,456.24 206.39,447.00
             206.39,447.00 207.67,436.00 207.67,436.00
             209.56,426.79 218.73,403.35 223.31,395.00
             223.31,395.00 229.08,386.00 229.08,386.00
             235.98,374.63 236.82,370.55 248.00,361.33
             248.00,361.33 268.00,349.49 268.00,349.49
             268.00,349.49 278.00,346.39 278.00,346.39
             287.10,342.83 293.80,339.49 304.00,339.04
             317.08,338.46 318.82,341.87 330.00,341.94
             330.00,341.94 341.00,341.94 341.00,341.94
             350.96,343.16 358.88,346.26 369.00,341.94
             387.69,333.13 389.11,306.94 372.00,295.97
             365.75,291.96 353.45,291.04 346.00,291.00
             346.00,291.00 317.00,288.23 317.00,288.23
             317.00,288.23 289.00,288.23 289.00,288.23 Z
           M 112.00,643.47
           C 107.18,644.61 103.83,645.88 100.02,649.21
             80.05,666.64 95.54,699.53 122.00,694.53
             140.35,691.07 149.22,669.18 138.36,654.00
             131.93,645.01 122.61,641.99 112.00,643.47 Z" />
</svg>
