<?xml version="1.0" encoding="UTF-8" standalone="no"?>
<!DOCTYPE svg PUBLIC "-//W3C//DTD SVG 20010904//EN"
              "http://www.w3.org/TR/2001/REC-SVG-20010904/DTD/svg10.dtd">

<svg xmlns="http://www.w3.org/2000/svg"
     width="13.8889in" height="13.8889in"
     viewBox="0 0 1000 1000">
  <path id="Selection #2"
        fill="black" stroke="black" stroke-width="10"
        d="M 510.00,269.00
           C 510.00,269.00 510.00,351.00 510.00,351.00
             510.00,351.00 510.00,369.00 510.00,369.00
             510.01,372.85 509.12,375.39 513.00,377.00
             513.00,377.00 510.00,378.00 510.00,378.00
             510.00,378.00 510.00,611.00 510.00,611.00
             510.00,611.00 565.00,611.00 565.00,611.00
             565.00,611.00 596.00,610.36 596.00,610.36
             596.00,610.36 605.00,607.82 605.00,607.82
             605.00,607.82 624.00,604.20 624.00,604.20
             624.00,604.20 639.00,595.60 639.00,595.60
             639.00,595.60 655.71,585.22 655.71,585.22
             658.65,582.79 666.40,573.40 669.25,570.00
             672.38,566.26 677.91,560.09 680.01,556.00
             680.01,556.00 685.19,542.00 685.19,542.00
             688.26,533.91 690.99,527.74 691.00,519.00
             691.00,519.00 691.00,476.00 691.00,476.00
             691.00,476.00 691.00,390.00 691.00,390.00
             691.00,390.00 691.00,364.00 691.00,364.00
             691.00,360.30 691.27,352.19 690.45,349.00
             689.42,345.00 679.84,327.68 677.31,323.00
             674.41,317.65 672.24,311.51 667.90,307.17
             664.64,303.90 643.58,286.60 640.00,284.53
             640.00,284.53 623.00,276.77 623.00,276.77
             613.74,272.54 608.36,269.02 598.00,269.00
             598.00,269.00 510.00,269.00 510.00,269.00 Z
           M 524.00,598.00
           C 524.00,598.00 524.00,377.00 524.00,377.00
             530.62,377.28 533.52,374.82 538.00,376.05
             538.00,376.05 547.00,380.25 547.00,380.25
             562.76,388.13 567.50,393.75 577.00,408.00
             577.00,408.00 586.01,422.00 586.01,422.00
             589.40,428.90 592.99,444.31 593.00,452.00
             593.00,452.00 593.00,588.00 593.00,588.00
             592.98,597.98 590.67,597.98 581.00,598.00
             581.00,598.00 524.00,598.00 524.00,598.00 Z" />
  <path id="Selection #1"
        fill="#f8f095" stroke="black" stroke-width="10"
        d="M 324.00,126.00
           C 324.00,126.00 324.00,756.13 324.00,756.13
             324.00,756.13 625.00,756.13 625.00,756.13
             625.00,756.13 636.00,756.13 636.00,756.13
             636.00,756.13 657.00,752.80 657.00,752.80
             680.92,748.21 680.54,748.63 704.00,740.05
             704.00,740.05 736.00,729.01 736.00,729.01
             736.00,729.01 761.00,712.67 761.00,712.67
             774.52,703.65 797.64,686.08 808.99,674.96
             818.24,665.89 832.36,647.96 839.67,637.00
             839.67,637.00 856.34,611.00 856.34,611.00
             862.64,598.40 866.29,581.74 869.21,568.00
             871.10,559.13 872.99,553.28 873.00,544.00
             873.00,544.00 873.00,428.00 873.00,428.00
             873.00,428.00 873.00,349.00 873.00,349.00
             872.99,340.22 871.18,333.53 869.75,325.00
             869.75,325.00 865.46,303.00 865.46,303.00
             865.46,303.00 856.42,282.00 856.42,282.00
             856.42,282.00 847.63,262.00 847.63,262.00
             847.63,262.00 823.68,226.00 823.68,226.00
             823.68,226.00 802.00,204.00 802.00,204.00
             802.00,204.00 788.99,190.32 788.99,190.32
             788.99,190.32 760.00,169.66 760.00,169.66
             760.00,169.66 737.00,153.99 737.00,153.99
             737.00,153.99 696.00,140.00 696.00,140.00
             696.00,140.00 663.00,129.32 663.00,129.32
             663.00,129.32 646.00,127.91 646.00,127.91
             646.00,127.91 612.00,125.05 612.00,125.05
             612.00,125.05 588.00,125.05 588.00,125.05
             588.00,125.05 573.00,126.00 573.00,126.00
             573.00,126.00 490.00,126.00 490.00,126.00
             490.00,126.00 324.00,126.00 324.00,126.00 Z
           M 509.00,611.00
           C 509.00,611.00 509.00,384.00 509.00,384.00
             509.00,384.00 510.00,367.00 510.00,367.00
             510.00,367.00 510.00,268.00 510.00,268.00
             510.00,268.00 598.00,268.00 598.00,268.00
             608.95,268.02 612.28,270.84 622.00,275.14
             622.00,275.14 640.00,283.34 640.00,283.34
             644.55,285.93 664.78,302.60 668.79,306.59
             672.20,309.98 677.87,321.27 680.25,326.00
             685.53,336.53 691.98,344.00 692.00,356.00
             692.00,356.00 692.00,391.00 692.00,391.00
             692.00,391.00 692.00,475.00 692.00,475.00
             692.00,475.00 692.00,519.00 692.00,519.00
             691.98,529.05 690.45,529.77 687.33,539.00
             687.33,539.00 680.74,557.00 680.74,557.00
             678.65,561.09 673.67,566.33 670.59,570.00
             670.59,570.00 656.91,585.62 656.91,585.62
             656.91,585.62 639.00,596.80 639.00,596.80
             635.72,598.77 627.03,604.26 624.00,605.32
             624.00,605.32 611.00,607.75 611.00,607.75
             604.97,608.76 599.06,610.97 593.00,611.00
             593.00,611.00 571.00,611.00 571.00,611.00
             571.00,611.00 509.00,611.00 509.00,611.00 Z" />
  <path id="Selection"
        fill="black" stroke="black" stroke-width="10"
        d="M 222.00,854.00
           C 222.00,854.00 589.00,854.00 589.00,854.00
             599.23,853.98 609.09,850.93 619.00,848.65
             619.00,848.65 650.00,841.48 650.00,841.48
             650.00,841.48 687.00,826.01 687.00,826.01
             687.00,826.01 729.00,808.05 729.00,808.05
             729.00,808.05 758.00,785.65 758.00,785.65
             758.00,785.65 794.54,756.56 794.54,756.56
             794.54,756.56 816.37,728.00 816.37,728.00
             816.37,728.00 842.54,693.00 842.54,693.00
             842.54,693.00 862.28,652.00 862.28,652.00
             862.28,652.00 878.56,612.00 878.56,612.00
             878.56,612.00 883.00,585.00 883.00,585.00
             884.03,577.48 884.99,574.96 885.00,567.00
             885.00,567.00 885.00,342.00 885.00,342.00
             884.99,332.56 882.44,324.15 880.42,315.00
             880.42,315.00 875.53,295.00 875.53,295.00
             875.53,295.00 865.25,273.00 865.25,273.00
             858.66,259.71 850.08,240.99 841.78,229.00
             841.78,229.00 830.00,215.00 830.00,215.00
             810.16,192.02 816.54,198.52 793.00,179.39
             793.00,179.39 769.00,160.24 769.00,160.24
             740.46,141.76 704.66,128.43 672.00,119.14
             672.00,119.14 660.00,115.66 660.00,115.66
             660.00,115.66 637.00,111.58 637.00,111.58
             629.00,110.13 621.16,108.01 613.00,108.00
             613.00,108.00 511.00,108.00 511.00,108.00
             511.00,108.00 323.00,108.00 323.00,108.00
             306.32,108.03 301.01,116.99 290.00,128.00
             290.00,128.00 243.00,175.00 243.00,175.00
             239.29,178.71 224.74,192.57 223.02,196.00
             222.02,198.00 222.04,199.83 222.00,202.00
             222.00,202.00 222.00,274.00 222.00,274.00
             222.00,274.00 222.00,419.00 222.00,419.00
             222.00,419.00 222.00,854.00 222.00,854.00 Z
           M 323.00,756.00
           C 323.00,756.00 323.00,126.00 323.00,126.00
             323.00,126.00 338.00,125.00 338.00,125.00
             338.00,125.00 529.00,125.00 529.00,125.00
             529.00,125.00 588.00,125.00 588.00,125.00
             588.00,125.00 605.00,123.74 605.00,123.74
             605.00,123.74 631.00,125.91 631.00,125.91
             631.00,125.91 656.00,128.08 656.00,128.08
             656.00,128.08 663.00,128.08 663.00,128.08
             663.00,128.08 697.00,139.33 697.00,139.33
             697.00,139.33 738.00,153.38 738.00,153.38
             738.00,153.38 764.00,171.14 764.00,171.14
             764.00,171.14 787.00,187.51 787.00,187.51
             787.00,187.51 819.72,220.00 819.72,220.00
             827.38,228.71 842.13,249.82 847.69,260.00
             847.69,260.00 855.30,277.00 855.30,277.00
             855.30,277.00 866.79,304.00 866.79,304.00
             866.79,304.00 870.75,325.00 870.75,325.00
             872.18,333.53 873.99,340.22 874.00,349.00
             874.00,349.00 874.00,427.00 874.00,427.00
             874.00,427.00 874.00,546.00 874.00,546.00
             873.91,553.47 871.75,560.74 870.21,568.00
             867.11,582.59 863.99,597.42 857.51,611.00
             857.51,611.00 844.19,632.00 844.19,632.00
             836.58,644.25 819.94,665.91 809.83,675.71
             798.88,686.33 775.97,704.02 763.00,712.67
             763.00,712.67 737.00,729.63 737.00,729.63
             737.00,729.63 713.00,738.05 713.00,738.05
             713.00,738.05 677.00,750.10 677.00,750.10
             677.00,750.10 658.00,753.61 658.00,753.61
             650.03,755.10 642.13,756.99 634.00,757.00
             634.00,757.00 616.00,757.00 616.00,757.00
             616.00,757.00 601.00,756.00 601.00,756.00
             601.00,756.00 323.00,756.00 323.00,756.00 Z" />
</svg>
