<?xml version="1.0" encoding="UTF-8" standalone="no"?>
<!DOCTYPE svg PUBLIC "-//W3C//DTD SVG 20010904//EN"
              "http://www.w3.org/TR/2001/REC-SVG-20010904/DTD/svg10.dtd">

<svg xmlns="http://www.w3.org/2000/svg"
     width="3.6in" height="3.6in"
     viewBox="0 0 1080 1080">
  <path id="Selection"
        fill="#ff8b0f" stroke="none" stroke-width="1"
        d="M 866.00,662.00
           C 866.00,662.00 865.00,645.00 865.00,645.00
             865.00,645.00 865.00,620.00 865.00,620.00
             865.00,620.00 864.00,607.00 864.00,607.00
             864.00,607.00 864.00,582.00 864.00,582.00
             864.00,582.00 863.00,565.00 863.00,565.00
             863.00,565.00 863.00,542.00 863.00,542.00
             863.00,542.00 862.00,525.00 862.00,525.00
             862.00,525.00 862.00,502.00 862.00,502.00
             862.00,502.00 861.00,486.00 861.00,486.00
             861.00,486.00 861.00,462.00 861.00,462.00
             861.00,462.00 860.00,445.00 860.00,445.00
             860.00,445.00 858.00,342.00 858.00,342.00
             857.98,332.13 854.96,315.20 844.00,311.88
             841.91,310.96 835.85,311.96 833.00,311.88
             833.00,311.88 823.00,311.88 823.00,311.88
             814.50,312.16 809.63,318.30 807.22,326.00
             805.12,332.73 805.99,357.44 806.00,366.00
             806.00,366.00 807.00,383.00 807.00,383.00
             807.00,383.00 807.00,406.00 807.00,406.00
             807.00,406.00 808.00,423.00 808.00,423.00
             808.00,423.00 808.00,446.00 808.00,446.00
             808.00,446.00 809.00,463.00 809.00,463.00
             809.00,463.00 811.00,566.00 811.00,566.00
             811.00,566.00 812.00,583.00 812.00,583.00
             812.00,583.00 812.00,603.00 812.00,603.00
             812.00,603.00 813.00,618.00 813.00,618.00
             813.00,618.00 813.00,641.00 813.00,641.00
             813.00,641.00 814.00,657.00 814.00,657.00
             814.00,657.00 814.00,671.00 814.00,671.00
             814.00,682.85 813.36,696.84 820.64,707.00
             826.38,715.02 835.28,718.79 845.00,717.83
             845.00,717.83 854.00,716.29 854.00,716.29
             854.00,716.29 862.00,715.54 862.00,715.54
             862.00,715.54 882.00,711.44 882.00,711.44
             882.00,711.44 892.00,710.39 892.00,710.39
             892.00,710.39 914.00,706.17 914.00,706.17
             925.99,704.91 938.49,704.23 946.61,694.00
             957.96,679.68 950.72,657.73 933.00,652.93
             924.12,650.52 914.81,653.84 906.00,655.39
             906.00,655.39 897.00,656.29 897.00,656.29
             897.00,656.29 866.00,662.00 866.00,662.00 Z
           M 680.00,463.00
           C 680.00,463.00 671.43,443.00 671.43,443.00
             671.43,443.00 647.43,388.00 647.43,388.00
             647.43,388.00 631.42,351.00 631.42,351.00
             629.22,345.94 624.23,333.97 621.37,330.00
             614.29,320.17 600.63,315.87 589.00,316.00
             589.00,316.00 579.00,317.04 579.00,317.04
             579.00,317.04 570.00,317.04 570.00,317.04
             570.00,317.04 536.00,321.00 536.00,321.00
             536.00,321.00 526.00,321.00 526.00,321.00
             526.00,321.00 466.00,327.00 466.00,327.00
             466.00,327.00 456.00,327.00 456.00,327.00
             456.00,327.00 398.00,332.58 398.00,332.58
             392.64,332.83 389.85,331.11 383.00,332.58
             368.63,335.98 363.02,347.35 363.00,361.00
             363.00,361.00 363.00,377.00 363.00,377.00
             363.00,377.00 364.00,392.00 364.00,392.00
             364.00,392.00 364.00,430.00 364.00,430.00
             364.00,430.00 365.00,447.00 365.00,447.00
             365.00,447.00 365.00,486.00 365.00,486.00
             365.00,486.00 355.00,486.91 355.00,486.91
             355.00,486.91 331.00,488.96 331.00,488.96
             331.00,488.96 322.00,488.96 322.00,488.96
             322.00,488.96 282.00,492.09 282.00,492.09
             282.00,492.09 256.00,494.00 256.00,494.00
             257.65,487.23 256.99,478.13 257.00,471.00
             257.00,471.00 258.00,455.00 258.00,455.00
             258.00,455.00 258.00,441.00 258.00,441.00
             258.00,441.00 259.00,424.00 259.00,424.00
             259.00,424.00 260.00,370.00 260.00,370.00
             259.98,354.97 252.31,342.10 236.00,341.09
             232.92,340.90 229.94,341.30 227.00,342.22
             204.79,349.17 208.03,374.78 208.00,393.00
             208.00,393.00 207.00,410.00 207.00,410.00
             207.00,410.00 206.00,453.00 206.00,453.00
             206.00,453.00 205.00,469.00 205.00,469.00
             205.00,469.00 205.00,488.00 205.00,488.00
             205.00,488.00 204.00,504.00 204.00,504.00
             204.00,504.00 204.00,518.00 204.00,518.00
             204.00,518.00 203.00,534.00 203.00,534.00
             203.00,534.00 203.00,549.00 203.00,549.00
             203.00,549.00 202.00,565.00 202.00,565.00
             202.00,565.00 200.00,648.00 200.00,648.00
             200.00,648.00 199.00,664.00 199.00,664.00
             199.00,664.00 199.00,678.00 199.00,678.00
             198.98,689.34 195.27,700.55 201.97,711.00
             212.23,727.01 235.77,727.01 246.03,711.00
             250.78,703.59 249.55,698.87 250.09,691.00
             250.09,691.00 251.00,679.00 251.00,679.00
             251.00,679.00 253.00,596.00 253.00,596.00
             253.00,596.00 254.00,579.00 254.00,579.00
             254.00,579.00 254.00,564.00 254.00,564.00
             254.00,564.00 255.00,546.00 255.00,546.00
             255.00,546.00 283.00,544.09 283.00,544.09
             283.00,544.09 346.00,539.91 346.00,539.91
             346.00,539.91 366.00,538.00 366.00,538.00
             366.00,538.00 366.00,545.00 366.00,545.00
             366.00,545.00 367.00,562.00 367.00,562.00
             367.00,562.00 367.00,600.00 367.00,600.00
             367.00,600.00 368.00,617.00 368.00,617.00
             368.00,617.00 368.00,655.00 368.00,655.00
             368.00,655.00 369.00,671.00 369.00,671.00
             369.00,671.00 369.00,690.00 369.00,690.00
             369.01,696.82 369.50,702.21 373.64,708.00
             383.54,721.85 403.61,722.78 414.79,709.98
             425.02,698.27 420.02,678.26 420.00,664.00
             420.00,664.00 420.00,621.00 420.00,621.00
             420.00,621.00 419.00,604.00 419.00,604.00
             419.00,604.00 419.00,566.00 419.00,566.00
             419.00,566.00 418.00,549.00 418.00,549.00
             418.00,549.00 418.00,511.00 418.00,511.00
             418.00,511.00 417.00,494.00 417.00,494.00
             417.00,494.00 417.00,456.00 417.00,456.00
             417.00,456.00 416.00,439.00 416.00,439.00
             416.00,439.00 415.00,383.00 415.00,383.00
             415.00,383.00 437.00,381.04 437.00,381.04
             437.00,381.04 446.00,381.04 446.00,381.04
             446.00,381.04 462.00,379.17 462.00,379.17
             462.00,379.17 485.04,377.00 485.04,377.00
             485.04,377.00 485.04,394.00 485.04,394.00
             485.04,394.00 486.00,406.00 486.00,406.00
             486.00,406.00 486.00,434.00 486.00,434.00
             486.00,434.00 487.00,451.00 487.00,451.00
             487.00,451.00 487.00,474.00 487.00,474.00
             487.00,474.00 488.00,491.00 488.00,491.00
             488.00,491.00 488.00,519.00 488.00,519.00
             488.00,519.00 489.00,536.00 489.00,536.00
             489.00,536.00 491.00,654.00 491.00,654.00
             491.00,654.00 492.00,670.00 492.00,670.00
             492.00,670.00 492.00,684.00 492.00,684.00
             492.01,690.82 492.50,696.21 496.64,702.00
             506.54,715.85 526.61,716.78 537.79,703.98
             548.02,692.27 543.02,672.26 543.00,658.00
             543.00,658.00 543.00,630.00 543.00,630.00
             543.00,630.00 542.00,613.00 542.00,613.00
             542.00,613.00 540.00,495.00 540.00,495.00
             540.00,495.00 539.00,478.00 539.00,478.00
             539.00,478.00 538.00,405.00 538.00,405.00
             538.00,405.00 537.00,380.00 537.00,380.00
             537.04,377.86 536.96,375.23 538.60,373.60
             540.47,371.73 545.34,371.93 548.00,371.58
             556.00,370.52 566.30,371.19 573.96,369.00
             573.96,369.00 573.96,381.00 573.96,381.00
             573.96,381.00 573.00,393.00 573.00,393.00
             573.00,393.00 573.00,416.00 573.00,416.00
             573.00,416.00 572.00,432.00 572.00,432.00
             572.00,432.00 572.00,451.00 572.00,451.00
             572.00,451.00 571.00,468.00 571.00,468.00
             571.00,468.00 571.00,491.00 571.00,491.00
             571.00,491.00 570.00,508.00 570.00,508.00
             570.00,508.00 570.00,531.00 570.00,531.00
             570.00,531.00 569.00,548.00 569.00,548.00
             569.00,548.00 569.00,568.00 569.00,568.00
             569.00,568.00 568.00,583.00 568.00,583.00
             568.00,583.00 567.00,646.00 567.00,646.00
             567.00,646.00 566.00,661.00 566.00,661.00
             566.00,661.00 566.00,679.00 566.00,679.00
             566.00,693.45 566.00,706.60 582.00,713.07
             584.51,714.08 587.30,714.74 590.00,714.91
             608.87,716.07 617.80,699.70 618.00,683.00
             618.00,683.00 618.00,658.00 618.00,658.00
             618.00,658.00 619.00,641.00 619.00,641.00
             619.00,641.00 619.00,618.00 619.00,618.00
             619.00,618.00 620.00,601.00 620.00,601.00
             620.00,601.00 620.00,581.00 620.00,581.00
             620.00,581.00 621.00,566.00 621.00,566.00
             621.00,566.00 621.00,543.00 621.00,543.00
             621.00,543.00 622.00,526.00 622.00,526.00
             622.00,526.00 623.00,463.00 623.00,463.00
             623.00,463.00 637.43,496.00 637.43,496.00
             637.43,496.00 653.70,533.00 653.70,533.00
             657.20,540.77 662.34,555.04 667.33,561.00
             680.36,576.59 704.61,573.42 712.07,555.00
             712.07,555.00 717.92,529.00 717.92,529.00
             717.92,529.00 726.00,495.00 726.00,495.00
             726.00,495.00 730.17,531.00 730.17,531.00
             730.17,531.00 737.02,599.00 737.02,599.00
             737.02,599.00 742.92,657.00 742.92,657.00
             743.60,665.60 744.39,684.06 748.36,691.00
             759.98,711.27 791.05,706.95 796.32,684.00
             797.91,677.10 795.67,666.34 795.08,659.00
             795.08,659.00 789.17,600.00 789.17,600.00
             789.17,600.00 770.17,411.00 770.17,411.00
             770.17,411.00 765.17,361.00 765.17,361.00
             764.54,354.70 763.25,337.02 761.45,332.00
             757.47,320.85 746.65,314.29 735.00,315.09
             725.64,315.73 717.26,321.43 713.35,330.00
             711.79,333.42 711.12,337.38 710.09,341.00
             710.09,341.00 706.80,353.00 706.80,353.00
             706.80,353.00 703.51,369.00 703.51,369.00
             703.51,369.00 700.43,379.00 700.43,379.00
             700.43,379.00 696.34,399.00 696.34,399.00
             696.34,399.00 692.21,414.00 692.21,414.00
             692.21,414.00 684.88,445.00 684.88,445.00
             683.39,451.48 682.95,456.92 680.00,463.00 Z
           M 970.00,483.00
           C 970.00,483.00 970.00,485.00 970.00,485.00
             957.49,491.44 948.07,502.27 937.00,510.63
             929.22,516.50 918.67,522.77 914.93,532.00
             906.40,553.08 926.58,574.10 948.00,566.45
             958.24,562.80 967.76,552.25 976.00,545.46
             976.00,545.46 1019.00,512.29 1019.00,512.29
             1027.49,505.11 1036.29,499.88 1038.53,488.00
             1041.54,472.05 1032.40,464.84 1021.00,456.37
             1021.00,456.37 1003.00,442.91 1003.00,442.91
             1003.00,442.91 992.00,436.25 992.00,436.25
             992.00,436.25 970.00,420.78 970.00,420.78
             961.39,414.92 952.96,406.77 942.00,406.09
             921.98,404.86 908.86,426.47 917.83,444.00
             922.41,452.94 932.05,457.79 940.00,463.22
             950.81,470.58 957.48,477.58 970.00,483.00 Z
           M 93.00,533.00
           C 93.00,533.00 137.00,508.12 137.00,508.12
             137.00,508.12 155.00,497.67 155.00,497.67
             155.00,497.67 171.00,488.22 171.00,488.22
             195.00,474.47 185.91,440.80 161.00,439.09
             148.05,438.20 135.02,448.97 124.00,455.14
             124.00,455.14 82.00,479.58 82.00,479.58
             82.00,479.58 41.00,502.92 41.00,502.92
             31.01,509.04 22.33,519.69 23.09,532.00
             23.97,546.25 35.92,553.65 46.00,561.67
             46.00,561.67 57.00,571.54 57.00,571.54
             57.00,571.54 70.00,581.46 70.00,581.46
             70.00,581.46 107.00,612.58 107.00,612.58
             118.67,622.55 129.71,632.50 146.00,624.17
             159.47,617.27 164.16,599.68 156.03,587.00
             152.79,581.95 140.28,572.26 135.00,567.73
             135.00,567.73 109.00,546.54 109.00,546.54
             101.99,540.77 102.19,539.53 93.00,533.00 Z
           M 179.00,677.00
           C 179.00,677.00 179.00,678.00 179.00,678.00
             179.00,678.00 180.00,677.00 180.00,677.00
             180.00,677.00 179.00,677.00 179.00,677.00 Z
           M 178.00,681.00
           C 178.00,681.00 178.00,682.00 178.00,682.00
             178.00,682.00 179.00,681.00 179.00,681.00
             179.00,681.00 178.00,681.00 178.00,681.00 Z
           M 177.00,683.00
           C 177.00,683.00 177.00,684.00 177.00,684.00
             177.00,684.00 178.00,683.00 178.00,683.00
             178.00,683.00 177.00,683.00 177.00,683.00 Z" />
</svg>
