<?xml version="1.0" encoding="UTF-8" standalone="no"?>
<!DOCTYPE svg PUBLIC "-//W3C//DTD SVG 20010904//EN"
              "http://www.w3.org/TR/2001/REC-SVG-20010904/DTD/svg10.dtd">

<svg xmlns="http://www.w3.org/2000/svg"
     width="3.6in" height="3.6in"
     viewBox="0 0 1080 1080">
  <path id="Selection"
        fill="none" stroke="black" stroke-width="1"
        d="M 316.00,514.00
           C 299.56,510.91 297.27,512.97 281.00,513.00
             273.86,513.01 257.91,516.04 251.00,518.22
             251.00,518.22 241.00,522.08 241.00,522.08
             241.00,522.08 216.00,526.00 216.00,526.00
             216.00,526.00 216.00,454.00 216.00,454.00
             216.00,454.00 222.00,414.00 222.00,414.00
             222.15,400.93 223.50,389.51 212.00,380.39
             208.08,377.28 202.98,375.40 198.00,375.09
             194.92,374.90 191.94,375.30 189.00,376.22
             167.31,383.01 171.03,406.49 169.54,415.00
             168.02,423.62 165.11,432.19 165.00,441.00
             165.00,441.00 165.00,531.00 165.00,531.00
             165.00,531.00 164.04,546.00 164.04,546.00
             164.04,546.00 169.71,592.00 169.71,592.00
             169.71,592.00 171.00,612.00 171.00,612.00
             171.04,620.17 172.14,620.44 172.83,627.00
             172.83,627.00 174.17,642.00 174.17,642.00
             174.17,642.00 175.83,652.00 175.83,652.00
             175.83,652.00 177.29,668.00 177.29,668.00
             178.18,674.81 179.91,678.48 180.00,686.00
             180.18,701.83 177.81,717.35 192.00,728.61
             209.01,742.10 235.27,729.04 233.91,707.00
             233.44,699.40 231.02,700.35 231.00,689.00
             231.00,689.00 231.00,677.00 231.00,677.00
             231.00,677.00 227.29,647.00 227.29,647.00
             227.29,647.00 224.83,622.00 224.83,622.00
             223.92,613.30 222.02,611.73 222.00,601.00
             221.98,591.13 222.61,587.85 220.00,578.00
             220.00,578.00 237.00,575.29 237.00,575.29
             245.40,574.18 253.77,573.40 262.00,571.08
             262.00,571.08 271.00,567.47 271.00,567.47
             275.88,565.60 284.75,564.07 290.00,564.00
             301.17,563.87 300.32,564.11 311.00,566.20
             313.71,566.73 317.29,566.91 319.02,569.31
             321.00,572.07 320.99,578.64 321.00,582.00
             321.00,582.00 321.00,624.00 321.00,624.00
             321.00,624.00 319.00,646.00 319.00,646.00
             319.00,646.00 319.00,679.00 319.00,679.00
             319.01,685.03 319.25,689.57 322.36,695.00
             331.32,710.63 353.05,712.43 364.79,698.98
             370.19,692.80 370.99,686.83 371.00,679.00
             371.00,679.00 371.00,650.00 371.00,650.00
             371.00,650.00 372.00,634.00 372.00,634.00
             372.00,634.00 372.00,590.00 372.00,590.00
             372.00,590.00 372.91,579.00 372.91,579.00
             372.91,579.00 369.71,544.00 369.71,544.00
             369.00,538.59 368.08,537.12 368.00,531.00
             368.00,531.00 368.00,482.00 368.00,482.00
             368.00,482.00 371.00,450.00 371.00,450.00
             371.00,450.00 371.00,405.00 371.00,405.00
             371.00,405.00 417.00,405.00 417.00,405.00
             409.99,419.46 417.93,429.93 418.00,445.00
             418.06,457.04 418.89,454.56 419.96,464.00
             419.96,464.00 419.96,473.00 419.96,473.00
             419.96,473.00 420.96,481.00 420.96,481.00
             420.96,481.00 422.29,500.00 422.29,500.00
             423.12,506.33 423.96,506.65 424.00,514.00
             424.00,514.00 424.00,523.00 424.00,523.00
             424.01,531.35 424.77,530.83 425.71,538.00
             427.09,548.46 428.98,559.44 429.00,570.00
             429.00,570.00 429.00,612.00 429.00,612.00
             429.00,612.00 427.00,634.00 427.00,634.00
             427.00,634.00 427.00,677.00 427.00,677.00
             427.01,683.03 427.25,687.57 430.36,693.00
             439.32,708.63 461.05,710.43 472.79,696.98
             478.19,690.80 478.99,684.83 479.00,677.00
             479.00,677.00 479.00,640.00 479.00,640.00
             479.00,640.00 480.00,623.00 480.00,623.00
             480.00,623.00 480.00,580.00 480.00,580.00
             480.00,580.00 480.91,564.00 480.91,564.00
             480.91,564.00 476.00,514.00 476.00,514.00
             476.00,514.00 474.71,497.00 474.71,497.00
             473.88,490.67 473.04,490.35 473.00,483.00
             472.95,471.40 472.13,472.62 471.04,463.00
             471.04,463.00 471.04,454.00 471.04,454.00
             471.04,454.00 470.00,439.00 470.00,439.00
             469.94,426.30 465.91,413.57 461.00,402.00
             473.73,401.88 480.67,396.02 496.00,396.00
             496.00,396.00 526.00,396.00 526.00,396.00
             538.59,395.85 547.80,391.82 559.00,387.00
             559.00,387.00 558.00,402.00 558.00,402.00
             558.00,402.00 558.00,418.00 558.00,418.00
             558.00,418.00 554.99,442.00 554.99,442.00
             554.99,442.00 554.99,452.00 554.99,452.00
             554.99,452.00 551.21,465.00 551.21,465.00
             549.56,472.65 550.08,474.52 550.00,482.00
             549.91,489.18 548.47,491.44 547.44,498.00
             547.44,498.00 546.83,510.00 546.83,510.00
             546.83,510.00 544.06,524.00 544.06,524.00
             544.06,524.00 544.06,535.00 544.06,535.00
             544.06,535.00 540.29,553.00 540.29,553.00
             540.29,553.00 539.71,565.00 539.71,565.00
             539.71,565.00 535.30,588.00 535.30,588.00
             535.30,588.00 534.70,601.00 534.70,601.00
             534.70,601.00 529.92,619.00 529.92,619.00
             528.37,625.00 529.47,627.58 528.63,632.00
             526.18,644.78 523.03,646.39 522.09,663.00
             521.24,678.07 533.89,690.84 549.00,689.91
             553.51,689.63 558.32,687.99 562.00,685.36
             573.57,677.09 572.49,666.17 575.92,654.00
             575.92,654.00 579.78,644.00 579.78,644.00
             581.93,637.10 580.32,633.13 581.47,627.00
             581.47,627.00 586.56,607.00 586.56,607.00
             586.56,607.00 587.17,595.00 587.17,595.00
             587.17,595.00 588.71,586.00 588.71,586.00
             588.71,586.00 591.29,564.00 591.29,564.00
             591.29,564.00 595.56,543.00 595.56,543.00
             595.56,543.00 596.43,529.00 596.43,529.00
             596.43,529.00 598.83,516.00 598.83,516.00
             598.83,516.00 599.37,507.00 599.37,507.00
             600.74,499.88 601.96,500.84 602.00,492.00
             602.00,492.00 602.00,480.00 602.00,480.00
             606.39,488.01 604.89,488.63 607.22,496.00
             607.22,496.00 611.47,507.00 611.47,507.00
             611.47,507.00 612.47,516.00 612.47,516.00
             612.47,516.00 615.53,527.00 615.53,527.00
             615.53,527.00 616.61,537.00 616.61,537.00
             616.61,537.00 621.56,562.00 621.56,562.00
             623.66,575.32 625.13,589.19 629.58,602.00
             629.58,602.00 636.36,622.00 636.36,622.00
             641.41,630.80 652.74,637.54 663.00,636.91
             677.74,636.00 686.83,624.18 687.00,610.00
             687.00,610.00 687.00,591.00 687.00,591.00
             687.02,577.34 695.65,544.56 698.39,529.00
             698.39,529.00 699.29,520.00 699.29,520.00
             699.29,520.00 701.71,507.00 701.71,507.00
             701.71,507.00 704.44,484.00 704.44,484.00
             704.44,484.00 707.16,470.00 707.16,470.00
             707.16,470.00 710.00,460.00 710.00,460.00
             713.33,468.00 711.24,470.30 712.44,478.00
             714.94,494.05 716.81,510.75 717.00,527.00
             717.00,527.00 718.00,542.00 718.00,542.00
             718.00,542.00 721.00,586.00 721.00,586.00
             721.00,586.00 721.00,615.00 721.00,615.00
             721.00,615.00 718.00,638.00 718.00,638.00
             718.00,638.00 718.00,680.00 718.00,680.00
             718.03,686.86 718.98,692.44 723.39,698.00
             734.28,711.73 755.14,711.30 765.36,697.00
             769.50,691.21 769.99,685.82 770.00,679.00
             770.00,679.00 770.00,646.00 770.00,646.00
             770.00,646.00 773.00,619.00 773.00,619.00
             773.00,619.00 773.00,581.00 773.00,581.00
             773.00,581.00 771.00,561.00 771.00,561.00
             771.00,561.00 770.00,536.00 770.00,536.00
             770.00,536.00 767.92,514.00 767.92,514.00
             767.92,514.00 767.92,500.00 767.92,500.00
             767.92,500.00 765.17,480.00 765.17,480.00
             765.17,480.00 759.17,420.00 759.17,420.00
             759.17,420.00 757.83,400.00 757.83,400.00
             757.83,400.00 753.20,372.00 753.20,372.00
             752.15,366.73 751.32,360.69 748.64,356.00
             741.13,342.91 723.29,338.85 711.00,347.64
             707.97,349.80 705.22,352.77 703.36,356.00
             703.36,356.00 691.58,385.00 691.58,385.00
             691.58,385.00 679.13,410.00 679.13,410.00
             679.13,410.00 673.33,419.00 673.33,419.00
             664.60,434.06 656.44,450.40 655.00,468.00
             646.13,453.99 651.09,453.37 646.66,443.00
             646.66,443.00 639.89,430.00 639.89,430.00
             639.89,430.00 631.69,411.00 631.69,411.00
             631.69,411.00 623.37,395.00 623.37,395.00
             623.37,395.00 619.65,387.00 619.65,387.00
             619.65,387.00 613.61,378.00 613.61,378.00
             610.81,373.35 610.95,370.89 606.79,366.00
             596.97,354.47 584.30,351.72 571.00,359.00
             570.32,355.37 569.55,353.07 567.36,350.00
             565.69,347.65 563.35,345.31 561.00,343.64
             545.22,332.35 531.80,344.83 519.00,345.00
             519.00,345.00 486.00,345.00 486.00,345.00
             475.08,345.02 465.51,348.57 455.00,350.63
             446.78,352.24 438.33,351.91 430.00,352.00
             430.00,352.00 411.00,354.00 411.00,354.00
             411.00,354.00 347.00,354.00 347.00,354.00
             343.07,354.01 330.48,354.98 327.00,355.93
             317.35,358.54 307.57,367.25 304.93,377.00
             302.95,384.31 304.20,392.80 308.64,399.00
             315.63,408.79 318.98,403.52 319.00,416.00
             319.00,416.00 319.00,444.00 319.00,444.00
             319.00,444.00 316.00,476.00 316.00,476.00
             316.00,476.00 316.00,514.00 316.00,514.00 Z
           M 875.00,669.00
           C 875.00,669.00 873.00,647.00 873.00,647.00
             873.00,647.00 873.00,594.00 873.00,594.00
             872.97,575.62 868.60,558.82 865.46,541.00
             865.46,541.00 864.53,532.00 864.53,532.00
             864.53,532.00 862.37,524.00 862.37,524.00
             862.37,524.00 861.54,517.00 861.54,517.00
             861.54,517.00 857.65,498.00 857.65,498.00
             857.65,498.00 853.29,476.00 853.29,476.00
             853.29,476.00 849.71,444.00 849.71,444.00
             849.71,444.00 847.56,428.00 847.56,428.00
             847.56,428.00 845.17,415.00 845.17,415.00
             845.17,415.00 842.70,385.00 842.70,385.00
             840.92,373.05 831.11,363.84 819.00,363.09
             801.48,362.01 792.03,375.91 792.00,392.00
             792.00,392.00 793.10,412.00 793.10,412.00
             793.10,412.00 793.10,422.00 793.10,422.00
             793.10,422.00 796.71,440.00 796.71,440.00
             796.71,440.00 800.29,472.00 800.29,472.00
             800.29,472.00 813.39,542.00 813.39,542.00
             813.39,542.00 814.61,552.00 814.61,552.00
             814.61,552.00 818.71,573.00 818.71,573.00
             820.09,583.46 821.98,594.44 822.00,605.00
             822.00,605.00 822.00,658.00 822.00,658.00
             822.00,658.00 825.00,687.00 825.00,687.00
             825.06,692.52 824.54,697.65 826.22,703.00
             829.57,713.71 840.86,722.14 852.00,722.91
             852.00,722.91 876.00,720.67 876.00,720.67
             876.00,720.67 886.00,724.78 886.00,724.78
             886.00,724.78 905.00,727.91 905.00,727.91
             913.65,728.44 926.96,722.02 942.00,722.00
             954.11,721.99 963.55,725.90 973.98,716.79
             993.66,699.61 979.11,670.32 952.00,670.22
             952.00,670.22 928.00,670.22 928.00,670.22
             928.00,670.22 907.00,674.25 907.00,674.25
             902.75,674.03 897.48,671.46 893.00,670.43
             885.31,668.65 882.66,669.00 875.00,669.00 Z
           M 956.00,428.47
           C 939.23,432.45 929.92,449.19 937.83,465.00
             942.89,475.11 953.00,482.39 961.00,490.04
             961.00,490.04 978.96,508.00 978.96,508.00
             984.38,513.67 984.37,514.66 991.00,520.42
             994.89,523.81 1002.43,531.15 1005.70,535.00
             1007.02,536.55 1009.51,539.51 1009.69,541.58
             1009.99,545.00 1000.07,556.81 997.79,561.00
             997.79,561.00 989.97,580.00 989.97,580.00
             989.97,580.00 981.32,595.00 981.32,595.00
             981.32,595.00 977.49,604.00 977.49,604.00
             974.67,609.69 972.56,612.22 972.09,619.00
             970.95,635.62 984.44,648.60 1001.00,646.83
             1018.67,644.94 1021.13,631.88 1027.52,619.00
             1027.52,619.00 1037.18,602.00 1037.18,602.00
             1037.18,602.00 1042.81,587.00 1042.81,587.00
             1048.21,573.28 1063.77,566.02 1064.00,547.00
             1064.12,536.49 1062.96,527.58 1058.17,518.00
             1051.57,504.81 1031.00,485.40 1020.01,474.91
             1020.01,474.91 1011.91,466.00 1011.91,466.00
             1006.30,459.98 1000.39,454.34 994.04,449.12
             994.04,449.12 985.96,441.09 985.96,441.09
             977.53,432.96 968.07,426.79 956.00,428.47 Z
           M 114.00,457.47
           C 99.57,460.90 90.04,472.96 80.00,483.00
             53.16,509.84 40.84,521.62 23.49,556.00
             19.10,564.70 12.72,572.80 12.09,583.00
             11.24,596.81 20.44,606.59 28.83,616.00
             28.83,616.00 47.05,638.00 47.05,638.00
             47.05,638.00 56.55,654.00 56.55,654.00
             56.55,654.00 68.70,671.00 68.70,671.00
             75.64,682.26 74.83,684.37 84.28,695.00
             92.55,704.28 103.31,710.51 116.00,707.07
             130.42,703.17 138.19,688.08 133.78,674.00
             130.64,663.96 125.26,663.33 120.78,655.96
             120.78,655.96 111.38,640.00 111.38,640.00
             111.38,640.00 100.55,625.00 100.55,625.00
             100.55,625.00 87.37,603.00 87.37,603.00
             87.37,603.00 73.89,588.00 73.89,588.00
             72.08,585.60 70.04,583.19 70.66,580.00
             71.28,576.81 76.38,570.55 78.17,567.00
             78.17,567.00 82.00,559.00 82.00,559.00
             85.69,553.20 89.54,549.95 93.79,545.00
             93.79,545.00 99.21,538.00 99.21,538.00
             99.21,538.00 120.00,517.17 120.00,517.17
             127.93,510.00 140.91,499.51 143.32,489.00
             147.56,470.54 132.65,454.88 114.00,457.47 Z" />
</svg>
