<?xml version="1.0" encoding="UTF-8" standalone="no"?>
<!DOCTYPE svg PUBLIC "-//W3C//DTD SVG 20010904//EN"
              "http://www.w3.org/TR/2001/REC-SVG-20010904/DTD/svg10.dtd">

<svg xmlns="http://www.w3.org/2000/svg"
     width="15in" height="15in"
     viewBox="0 0 1080 1080">
  <path id="Selection"
        fill="#fff05e" stroke="none" stroke-width="1"
        d="M 920.00,571.47
           C 911.86,573.40 906.22,578.10 899.00,582.14
             885.55,589.67 868.88,601.97 860.55,615.00
             860.55,615.00 855.97,624.00 855.97,624.00
             849.28,636.38 846.02,641.27 846.00,656.00
             846.00,656.00 846.00,702.00 846.00,702.00
             846.09,708.98 847.83,714.28 849.20,721.00
             852.13,735.43 853.46,741.43 859.69,755.00
             861.43,758.78 862.19,761.34 864.55,765.00
             864.55,765.00 881.17,786.99 881.17,786.99
             881.17,786.99 890.83,796.04 890.83,796.04
             890.83,796.04 898.17,805.00 898.17,805.00
             898.17,805.00 908.00,815.00 908.00,815.00
             908.00,815.00 930.37,838.00 930.37,838.00
             937.05,847.23 944.86,865.56 945.00,877.00
             945.00,877.00 945.00,887.00 945.00,887.00
             944.87,896.85 940.02,901.53 933.00,907.90
             923.98,916.08 916.92,918.00 906.00,921.86
             906.00,921.86 898.00,924.63 898.00,924.63
             898.00,924.63 891.00,925.61 891.00,925.61
             884.75,926.73 882.73,927.92 876.00,928.00
             860.52,928.18 845.11,926.26 837.93,944.00
             836.92,946.51 836.26,949.30 836.09,952.00
             835.38,963.62 842.92,974.31 854.00,977.78
             859.34,979.45 865.43,979.00 871.00,979.00
             883.22,979.00 886.67,979.65 899.00,977.20
             899.00,977.20 913.00,975.07 913.00,975.07
             913.00,975.07 922.00,971.55 922.00,971.55
             922.00,971.55 931.00,968.77 931.00,968.77
             951.71,961.13 963.46,952.28 978.17,936.00
             978.17,936.00 985.37,928.00 985.37,928.00
             991.31,919.69 996.95,903.25 997.00,893.00
             997.00,893.00 997.00,871.00 997.00,871.00
             996.85,858.35 990.91,842.52 985.86,831.00
             981.62,821.33 979.01,814.68 972.32,806.00
             972.32,806.00 943.00,776.00 943.00,776.00
             943.00,776.00 931.83,763.00 931.83,763.00
             931.83,763.00 922.21,753.00 922.21,753.00
             922.21,753.00 915.79,744.00 915.79,744.00
             913.15,740.88 910.22,738.61 908.07,735.00
             905.49,730.65 902.60,720.19 901.09,715.00
             899.19,708.46 898.09,708.37 898.00,701.00
             898.00,701.00 898.00,664.00 898.00,664.00
             898.01,656.36 898.29,656.74 901.74,650.00
             907.29,639.17 909.41,638.74 919.00,631.63
             927.36,625.43 932.42,621.88 943.00,622.00
             943.00,622.00 975.00,626.56 975.00,626.56
             975.00,626.56 995.00,628.21 995.00,628.21
             1000.97,629.12 1004.53,633.63 1015.00,632.91
             1029.61,631.91 1039.90,619.45 1038.91,605.00
             1038.09,593.07 1028.12,582.70 1017.00,579.22
             1017.00,579.22 982.00,574.71 982.00,574.71
             982.00,574.71 969.00,572.29 969.00,572.29
             958.82,570.95 929.78,570.10 920.00,571.47 Z
           M 597.08,651.00
           C 597.08,651.00 597.08,661.00 597.08,661.00
             597.88,668.10 598.99,668.04 599.00,677.00
             599.03,695.63 598.85,713.46 601.29,732.00
             603.84,751.38 608.91,770.37 609.08,790.00
             609.08,790.00 609.08,815.00 609.08,815.00
             610.02,823.50 611.98,825.50 612.00,836.00
             612.00,836.00 612.00,859.00 612.00,859.00
             611.98,870.13 607.35,886.74 605.00,898.00
             605.00,898.00 598.78,927.00 598.78,927.00
             598.78,927.00 595.54,935.00 595.54,935.00
             594.12,938.91 593.83,941.08 591.65,945.00
             588.04,951.51 582.22,956.78 577.00,962.00
             570.43,968.57 560.37,977.64 552.00,981.68
             543.18,985.94 538.18,986.26 529.00,988.21
             522.62,989.57 518.72,990.92 512.00,991.00
             495.68,991.19 477.58,988.11 469.93,1007.00
             468.92,1009.51 468.26,1012.30 468.09,1015.00
             467.90,1018.08 468.30,1021.06 469.22,1024.00
             474.72,1041.58 488.85,1042.00 504.00,1042.00
             504.00,1042.00 522.00,1042.00 522.00,1042.00
             528.58,1041.92 535.51,1040.10 542.00,1038.80
             542.00,1038.80 557.00,1035.45 557.00,1035.45
             557.00,1035.45 564.00,1032.55 564.00,1032.55
             569.98,1030.42 570.18,1031.28 577.00,1027.74
             584.21,1023.99 589.56,1019.30 596.00,1014.63
             596.00,1014.63 603.00,1009.79 603.00,1009.79
             603.00,1009.79 614.00,999.04 614.00,999.04
             623.98,989.49 624.62,990.02 633.09,978.00
             633.09,978.00 638.33,969.00 638.33,969.00
             638.33,969.00 643.65,960.00 643.65,960.00
             643.65,960.00 651.43,931.00 651.43,931.00
             651.43,931.00 654.53,920.00 654.53,920.00
             654.53,920.00 655.53,911.00 655.53,911.00
             655.53,911.00 658.53,901.00 658.53,901.00
             658.53,901.00 660.24,888.00 660.24,888.00
             662.56,878.42 663.98,880.74 664.00,869.00
             664.00,869.00 664.00,835.00 664.00,835.00
             664.00,835.00 662.71,818.00 662.71,818.00
             661.88,811.67 661.04,811.35 661.00,804.00
             661.00,804.00 661.00,785.00 661.00,785.00
             660.99,775.67 658.64,765.28 657.30,756.00
             657.30,756.00 656.39,747.00 656.39,747.00
             656.39,747.00 653.17,730.00 653.17,730.00
             653.17,730.00 650.00,694.00 650.00,694.00
             649.98,683.00 650.82,665.14 649.00,655.00
             660.33,655.00 671.76,655.37 683.00,653.70
             683.00,653.70 696.00,650.21 696.00,650.21
             696.00,650.21 715.00,647.34 715.00,647.34
             715.00,647.34 734.00,642.47 734.00,642.47
             734.00,642.47 743.00,641.56 743.00,641.56
             743.00,641.56 758.00,638.46 758.00,638.46
             758.00,638.46 766.00,637.71 766.00,637.71
             766.00,637.71 783.00,634.40 783.00,634.40
             783.00,634.40 795.00,631.37 795.00,631.37
             799.11,630.57 800.89,631.28 806.00,629.45
             815.55,626.04 822.28,617.12 822.91,607.00
             823.89,591.10 811.27,580.18 796.00,580.15
             796.00,580.15 783.00,580.15 783.00,580.15
             783.00,580.15 772.00,583.34 772.00,583.34
             772.00,583.34 747.00,588.56 747.00,588.56
             747.00,588.56 728.00,590.44 728.00,590.44
             728.00,590.44 716.00,592.92 716.00,592.92
             716.00,592.92 708.00,595.47 708.00,595.47
             708.00,595.47 696.00,597.00 696.00,597.00
             696.00,597.00 679.00,601.32 679.00,601.32
             679.00,601.32 662.00,603.83 662.00,603.83
             656.65,604.30 653.05,602.67 648.00,602.08
             648.00,602.08 633.00,602.08 633.00,602.08
             624.07,601.96 621.76,600.30 614.00,599.14
             614.00,599.14 602.00,599.14 602.00,599.14
             602.00,599.14 587.00,598.00 587.00,598.00
             587.00,598.00 529.00,598.00 529.00,598.00
             529.00,598.00 505.00,595.00 505.00,595.00
             487.58,594.80 464.88,592.50 452.21,607.02
             437.53,623.83 450.82,650.20 473.00,648.91
             473.00,648.91 492.00,646.01 492.00,646.01
             492.00,646.01 519.00,649.00 519.00,649.00
             519.00,649.00 577.00,649.00 577.00,649.00
             577.00,649.00 597.08,651.00 597.08,651.00 Z" />
</svg>
