<?xml version="1.0" encoding="UTF-8" standalone="no"?>
<!DOCTYPE svg PUBLIC "-//W3C//DTD SVG 20010904//EN"
              "http://www.w3.org/TR/2001/REC-SVG-20010904/DTD/svg10.dtd">

<svg xmlns="http://www.w3.org/2000/svg"
     width="3.6in" height="3.6in"
     viewBox="0 0 1080 1080">
  <path id="Selection"
        fill="#6fff8e" stroke="none" stroke-width="1"
        d="M 83.00,602.00
           C 90.52,599.79 95.35,594.30 102.00,590.31
             113.05,583.67 119.99,582.59 130.00,574.00
             140.93,564.62 161.04,548.53 168.45,537.00
             171.59,532.12 171.27,530.61 173.20,526.00
             174.92,521.88 176.79,519.75 178.07,515.00
             179.73,508.89 180.07,496.55 180.00,490.00
             179.88,480.38 176.91,472.99 174.49,464.00
             174.49,464.00 171.77,454.00 171.77,454.00
             171.77,454.00 164.20,434.00 164.20,434.00
             164.20,434.00 161.07,420.00 161.07,420.00
             161.07,420.00 158.62,413.00 158.62,413.00
             158.62,413.00 156.79,405.00 156.79,405.00
             156.79,405.00 147.78,377.00 147.78,377.00
             147.78,377.00 141.64,364.00 141.64,364.00
             141.64,364.00 136.44,336.00 136.44,336.00
             136.44,336.00 135.32,327.00 135.32,327.00
             135.32,327.00 131.80,314.00 131.80,314.00
             131.80,314.00 129.60,298.00 129.60,298.00
             128.31,291.53 126.08,283.34 126.00,277.00
             125.96,272.89 125.74,262.50 126.53,259.00
             128.27,251.26 132.65,244.19 135.86,237.00
             139.89,227.98 145.55,218.64 156.00,216.39
             161.15,215.28 165.97,217.05 171.00,217.71
             171.00,217.71 188.00,219.30 188.00,219.30
             188.00,219.30 201.00,221.83 201.00,221.83
             212.21,222.93 222.89,217.44 227.65,207.00
             228.90,204.25 229.72,201.02 229.91,198.00
             230.71,184.99 222.54,176.13 211.00,171.61
             202.43,168.26 199.29,168.90 191.00,167.70
             191.00,167.70 183.00,166.17 183.00,166.17
             183.00,166.17 153.00,165.00 153.00,165.00
             147.24,165.01 141.47,165.61 136.00,167.55
             127.10,170.70 108.39,182.73 102.47,190.00
             100.27,192.69 93.75,202.92 92.35,206.00
             92.35,206.00 88.88,215.00 88.88,215.00
             88.88,215.00 81.35,228.00 81.35,228.00
             77.93,235.58 75.01,248.63 75.00,257.00
             75.00,257.00 75.00,287.00 75.00,287.00
             75.09,294.24 77.30,300.95 78.54,308.00
             78.54,308.00 79.80,320.00 79.80,320.00
             79.80,320.00 81.92,330.00 81.92,330.00
             81.92,330.00 84.47,338.00 84.47,338.00
             84.47,338.00 85.44,347.00 85.44,347.00
             85.44,347.00 91.66,378.00 91.66,378.00
             91.66,378.00 103.26,408.00 103.26,408.00
             103.26,408.00 107.86,428.00 107.86,428.00
             107.86,428.00 111.51,438.00 111.51,438.00
             111.51,438.00 114.55,451.00 114.55,451.00
             117.95,460.66 122.31,469.97 124.45,480.00
             125.62,485.50 128.98,490.79 127.77,496.17
             124.72,509.78 118.65,514.14 109.00,523.09
             105.02,526.77 99.57,532.21 95.00,535.01
             95.00,535.01 80.00,541.92 80.00,541.92
             80.00,541.92 50.00,562.20 50.00,562.20
             50.00,562.20 42.00,566.55 42.00,566.55
             30.92,573.69 20.18,585.00 21.09,599.00
             21.37,603.26 22.90,610.22 24.83,614.00
             28.85,621.85 47.84,641.13 55.00,647.27
             59.09,650.78 65.50,656.80 70.00,659.18
             70.00,659.18 88.96,667.80 88.96,667.80
             93.06,670.15 94.61,672.69 98.01,675.83
             108.00,685.04 111.98,686.58 112.15,701.00
             112.15,701.00 112.15,726.00 112.15,726.00
             112.15,726.00 114.92,739.00 114.92,739.00
             114.92,739.00 116.79,746.00 116.79,746.00
             117.67,752.27 115.94,751.97 118.64,762.00
             118.64,762.00 122.91,774.00 122.91,774.00
             122.91,774.00 125.52,784.00 125.52,784.00
             128.76,793.95 132.20,801.40 134.20,812.00
             134.20,812.00 136.29,832.00 136.29,832.00
             138.39,847.97 146.31,874.10 157.17,885.99
             164.28,893.77 173.78,898.20 183.00,902.82
             188.73,905.68 190.22,907.25 197.00,909.48
             202.72,911.37 209.07,912.50 215.00,913.54
             215.00,913.54 229.00,914.58 229.00,914.58
             245.68,916.77 261.00,905.66 259.91,888.00
             259.09,874.73 247.58,864.84 235.00,862.47
             235.00,862.47 221.00,861.47 221.00,861.47
             216.40,860.36 213.23,857.26 209.00,855.35
             202.60,852.45 197.63,853.24 193.90,845.98
             189.24,836.91 188.99,828.70 187.71,819.00
             187.71,819.00 186.17,810.00 186.17,810.00
             186.17,810.00 184.32,793.00 184.32,793.00
             184.32,793.00 175.55,768.00 175.55,768.00
             175.55,768.00 172.14,756.00 172.14,756.00
             172.14,756.00 168.63,747.00 168.63,747.00
             168.63,747.00 167.53,732.00 167.53,732.00
             165.82,722.86 164.02,725.10 163.77,713.00
             163.77,713.00 163.77,683.00 163.77,683.00
             162.61,678.09 158.12,667.57 155.74,663.00
             148.88,649.83 126.81,628.56 114.00,620.93
             114.00,620.93 98.00,614.47 98.00,614.47
             93.86,612.30 86.50,605.42 83.00,602.00 Z
           M 918.00,279.00
           C 919.92,285.53 925.37,288.94 929.70,294.00
             934.30,299.36 941.55,310.69 944.97,317.00
             944.97,317.00 956.45,340.00 956.45,340.00
             961.79,354.94 965.98,378.18 966.00,394.00
             966.00,394.00 967.00,411.00 967.00,411.00
             967.00,411.00 967.00,424.00 967.00,424.00
             966.91,430.77 965.06,433.58 963.66,440.00
             961.64,449.31 959.66,459.00 956.45,468.00
             956.45,468.00 947.86,488.00 947.86,488.00
             944.62,497.24 939.05,519.48 939.00,529.00
             939.00,529.00 939.00,538.00 939.00,538.00
             939.03,558.45 947.96,567.50 961.72,581.28
             961.72,581.28 971.17,591.99 971.17,591.99
             971.17,591.99 978.00,599.00 978.00,599.00
             967.96,600.03 959.97,603.91 952.00,609.87
             943.05,616.57 929.38,625.26 925.55,636.00
             922.71,643.95 924.79,656.18 927.55,664.00
             927.55,664.00 933.58,679.00 933.58,679.00
             933.58,679.00 939.53,698.00 939.53,698.00
             939.53,698.00 942.38,716.00 942.38,716.00
             946.78,733.11 951.97,745.75 952.00,764.00
             952.01,769.91 952.44,785.11 951.32,790.00
             949.79,796.65 944.94,803.96 944.00,813.00
             935.66,814.57 935.33,817.40 929.00,819.86
             929.00,819.86 918.00,822.86 918.00,822.86
             918.00,822.86 907.00,827.54 907.00,827.54
             907.00,827.54 897.00,830.55 897.00,830.55
             897.00,830.55 889.00,833.78 889.00,833.78
             880.49,836.54 865.45,841.24 857.00,842.56
             849.80,843.69 845.45,841.91 838.00,844.93
             828.96,848.59 822.69,857.27 822.09,867.00
             821.11,882.90 833.73,893.82 849.00,894.00
             849.00,894.00 862.00,894.00 862.00,894.00
             872.61,893.87 896.62,886.65 907.00,882.77
             907.00,882.77 923.00,876.49 923.00,876.49
             941.29,870.39 965.79,863.82 979.99,850.83
             989.87,841.78 993.33,830.42 996.91,818.00
             999.54,808.87 1003.96,797.24 1004.00,788.00
             1004.00,788.00 1004.00,756.00 1004.00,756.00
             1003.90,747.78 1000.85,737.30 999.20,729.00
             999.20,729.00 997.08,714.00 997.08,714.00
             997.08,714.00 992.53,701.00 992.53,701.00
             992.53,701.00 991.71,693.00 991.71,693.00
             991.71,693.00 989.57,682.00 989.57,682.00
             988.28,676.42 987.16,675.59 985.55,671.00
             985.55,671.00 983.33,662.00 983.33,662.00
             982.89,660.24 981.19,656.02 981.62,654.52
             983.02,649.71 998.40,646.39 1003.00,644.79
             1018.94,639.23 1034.86,636.71 1043.24,620.00
             1045.09,616.31 1046.38,613.16 1046.83,609.00
             1047.88,599.16 1044.63,594.90 1039.92,587.00
             1039.92,587.00 1035.37,579.00 1035.37,579.00
             1026.51,566.63 1013.43,561.38 1002.12,547.00
             999.28,543.40 991.20,536.52 990.73,532.99
             990.48,531.12 992.13,524.29 992.60,522.00
             996.38,503.56 1002.41,496.52 1006.48,484.00
             1006.48,484.00 1008.90,473.00 1008.90,473.00
             1008.90,473.00 1012.08,463.00 1012.08,463.00
             1012.08,463.00 1014.24,453.00 1014.24,453.00
             1016.83,442.35 1018.98,441.47 1019.00,429.00
             1019.00,429.00 1019.00,403.00 1019.00,403.00
             1019.00,403.00 1017.08,389.00 1017.08,389.00
             1017.08,389.00 1017.08,378.00 1017.08,378.00
             1016.91,371.05 1015.77,369.76 1015.17,364.00
             1013.33,346.43 1009.08,329.09 1001.69,313.00
             1001.69,313.00 995.37,301.00 995.37,301.00
             995.37,301.00 990.21,290.00 990.21,290.00
             984.91,280.25 975.59,266.57 968.54,258.00
             958.22,245.46 952.43,243.69 943.00,234.91
             933.66,226.21 935.56,223.97 928.98,218.21
             928.98,218.21 922.00,213.37 922.00,213.37
             922.00,213.37 915.00,207.63 915.00,207.63
             915.00,207.63 897.00,198.69 897.00,198.69
             897.00,198.69 879.00,187.35 879.00,187.35
             870.59,182.66 846.71,175.11 837.00,175.00
             819.79,174.81 800.87,184.16 802.09,204.00
             802.84,216.08 812.05,225.94 824.00,227.70
             830.89,228.72 833.32,226.43 840.00,228.52
             855.82,233.47 856.26,236.62 869.00,243.65
             875.22,247.09 881.05,248.22 886.99,252.96
             886.99,252.96 905.00,271.00 905.00,271.00
             909.64,275.63 911.22,278.45 918.00,279.00 Z
           M 224.00,276.47
           C 210.66,279.64 202.13,290.10 203.09,304.00
             203.53,310.45 205.67,312.53 206.88,318.00
             208.16,323.79 208.94,331.71 211.35,337.00
             216.35,347.97 228.28,353.74 240.00,351.53
             251.19,349.42 259.62,340.33 260.83,329.00
             261.49,322.81 260.04,319.69 259.29,314.00
             258.44,307.53 258.66,302.42 256.07,296.00
             250.60,282.45 238.51,274.44 224.00,276.47 Z
           M 773.00,284.47
           C 752.74,289.28 751.96,304.89 749.71,322.00
             748.75,329.29 746.82,333.21 748.93,341.00
             752.52,354.26 765.64,362.05 779.00,359.53
             797.69,356.01 800.74,338.90 802.09,323.00
             802.67,316.08 805.04,312.99 803.53,305.00
             800.71,290.01 787.47,282.45 773.00,284.47 Z
           M 858.00,290.00
           C 858.00,290.00 861.00,293.00 861.00,293.00
             861.00,293.00 858.00,290.00 858.00,290.00 Z
           M 833.00,295.57
           C 813.87,300.01 813.63,312.25 809.99,328.00
             809.99,328.00 805.76,343.00 805.76,343.00
             803.76,351.12 800.72,354.73 802.47,364.00
             805.16,378.30 818.84,387.20 833.00,384.53
             849.75,381.37 852.98,367.93 856.91,354.00
             856.91,354.00 859.46,343.17 859.46,343.17
             863.66,327.14 869.32,310.08 852.00,298.97
             849.59,297.42 846.79,296.32 844.00,295.57
             840.08,294.78 836.94,294.92 833.00,295.57 Z
           M 169.00,297.38
           C 165.56,298.28 163.04,299.02 160.00,300.97
             150.77,306.89 146.57,317.32 148.46,328.00
             148.46,328.00 152.34,342.00 152.34,342.00
             152.34,342.00 155.22,355.00 155.22,355.00
             158.65,365.85 166.28,374.97 178.00,376.62
             180.83,377.12 184.19,377.06 187.00,376.62
             199.84,374.11 208.39,362.93 207.96,350.00
             207.74,343.62 205.66,340.75 204.24,335.00
             204.24,335.00 200.49,322.00 200.49,322.00
             200.49,322.00 198.07,313.00 198.07,313.00
             194.66,304.57 186.97,298.62 178.00,297.38
             174.75,296.82 172.21,297.02 169.00,297.38 Z
           M 303.00,339.28
           C 295.27,341.30 289.42,344.93 285.36,352.00
             275.98,368.38 286.91,389.73 306.00,390.91
             333.58,392.61 343.48,354.36 319.00,341.83
             315.99,340.29 312.38,339.30 309.00,339.28
             306.63,338.95 305.30,339.15 303.00,339.28 Z
           M 319.00,428.47
           C 307.36,431.23 298.85,439.71 298.09,452.00
             297.58,460.29 300.95,461.92 301.00,472.00
             301.06,483.32 301.96,481.25 302.92,490.00
             302.92,490.00 302.92,501.00 302.92,501.00
             302.92,501.00 307.00,536.00 307.00,536.00
             307.00,536.00 307.00,573.00 307.00,573.00
             307.00,573.00 305.71,595.00 305.71,595.00
             305.71,595.00 303.09,609.00 303.09,609.00
             302.74,613.05 301.93,623.54 299.27,626.44
             295.87,630.15 287.64,630.05 283.00,630.00
             269.15,629.84 254.47,625.17 243.04,636.10
             240.02,639.00 237.95,642.06 236.55,646.00
             235.40,649.19 234.88,652.61 235.09,656.00
             235.77,666.94 243.44,676.21 254.00,679.07
             258.34,680.25 260.15,679.74 264.00,680.30
             269.52,681.09 269.25,681.92 276.00,682.00
             285.78,682.11 296.52,682.71 306.00,680.34
             306.00,680.34 315.00,677.49 315.00,677.49
             315.00,677.49 323.00,675.45 323.00,675.45
             328.70,673.41 337.84,666.53 341.79,661.99
             350.06,652.47 352.83,630.38 354.17,618.00
             354.17,618.00 356.94,605.00 356.94,605.00
             356.94,605.00 356.94,590.00 356.94,590.00
             357.88,582.90 358.99,582.96 359.00,574.00
             359.00,574.00 359.00,535.00 359.00,535.00
             358.99,526.65 358.23,527.17 357.29,520.00
             357.29,520.00 354.00,488.00 354.00,488.00
             354.00,488.00 353.00,470.00 353.00,470.00
             353.00,470.00 353.00,459.00 353.00,459.00
             352.78,440.56 337.65,425.86 319.00,428.47 Z
           M 451.00,634.84
           C 445.87,634.08 442.22,633.48 437.00,634.84
             420.86,638.38 412.56,656.09 419.35,671.00
             424.31,681.87 440.04,691.34 452.00,690.96
             463.49,690.59 474.58,686.75 483.00,678.91
             489.27,673.07 497.17,662.87 500.62,655.00
             506.56,641.68 503.82,631.23 500.62,618.00
             499.37,612.96 500.50,612.34 497.77,605.00
             495.09,597.80 491.75,593.54 488.00,587.00
             488.00,587.00 482.04,576.00 482.04,576.00
             482.04,576.00 463.53,551.00 463.53,551.00
             463.53,551.00 454.46,541.00 454.46,541.00
             454.46,541.00 447.54,532.00 447.54,532.00
             447.54,532.00 439.39,523.00 439.39,523.00
             436.92,519.86 430.71,508.78 429.63,505.00
             428.46,500.86 428.75,491.78 432.43,488.93
             434.84,487.06 439.53,487.28 445.00,483.36
             451.37,478.81 455.42,471.84 455.91,464.00
             456.89,448.10 444.27,437.18 429.00,437.00
             421.20,436.91 413.37,436.95 406.00,439.93
             393.00,445.18 382.70,460.62 379.68,474.00
             379.68,474.00 378.00,492.00 378.00,492.00
             378.00,492.00 378.00,511.00 378.00,511.00
             378.02,525.96 386.04,535.69 393.54,548.00
             393.54,548.00 398.22,556.00 398.22,556.00
             398.22,556.00 418.70,579.00 418.70,579.00
             427.92,589.76 441.09,608.05 446.66,621.00
             446.66,621.00 451.00,634.84 451.00,634.84 Z
           M 730.00,537.00
           C 735.90,539.93 737.83,544.62 741.17,550.00
             748.30,561.51 755.50,584.48 758.20,598.00
             758.98,601.92 759.69,606.37 761.35,610.00
             765.67,619.47 775.60,625.55 786.00,624.91
             789.02,624.72 792.25,623.90 795.00,622.65
             815.38,613.36 810.20,591.21 806.55,574.00
             806.55,574.00 802.16,560.00 802.16,560.00
             802.16,560.00 798.45,547.00 798.45,547.00
             796.35,541.16 788.64,527.80 785.33,522.00
             777.90,508.96 768.20,494.76 754.00,488.35
             744.77,484.18 735.69,484.86 726.00,485.83
             716.99,486.73 715.41,486.64 707.00,491.00
             706.40,483.85 705.45,484.33 704.37,479.00
             704.37,479.00 703.08,471.00 703.08,471.00
             699.51,457.42 690.16,446.16 675.00,447.09
             660.35,448.00 650.17,460.59 651.09,475.00
             651.09,475.00 654.54,497.00 654.54,497.00
             654.54,497.00 655.44,507.00 655.44,507.00
             655.44,507.00 658.56,523.00 658.56,523.00
             658.56,523.00 662.29,556.00 662.29,556.00
             662.29,556.00 667.20,580.00 667.20,580.00
             667.20,580.00 669.47,596.00 669.47,596.00
             670.36,600.78 676.56,621.25 678.97,625.00
             689.23,641.01 712.77,641.01 723.03,625.00
             729.26,615.28 726.12,608.96 726.00,599.00
             726.00,599.00 726.00,563.00 726.00,563.00
             726.00,563.00 730.00,537.00 730.00,537.00 Z
           M 878.00,461.28
           C 870.27,463.30 864.42,466.93 860.36,474.00
             851.05,490.24 862.36,510.76 881.00,511.91
             908.17,513.58 918.54,476.39 894.00,463.83
             890.99,462.29 887.38,461.30 884.00,461.28
             881.63,460.95 880.30,461.15 878.00,461.28 Z
           M 569.00,465.47
           C 556.39,468.47 547.08,478.60 538.85,488.00
             528.90,499.36 524.94,505.73 520.26,520.00
             520.26,520.00 517.47,529.00 517.47,529.00
             517.47,529.00 516.39,544.00 516.39,544.00
             514.18,556.57 513.06,563.02 513.00,576.00
             513.00,576.00 512.17,592.00 512.17,592.00
             512.81,598.51 514.93,604.77 516.80,611.00
             520.13,622.12 520.85,622.11 526.23,632.00
             526.23,632.00 533.63,645.00 533.63,645.00
             540.45,654.51 551.24,660.86 563.00,661.00
             579.86,661.19 596.78,652.02 610.00,642.13
             619.46,635.04 623.80,630.20 632.00,622.00
             643.49,610.51 650.97,605.18 651.00,588.00
             651.00,588.00 651.00,568.00 651.00,568.00
             650.96,558.72 645.00,532.93 641.61,524.00
             639.57,518.62 638.76,512.78 635.36,508.00
             632.23,503.59 620.52,491.33 616.00,488.22
             611.17,484.90 608.20,484.47 606.10,483.08
             602.07,480.41 602.20,477.12 596.96,472.10
             589.32,464.80 578.98,464.07 569.00,465.47 Z
           M 579.00,522.00
           C 579.00,522.00 590.59,537.00 590.59,537.00
             594.84,544.72 595.83,553.54 597.66,562.00
             598.76,567.07 601.27,574.93 599.40,580.00
             597.99,583.84 593.06,587.76 590.00,590.42
             583.24,596.30 579.30,601.57 571.00,606.00
             568.72,601.26 566.52,598.25 565.24,593.00
             561.79,578.88 565.91,562.97 568.39,549.00
             570.43,537.44 567.85,530.71 579.00,522.00 Z
           M 903.00,549.47
           C 898.18,550.61 894.83,551.88 891.02,555.21
             871.05,572.64 886.54,605.53 913.00,600.53
             931.35,597.07 940.22,575.18 929.36,560.00
             922.93,551.01 913.61,547.99 903.00,549.47 Z" />
</svg>
