<?xml version="1.0" encoding="UTF-8" standalone="no"?>
<!DOCTYPE svg PUBLIC "-//W3C//DTD SVG 20010904//EN"
              "http://www.w3.org/TR/2001/REC-SVG-20010904/DTD/svg10.dtd">

<svg xmlns="http://www.w3.org/2000/svg"
     width="15in" height="15in"
     viewBox="0 0 1080 1080">
  <path id="Selection"
        fill="#3cb2ff" stroke="none" stroke-width="1"
        d="M 438.00,282.00
           C 425.07,275.16 404.95,260.10 391.00,257.47
             378.77,255.16 372.97,261.50 368.00,262.07
             364.70,262.44 349.23,258.72 345.00,257.79
             345.00,257.79 328.00,252.47 328.00,252.47
             328.00,252.47 319.00,251.39 319.00,251.39
             319.00,251.39 299.00,247.44 299.00,247.44
             299.00,247.44 287.00,246.00 287.00,246.00
             273.37,243.34 269.92,240.19 254.00,240.00
             244.45,239.89 235.04,239.27 226.00,242.93
             205.59,251.19 192.10,272.85 185.52,293.00
             185.52,293.00 183.23,302.00 183.23,302.00
             183.23,302.00 179.80,314.00 179.80,314.00
             179.80,314.00 178.71,324.00 178.71,324.00
             178.71,324.00 176.83,338.00 176.83,338.00
             176.83,338.00 174.00,357.00 174.00,357.00
             174.00,357.00 174.00,378.00 174.00,378.00
             174.03,395.36 183.71,410.88 192.82,425.00
             192.82,425.00 201.67,438.00 201.67,438.00
             201.67,438.00 211.47,449.00 211.47,449.00
             211.47,449.00 218.91,461.00 218.91,461.00
             218.91,461.00 235.62,482.00 235.62,482.00
             235.62,482.00 241.52,491.00 241.52,491.00
             249.04,502.22 256.35,513.44 266.00,523.00
             266.00,523.00 277.00,533.04 277.00,533.04
             292.61,547.97 287.54,544.78 306.00,558.63
             306.00,558.63 318.99,568.37 318.99,568.37
             320.45,569.50 323.07,571.32 323.55,573.17
             324.24,575.87 320.98,579.03 319.45,581.00
             319.45,581.00 307.54,599.00 307.54,599.00
             307.54,599.00 290.09,616.04 290.09,616.04
             290.09,616.04 279.70,629.00 279.70,629.00
             279.70,629.00 271.46,638.00 271.46,638.00
             266.90,643.55 256.30,660.48 253.31,667.00
             253.31,667.00 239.47,706.00 239.47,706.00
             239.47,706.00 238.83,713.00 238.83,713.00
             238.83,713.00 237.00,744.00 237.00,744.00
             237.00,754.00 236.17,764.34 239.22,774.00
             241.17,780.19 244.09,783.65 246.97,789.00
             250.08,794.78 250.49,799.55 255.21,804.99
             265.29,816.59 282.74,823.98 298.00,824.00
             298.00,824.00 362.00,824.00 362.00,824.00
             371.11,823.99 380.09,822.38 389.00,820.60
             400.21,818.36 407.71,817.70 418.00,812.00
             418.00,812.00 419.80,819.00 419.80,819.00
             420.35,822.64 419.96,823.96 421.22,828.00
             425.29,841.10 438.10,866.08 445.47,878.00
             450.31,885.82 452.17,890.84 459.09,897.96
             465.22,904.27 481.69,915.48 490.00,918.45
             490.00,918.45 500.00,920.92 500.00,920.92
             510.25,923.69 514.83,925.98 526.00,926.00
             547.78,926.03 553.77,925.77 575.00,919.09
             575.00,919.09 584.00,917.07 584.00,917.07
             584.00,917.07 593.00,913.55 593.00,913.55
             603.08,909.96 608.70,909.02 616.96,900.91
             625.22,892.79 625.98,883.61 630.31,874.00
             630.31,874.00 639.45,856.00 639.45,856.00
             639.45,856.00 641.92,846.00 641.92,846.00
             641.92,846.00 647.32,828.00 647.32,828.00
             647.32,828.00 648.29,820.00 648.29,820.00
             648.29,820.00 650.60,808.00 650.60,808.00
             650.60,808.00 657.00,781.00 657.00,781.00
             657.00,781.00 673.00,786.57 673.00,786.57
             673.00,786.57 706.00,792.21 706.00,792.21
             715.87,794.31 730.33,797.98 740.00,798.00
             740.00,798.00 766.00,798.00 766.00,798.00
             774.42,797.90 782.73,795.07 791.00,793.58
             805.24,791.00 804.61,789.44 815.00,780.28
             825.52,771.01 830.93,766.75 831.00,752.00
             831.00,752.00 831.00,711.00 831.00,711.00
             830.90,702.88 829.63,703.42 828.37,697.00
             828.37,697.00 827.07,688.00 827.07,688.00
             824.49,678.46 819.48,672.09 814.61,664.00
             814.61,664.00 810.07,655.00 810.07,655.00
             810.07,655.00 803.91,646.00 803.91,646.00
             803.91,646.00 797.08,634.00 797.08,634.00
             797.08,634.00 791.90,626.00 791.90,626.00
             785.81,614.95 787.53,614.88 778.63,603.00
             778.63,603.00 770.83,593.00 770.83,593.00
             767.04,588.76 764.75,586.92 761.16,582.00
             761.16,582.00 749.46,563.00 749.46,563.00
             747.19,559.54 740.04,551.96 740.81,548.00
             741.25,545.72 745.02,541.23 746.45,539.00
             746.45,539.00 751.09,531.00 751.09,531.00
             751.09,531.00 759.13,520.00 759.13,520.00
             759.13,520.00 776.46,497.00 776.46,497.00
             776.46,497.00 785.54,487.00 785.54,487.00
             785.54,487.00 794.17,476.00 794.17,476.00
             794.17,476.00 810.83,459.00 810.83,459.00
             820.24,448.46 828.74,435.38 833.45,422.00
             833.45,422.00 836.09,412.00 836.09,412.00
             836.09,412.00 840.08,401.00 840.08,401.00
             840.08,401.00 842.55,391.00 842.55,391.00
             842.55,391.00 846.39,382.00 846.39,382.00
             850.97,370.29 856.85,352.51 857.00,340.00
             857.00,340.00 857.00,308.00 857.00,308.00
             856.92,301.26 853.86,289.06 852.45,282.00
             850.17,270.65 845.48,255.86 837.79,247.01
             830.64,238.79 820.36,233.33 811.00,228.14
             784.58,213.49 762.74,210.95 733.00,211.00
             718.63,211.02 697.58,216.73 684.00,221.56
             684.00,221.56 672.00,224.86 672.00,224.86
             659.34,229.31 644.15,238.55 637.00,250.00
             637.00,250.00 632.45,235.00 632.45,235.00
             632.45,235.00 621.90,203.00 621.90,203.00
             621.90,203.00 620.08,194.00 620.08,194.00
             616.23,179.56 608.49,160.09 595.00,152.36
             587.07,147.82 577.82,147.90 569.00,148.00
             566.59,148.03 559.87,149.08 558.42,148.55
             558.42,148.55 550.00,142.36 550.00,142.36
             543.25,138.50 535.30,138.15 528.00,140.52
             513.76,145.15 509.55,151.60 499.91,162.00
             481.12,182.28 462.37,222.88 451.80,249.00
             451.80,249.00 438.00,282.00 438.00,282.00 Z
           M 542.00,195.00
           C 546.55,199.07 549.87,201.38 556.00,202.53
             561.30,203.53 565.63,202.10 568.00,204.57
             570.25,206.93 572.17,218.92 573.52,223.00
             573.52,223.00 584.92,259.00 584.92,259.00
             584.92,259.00 588.60,272.00 588.60,272.00
             589.38,275.84 593.23,289.22 591.94,291.91
             590.60,294.69 583.71,299.34 581.00,301.37
             581.00,301.37 559.00,319.58 559.00,319.58
             559.00,319.58 541.17,336.00 541.17,336.00
             539.01,338.36 535.35,343.70 532.00,343.84
             528.22,344.01 520.97,335.84 518.00,333.30
             518.00,333.30 502.00,321.11 502.00,321.11
             502.00,321.11 494.00,314.63 494.00,314.63
             494.00,314.63 483.00,308.00 483.00,308.00
             483.00,308.00 494.57,281.00 494.57,281.00
             494.57,281.00 500.87,264.00 500.87,264.00
             500.87,264.00 518.22,229.00 518.22,229.00
             518.22,229.00 523.90,217.00 523.90,217.00
             527.67,210.17 535.71,199.51 542.00,195.00 Z
           M 707.00,504.00
           C 707.00,504.00 705.00,504.00 705.00,504.00
             700.26,496.53 681.79,476.27 675.00,470.28
             669.51,465.45 656.90,453.74 654.58,447.00
             653.89,444.97 654.00,442.16 654.00,440.00
             654.00,440.00 654.00,350.00 654.00,350.00
             654.00,350.00 650.06,319.00 650.06,319.00
             649.38,312.48 655.56,308.44 660.00,304.58
             660.00,304.58 669.28,295.30 669.28,295.30
             669.28,295.30 676.00,289.70 676.00,289.70
             676.00,289.70 685.00,281.42 685.00,281.42
             687.73,279.05 692.02,274.84 695.00,273.30
             700.65,270.39 707.00,269.56 713.00,267.79
             722.69,264.93 727.52,263.02 738.00,263.00
             747.50,262.99 766.33,264.45 775.00,267.66
             777.66,268.64 780.52,270.54 783.00,271.99
             787.42,274.57 794.48,277.37 797.58,281.10
             801.40,285.69 804.92,306.61 805.00,313.00
             805.00,313.00 805.00,334.00 805.00,334.00
             804.98,348.03 799.39,358.23 794.86,371.00
             794.86,371.00 783.45,407.00 783.45,407.00
             778.57,420.66 768.32,427.75 759.28,438.00
             759.28,438.00 730.72,472.00 730.72,472.00
             724.88,479.01 710.84,496.55 707.00,504.00 Z
           M 358.00,531.00
           C 350.99,528.67 339.58,518.63 333.00,513.91
             322.83,506.60 321.61,504.27 313.00,496.04
             307.11,490.40 304.24,489.01 298.67,482.00
             298.67,482.00 283.46,460.00 283.46,460.00
             283.46,460.00 278.78,452.00 278.78,452.00
             278.78,452.00 265.89,437.00 265.89,437.00
             265.89,437.00 253.36,418.00 253.36,418.00
             253.36,418.00 241.39,404.00 241.39,404.00
             237.86,399.52 227.28,382.20 225.79,377.00
             225.06,374.47 225.03,372.59 225.00,370.00
             224.88,359.43 226.51,358.13 227.71,349.00
             227.71,349.00 229.83,333.00 229.83,333.00
             229.83,333.00 230.47,326.00 230.47,326.00
             230.47,326.00 234.38,312.00 234.38,312.00
             235.80,306.57 240.17,294.75 245.17,292.03
             248.39,290.28 252.64,291.88 256.00,292.55
             256.00,292.55 280.00,297.54 280.00,297.54
             280.00,297.54 289.00,298.44 289.00,298.44
             289.00,298.44 308.00,302.20 308.00,302.20
             308.00,302.20 316.00,303.37 316.00,303.37
             316.00,303.37 330.00,307.79 330.00,307.79
             330.00,307.79 359.00,313.92 359.00,313.92
             359.00,313.92 374.00,319.01 374.00,319.01
             374.00,319.01 383.00,322.78 383.00,322.78
             393.26,325.97 398.01,321.41 402.00,321.93
             405.18,322.35 410.97,327.50 414.00,329.45
             416.73,331.22 420.91,332.61 421.60,336.10
             422.15,338.95 418.51,349.26 417.65,353.00
             417.65,353.00 414.78,366.00 414.78,366.00
             414.78,366.00 410.92,376.00 410.92,376.00
             410.92,376.00 408.23,388.00 408.23,388.00
             408.23,388.00 404.21,399.00 404.21,399.00
             404.21,399.00 399.58,421.00 399.58,421.00
             399.58,421.00 392.29,457.00 392.29,457.00
             392.29,457.00 391.56,465.00 391.56,465.00
             391.56,465.00 389.17,478.00 389.17,478.00
             389.17,478.00 387.40,493.00 387.40,493.00
             386.03,496.69 380.13,501.70 377.30,505.00
             377.30,505.00 358.00,531.00 358.00,531.00 Z
           M 603.00,351.00
           C 603.00,351.00 603.00,400.00 603.00,400.00
             595.66,397.84 592.19,393.54 586.00,389.55
             586.00,389.55 579.04,385.37 579.04,385.37
             576.92,383.76 574.00,380.88 574.07,378.00
             574.14,375.06 578.07,371.03 580.04,369.01
             583.63,365.34 598.79,352.99 603.00,351.00 Z
           M 470.00,361.00
           C 470.00,361.00 483.00,371.30 483.00,371.30
             483.00,371.30 494.00,381.00 494.00,381.00
             494.00,381.00 469.17,405.00 469.17,405.00
             469.17,405.00 452.00,426.00 452.00,426.00
             452.54,414.24 454.79,413.47 457.78,404.00
             457.78,404.00 460.77,391.00 460.77,391.00
             460.77,391.00 464.79,380.00 464.79,380.00
             466.56,374.10 466.71,365.99 470.00,361.00 Z
           M 536.00,415.00
           C 545.04,423.84 555.38,431.61 566.00,438.45
             566.00,438.45 574.00,443.10 574.00,443.10
             574.00,443.10 583.00,450.10 583.00,450.10
             593.61,457.53 602.97,461.52 603.00,476.00
             603.00,476.00 603.00,508.00 603.00,508.00
             602.98,518.30 601.09,528.80 599.71,539.00
             598.74,546.24 598.01,545.61 598.09,554.00
             598.09,554.00 598.09,607.00 598.09,607.00
             598.02,611.23 599.52,618.68 598.09,622.00
             596.80,625.86 592.97,628.49 590.00,631.17
             590.00,631.17 569.00,648.09 569.00,648.09
             569.00,648.09 546.00,671.15 546.00,671.15
             543.74,673.15 539.02,677.90 536.00,678.13
             532.88,678.36 524.92,670.82 522.00,668.63
             522.00,668.63 511.00,660.55 511.00,660.55
             511.00,660.55 502.00,655.97 502.00,655.97
             502.00,655.97 485.00,645.53 485.00,645.53
             485.00,645.53 468.00,636.69 468.00,636.69
             468.00,636.69 452.00,625.22 452.00,625.22
             446.42,621.40 439.28,616.22 436.17,610.00
             435.04,607.74 434.01,589.55 434.00,586.00
             434.00,586.00 434.00,556.00 434.00,556.00
             434.00,556.00 435.04,545.00 435.04,545.00
             435.04,545.00 435.04,536.00 435.04,536.00
             435.04,536.00 439.86,513.00 439.86,513.00
             442.13,507.04 449.48,500.57 454.00,496.00
             454.00,496.00 472.17,476.21 472.17,476.21
             472.17,476.21 484.00,466.91 484.00,466.91
             497.42,454.47 499.27,448.23 509.30,437.04
             509.30,437.04 518.00,428.96 518.00,428.96
             524.85,422.43 527.64,419.80 536.00,415.00 Z
           M 452.00,426.00
           C 452.00,426.00 452.00,427.00 452.00,427.00
             452.00,427.00 451.00,426.00 451.00,426.00
             451.00,426.00 452.00,426.00 452.00,426.00 Z
           M 523.00,496.47
           C 513.21,498.79 509.33,502.61 504.09,511.00
             496.31,523.46 494.98,531.50 495.00,546.00
             495.02,561.80 503.72,577.64 521.00,578.72
             523.90,579.12 529.18,579.07 532.00,578.72
             538.08,577.39 540.96,575.03 546.00,571.91
             559.07,563.81 569.81,552.23 570.00,536.00
             570.16,522.26 569.42,511.53 557.00,502.64
             547.52,495.85 534.21,494.90 523.00,496.47 Z
           M 655.00,523.00
           C 655.00,523.00 667.37,539.00 667.37,539.00
             667.37,539.00 670.89,545.96 670.89,545.96
             670.89,545.96 665.00,553.09 665.00,553.09
             665.00,553.09 650.08,567.00 650.08,567.00
             650.08,567.00 650.08,552.00 650.08,552.00
             650.08,552.00 651.98,540.00 651.98,540.00
             652.30,535.24 652.52,526.84 655.00,523.00 Z
           M 704.00,588.00
           C 704.00,588.00 719.38,613.00 719.38,613.00
             719.38,613.00 739.78,638.00 739.78,638.00
             739.78,638.00 749.35,656.00 749.35,656.00
             749.35,656.00 755.46,665.00 755.46,665.00
             755.46,665.00 762.33,677.00 762.33,677.00
             771.51,692.82 779.77,701.26 780.00,721.00
             780.00,721.00 780.00,734.00 780.00,734.00
             780.00,736.13 780.23,739.73 778.98,741.49
             777.59,743.44 774.21,744.08 772.00,744.58
             767.32,745.63 755.77,746.94 751.00,747.00
             738.05,747.15 721.07,742.30 708.00,739.66
             708.00,739.66 686.00,736.08 686.00,736.08
             675.59,733.27 671.73,730.58 660.00,729.00
             660.00,729.00 659.00,712.00 659.00,712.00
             658.98,700.80 658.16,693.04 656.71,682.00
             656.71,682.00 653.00,654.00 653.00,654.00
             652.96,650.34 652.51,642.02 654.02,639.00
             655.75,635.55 666.51,625.65 669.91,622.00
             679.93,611.25 691.61,595.87 704.00,588.00 Z
           M 407.00,762.00
           C 398.31,763.23 398.84,764.62 392.00,766.78
             384.60,769.12 369.70,771.99 362.00,772.00
             362.00,772.00 307.00,772.00 307.00,772.00
             304.07,772.00 299.79,772.19 297.22,770.69
             294.33,769.00 293.21,764.88 291.66,762.00
             290.61,760.05 289.22,758.12 288.56,756.00
             286.85,750.51 288.74,731.35 289.58,725.00
             289.58,725.00 290.68,715.00 290.68,715.00
             291.81,709.99 294.22,705.71 296.08,701.00
             300.93,688.65 301.57,684.53 309.88,673.00
             309.88,673.00 347.70,632.00 347.70,632.00
             353.69,625.00 358.13,616.79 363.00,609.00
             368.63,611.72 370.19,615.22 373.89,620.00
             382.91,631.66 383.00,627.11 386.35,642.00
             386.35,642.00 389.71,659.00 389.71,659.00
             389.71,659.00 390.61,668.00 390.61,668.00
             390.61,668.00 399.39,711.00 399.39,711.00
             399.39,711.00 400.44,721.00 400.44,721.00
             402.59,734.76 407.00,747.98 407.00,762.00 Z
           M 458.00,743.00
           C 454.10,731.20 452.34,716.34 450.71,704.00
             450.71,704.00 447.00,685.00 447.00,685.00
             455.73,687.49 478.31,700.48 486.00,705.91
             488.48,707.66 496.80,713.06 496.80,716.09
             496.80,718.94 491.09,723.96 489.00,725.83
             479.29,734.51 469.75,737.95 458.00,743.00 Z
           M 605.00,685.00
           C 605.00,685.00 607.00,711.00 607.00,711.00
             607.00,711.00 587.00,704.00 587.00,704.00
             590.98,698.43 599.49,688.95 605.00,685.00 Z
           M 607.00,767.00
           C 601.20,782.09 599.83,799.23 596.63,815.00
             596.63,815.00 592.20,830.00 592.20,830.00
             592.20,830.00 590.34,837.00 590.34,837.00
             590.34,837.00 586.32,845.00 586.32,845.00
             586.32,845.00 578.21,862.35 578.21,862.35
             574.71,866.16 561.45,868.73 556.00,870.57
             550.60,872.40 542.69,873.93 537.00,874.00
             522.74,874.16 509.33,872.37 498.02,862.67
             493.13,858.48 492.11,854.20 488.82,849.00
             482.26,838.62 475.64,825.62 471.55,814.00
             471.55,814.00 467.00,795.00 467.00,795.00
             485.02,787.79 502.88,780.98 518.00,768.54
             518.00,768.54 529.00,758.09 529.00,758.09
             529.00,758.09 537.00,751.54 537.00,751.54
             539.40,749.56 542.99,745.55 546.00,745.12
             548.93,744.71 562.56,750.24 566.00,751.60
             566.00,751.60 584.00,757.23 584.00,757.23
             584.00,757.23 607.00,767.00 607.00,767.00 Z" />
</svg>
