<?xml version="1.0" encoding="UTF-8" standalone="no"?>
<!DOCTYPE svg PUBLIC "-//W3C//DTD SVG 20010904//EN"
              "http://www.w3.org/TR/2001/REC-SVG-20010904/DTD/svg10.dtd">

<svg xmlns="http://www.w3.org/2000/svg"
     width="15in" height="15in"
     viewBox="0 0 1080 1080">
  <path id="red"
        fill="#ff446c" stroke="none" stroke-width="1"
        d="M 545.00,379.00
           C 551.25,379.00 558.06,378.43 564.00,380.55
             571.76,383.31 583.38,392.79 588.70,399.00
             588.70,399.00 596.12,409.00 596.12,409.00
             596.12,409.00 616.47,433.00 616.47,433.00
             616.47,433.00 626.90,448.96 626.90,448.96
             626.90,448.96 635.68,458.01 635.68,458.01
             635.68,458.01 641.51,466.00 641.51,466.00
             641.51,466.00 657.28,487.00 657.28,487.00
             657.28,487.00 672.23,510.00 672.23,510.00
             674.04,513.31 678.12,521.24 681.30,522.94
             685.09,524.96 693.98,520.88 698.00,519.78
             702.65,518.52 711.79,519.06 717.00,519.00
             728.77,518.86 730.39,516.21 740.00,513.22
             745.54,511.50 748.00,512.45 753.00,511.32
             753.00,511.32 766.00,506.63 766.00,506.63
             766.00,506.63 777.00,505.70 777.00,505.70
             783.90,504.68 792.22,500.21 796.79,494.98
             803.41,487.40 808.38,468.09 809.71,458.00
             810.37,453.01 809.81,451.89 811.24,446.00
             811.24,446.00 814.70,434.00 814.70,434.00
             814.70,434.00 816.00,418.00 816.00,418.00
             817.94,408.08 820.98,398.14 821.00,388.00
             821.00,388.00 821.00,289.00 821.00,289.00
             821.00,289.00 818.00,263.00 818.00,263.00
             818.00,263.00 818.00,253.00 818.00,253.00
             816.91,244.41 813.88,230.30 807.90,224.04
             801.76,217.62 795.02,216.00 787.00,213.49
             777.73,210.59 769.94,207.12 760.00,207.00
             760.00,207.00 728.00,205.00 728.00,205.00
             721.55,204.92 718.11,203.69 712.00,202.61
             712.00,202.61 703.00,201.70 703.00,201.70
             694.61,200.49 694.00,199.02 684.00,198.96
             684.00,198.96 671.00,198.96 671.00,198.96
             671.00,198.96 661.00,197.92 661.00,197.92
             661.00,197.92 650.00,197.92 650.00,197.92
             650.00,197.92 636.00,195.86 636.00,195.86
             636.00,195.86 624.00,195.86 624.00,195.86
             614.69,194.50 615.37,192.87 604.00,193.00
             593.40,193.12 590.81,196.72 587.42,196.79
             584.99,196.83 582.06,194.47 576.00,194.09
             554.79,192.78 549.69,211.98 544.58,228.00
             541.51,237.60 540.02,240.52 540.00,251.00
             540.00,251.00 540.00,285.00 540.00,285.00
             540.00,285.00 544.00,316.00 544.00,316.00
             544.00,316.00 544.00,364.00 544.00,364.00
             544.00,364.00 545.00,379.00 545.00,379.00 Z" />
  <path id="pink"
        fill="#ff9fe5" stroke="none" stroke-width="1"
        d="M 542.00,379.47
           C 542.00,379.47 524.42,385.58 524.42,385.58
             521.77,385.39 517.87,381.58 510.00,381.09
             495.28,380.18 489.54,389.12 482.68,400.00
             482.68,400.00 475.90,410.00 475.90,410.00
             475.90,410.00 467.70,428.00 467.70,428.00
             467.70,428.00 456.65,448.00 456.65,448.00
             450.08,459.20 439.90,466.70 432.77,477.00
             427.98,483.93 423.82,494.41 419.89,502.00
             416.27,509.00 411.73,515.48 407.33,522.00
             401.29,530.97 399.65,531.58 393.30,539.00
             393.30,539.00 374.40,565.17 374.40,565.17
             371.20,570.63 370.96,575.40 369.23,581.00
             369.23,581.00 363.92,595.00 363.92,595.00
             363.92,595.00 358.55,608.00 358.55,608.00
             355.04,617.83 348.12,641.10 348.00,651.00
             347.95,655.87 347.68,662.39 348.93,667.00
             354.81,688.77 373.24,692.97 393.00,693.00
             393.00,693.00 423.00,693.00 423.00,693.00
             423.00,693.00 437.00,691.86 437.00,691.86
             437.00,691.86 449.00,691.86 449.00,691.86
             449.00,691.86 460.00,689.46 460.00,689.46
             460.00,689.46 483.00,687.00 483.00,687.00
             483.00,687.00 509.00,687.00 509.00,687.00
             509.00,687.00 540.00,687.00 540.00,687.00
             540.00,687.00 587.00,693.00 587.00,693.00
             587.00,693.00 626.00,693.00 626.00,693.00
             635.59,692.99 651.15,689.04 661.00,686.88
             661.00,686.88 673.00,685.32 673.00,685.32
             673.00,685.32 687.00,681.46 687.00,681.46
             687.00,681.46 699.00,680.83 699.00,680.83
             706.12,680.12 710.56,677.92 717.00,676.43
             722.96,675.05 731.68,673.89 737.00,671.17
             746.93,666.08 752.58,653.92 751.91,643.00
             751.21,631.65 741.57,615.19 735.09,606.00
             735.09,606.00 721.93,588.00 721.93,588.00
             721.93,588.00 717.19,578.00 717.19,578.00
             717.19,578.00 704.07,554.00 704.07,554.00
             704.07,554.00 691.75,537.00 691.75,537.00
             691.75,537.00 686.37,528.09 686.37,528.09
             683.91,524.87 681.91,524.19 678.21,519.00
             678.21,519.00 667.14,501.00 667.14,501.00
             667.14,501.00 641.51,465.00 641.51,465.00
             641.51,465.00 634.82,456.09 634.82,456.09
             634.82,456.09 627.61,448.96 627.61,448.96
             627.61,448.96 616.47,432.00 616.47,432.00
             616.47,432.00 598.59,411.00 598.59,411.00
             598.59,411.00 586.91,396.04 586.91,396.04
             573.19,381.88 561.55,376.74 542.00,379.47 Z
           M 403.00,641.00
           C 403.00,641.00 403.00,642.00 403.00,642.00
             403.00,642.00 402.00,641.00 402.00,641.00
             402.00,641.00 403.00,641.00 403.00,641.00 Z" />
  <path id="yellow"
        fill="#fff26e" stroke="none" stroke-width="1"
        d="M 515.00,382.00
           C 515.00,382.00 516.00,360.00 516.00,360.00
             515.98,347.72 513.64,345.75 510.09,335.00
             510.09,335.00 506.09,321.00 506.09,321.00
             506.09,321.00 503.48,311.00 503.48,311.00
             503.48,311.00 498.43,299.00 498.43,299.00
             492.46,285.02 488.97,276.84 478.70,265.00
             473.16,258.61 463.16,251.48 456.00,246.82
             456.00,246.82 444.00,238.36 444.00,238.36
             440.59,236.43 438.28,236.18 435.00,234.80
             435.00,234.80 427.00,230.93 427.00,230.93
             416.93,226.86 401.60,222.05 391.00,219.57
             380.64,217.15 379.50,213.03 363.00,213.00
             363.00,213.00 340.00,213.00 340.00,213.00
             329.73,213.02 328.75,214.56 320.00,215.71
             311.57,216.82 307.25,216.30 299.00,220.26
             289.85,224.66 289.23,227.76 281.00,232.69
             269.59,239.53 267.47,236.52 257.10,248.00
             248.57,257.44 251.98,262.75 247.69,267.83
             247.69,267.83 230.09,284.00 230.09,284.00
             230.09,284.00 214.97,304.00 214.97,304.00
             214.97,304.00 205.93,322.00 205.93,322.00
             203.87,327.16 204.20,331.69 203.20,337.00
             201.16,347.82 199.02,357.88 199.00,369.00
             199.00,369.00 199.00,390.00 199.00,390.00
             199.10,398.23 203.19,414.27 205.00,423.00
             205.00,423.00 209.86,445.00 209.86,445.00
             212.87,453.57 220.16,468.20 224.92,476.00
             224.92,476.00 231.09,485.00 231.09,485.00
             231.09,485.00 241.26,502.00 241.26,502.00
             246.28,509.63 248.09,514.75 255.09,521.96
             266.42,533.64 281.43,540.85 296.00,547.44
             296.00,547.44 312.00,555.45 312.00,555.45
             317.54,557.41 319.63,556.54 324.00,557.60
             335.72,560.41 343.50,562.85 356.00,563.00
             356.00,563.00 368.00,563.00 368.00,563.00
             369.91,563.00 373.09,563.12 374.82,562.40
             379.16,560.58 386.88,546.41 390.47,542.00
             390.47,542.00 400.38,531.00 400.38,531.00
             404.57,525.90 414.61,510.85 417.99,505.00
             417.99,505.00 432.90,476.00 432.90,476.00
             432.90,476.00 451.69,455.00 451.69,455.00
             451.69,455.00 465.49,432.00 465.49,432.00
             465.49,432.00 471.46,419.00 471.46,419.00
             471.46,419.00 474.00,412.00 474.00,412.00
             475.68,408.65 479.37,404.24 481.71,401.00
             491.14,387.90 497.34,378.84 515.00,382.00 Z" />
</svg>
