<?xml version="1.0" encoding="UTF-8" standalone="no"?>
<!DOCTYPE svg PUBLIC "-//W3C//DTD SVG 20010904//EN"
              "http://www.w3.org/TR/2001/REC-SVG-20010904/DTD/svg10.dtd">

<svg xmlns="http://www.w3.org/2000/svg"
     width="3.6in" height="3.6in"
     viewBox="0 0 1080 1080">
  <path id="black"
        fill="black" stroke="black" stroke-width="1"
        d="M 113.00,172.00
           C 102.17,172.91 93.34,178.44 89.55,189.00
             89.55,189.00 86.58,202.00 86.58,202.00
             84.55,211.23 82.01,220.50 82.00,230.00
             82.00,230.00 82.00,268.00 82.00,268.00
             82.00,268.00 81.10,285.00 81.10,285.00
             81.10,285.00 81.10,308.00 81.10,308.00
             80.98,321.52 79.02,318.78 81.10,336.00
             81.10,336.00 86.71,363.00 86.71,363.00
             86.71,363.00 87.29,375.00 87.29,375.00
             87.29,375.00 90.56,392.00 90.56,392.00
             90.56,392.00 91.29,400.00 91.29,400.00
             91.29,400.00 94.42,416.00 94.42,416.00
             94.42,416.00 98.21,433.00 98.21,433.00
             100.12,439.36 102.04,441.55 103.38,449.00
             103.38,449.00 104.29,458.00 104.29,458.00
             106.25,472.94 108.98,487.87 109.00,503.00
             109.00,503.00 111.00,532.00 111.00,532.00
             111.00,532.00 110.09,546.00 110.09,546.00
             110.09,546.00 113.54,564.00 113.54,564.00
             113.54,564.00 115.08,585.00 115.08,585.00
             115.08,585.00 115.08,601.00 115.08,601.00
             115.08,601.00 116.91,612.00 116.91,612.00
             116.91,612.00 118.17,636.00 118.17,636.00
             118.17,636.00 119.83,646.00 119.83,646.00
             119.83,646.00 119.09,660.00 119.09,660.00
             119.09,660.00 124.70,694.00 124.70,694.00
             124.70,694.00 126.30,716.00 126.30,716.00
             126.30,716.00 128.63,725.00 128.63,725.00
             128.63,725.00 129.44,732.00 129.44,732.00
             129.44,732.00 132.29,750.00 132.29,750.00
             132.29,750.00 134.71,763.00 134.71,763.00
             134.71,763.00 135.44,771.00 135.44,771.00
             136.99,780.90 139.39,790.44 142.23,800.00
             142.23,800.00 144.55,809.00 144.55,809.00
             144.55,809.00 147.45,816.00 147.45,816.00
             152.34,829.74 156.06,841.51 167.00,851.96
             173.96,858.60 175.62,857.11 182.00,861.24
             194.05,869.05 206.35,876.35 220.00,881.14
             220.00,881.14 234.00,884.49 234.00,884.49
             234.00,884.49 256.00,891.22 256.00,891.22
             256.00,891.22 281.00,902.08 281.00,902.08
             281.00,902.08 300.00,907.34 300.00,907.34
             300.00,907.34 346.00,916.71 346.00,916.71
             346.00,916.71 377.00,920.00 377.00,920.00
             377.00,920.00 387.00,920.00 387.00,920.00
             398.34,921.30 405.48,925.19 423.00,925.00
             423.00,925.00 438.00,923.90 438.00,923.90
             438.00,923.90 475.00,923.90 475.00,923.90
             488.52,924.02 485.78,925.98 503.00,923.90
             517.43,921.81 526.92,918.03 543.00,918.00
             543.00,918.00 735.00,918.00 735.00,918.00
             747.16,917.98 753.78,913.35 766.00,911.94
             766.00,911.94 777.00,911.94 777.00,911.94
             777.00,911.94 791.00,908.93 791.00,908.93
             791.00,908.93 801.00,908.93 801.00,908.93
             801.00,908.93 814.00,905.30 814.00,905.30
             814.00,905.30 821.00,904.71 821.00,904.71
             832.21,903.24 853.40,898.16 863.00,892.66
             863.00,892.66 873.00,885.75 873.00,885.75
             873.00,885.75 885.00,878.32 885.00,878.32
             898.68,867.78 911.53,852.78 921.87,839.00
             927.27,831.80 935.49,821.06 939.13,813.00
             943.13,804.17 942.19,802.12 944.52,795.00
             944.52,795.00 950.09,781.00 950.09,781.00
             950.09,781.00 954.71,759.00 954.71,759.00
             954.71,759.00 955.44,751.00 955.44,751.00
             955.44,751.00 960.56,725.00 960.56,725.00
             960.56,725.00 961.30,717.00 961.30,717.00
             961.30,717.00 964.56,701.00 964.56,701.00
             964.56,701.00 965.29,688.00 965.29,688.00
             965.29,688.00 969.00,660.00 969.00,660.00
             969.00,660.00 969.00,645.00 969.00,645.00
             969.00,645.00 971.00,619.00 971.00,619.00
             971.00,619.00 971.00,599.00 971.00,599.00
             971.00,599.00 969.00,574.00 969.00,574.00
             969.00,574.00 968.00,552.00 968.00,552.00
             968.00,552.00 968.00,488.00 968.00,488.00
             968.00,488.00 966.08,469.00 966.08,469.00
             966.08,469.00 966.08,458.00 966.08,458.00
             966.08,458.00 962.17,424.00 962.17,424.00
             962.17,424.00 957.83,379.00 957.83,379.00
             957.07,371.77 956.01,371.98 956.00,363.00
             956.00,363.00 956.00,345.00 956.00,345.00
             956.00,345.00 953.00,315.00 953.00,315.00
             953.00,315.00 953.00,295.00 953.00,295.00
             953.00,295.00 949.28,261.00 949.28,261.00
             949.28,261.00 946.56,238.00 946.56,238.00
             946.56,238.00 942.44,217.00 942.44,217.00
             942.44,217.00 941.56,208.00 941.56,208.00
             941.56,208.00 936.65,184.00 936.65,184.00
             936.65,184.00 933.57,164.00 933.57,164.00
             930.59,151.11 924.63,139.24 915.00,130.04
             908.15,123.50 892.40,117.28 883.00,115.61
             883.00,115.61 872.00,114.39 872.00,114.39
             872.00,114.39 845.00,109.17 845.00,109.17
             845.00,109.17 797.00,108.00 797.00,108.00
             797.00,108.00 779.00,107.00 779.00,107.00
             779.00,107.00 740.00,111.96 740.00,111.96
             740.00,111.96 731.00,111.96 731.00,111.96
             715.17,113.17 698.49,113.84 683.00,117.43
             683.00,117.43 665.00,123.08 665.00,123.08
             665.00,123.08 640.00,128.43 640.00,128.43
             640.00,128.43 628.00,131.70 628.00,131.70
             628.00,131.70 620.00,132.44 620.00,132.44
             604.66,134.84 587.52,137.98 572.00,138.00
             572.00,138.00 509.00,138.00 509.00,138.00
             498.73,138.02 497.75,139.56 489.00,140.71
             489.00,140.71 467.00,143.29 467.00,143.29
             467.00,143.29 454.00,145.71 454.00,145.71
             454.00,145.71 423.00,149.17 423.00,149.17
             423.00,149.17 414.00,150.83 414.00,150.83
             414.00,150.83 374.00,155.17 374.00,155.17
             374.00,155.17 344.00,159.00 344.00,159.00
             344.00,159.00 325.00,160.00 325.00,160.00
             325.00,160.00 299.00,160.00 299.00,160.00
             299.00,160.00 269.00,157.00 269.00,157.00
             269.00,157.00 250.00,157.00 250.00,157.00
             250.00,157.00 225.00,154.08 225.00,154.08
             225.00,154.08 212.00,154.08 212.00,154.08
             212.00,154.08 194.00,152.04 194.00,152.04
             194.00,152.04 181.00,153.00 181.00,153.00
             181.00,153.00 157.00,153.00 157.00,153.00
             142.11,152.98 127.32,145.26 115.97,163.00
             113.92,166.20 113.39,168.31 113.00,172.00 Z
           M 139.00,203.00
           C 139.00,203.00 185.00,204.00 185.00,204.00
             185.00,204.00 215.00,206.00 215.00,206.00
             215.00,206.00 236.00,207.29 236.00,207.29
             242.31,208.11 242.65,208.96 250.00,209.00
             250.00,209.00 264.00,209.00 264.00,209.00
             264.00,209.00 299.00,212.00 299.00,212.00
             299.00,212.00 329.00,212.00 329.00,212.00
             337.15,211.96 337.56,210.81 344.00,210.08
             344.00,210.08 353.00,210.08 353.00,210.08
             361.35,209.99 360.83,209.23 368.00,208.29
             368.00,208.29 384.00,206.83 384.00,206.83
             384.00,206.83 394.00,205.17 394.00,205.17
             394.00,205.17 449.00,198.71 449.00,198.71
             468.33,196.17 505.62,189.03 523.00,189.00
             523.00,189.00 563.00,189.00 563.00,189.00
             563.00,189.00 574.00,189.82 574.00,189.82
             574.00,189.82 613.00,186.71 613.00,186.71
             613.00,186.71 672.00,174.79 672.00,174.79
             672.00,174.79 697.00,167.62 697.00,167.62
             697.00,167.62 706.00,166.71 706.00,166.71
             706.00,166.71 715.00,165.04 715.00,165.04
             715.00,165.04 724.00,165.04 724.00,165.04
             724.00,165.04 746.00,162.96 746.00,162.96
             746.00,162.96 755.00,162.96 755.00,162.96
             755.00,162.96 784.00,159.00 784.00,159.00
             784.00,159.00 817.00,159.00 817.00,159.00
             817.00,159.00 832.00,160.91 832.00,160.91
             832.00,160.91 856.00,163.20 856.00,163.20
             861.27,164.25 876.05,166.36 879.50,169.65
             883.28,173.25 883.62,180.16 884.17,185.00
             884.17,185.00 888.40,207.00 888.40,207.00
             888.40,207.00 890.71,219.00 890.71,219.00
             890.71,219.00 891.61,228.00 891.61,228.00
             891.61,228.00 895.71,249.00 895.71,249.00
             895.71,249.00 897.29,265.00 897.29,265.00
             898.81,276.58 900.98,288.28 901.00,300.00
             901.00,300.00 901.00,320.00 901.00,320.00
             901.08,326.12 902.00,327.59 902.71,333.00
             902.71,333.00 904.00,350.00 904.00,350.00
             904.00,350.00 904.00,368.00 904.00,368.00
             904.00,368.00 906.83,394.00 906.83,394.00
             906.83,394.00 912.17,443.00 912.17,443.00
             912.17,443.00 915.00,468.00 915.00,468.00
             915.00,468.00 916.00,489.00 916.00,489.00
             916.00,489.00 916.00,557.00 916.00,557.00
             916.00,557.00 918.00,577.00 918.00,577.00
             918.00,577.00 919.00,599.00 919.00,599.00
             919.00,599.00 918.00,648.00 918.00,648.00
             917.98,662.96 914.96,670.14 913.29,683.00
             913.29,683.00 912.71,695.00 912.71,695.00
             912.71,695.00 910.44,707.00 910.44,707.00
             910.44,707.00 905.40,736.00 905.40,736.00
             905.40,736.00 901.33,761.00 901.33,761.00
             901.33,761.00 894.52,780.00 894.52,780.00
             893.17,784.18 892.74,789.24 890.91,793.00
             887.75,799.45 868.29,823.09 862.79,828.12
             855.86,834.45 844.62,843.78 836.00,847.41
             822.98,852.88 813.19,852.25 800.00,855.00
             800.00,855.00 789.00,857.79 789.00,857.79
             789.00,857.79 779.00,858.47 779.00,858.47
             773.01,859.59 773.35,860.90 766.00,861.00
             753.18,861.17 753.54,861.39 741.00,864.00
             734.64,865.33 732.68,866.91 726.00,867.00
             726.00,867.00 528.00,867.00 528.00,867.00
             528.00,867.00 486.00,873.00 486.00,873.00
             486.00,873.00 422.00,873.00 422.00,873.00
             410.77,872.98 405.89,870.27 396.00,869.17
             396.00,869.17 367.00,865.94 367.00,865.94
             367.00,865.94 356.00,865.94 356.00,865.94
             356.00,865.94 336.00,861.80 336.00,861.80
             322.92,859.18 309.60,856.94 297.00,852.45
             297.00,852.45 271.00,841.22 271.00,841.22
             271.00,841.22 246.00,833.92 246.00,833.92
             246.00,833.92 236.00,831.45 236.00,831.45
             226.16,827.99 218.52,822.98 210.00,817.22
             210.00,817.22 202.22,812.37 202.22,812.37
             198.69,809.29 197.38,802.42 196.09,798.00
             192.72,786.40 190.85,784.13 188.39,771.00
             188.39,771.00 186.56,757.00 186.56,757.00
             186.56,757.00 184.30,746.00 184.30,746.00
             184.30,746.00 183.54,738.00 183.54,738.00
             183.54,738.00 177.29,706.00 177.29,706.00
             177.29,706.00 175.83,686.00 175.83,686.00
             175.83,686.00 171.00,652.00 171.00,652.00
             171.00,652.00 170.00,626.00 170.00,626.00
             169.96,618.65 169.11,618.31 168.29,612.00
             168.29,612.00 167.00,591.00 167.00,591.00
             166.95,579.40 166.13,580.62 164.94,571.00
             164.94,571.00 164.94,561.00 164.94,561.00
             163.62,552.63 162.01,544.50 162.00,536.00
             162.00,536.00 162.00,516.00 162.00,516.00
             162.00,516.00 161.00,501.00 161.00,501.00
             160.98,488.46 160.13,491.57 159.00,482.00
             159.00,482.00 159.00,472.00 159.00,472.00
             159.00,472.00 157.29,463.00 157.29,463.00
             157.29,463.00 154.71,441.00 154.71,441.00
             152.96,427.67 148.97,422.73 147.01,414.00
             147.01,414.00 141.44,386.00 141.44,386.00
             141.44,386.00 140.56,377.00 140.56,377.00
             140.56,377.00 138.29,365.00 138.29,365.00
             138.29,365.00 137.70,353.00 137.70,353.00
             135.73,339.19 132.02,328.79 132.00,314.00
             132.00,314.00 132.00,293.00 132.00,293.00
             132.00,293.00 134.00,268.00 134.00,268.00
             134.00,268.00 134.00,235.00 134.00,235.00
             134.02,224.11 137.57,213.75 139.00,203.00 Z
           M 374.00,381.00
           C 370.14,391.06 369.10,401.44 367.71,412.00
             367.71,412.00 363.61,432.00 363.61,432.00
             363.61,432.00 362.56,442.00 362.56,442.00
             358.10,470.53 350.52,498.69 341.26,526.00
             341.26,526.00 331.01,550.00 331.01,550.00
             331.01,550.00 327.19,561.00 327.19,561.00
             327.19,561.00 316.69,586.00 316.69,586.00
             316.69,586.00 300.86,622.00 300.86,622.00
             300.86,622.00 296.76,640.00 296.76,640.00
             296.76,640.00 293.66,650.00 293.66,650.00
             293.66,650.00 289.99,668.00 289.99,668.00
             287.19,680.13 282.15,692.38 282.23,705.00
             281.96,708.72 281.82,715.57 282.23,719.00
             284.64,730.50 294.29,739.18 306.00,739.91
             316.02,740.53 325.60,734.92 330.17,726.00
             332.80,720.85 334.15,706.09 335.66,699.00
             335.66,699.00 343.08,673.00 343.08,673.00
             343.08,673.00 344.37,664.00 344.37,664.00
             344.37,664.00 348.60,647.00 348.60,647.00
             349.45,642.79 354.71,626.60 356.40,623.00
             356.40,623.00 367.14,601.00 367.14,601.00
             367.14,601.00 384.46,556.00 384.46,556.00
             384.46,556.00 393.08,536.00 393.08,536.00
             393.08,536.00 398.20,519.00 398.20,519.00
             398.20,519.00 403.08,504.00 403.08,504.00
             403.08,504.00 406.42,488.00 406.42,488.00
             406.42,488.00 414.56,448.00 414.56,448.00
             414.56,448.00 415.29,440.00 415.29,440.00
             415.29,440.00 418.39,424.00 418.39,424.00
             418.39,424.00 419.44,415.00 419.44,415.00
             419.44,415.00 426.49,385.00 426.49,385.00
             428.54,377.39 430.79,373.54 430.99,365.00
             431.07,361.09 430.96,357.77 429.78,354.00
             425.45,340.17 409.23,333.51 396.00,331.44
             396.00,331.44 387.00,330.56 387.00,330.56
             378.41,329.22 377.63,328.02 368.00,328.00
             368.00,328.00 315.00,328.00 315.00,328.00
             306.50,328.01 298.37,329.61 290.00,330.71
             290.00,330.71 273.00,332.29 273.00,332.29
             273.00,332.29 250.00,335.71 250.00,335.71
             250.00,335.71 241.00,336.61 241.00,336.61
             241.00,336.61 224.00,339.83 224.00,339.83
             216.87,340.54 213.29,339.10 206.00,342.83
             189.53,351.26 187.24,373.76 201.02,385.79
             208.74,392.54 216.47,392.11 226.00,392.00
             234.43,391.90 244.45,388.78 253.00,387.44
             253.00,387.44 269.00,385.29 269.00,385.29
             269.00,385.29 320.00,380.00 320.00,380.00
             320.00,380.00 374.00,381.00 374.00,381.00 Z
           M 606.00,459.28
           C 598.27,461.30 592.42,464.93 588.36,472.00
             579.05,488.24 590.36,508.76 609.00,509.91
             636.17,511.58 646.54,474.39 622.00,461.83
             618.99,460.29 615.38,459.30 612.00,459.28
             609.63,458.95 608.30,459.15 606.00,459.28 Z
           M 786.00,613.00
           C 786.00,613.00 805.00,609.78 805.00,609.78
             816.65,606.15 832.75,592.85 838.17,582.00
             842.16,574.02 842.10,564.69 842.00,556.00
             841.81,540.04 833.63,517.78 822.83,506.02
             818.78,501.60 817.03,501.21 813.00,497.80
             813.00,497.80 807.00,492.64 807.00,492.64
             799.61,487.38 786.13,483.11 777.00,483.15
             777.00,483.15 764.00,483.15 764.00,483.15
             752.06,485.06 735.53,493.77 728.97,504.00
             724.82,510.47 724.25,518.93 721.53,526.00
             719.51,531.25 714.50,535.78 715.09,546.00
             715.09,546.00 716.56,555.00 716.56,555.00
             716.56,555.00 717.61,565.00 717.61,565.00
             717.61,565.00 722.63,587.00 722.63,587.00
             722.63,587.00 724.30,606.00 724.30,606.00
             724.30,606.00 731.08,635.00 731.08,635.00
             731.08,635.00 734.52,649.00 734.52,649.00
             736.63,655.41 747.35,676.57 751.38,682.00
             756.82,689.33 761.62,694.76 771.00,696.53
             786.34,699.43 800.83,688.74 801.91,673.00
             802.51,664.25 799.47,660.85 798.38,656.00
             798.38,656.00 796.57,645.00 796.57,645.00
             794.04,634.03 790.17,623.43 786.00,613.00 Z
           M 499.00,579.00
           C 499.00,579.00 490.55,592.00 490.55,592.00
             490.55,592.00 480.13,608.00 480.13,608.00
             467.72,624.55 456.76,635.25 457.00,657.00
             457.13,668.09 462.62,677.03 472.00,683.03
             479.95,688.12 490.97,688.02 500.00,689.44
             500.00,689.44 541.00,697.90 541.00,697.90
             541.00,697.90 551.00,697.90 551.00,697.90
             560.36,698.73 566.40,700.52 575.00,694.36
             588.85,684.46 589.78,664.39 576.98,653.21
             570.98,647.97 561.80,646.09 554.00,645.90
             554.00,645.90 544.00,645.90 544.00,645.90
             544.00,645.90 536.00,643.66 536.00,643.66
             531.73,642.60 525.35,641.36 521.00,641.00
             528.09,632.12 534.19,622.69 540.08,613.00
             543.03,608.14 545.53,602.34 549.21,598.00
             558.00,587.65 578.13,571.26 583.07,559.00
             587.94,546.92 583.41,532.91 572.00,526.36
             566.48,523.20 559.28,522.03 553.00,522.00
             553.00,522.00 532.00,523.10 532.00,523.10
             532.00,523.10 522.00,523.10 522.00,523.10
             522.00,523.10 505.00,526.56 505.00,526.56
             505.00,526.56 479.00,529.00 479.00,529.00
             470.38,529.10 463.55,528.24 456.00,533.64
             441.32,544.13 441.32,565.87 456.00,576.36
             466.30,583.73 487.12,581.24 499.00,579.00 Z
           M 774.00,534.00
           C 785.37,542.03 788.83,544.72 790.00,559.00
             790.00,559.00 772.00,562.00 772.00,562.00
             770.89,553.58 769.23,541.40 774.00,534.00 Z
           M 625.00,562.47
           C 621.56,563.28 619.04,564.02 616.00,565.97
             598.47,577.21 604.63,595.53 608.35,612.00
             610.90,623.27 609.83,621.51 614.19,633.00
             614.19,633.00 617.83,643.00 617.83,643.00
             621.92,650.98 630.05,656.36 639.00,656.91
             651.82,657.70 663.16,648.57 665.53,636.00
             668.15,622.15 663.11,617.76 660.24,606.00
             656.05,588.81 657.19,566.65 635.00,562.47
             631.44,561.79 628.54,561.97 625.00,562.47 Z" />
  <path id="white"
        fill="white" stroke="black" stroke-width="1"
        d="M 139.00,203.00
           C 137.57,213.75 134.02,224.11 134.00,235.00
             134.00,235.00 134.00,268.00 134.00,268.00
             134.00,268.00 132.00,294.00 132.00,294.00
             132.00,294.00 132.00,314.00 132.00,314.00
             132.02,328.79 135.73,339.19 137.70,353.00
             137.70,353.00 138.29,365.00 138.29,365.00
             138.29,365.00 140.56,377.00 140.56,377.00
             140.56,377.00 141.44,386.00 141.44,386.00
             141.44,386.00 147.01,414.00 147.01,414.00
             148.97,422.73 152.96,427.67 154.71,441.00
             154.71,441.00 157.29,463.00 157.29,463.00
             157.29,463.00 159.00,472.00 159.00,472.00
             159.00,472.00 159.00,482.00 159.00,482.00
             160.13,491.62 160.95,490.40 161.00,502.00
             161.00,502.00 162.00,517.00 162.00,517.00
             162.00,517.00 162.00,536.00 162.00,536.00
             162.01,544.50 163.62,552.63 164.94,561.00
             164.94,561.00 164.94,571.00 164.94,571.00
             164.94,571.00 166.92,581.00 166.92,581.00
             166.92,581.00 166.92,592.00 166.92,592.00
             166.92,592.00 168.29,612.00 168.29,612.00
             169.11,618.31 169.96,618.65 170.00,626.00
             170.00,626.00 171.00,645.00 171.00,645.00
             171.09,653.31 171.26,661.81 172.80,670.00
             172.80,670.00 175.71,685.00 175.71,685.00
             175.71,685.00 177.29,706.00 177.29,706.00
             177.29,706.00 181.20,726.00 181.20,726.00
             181.20,726.00 183.70,739.00 183.70,739.00
             183.70,739.00 184.46,747.00 184.46,747.00
             184.46,747.00 186.56,757.00 186.56,757.00
             186.56,757.00 187.44,766.00 187.44,766.00
             189.71,780.51 191.16,782.72 195.48,796.00
             196.70,799.73 198.54,807.93 200.72,810.79
             202.68,813.35 208.02,815.82 211.00,817.91
             218.72,823.31 227.96,828.93 237.00,831.78
             237.00,831.78 247.00,834.21 247.00,834.21
             247.00,834.21 272.00,841.55 272.00,841.55
             272.00,841.55 297.00,852.45 297.00,852.45
             307.38,856.15 318.22,858.24 329.00,860.40
             329.00,860.40 356.00,865.94 356.00,865.94
             356.00,865.94 367.00,865.94 367.00,865.94
             367.00,865.94 396.00,869.17 396.00,869.17
             405.89,870.27 410.77,872.98 422.00,873.00
             422.00,873.00 487.00,873.00 487.00,873.00
             487.00,873.00 528.00,867.00 528.00,867.00
             528.00,867.00 726.00,867.00 726.00,867.00
             732.68,866.91 734.64,865.33 741.00,864.00
             753.54,861.39 753.18,861.17 766.00,861.00
             773.35,860.90 773.01,859.59 779.00,858.47
             779.00,858.47 789.00,857.79 789.00,857.79
             789.00,857.79 806.00,853.80 806.00,853.80
             818.04,851.54 827.25,852.32 839.00,845.95
             855.17,837.19 869.10,822.50 880.13,808.00
             883.46,803.63 888.55,797.83 890.91,793.00
             890.91,793.00 894.86,779.00 894.86,779.00
             894.86,779.00 901.08,762.00 901.08,762.00
             901.08,762.00 904.44,741.00 904.44,741.00
             904.44,741.00 910.29,708.00 910.29,708.00
             910.29,708.00 912.83,694.00 912.83,694.00
             912.83,694.00 913.44,682.00 913.44,682.00
             915.38,669.53 917.98,661.48 918.00,648.00
             918.00,648.00 918.00,633.00 918.00,633.00
             918.00,633.00 919.00,619.00 919.00,619.00
             919.00,619.00 919.00,599.00 919.00,599.00
             919.00,599.00 917.92,584.00 917.92,584.00
             917.92,584.00 917.92,573.00 917.92,573.00
             917.12,565.90 916.01,565.96 916.00,557.00
             916.00,557.00 916.00,489.00 916.00,489.00
             916.00,489.00 915.00,467.00 915.00,467.00
             915.00,467.00 912.17,443.00 912.17,443.00
             912.17,443.00 906.83,394.00 906.83,394.00
             906.83,394.00 904.00,370.00 904.00,370.00
             904.00,370.00 904.00,348.00 904.00,348.00
             904.00,348.00 901.00,318.00 901.00,318.00
             901.00,318.00 901.00,299.00 901.00,299.00
             901.00,299.00 898.83,274.00 898.83,274.00
             898.83,274.00 897.17,264.00 897.17,264.00
             897.17,264.00 895.39,247.00 895.39,247.00
             895.39,247.00 891.17,225.00 891.17,225.00
             891.17,225.00 884.44,187.00 884.44,187.00
             883.59,181.63 883.77,173.72 879.50,169.65
             876.07,166.38 862.17,164.43 857.00,163.40
             848.57,161.72 840.50,161.51 832.00,160.91
             825.57,160.46 824.76,159.04 816.00,159.00
             816.00,159.00 786.00,159.00 786.00,159.00
             786.00,159.00 768.00,160.44 768.00,160.44
             768.00,160.44 755.00,162.96 755.00,162.96
             755.00,162.96 746.00,162.96 746.00,162.96
             746.00,162.96 724.00,165.04 724.00,165.04
             724.00,165.04 715.00,165.04 715.00,165.04
             715.00,165.04 706.00,166.71 706.00,166.71
             706.00,166.71 697.00,167.62 697.00,167.62
             697.00,167.62 672.00,174.79 672.00,174.79
             672.00,174.79 613.00,186.71 613.00,186.71
             613.00,186.71 577.00,189.82 577.00,189.82
             577.00,189.82 563.00,189.00 563.00,189.00
             563.00,189.00 523.00,189.00 523.00,189.00
             506.55,189.03 481.79,193.93 465.00,196.56
             465.00,196.56 457.00,197.29 457.00,197.29
             457.00,197.29 434.00,200.71 434.00,200.71
             434.00,200.71 417.00,202.29 417.00,202.29
             417.00,202.29 369.00,208.17 369.00,208.17
             363.24,208.77 361.95,209.91 355.00,210.08
             355.00,210.08 344.00,210.08 344.00,210.08
             336.90,210.88 336.96,211.99 328.00,212.00
             328.00,212.00 301.00,212.00 301.00,212.00
             301.00,212.00 264.00,209.00 264.00,209.00
             264.00,209.00 250.00,209.00 250.00,209.00
             241.85,208.96 241.44,207.81 235.00,207.17
             235.00,207.17 210.00,206.00 210.00,206.00
             210.00,206.00 185.00,204.00 185.00,204.00
             185.00,204.00 139.00,203.00 139.00,203.00 Z
           M 374.00,381.00
           C 374.00,381.00 320.00,380.00 320.00,380.00
             320.00,380.00 269.00,385.29 269.00,385.29
             269.00,385.29 253.00,387.44 253.00,387.44
             244.45,388.78 234.43,391.90 226.00,392.00
             215.86,392.11 207.98,392.49 200.04,384.90
             186.62,372.06 190.54,349.00 208.00,341.93
             215.06,339.07 218.43,340.57 225.00,339.71
             225.00,339.71 242.00,336.44 242.00,336.44
             242.00,336.44 250.00,335.71 250.00,335.71
             250.00,335.71 273.00,332.29 273.00,332.29
             273.00,332.29 290.00,330.71 290.00,330.71
             298.37,329.61 306.50,328.01 315.00,328.00
             315.00,328.00 368.00,328.00 368.00,328.00
             377.63,328.02 378.41,329.22 387.00,330.56
             387.00,330.56 396.00,331.44 396.00,331.44
             409.23,333.51 425.45,340.17 429.78,354.00
             430.96,357.77 431.07,361.09 430.99,365.00
             430.99,365.00 419.07,418.00 419.07,418.00
             419.07,418.00 415.29,440.00 415.29,440.00
             415.29,440.00 414.56,448.00 414.56,448.00
             414.56,448.00 403.08,504.00 403.08,504.00
             403.08,504.00 398.20,519.00 398.20,519.00
             398.20,519.00 393.45,535.00 393.45,535.00
             393.45,535.00 384.46,556.00 384.46,556.00
             384.46,556.00 371.14,592.00 371.14,592.00
             371.14,592.00 361.74,613.00 361.74,613.00
             361.74,613.00 355.95,624.00 355.95,624.00
             355.95,624.00 353.45,632.00 353.45,632.00
             353.45,632.00 350.55,639.00 350.55,639.00
             350.55,639.00 344.37,664.00 344.37,664.00
             344.37,664.00 343.32,672.00 343.32,672.00
             343.32,672.00 338.51,687.00 338.51,687.00
             338.51,687.00 335.45,700.00 335.45,700.00
             335.45,700.00 331.45,723.00 331.45,723.00
             327.68,733.56 317.21,740.60 306.00,739.91
             289.69,738.90 282.02,726.03 282.00,711.00
             281.98,699.89 283.98,688.74 286.92,678.00
             286.92,678.00 289.99,668.00 289.99,668.00
             289.99,668.00 293.66,650.00 293.66,650.00
             293.66,650.00 296.76,640.00 296.76,640.00
             299.71,627.91 298.54,626.48 304.23,614.00
             304.23,614.00 324.80,567.00 324.80,567.00
             324.80,567.00 330.61,551.00 330.61,551.00
             330.61,551.00 342.84,521.00 342.84,521.00
             342.84,521.00 348.52,502.00 348.52,502.00
             348.52,502.00 353.36,487.00 353.36,487.00
             353.36,487.00 362.56,442.00 362.56,442.00
             362.56,442.00 363.61,432.00 363.61,432.00
             363.61,432.00 367.71,412.00 367.71,412.00
             369.10,401.44 370.14,391.06 374.00,381.00 Z
           M 607.00,459.30
           C 611.84,458.83 615.43,459.08 620.00,460.93
             646.62,471.70 637.36,511.66 609.00,509.91
             590.36,508.76 579.05,488.24 588.36,472.00
             592.60,464.62 598.87,460.89 607.00,459.30 Z
           M 786.00,613.00
           C 790.17,623.43 794.04,634.03 796.57,645.00
             796.57,645.00 798.38,656.00 798.38,656.00
             799.47,660.85 802.51,664.25 801.91,673.00
             800.83,688.74 786.34,699.43 771.00,696.53
             761.62,694.76 756.82,689.33 751.38,682.00
             747.35,676.57 736.63,655.41 734.52,649.00
             734.52,649.00 731.08,635.00 731.08,635.00
             731.08,635.00 724.30,606.00 724.30,606.00
             724.30,606.00 722.63,587.00 722.63,587.00
             722.63,587.00 717.61,565.00 717.61,565.00
             717.61,565.00 716.56,555.00 716.56,555.00
             716.56,555.00 715.09,546.00 715.09,546.00
             714.50,535.78 719.51,531.25 721.53,526.00
             724.25,518.93 724.82,510.47 728.97,504.00
             736.34,492.51 755.43,483.16 769.00,483.00
             769.00,483.00 777.00,483.00 777.00,483.00
             786.13,483.11 799.61,487.38 807.00,492.64
             807.00,492.64 813.00,497.80 813.00,497.80
             817.03,501.21 818.78,501.60 822.83,506.02
             833.99,518.17 841.92,540.54 842.00,557.00
             842.04,565.45 842.05,574.24 838.17,582.00
             832.75,592.85 816.65,606.15 805.00,609.78
             805.00,609.78 786.00,613.00 786.00,613.00 Z
           M 521.00,641.00
           C 521.00,641.00 548.00,646.00 548.00,646.00
             557.15,646.12 567.19,646.05 575.00,651.64
             590.05,662.40 589.62,685.01 574.00,695.03
             565.51,700.48 559.99,698.70 551.00,697.90
             551.00,697.90 541.00,697.90 541.00,697.90
             541.00,697.90 500.00,689.44 500.00,689.44
             490.97,688.02 479.95,688.12 472.00,683.03
             462.62,677.03 457.13,668.09 457.00,657.00
             456.76,635.25 467.72,624.55 480.13,608.00
             480.13,608.00 490.55,592.00 490.55,592.00
             490.55,592.00 499.00,579.00 499.00,579.00
             487.12,581.24 466.30,583.73 456.00,576.36
             441.31,565.86 441.31,544.14 456.00,533.64
             463.55,528.24 470.38,529.10 479.00,529.00
             479.00,529.00 505.00,526.56 505.00,526.56
             505.00,526.56 522.00,523.10 522.00,523.10
             522.00,523.10 532.00,523.10 532.00,523.10
             532.00,523.10 554.00,522.00 554.00,522.00
             574.47,522.24 591.46,538.20 583.07,559.00
             578.13,571.26 558.00,587.65 549.21,598.00
             545.53,602.34 543.03,608.14 540.08,613.00
             534.19,622.69 528.09,632.12 521.00,641.00 Z
           M 773.00,534.00
           C 770.14,544.99 770.53,550.85 772.00,562.00
             772.00,562.00 790.00,559.00 790.00,559.00
             789.17,548.79 788.13,545.02 780.00,538.65
             777.28,536.52 776.17,535.49 773.00,534.00 Z
           M 626.00,562.49
           C 629.64,561.94 632.38,561.85 636.00,562.49
             657.30,567.57 656.11,589.08 660.24,606.00
             663.10,617.74 667.79,620.87 665.70,635.00
             663.78,648.03 652.21,657.72 639.00,656.91
             630.05,656.36 621.92,650.98 617.83,643.00
             617.83,643.00 614.19,633.00 614.19,633.00
             610.38,622.94 608.50,613.50 606.40,603.00
             605.23,597.16 603.53,590.96 604.17,585.00
             605.49,572.72 614.20,564.61 626.00,562.49 Z" />
</svg>
