<?xml version="1.0" encoding="UTF-8" standalone="no"?>
<!DOCTYPE svg PUBLIC "-//W3C//DTD SVG 20010904//EN"
              "http://www.w3.org/TR/2001/REC-SVG-20010904/DTD/svg10.dtd">

<svg xmlns="http://www.w3.org/2000/svg"
     width="15in" height="15in"
     viewBox="0 0 1080 1080">
  <path id="white"
        fill="white" stroke="none" stroke-width="1"
        d="M 59.00,126.16
           C 47.36,129.23 38.85,137.71 38.09,150.00
             37.66,157.03 40.25,163.88 45.10,168.96
             47.25,171.21 51.82,174.21 52.98,176.21
             54.41,178.68 53.97,184.06 54.00,187.00
             54.00,187.00 58.71,215.00 58.71,215.00
             58.71,215.00 60.17,231.00 60.17,231.00
             60.17,231.00 64.00,267.00 64.00,267.00
             64.00,267.00 64.00,275.00 64.00,275.00
             64.00,275.00 66.00,297.00 66.00,297.00
             66.00,297.00 66.00,424.00 66.00,424.00
             66.00,424.00 62.54,467.00 62.54,467.00
             62.54,467.00 56.17,499.00 56.17,499.00
             56.17,499.00 54.00,525.00 54.00,525.00
             54.00,525.00 54.00,593.00 54.00,593.00
             53.98,604.72 51.81,616.42 50.29,628.00
             50.29,628.00 48.00,660.00 48.00,660.00
             48.00,660.00 45.96,680.00 45.96,680.00
             45.96,680.00 45.96,697.00 45.96,697.00
             45.96,697.00 45.00,709.00 45.00,709.00
             44.98,721.54 44.13,718.43 42.94,728.00
             42.94,728.00 42.94,739.00 42.94,739.00
             41.58,747.68 40.02,748.80 40.00,759.00
             40.00,759.00 40.00,798.00 40.00,798.00
             40.01,806.35 40.77,805.83 41.71,813.00
             45.02,838.16 46.60,839.87 54.26,863.00
             54.26,863.00 61.43,886.00 61.43,886.00
             65.32,895.07 80.66,914.66 89.00,919.65
             108.03,931.02 134.32,933.90 156.00,936.17
             156.00,936.17 165.00,937.71 165.00,937.71
             165.00,937.71 186.00,940.00 186.00,940.00
             186.00,940.00 196.00,940.00 196.00,940.00
             196.00,940.00 222.00,942.91 222.00,942.91
             222.00,942.91 242.00,944.29 242.00,944.29
             242.00,944.29 255.00,946.88 255.00,946.88
             255.00,946.88 264.00,946.88 264.00,946.88
             264.00,946.88 276.00,948.17 276.00,948.17
             276.00,948.17 300.00,951.96 300.00,951.96
             300.00,951.96 309.00,951.96 309.00,951.96
             309.00,951.96 325.00,953.96 325.00,953.96
             325.00,953.96 334.00,953.96 334.00,953.96
             334.00,953.96 356.00,956.00 356.00,956.00
             356.00,956.00 444.00,956.00 444.00,956.00
             444.00,956.00 471.00,958.00 471.00,958.00
             471.00,958.00 495.00,959.96 495.00,959.96
             495.00,959.96 504.00,959.96 504.00,959.96
             504.00,959.96 512.00,960.96 512.00,960.96
             512.00,960.96 525.00,960.00 525.00,960.00
             525.00,960.00 574.00,960.00 574.00,960.00
             597.24,960.04 618.98,968.96 643.00,969.00
             643.00,969.00 678.00,974.00 678.00,974.00
             678.00,974.00 744.00,974.00 744.00,974.00
             753.93,973.98 751.99,972.92 759.00,972.08
             759.00,972.08 770.00,972.08 770.00,972.08
             779.69,971.88 816.56,964.95 827.00,962.34
             827.00,962.34 837.00,959.24 837.00,959.24
             837.00,959.24 850.00,957.56 850.00,957.56
             871.81,954.15 863.49,953.72 888.00,954.00
             888.00,954.00 902.00,954.91 902.00,954.91
             902.00,954.91 913.00,953.17 913.00,953.17
             913.00,953.17 943.00,949.71 943.00,949.71
             943.00,949.71 956.00,947.29 956.00,947.29
             956.00,947.29 1006.00,942.28 1006.00,942.28
             1014.85,941.24 1020.58,943.39 1029.00,937.36
             1040.19,929.37 1043.98,908.08 1044.00,895.00
             1044.00,895.00 1044.00,883.00 1044.00,883.00
             1044.02,872.44 1045.91,861.46 1047.29,851.00
             1048.12,844.67 1048.96,844.35 1049.00,837.00
             1049.00,837.00 1050.00,816.00 1050.00,816.00
             1050.00,816.00 1050.00,738.00 1050.00,738.00
             1050.00,738.00 1055.29,681.00 1055.29,681.00
             1056.81,669.42 1058.98,657.72 1059.00,646.00
             1059.00,646.00 1059.00,588.00 1059.00,588.00
             1058.99,579.02 1057.93,579.23 1057.17,572.00
             1057.17,572.00 1056.00,546.00 1056.00,546.00
             1056.00,546.00 1051.71,501.00 1051.71,501.00
             1051.71,501.00 1050.17,492.00 1050.17,492.00
             1050.17,492.00 1048.71,476.00 1048.71,476.00
             1048.71,476.00 1044.00,434.00 1044.00,434.00
             1043.78,414.95 1041.12,412.16 1038.44,395.00
             1038.44,395.00 1037.56,386.00 1037.56,386.00
             1037.56,386.00 1033.17,358.00 1033.17,358.00
             1033.17,358.00 1031.71,343.00 1031.71,343.00
             1031.71,343.00 1029.29,330.00 1029.29,330.00
             1029.29,330.00 1028.39,321.00 1028.39,321.00
             1028.39,321.00 1024.20,303.00 1024.20,303.00
             1024.20,303.00 1022.70,288.00 1022.70,288.00
             1022.70,288.00 1020.44,277.00 1020.44,277.00
             1020.44,277.00 1019.56,268.00 1019.56,268.00
             1019.56,268.00 1014.20,241.00 1014.20,241.00
             1014.20,241.00 1010.08,222.00 1010.08,222.00
             1010.08,222.00 1007.24,213.00 1007.24,213.00
             1005.94,207.74 1003.08,196.43 1000.65,192.00
             998.37,187.85 991.30,179.52 987.91,176.04
             980.62,168.57 974.97,166.84 966.00,162.69
             966.00,162.69 950.00,154.34 950.00,154.34
             950.00,154.34 940.00,151.14 940.00,151.14
             940.00,151.14 906.00,139.43 906.00,139.43
             906.00,139.43 869.00,135.00 869.00,135.00
             869.00,135.00 860.00,135.00 860.00,135.00
             860.00,135.00 843.00,133.71 843.00,133.71
             837.59,133.00 836.12,132.08 830.00,132.00
             830.00,132.00 813.00,132.00 813.00,132.00
             813.00,132.00 800.00,131.04 800.00,131.04
             800.00,131.04 773.00,134.04 773.00,134.04
             773.00,134.04 764.00,134.04 764.00,134.04
             764.00,134.04 743.00,136.00 743.00,136.00
             743.00,136.00 730.00,136.00 730.00,136.00
             730.00,136.00 694.00,139.00 694.00,139.00
             694.00,139.00 680.00,139.00 680.00,139.00
             680.00,139.00 660.00,141.00 660.00,141.00
             660.00,141.00 645.00,141.00 645.00,141.00
             637.33,141.01 637.94,141.48 631.00,142.56
             631.00,142.56 621.00,143.61 621.00,143.61
             621.00,143.61 602.00,147.56 602.00,147.56
             602.00,147.56 593.00,148.44 593.00,148.44
             593.00,148.44 576.00,151.71 576.00,151.71
             576.00,151.71 559.00,153.29 559.00,153.29
             550.63,154.39 542.50,155.99 534.00,156.00
             534.00,156.00 514.00,157.00 514.00,157.00
             514.00,157.00 466.00,157.00 466.00,157.00
             466.00,157.00 441.00,159.00 441.00,159.00
             441.00,159.00 419.00,159.00 419.00,159.00
             419.00,159.00 377.00,165.08 377.00,165.08
             377.00,165.08 366.00,165.08 366.00,165.08
             366.00,165.08 341.00,168.00 341.00,168.00
             341.00,168.00 328.00,168.00 328.00,168.00
             317.75,167.98 307.08,164.97 297.00,163.00
             297.00,163.00 285.00,161.54 285.00,161.54
             264.79,157.98 266.49,156.04 244.00,156.00
             239.13,155.99 219.42,153.56 215.00,152.23
             215.00,152.23 193.00,144.68 193.00,144.68
             193.00,144.68 167.00,139.30 167.00,139.30
             167.00,139.30 159.00,138.56 159.00,138.56
             159.00,138.56 142.00,135.29 142.00,135.29
             142.00,135.29 128.00,134.39 128.00,134.39
             128.00,134.39 82.00,126.16 82.00,126.16
             82.00,126.16 65.00,126.16 65.00,126.16
             65.00,126.16 59.00,126.16 59.00,126.16 Z
           M 974.00,319.00
           C 978.18,329.89 976.00,327.82 977.61,337.00
             977.61,337.00 980.70,352.00 980.70,352.00
             980.70,352.00 984.29,384.00 984.29,384.00
             984.29,384.00 986.56,396.00 986.56,396.00
             986.56,396.00 987.61,406.00 987.61,406.00
             989.68,417.73 992.86,428.98 993.14,441.00
             993.14,441.00 993.14,453.00 993.14,453.00
             993.14,453.00 994.83,462.00 994.83,462.00
             994.83,462.00 997.29,488.00 997.29,488.00
             997.29,488.00 998.71,496.00 998.71,496.00
             998.71,496.00 1000.29,513.00 1000.29,513.00
             1002.61,530.68 1004.97,548.12 1005.00,566.00
             1005.00,566.00 1008.00,600.00 1008.00,600.00
             1008.00,600.00 1008.00,637.00 1008.00,637.00
             1008.00,637.00 1003.17,677.00 1003.17,677.00
             1003.17,677.00 998.91,726.00 998.91,726.00
             998.91,726.00 998.10,733.00 998.10,733.00
             998.10,733.00 999.00,747.00 999.00,747.00
             999.00,747.00 999.00,806.00 999.00,806.00
             998.99,814.96 997.88,814.90 997.08,822.00
             997.08,822.00 997.08,831.00 997.08,831.00
             996.99,839.35 996.23,838.83 995.29,846.00
             995.29,846.00 993.00,873.00 993.00,873.00
             993.00,873.00 993.00,892.00 993.00,892.00
             980.74,892.00 982.23,892.81 972.00,893.96
             972.00,893.96 963.00,893.96 963.00,893.96
             963.00,893.96 953.00,895.71 953.00,895.71
             953.00,895.71 945.00,896.44 945.00,896.44
             945.00,896.44 934.00,898.70 934.00,898.70
             934.00,898.70 917.00,900.29 917.00,900.29
             908.63,901.39 900.50,902.99 892.00,903.00
             892.00,903.00 864.00,903.00 864.00,903.00
             864.00,903.00 825.00,908.66 825.00,908.66
             825.00,908.66 815.00,911.76 815.00,911.76
             815.00,911.76 771.00,919.71 771.00,919.71
             747.21,922.84 707.94,922.29 683.00,922.00
             683.00,922.00 660.00,918.10 660.00,918.10
             660.00,918.10 650.00,918.10 650.00,918.10
             650.00,918.10 627.00,915.56 627.00,915.56
             611.45,913.13 600.79,909.03 584.00,909.00
             584.00,909.00 516.00,909.00 516.00,909.00
             516.00,909.00 494.00,907.09 494.00,907.09
             494.00,907.09 470.00,905.83 470.00,905.83
             470.00,905.83 449.00,904.00 449.00,904.00
             449.00,904.00 361.00,904.00 361.00,904.00
             361.00,904.00 349.00,903.09 349.00,903.09
             349.00,903.09 325.00,901.04 325.00,901.04
             325.00,901.04 316.00,901.04 316.00,901.04
             316.00,901.04 294.00,898.71 294.00,898.71
             294.00,898.71 281.00,896.29 281.00,896.29
             281.00,896.29 260.00,894.83 260.00,894.83
             260.00,894.83 236.00,891.17 236.00,891.17
             236.00,891.17 212.00,889.91 212.00,889.91
             212.00,889.91 185.00,887.08 185.00,887.08
             185.00,887.08 137.00,881.25 137.00,881.25
             131.63,880.31 119.10,877.35 115.33,873.72
             108.48,867.14 106.50,854.94 103.48,846.00
             99.56,834.39 95.05,823.25 93.30,811.00
             91.02,795.11 91.82,778.06 92.00,762.00
             92.09,754.44 93.83,750.82 94.90,744.00
             94.90,744.00 94.90,734.00 94.90,734.00
             94.90,734.00 96.04,727.00 96.04,727.00
             96.04,727.00 96.04,718.00 96.04,718.00
             96.04,718.00 98.00,697.00 98.00,697.00
             98.00,697.00 98.00,684.00 98.00,684.00
             98.00,684.00 99.14,669.00 99.14,669.00
             99.14,669.00 99.14,657.00 99.14,657.00
             99.14,657.00 100.83,648.00 100.83,648.00
             100.83,648.00 104.17,614.00 104.17,614.00
             104.17,614.00 105.90,598.00 105.90,598.00
             105.90,598.00 105.00,584.00 105.00,584.00
             105.00,584.00 105.00,540.00 105.00,540.00
             105.00,540.00 108.17,504.00 108.17,504.00
             108.17,504.00 114.71,470.00 114.71,470.00
             114.71,470.00 117.92,428.00 117.92,428.00
             117.92,428.00 117.00,415.00 117.00,415.00
             117.00,415.00 117.00,306.00 117.00,306.00
             117.00,306.00 141.00,306.00 141.00,306.00
             141.00,306.00 160.00,308.00 160.00,308.00
             160.00,308.00 192.00,308.00 192.00,308.00
             192.00,308.00 219.00,305.00 219.00,305.00
             219.00,305.00 248.00,305.00 248.00,305.00
             248.00,305.00 293.00,310.71 293.00,310.71
             293.00,310.71 309.00,312.17 309.00,312.17
             309.00,312.17 323.00,314.00 323.00,314.00
             323.00,314.00 346.00,314.00 346.00,314.00
             346.00,314.00 376.00,311.00 376.00,311.00
             376.00,311.00 432.00,311.00 432.00,311.00
             432.00,311.00 447.00,312.00 447.00,312.00
             447.00,312.00 567.00,312.00 567.00,312.00
             567.00,312.00 580.00,312.92 580.00,312.92
             580.00,312.92 588.00,312.09 588.00,312.09
             588.00,312.09 616.00,311.00 616.00,311.00
             616.00,311.00 643.00,309.00 643.00,309.00
             643.00,309.00 744.00,309.00 744.00,309.00
             744.00,309.00 770.00,313.39 770.00,313.39
             770.00,313.39 794.00,316.44 794.00,316.44
             794.00,316.44 816.00,320.94 816.00,320.94
             816.00,320.94 827.00,320.94 827.00,320.94
             827.00,320.94 843.00,323.00 843.00,323.00
             843.00,323.00 902.00,323.00 902.00,323.00
             902.00,323.00 946.00,323.00 946.00,323.00
             946.00,323.00 964.00,320.30 964.00,320.30
             964.00,320.30 974.00,319.00 974.00,319.00 Z
           M 262.00,398.21
           C 262.00,398.21 244.00,400.29 244.00,400.29
             244.00,400.29 218.00,404.28 218.00,404.28
             210.13,405.27 205.11,406.99 197.00,407.00
             186.37,407.02 172.44,405.68 163.00,410.90
             149.18,418.56 146.64,438.80 158.18,449.67
             164.63,455.74 173.54,456.99 182.00,457.00
             182.00,457.00 199.00,457.00 199.00,457.00
             207.34,456.99 212.09,455.60 220.00,454.28
             220.00,454.28 233.00,452.57 233.00,452.57
             244.59,450.85 256.23,448.14 268.00,448.00
             277.61,447.89 295.66,449.10 304.00,445.47
             322.58,437.39 323.96,412.88 307.00,402.13
             299.98,397.68 290.03,398.00 282.00,398.21
             282.00,398.21 262.00,398.21 262.00,398.21 Z" />
  <path id="black"
        fill="black" stroke="none" stroke-width="1"
        d="M 117.00,306.00
           C 117.00,306.00 117.00,415.00 117.00,415.00
             117.00,415.00 117.92,428.00 117.92,428.00
             117.92,428.00 114.71,470.00 114.71,470.00
             114.71,470.00 108.17,504.00 108.17,504.00
             108.17,504.00 105.00,540.00 105.00,540.00
             105.00,540.00 105.00,584.00 105.00,584.00
             105.00,584.00 105.90,598.00 105.90,598.00
             105.90,598.00 104.17,614.00 104.17,614.00
             104.17,614.00 100.83,648.00 100.83,648.00
             100.83,648.00 99.14,657.00 99.14,657.00
             99.14,657.00 99.14,669.00 99.14,669.00
             99.14,669.00 98.00,684.00 98.00,684.00
             98.00,684.00 98.00,698.00 98.00,698.00
             98.00,698.00 96.04,718.00 96.04,718.00
             96.04,718.00 96.04,727.00 96.04,727.00
             96.04,727.00 94.90,734.00 94.90,734.00
             94.90,734.00 94.90,744.00 94.90,744.00
             93.83,750.82 92.09,754.44 92.00,762.00
             91.82,778.06 91.02,795.11 93.30,811.00
             95.05,823.25 99.56,834.39 103.48,846.00
             106.50,854.94 108.48,867.14 115.33,873.72
             119.10,877.35 131.63,880.31 137.00,881.25
             137.00,881.25 185.00,887.08 185.00,887.08
             185.00,887.08 212.00,889.91 212.00,889.91
             212.00,889.91 236.00,891.17 236.00,891.17
             236.00,891.17 260.00,894.83 260.00,894.83
             260.00,894.83 281.00,896.29 281.00,896.29
             281.00,896.29 294.00,898.71 294.00,898.71
             294.00,898.71 316.00,901.04 316.00,901.04
             316.00,901.04 325.00,901.04 325.00,901.04
             325.00,901.04 349.00,903.09 349.00,903.09
             349.00,903.09 361.00,904.00 361.00,904.00
             361.00,904.00 449.00,904.00 449.00,904.00
             449.00,904.00 470.00,905.83 470.00,905.83
             470.00,905.83 494.00,907.09 494.00,907.09
             494.00,907.09 516.00,909.00 516.00,909.00
             516.00,909.00 584.00,909.00 584.00,909.00
             600.79,909.03 611.45,913.13 627.00,915.56
             627.00,915.56 650.00,918.10 650.00,918.10
             650.00,918.10 660.00,918.10 660.00,918.10
             660.00,918.10 683.00,922.00 683.00,922.00
             707.94,922.29 747.21,922.84 771.00,919.71
             771.00,919.71 815.00,911.76 815.00,911.76
             815.00,911.76 825.00,908.66 825.00,908.66
             825.00,908.66 864.00,903.00 864.00,903.00
             864.00,903.00 892.00,903.00 892.00,903.00
             900.50,902.99 908.63,901.39 917.00,900.29
             917.00,900.29 934.00,898.70 934.00,898.70
             934.00,898.70 945.00,896.44 945.00,896.44
             945.00,896.44 953.00,895.71 953.00,895.71
             953.00,895.71 963.00,893.96 963.00,893.96
             963.00,893.96 972.00,893.96 972.00,893.96
             982.23,892.81 980.74,892.00 993.00,892.00
             993.00,892.00 993.00,872.00 993.00,872.00
             993.00,872.00 995.29,846.00 995.29,846.00
             995.29,846.00 997.00,833.00 997.00,833.00
             997.00,833.00 997.00,826.00 997.00,826.00
             997.00,826.00 999.00,808.00 999.00,808.00
             999.00,808.00 999.00,747.00 999.00,747.00
             999.00,747.00 998.08,734.00 998.08,734.00
             998.08,734.00 999.00,726.00 999.00,726.00
             999.00,726.00 999.00,718.00 999.00,718.00
             999.00,718.00 1000.83,702.00 1000.83,702.00
             1000.83,702.00 1003.29,676.00 1003.29,676.00
             1003.29,676.00 1008.00,639.00 1008.00,639.00
             1008.00,639.00 1008.00,602.00 1008.00,602.00
             1008.00,602.00 1005.00,566.00 1005.00,566.00
             1005.00,566.00 1001.83,522.00 1001.83,522.00
             1001.83,522.00 1000.17,512.00 1000.17,512.00
             1000.17,512.00 994.83,462.00 994.83,462.00
             994.83,462.00 993.14,453.00 993.14,453.00
             993.14,453.00 993.14,441.00 993.14,441.00
             993.14,441.00 987.61,406.00 987.61,406.00
             987.61,406.00 986.56,396.00 986.56,396.00
             986.56,396.00 984.29,384.00 984.29,384.00
             984.29,384.00 980.70,352.00 980.70,352.00
             980.70,352.00 977.61,337.00 977.61,337.00
             977.61,337.00 974.00,319.00 974.00,319.00
             974.00,319.00 964.00,320.30 964.00,320.30
             964.00,320.30 945.00,323.00 945.00,323.00
             945.00,323.00 902.00,323.00 902.00,323.00
             902.00,323.00 843.00,323.00 843.00,323.00
             843.00,323.00 827.00,320.94 827.00,320.94
             827.00,320.94 816.00,320.94 816.00,320.94
             816.00,320.94 794.00,316.44 794.00,316.44
             794.00,316.44 770.00,313.39 770.00,313.39
             770.00,313.39 744.00,309.00 744.00,309.00
             744.00,309.00 643.00,309.00 643.00,309.00
             643.00,309.00 622.00,310.92 622.00,310.92
             622.00,310.92 608.00,310.92 608.00,310.92
             608.00,310.92 581.00,312.90 581.00,312.90
             581.00,312.90 567.00,312.00 567.00,312.00
             567.00,312.00 449.00,312.00 449.00,312.00
             449.00,312.00 432.00,311.00 432.00,311.00
             432.00,311.00 378.00,311.00 378.00,311.00
             378.00,311.00 361.00,312.29 361.00,312.29
             361.00,312.29 347.00,314.00 347.00,314.00
             347.00,314.00 325.00,314.00 325.00,314.00
             325.00,314.00 309.00,312.17 309.00,312.17
             309.00,312.17 293.00,310.71 293.00,310.71
             293.00,310.71 248.00,305.00 248.00,305.00
             248.00,305.00 218.00,305.00 218.00,305.00
             218.00,305.00 192.00,308.00 192.00,308.00
             192.00,308.00 160.00,308.00 160.00,308.00
             160.00,308.00 140.00,306.00 140.00,306.00
             140.00,306.00 117.00,306.00 117.00,306.00 Z
           M 260.00,397.14
           C 260.00,397.14 281.00,397.14 281.00,397.14
             292.43,397.00 302.91,395.45 311.96,404.10
             323.83,415.46 322.37,434.80 309.00,444.36
             303.64,448.20 298.39,448.97 292.00,449.00
             292.00,449.00 266.00,449.00 266.00,449.00
             254.14,449.14 242.60,452.35 231.00,454.39
             231.00,454.39 221.00,455.44 221.00,455.44
             212.41,456.78 211.63,457.98 202.00,458.00
             202.00,458.00 179.00,458.00 179.00,458.00
             171.17,457.99 165.20,457.19 159.02,451.79
             145.57,440.05 147.37,418.32 163.00,409.36
             168.43,406.25 172.97,406.01 179.00,406.00
             179.00,406.00 198.00,406.00 198.00,406.00
             198.00,406.00 236.00,400.29 236.00,400.29
             236.00,400.29 260.00,397.14 260.00,397.14 Z" />
</svg>
