<?xml version="1.0" encoding="UTF-8" standalone="no"?>
<!DOCTYPE svg PUBLIC "-//W3C//DTD SVG 20010904//EN"
              "http://www.w3.org/TR/2001/REC-SVG-20010904/DTD/svg10.dtd">

<svg xmlns="http://www.w3.org/2000/svg"
     width="15in" height="15in"
     viewBox="0 0 1080 1080">
  <path id="Selection"
        fill="#e0ff6c" stroke="none" stroke-width="1"
        d="M 563.00,148.15
           C 563.00,148.15 541.00,151.92 541.00,151.92
             541.00,151.92 523.00,158.35 523.00,158.35
             523.00,158.35 514.00,163.10 514.00,163.10
             514.00,163.10 498.00,169.26 498.00,169.26
             498.00,169.26 474.00,184.22 474.00,184.22
             474.00,184.22 455.00,201.13 455.00,201.13
             455.00,201.13 438.00,214.17 438.00,214.17
             438.00,214.17 425.00,226.83 425.00,226.83
             417.06,233.92 409.45,239.05 402.93,248.00
             402.93,248.00 391.26,267.00 391.26,267.00
             391.26,267.00 386.11,278.00 386.11,278.00
             386.11,278.00 377.32,293.00 377.32,293.00
             377.32,293.00 370.56,311.00 370.56,311.00
             370.56,311.00 364.56,325.00 364.56,325.00
             364.56,325.00 356.93,340.00 356.93,340.00
             356.93,340.00 349.08,363.00 349.08,363.00
             349.08,363.00 342.86,378.00 342.86,378.00
             342.86,378.00 331.80,413.00 331.80,413.00
             331.80,413.00 327.38,426.00 327.38,426.00
             327.38,426.00 318.10,471.00 318.10,471.00
             318.10,471.00 318.10,480.00 318.10,480.00
             318.10,480.00 315.83,501.00 315.83,501.00
             315.83,501.00 313.00,532.00 313.00,532.00
             313.00,532.00 313.00,576.00 313.00,576.00
             313.02,588.19 315.62,600.10 318.00,612.00
             320.33,623.67 322.55,635.77 326.55,647.00
             326.55,647.00 332.00,660.00 332.00,660.00
             335.55,668.92 336.68,675.32 341.92,684.00
             351.27,699.49 362.58,713.76 373.62,728.00
             373.62,728.00 378.91,736.00 378.91,736.00
             383.80,742.92 394.96,756.29 401.01,761.83
             407.91,768.14 433.60,785.63 442.00,789.74
             442.00,789.74 473.00,803.31 473.00,803.31
             473.00,803.31 494.00,813.67 494.00,813.67
             494.00,813.67 510.00,819.31 510.00,819.31
             510.00,819.31 528.00,828.45 528.00,828.45
             536.87,831.62 562.56,837.47 572.00,838.71
             572.00,838.71 588.00,840.17 588.00,840.17
             588.00,840.17 611.00,844.56 611.00,844.56
             611.00,844.56 630.00,846.63 630.00,846.63
             639.35,848.26 652.17,850.67 661.00,846.63
             681.40,837.35 680.80,807.36 660.00,798.93
             650.91,795.25 640.53,796.05 631.00,794.56
             631.00,794.56 616.00,792.54 616.00,792.54
             616.00,792.54 605.00,790.29 605.00,790.29
             605.00,790.29 597.00,789.56 597.00,789.56
             597.00,789.56 585.00,787.29 585.00,787.29
             574.07,785.85 561.54,784.51 551.00,781.23
             551.00,781.23 534.00,772.86 534.00,772.86
             534.00,772.86 524.00,768.55 524.00,768.55
             524.00,768.55 512.00,764.57 512.00,764.57
             512.00,764.57 494.00,755.31 494.00,755.31
             471.44,744.97 469.11,746.43 447.00,730.91
             447.00,730.91 439.17,725.61 439.17,725.61
             439.17,725.61 422.22,706.00 422.22,706.00
             422.22,706.00 415.40,695.00 415.40,695.00
             415.40,695.00 403.47,681.00 403.47,681.00
             403.47,681.00 386.89,657.00 386.89,657.00
             386.89,657.00 380.39,640.00 380.39,640.00
             380.39,640.00 376.55,631.00 376.55,631.00
             371.28,616.21 365.02,585.59 365.00,570.00
             365.00,570.00 365.00,533.00 365.00,533.00
             365.00,533.00 368.83,497.00 368.83,497.00
             368.83,497.00 370.44,475.00 370.44,475.00
             370.44,475.00 377.44,441.00 377.44,441.00
             377.44,441.00 384.49,420.00 384.49,420.00
             384.49,420.00 387.52,409.00 387.52,409.00
             387.52,409.00 401.39,371.00 401.39,371.00
             401.39,371.00 404.87,361.00 404.87,361.00
             404.87,361.00 414.14,342.00 414.14,342.00
             414.14,342.00 419.77,329.00 419.77,329.00
             419.77,329.00 422.90,320.00 422.90,320.00
             422.90,320.00 433.24,301.00 433.24,301.00
             436.98,293.53 439.39,286.83 444.68,280.00
             448.53,275.02 450.70,273.92 455.00,269.91
             455.00,269.91 468.00,257.30 468.00,257.30
             468.00,257.30 487.00,242.87 487.00,242.87
             487.00,242.87 508.00,224.63 508.00,224.63
             514.15,220.16 520.85,216.05 528.00,213.44
             528.00,213.44 536.00,210.65 536.00,210.65
             536.00,210.65 546.00,205.47 546.00,205.47
             553.48,202.42 568.87,200.01 577.00,200.00
             577.00,200.00 639.00,200.00 639.00,200.00
             639.00,200.00 659.00,201.00 659.00,201.00
             671.99,201.02 674.88,203.80 686.00,206.32
             686.00,206.32 695.00,207.60 695.00,207.60
             698.82,208.51 700.70,209.64 705.00,209.91
             720.04,210.83 732.83,198.04 731.91,183.00
             731.22,171.91 722.83,162.78 713.00,158.35
             706.20,155.28 702.91,156.58 698.00,155.47
             698.00,155.47 688.00,152.47 688.00,152.47
             688.00,152.47 670.00,149.96 670.00,149.96
             670.00,149.96 661.00,149.96 661.00,149.96
             661.00,149.96 647.00,148.15 647.00,148.15
             647.00,148.15 594.00,148.15 594.00,148.15
             594.00,148.15 563.00,148.15 563.00,148.15 Z" />
</svg>
