<?xml version="1.0" encoding="UTF-8" standalone="no"?>
<!DOCTYPE svg PUBLIC "-//W3C//DTD SVG 20010904//EN"
              "http://www.w3.org/TR/2001/REC-SVG-20010904/DTD/svg10.dtd">

<svg xmlns="http://www.w3.org/2000/svg"
     width="3.6in" height="3.6in"
     viewBox="0 0 1080 1080">
  <path id="Selection"
        fill="#65daff" stroke="none" stroke-width="1"
        d="M 365.00,375.00
           C 365.00,375.00 365.00,373.00 365.00,373.00
             367.66,370.62 367.79,362.81 368.65,359.00
             368.65,359.00 371.52,346.04 371.52,346.04
             371.52,346.04 373.93,339.83 373.93,339.83
             373.93,339.83 377.52,326.00 377.52,326.00
             379.22,321.14 380.15,320.82 382.12,316.91
             382.12,316.91 388.39,305.91 388.39,305.91
             396.58,291.50 396.08,293.40 407.58,281.72
             407.58,281.72 419.00,270.45 419.00,270.45
             426.22,264.43 450.49,249.31 459.09,245.60
             459.09,245.60 470.91,242.32 470.91,242.32
             470.91,242.32 478.04,239.69 478.04,239.69
             478.04,239.69 502.83,234.78 502.83,234.78
             502.83,234.78 507.15,233.52 507.15,233.52
             510.58,232.94 511.44,234.60 516.04,234.96
             516.04,234.96 544.00,237.00 544.00,237.00
             559.59,237.19 564.69,241.29 577.09,249.72
             581.63,252.81 596.21,263.75 599.39,267.32
             602.05,270.30 608.38,280.20 610.42,283.96
             610.42,283.96 614.91,291.09 614.91,291.09
             614.91,291.09 618.37,301.72 618.37,301.72
             621.67,310.35 622.98,309.82 623.02,320.00
             623.02,320.00 623.02,333.00 623.02,333.00
             623.02,333.00 623.82,343.00 623.82,343.00
             623.25,351.00 622.56,359.16 620.79,367.00
             620.79,367.00 617.95,376.09 617.95,376.09
             617.95,376.09 615.20,392.00 615.20,392.00
             615.20,392.00 611.95,405.09 611.95,405.09
             611.95,405.09 609.87,421.00 609.87,421.00
             609.87,421.00 607.85,438.00 607.85,438.00
             607.85,438.00 607.85,459.00 607.85,459.00
             607.85,459.00 605.08,468.09 605.08,468.09
             603.47,477.97 604.54,481.51 600.62,491.96
             600.62,491.96 593.92,508.83 593.92,508.83
             588.98,518.10 584.13,523.92 584.00,535.00
             583.96,538.70 583.70,545.52 584.82,548.83
             589.91,563.99 603.72,575.81 620.00,576.00
             625.58,576.06 632.57,576.20 637.83,574.19
             646.75,570.78 657.07,560.12 661.82,551.96
             661.82,551.96 674.45,527.96 674.45,527.96
             676.82,521.95 682.18,500.43 682.83,494.00
             682.83,494.00 684.28,475.00 684.28,475.00
             684.28,475.00 686.78,462.83 686.78,462.83
             688.23,455.63 687.99,448.30 688.00,441.00
             688.00,441.00 690.44,416.00 690.44,416.00
             690.44,416.00 696.42,396.04 696.42,396.04
             696.42,396.04 700.60,389.83 700.60,389.83
             700.60,389.83 706.93,374.83 706.93,374.83
             708.67,368.78 708.01,350.32 708.00,343.00
             708.00,343.00 706.76,327.17 706.76,327.17
             706.76,327.17 705.26,321.91 705.26,321.91
             705.26,321.91 704.49,312.00 704.49,312.00
             704.49,312.00 699.94,292.17 699.94,292.17
             699.94,292.17 694.51,276.00 694.51,276.00
             694.51,276.00 688.26,257.04 688.26,257.04
             683.27,245.80 662.23,216.17 653.56,207.44
             653.56,207.44 637.42,194.14 637.42,194.14
             625.65,184.36 622.92,180.16 608.72,173.14
             596.85,167.27 586.65,165.04 574.09,161.82
             574.09,161.82 568.83,160.24 568.83,160.24
             568.83,160.24 537.00,157.96 537.00,157.96
             537.00,157.96 524.00,157.00 524.00,157.00
             524.00,157.00 486.00,157.00 486.00,157.00
             474.32,157.02 474.40,159.28 464.91,161.82
             464.91,161.82 451.00,164.77 451.00,164.77
             451.00,164.77 437.99,169.61 437.99,169.61
             437.99,169.61 426.17,172.74 426.17,172.74
             419.42,175.61 405.26,182.78 399.28,186.71
             399.28,186.71 385.91,195.95 385.91,195.95
             377.89,201.13 369.57,206.08 362.28,212.29
             362.28,212.29 351.84,222.32 351.84,222.32
             347.15,226.38 342.91,229.43 338.75,234.28
             333.30,240.64 326.54,252.50 322.22,259.96
             322.22,259.96 316.93,268.04 316.93,268.04
             310.12,279.87 305.50,292.08 301.03,304.91
             301.03,304.91 296.50,319.00 296.50,319.00
             296.50,319.00 293.90,331.91 293.90,331.91
             291.32,340.75 288.12,347.38 288.00,357.00
             288.00,357.00 288.00,393.00 288.00,393.00
             288.00,393.00 290.00,416.00 290.00,416.00
             290.03,422.66 290.90,429.30 292.22,435.83
             292.22,435.83 293.87,442.04 293.87,442.04
             293.87,442.04 296.04,467.00 296.04,467.00
             296.04,467.00 305.22,492.91 305.22,492.91
             305.22,492.91 308.77,500.04 308.77,500.04
             308.77,500.04 320.82,536.17 320.82,536.17
             320.82,536.17 324.89,550.96 324.89,550.96
             324.89,550.96 333.40,567.28 333.40,567.28
             333.40,567.28 337.68,575.83 337.68,575.83
             344.25,584.97 354.98,589.98 366.00,590.00
             371.21,590.01 375.88,590.32 380.96,588.84
             394.82,584.80 407.82,570.81 408.00,556.00
             408.00,556.00 408.00,548.00 408.00,548.00
             407.85,535.08 400.01,523.93 396.09,512.00
             396.09,512.00 394.05,504.17 394.05,504.17
             394.05,504.17 391.69,497.96 391.69,497.96
             391.69,497.96 388.16,484.01 388.16,484.01
             388.16,484.01 375.88,452.00 375.88,452.00
             375.88,452.00 372.26,437.91 372.26,437.91
             372.26,437.91 370.27,421.00 370.27,421.00
             368.22,406.64 367.00,403.08 367.00,388.00
             367.00,383.95 368.24,377.91 365.00,375.00 Z
           M 748.00,769.00
           C 749.31,777.46 751.17,779.06 753.77,786.04
             753.77,786.04 757.93,798.83 757.93,798.83
             757.93,798.83 760.76,805.04 760.76,805.04
             760.76,805.04 764.95,825.91 764.95,825.91
             764.95,825.91 767.83,834.01 767.83,834.01
             767.83,834.01 775.88,866.00 775.88,866.00
             775.88,866.00 780.33,880.04 780.33,880.04
             784.53,893.83 784.01,899.12 796.07,909.75
             802.15,915.12 808.90,917.90 817.00,918.00
             832.43,918.18 844.63,916.47 854.35,902.83
             860.80,893.80 861.12,887.63 861.00,877.00
             860.91,869.83 857.29,861.40 855.47,854.00
             855.47,854.00 853.50,845.09 853.50,845.09
             853.50,845.09 850.84,837.96 850.84,837.96
             850.84,837.96 845.85,816.17 845.85,816.17
             845.85,816.17 842.71,807.00 842.71,807.00
             842.71,807.00 840.17,795.09 840.17,795.09
             840.17,795.09 837.84,787.96 837.84,787.96
             837.84,787.96 833.85,771.04 833.85,771.04
             833.85,771.04 830.38,762.96 830.38,762.96
             830.38,762.96 826.66,752.09 826.66,752.09
             826.66,752.09 817.48,732.91 817.48,732.91
             817.48,732.91 812.98,723.28 812.98,723.28
             808.15,715.24 796.76,703.85 788.72,699.02
             788.72,699.02 780.01,695.05 780.01,695.05
             780.01,695.05 772.83,691.95 772.83,691.95
             772.83,691.95 750.00,688.79 750.00,688.79
             739.09,686.48 735.95,683.16 723.00,683.00
             716.32,682.93 703.83,683.85 698.28,680.15
             687.52,672.96 677.89,651.51 675.61,639.00
             675.61,639.00 672.65,619.28 672.65,619.28
             667.62,604.65 654.62,594.19 639.00,594.00
             639.00,594.00 631.00,594.00 631.00,594.00
             620.55,594.13 610.31,598.80 603.80,607.17
             602.04,609.43 601.36,611.42 600.04,613.83
             598.93,615.86 598.10,616.77 597.33,619.09
             596.25,622.31 594.90,635.43 595.04,639.00
             595.75,657.32 602.72,678.76 611.51,694.83
             611.51,694.83 615.33,701.04 615.33,701.04
             615.33,701.04 624.93,719.72 624.93,719.72
             628.10,724.41 631.74,728.05 635.72,732.00
             647.87,744.07 646.00,743.30 660.91,751.35
             666.77,754.52 667.28,755.01 674.00,756.96
             681.80,759.22 687.14,758.95 695.00,759.00
             702.84,759.05 700.82,759.98 705.17,760.76
             705.17,760.76 717.00,762.14 717.00,762.14
             725.94,763.61 727.46,765.96 732.09,767.32
             737.69,768.97 742.27,769.00 748.00,769.00 Z
           M 394.42,626.69
           C 390.55,628.24 384.68,630.21 381.42,632.48
             367.96,641.87 364.64,655.52 364.04,671.00
             363.80,677.04 366.10,686.38 364.57,692.00
             363.55,695.74 360.45,698.19 358.18,701.17
             354.61,705.84 350.18,712.33 345.91,716.33
             345.91,716.33 317.17,737.77 317.17,737.77
             308.91,744.22 304.42,750.43 293.91,754.17
             293.91,754.17 274.04,758.58 274.04,758.58
             274.04,758.58 266.91,760.83 266.91,760.83
             266.91,760.83 251.09,764.50 251.09,764.50
             251.09,764.50 234.09,771.17 234.09,771.17
             234.09,771.17 226.96,775.38 226.96,775.38
             226.96,775.38 220.28,779.08 220.28,779.08
             208.54,787.37 201.66,798.39 195.36,810.91
             195.36,810.91 191.54,818.04 191.54,818.04
             191.54,818.04 188.20,827.91 188.20,827.91
             188.20,827.91 181.20,847.91 181.20,847.91
             181.20,847.91 178.37,854.09 178.37,854.09
             178.37,854.09 175.38,863.96 175.38,863.96
             172.09,873.67 171.02,872.52 171.00,884.00
             171.00,884.00 171.00,928.00 171.00,928.00
             171.01,932.46 171.29,937.60 172.53,941.91
             173.18,944.18 174.32,945.99 175.37,948.09
             182.12,961.62 192.50,969.81 208.00,970.00
             213.00,970.05 219.28,970.38 224.00,968.96
             233.51,966.10 244.42,956.08 248.07,946.83
             249.90,942.20 249.99,938.86 250.00,934.00
             250.00,934.00 249.00,912.00 249.00,912.00
             248.99,906.87 248.66,898.75 249.67,894.00
             249.67,894.00 256.53,874.00 256.53,874.00
             258.13,867.61 263.06,851.15 266.81,846.30
             270.36,841.72 284.15,837.78 290.00,836.75
             290.00,836.75 305.83,833.85 305.83,833.85
             305.83,833.85 319.00,829.47 319.00,829.47
             319.00,829.47 333.58,826.26 333.58,826.26
             344.94,821.18 367.48,801.19 378.28,792.48
             378.28,792.48 385.83,787.93 385.83,787.93
             391.10,784.54 398.31,779.99 402.83,775.83
             410.87,768.45 410.31,765.57 416.44,758.00
             422.64,750.35 429.88,743.34 434.97,734.83
             444.24,719.37 444.20,704.32 444.00,687.00
             444.00,687.00 442.17,666.00 442.17,666.00
             441.71,661.21 442.41,657.09 440.62,652.28
             438.01,645.26 432.62,637.24 426.58,632.78
             418.92,627.13 403.61,624.43 394.42,626.69 Z" />
</svg>
