<?xml version="1.0" encoding="UTF-8" standalone="no"?>
<!DOCTYPE svg PUBLIC "-//W3C//DTD SVG 20010904//EN"
              "http://www.w3.org/TR/2001/REC-SVG-20010904/DTD/svg10.dtd">

<svg xmlns="http://www.w3.org/2000/svg"
     width="15in" height="15in"
     viewBox="0 0 1080 1080">
  <path id="Selection"
        fill="#ffed6c" stroke="none" stroke-width="1"
        d="M 329.00,256.42
           C 329.00,256.42 319.00,257.47 319.00,257.47
             303.62,260.35 281.12,271.89 267.00,279.22
             258.60,283.58 249.59,286.83 242.00,292.68
             242.00,292.68 217.30,316.00 217.30,316.00
             217.30,316.00 207.83,328.00 207.83,328.00
             207.83,328.00 185.58,352.00 185.58,352.00
             185.58,352.00 177.30,361.00 177.30,361.00
             177.30,361.00 169.91,370.00 169.91,370.00
             159.91,380.79 152.84,387.13 144.55,400.00
             144.55,400.00 127.11,433.00 127.11,433.00
             127.11,433.00 114.31,457.00 114.31,457.00
             114.31,457.00 108.80,472.00 108.80,472.00
             108.80,472.00 101.23,490.00 101.23,490.00
             97.38,500.30 91.39,523.08 89.46,534.00
             89.46,534.00 87.83,556.00 87.83,556.00
             87.83,556.00 85.00,587.00 85.00,587.00
             85.00,587.00 85.00,621.00 85.00,621.00
             85.02,634.79 91.86,659.99 96.92,673.00
             96.92,673.00 103.57,688.00 103.57,688.00
             103.57,688.00 109.00,703.00 109.00,703.00
             109.00,703.00 121.42,732.00 121.42,732.00
             121.42,732.00 134.93,759.00 134.93,759.00
             134.93,759.00 142.54,770.00 142.54,770.00
             142.54,770.00 159.21,795.00 159.21,795.00
             164.53,801.26 170.97,805.74 176.83,811.30
             176.83,811.30 185.00,819.61 185.00,819.61
             185.00,819.61 192.00,824.22 192.00,824.22
             211.38,837.40 229.12,845.46 251.00,853.44
             251.00,853.44 275.00,862.08 275.00,862.08
             282.97,864.26 294.71,866.04 303.00,867.07
             303.00,867.07 314.00,867.07 314.00,867.07
             314.00,867.07 346.00,875.95 346.00,875.95
             356.34,879.50 362.51,883.72 374.00,879.07
             389.75,872.70 395.10,852.23 384.61,839.00
             379.32,832.33 370.71,829.15 363.00,826.01
             355.83,823.09 348.45,822.19 341.00,820.34
             335.16,818.88 331.43,817.12 325.00,816.10
             325.00,816.10 315.00,816.10 315.00,816.10
             308.00,815.43 300.85,814.52 294.00,812.99
             294.00,812.99 273.00,805.86 273.00,805.86
             247.38,797.14 230.78,789.02 210.00,771.30
             210.00,771.30 203.21,765.70 203.21,765.70
             203.21,765.70 187.54,744.00 187.54,744.00
             173.53,722.49 163.72,698.94 154.77,675.00
             154.77,675.00 140.49,638.00 140.49,638.00
             136.06,621.51 136.81,607.83 137.00,591.00
             137.00,591.00 138.91,571.00 138.91,571.00
             138.91,571.00 140.12,555.00 140.12,555.00
             140.12,555.00 140.12,546.00 140.12,546.00
             140.12,546.00 145.34,526.00 145.34,526.00
             145.34,526.00 147.77,515.00 147.77,515.00
             147.77,515.00 155.57,496.00 155.57,496.00
             155.57,496.00 162.31,478.00 162.31,478.00
             162.31,478.00 173.22,458.00 173.22,458.00
             179.27,446.51 184.21,434.64 191.88,424.00
             191.88,424.00 210.91,403.00 210.91,403.00
             210.91,403.00 220.46,391.00 220.46,391.00
             220.46,391.00 227.83,383.00 227.83,383.00
             227.83,383.00 248.83,361.00 248.83,361.00
             248.83,361.00 255.60,352.28 255.60,352.28
             258.14,349.33 272.80,335.98 276.00,333.61
             276.00,333.61 306.00,318.14 306.00,318.14
             315.16,314.08 326.88,308.14 337.00,308.00
             345.04,307.90 350.97,308.39 358.00,303.36
             372.69,292.86 372.69,271.14 358.00,260.64
             350.26,255.10 338.12,255.31 329.00,256.42 Z
           M 837.00,502.00
           C 837.00,502.00 787.00,496.00 787.00,496.00
             775.87,495.87 767.25,496.04 758.00,503.39
             744.36,514.23 744.80,534.21 759.00,544.36
             769.97,552.21 777.87,547.31 789.00,548.09
             789.00,548.09 818.00,553.78 818.00,553.78
             818.00,553.78 837.00,553.78 837.00,553.78
             837.00,553.78 835.09,583.00 835.09,583.00
             835.09,583.00 832.53,619.00 832.53,619.00
             832.53,619.00 829.47,630.00 829.47,630.00
             829.47,630.00 826.39,654.00 826.39,654.00
             825.16,660.98 823.09,667.87 823.00,675.00
             822.89,684.79 822.27,693.04 829.21,700.98
             841.52,715.09 864.77,712.28 872.65,695.00
             875.71,688.29 875.29,670.62 877.20,661.00
             877.20,661.00 880.37,643.00 880.37,643.00
             880.37,643.00 883.56,630.00 883.56,630.00
             883.56,630.00 886.09,599.00 886.09,599.00
             886.09,599.00 888.00,572.00 888.00,572.00
             888.00,572.00 888.97,560.00 888.97,560.00
             888.97,560.00 888.00,549.00 888.00,549.00
             888.00,549.00 899.00,547.92 899.00,547.92
             899.00,547.92 910.00,547.92 910.00,547.92
             919.44,546.89 916.96,546.06 929.00,546.00
             941.54,545.94 941.06,542.53 949.00,541.90
             949.00,541.90 959.00,541.90 959.00,541.90
             967.73,541.91 977.46,544.39 986.00,541.90
             996.56,539.21 1004.23,529.94 1004.91,519.00
             1006.05,500.53 991.58,493.37 976.00,490.61
             964.92,488.65 956.98,489.16 946.00,489.91
             946.00,489.91 936.00,490.47 936.00,490.47
             936.00,490.47 922.00,494.94 922.00,494.94
             922.00,494.94 915.00,494.94 915.00,494.94
             915.00,494.94 908.00,495.96 908.00,495.96
             908.00,495.96 889.00,495.96 889.00,495.96
             889.00,495.96 884.00,446.00 884.00,446.00
             884.00,446.00 884.00,423.00 884.00,423.00
             884.00,423.00 881.96,399.00 881.96,399.00
             881.96,399.00 881.96,389.00 881.96,389.00
             881.96,389.00 881.00,379.00 881.00,379.00
             880.83,363.98 880.11,350.45 868.91,339.04
             864.27,334.31 858.66,331.50 852.00,331.09
             836.67,330.15 824.54,342.85 825.04,358.00
             825.27,364.76 827.27,366.64 828.47,372.00
             829.24,375.43 828.96,380.37 829.00,384.00
             829.00,384.00 831.04,402.00 831.04,402.00
             831.04,402.00 831.04,417.00 831.04,417.00
             831.04,417.00 832.00,429.00 832.00,429.00
             832.00,429.00 832.00,449.00 832.00,449.00
             832.00,449.00 833.04,459.00 833.04,459.00
             833.04,459.00 833.04,468.00 833.04,468.00
             833.04,468.00 834.71,477.00 834.71,477.00
             834.71,477.00 837.00,502.00 837.00,502.00 Z
           M 481.00,533.00
           C 481.00,533.00 460.00,535.00 460.00,535.00
             460.00,535.00 431.00,537.00 431.00,537.00
             417.52,537.15 400.62,534.98 390.04,545.10
             376.29,558.26 380.81,581.95 399.00,588.15
             408.06,591.69 416.80,588.01 426.00,588.15
             426.00,588.15 442.00,588.15 442.00,588.15
             442.00,588.15 457.00,587.00 457.00,587.00
             464.74,586.99 472.37,586.37 480.00,585.00
             480.00,585.00 478.00,612.00 478.00,612.00
             478.00,612.00 476.91,650.00 476.91,650.00
             476.42,657.06 475.02,656.75 475.00,667.00
             475.00,667.00 475.00,690.00 475.00,690.00
             475.01,697.83 475.81,703.80 481.21,709.98
             492.95,723.43 514.68,721.63 523.64,706.00
             526.75,700.57 526.99,696.03 527.00,690.00
             527.00,690.00 528.09,653.00 528.09,653.00
             528.58,645.94 529.98,646.25 530.00,636.00
             530.00,636.00 531.00,584.00 531.00,584.00
             531.00,584.00 561.00,582.00 561.00,582.00
             561.00,582.00 581.00,582.91 581.00,582.91
             581.00,582.91 600.00,581.83 600.00,581.83
             600.00,581.83 610.00,580.17 610.00,580.17
             610.00,580.17 636.00,577.71 636.00,577.71
             636.00,577.71 675.00,571.70 675.00,571.70
             693.03,568.95 702.67,548.76 693.64,533.00
             684.02,516.23 667.58,519.61 652.00,522.42
             652.00,522.42 640.00,524.71 640.00,524.71
             640.00,524.71 623.00,526.29 623.00,526.29
             605.36,528.61 587.85,531.08 570.00,531.00
             570.00,531.00 559.00,530.09 559.00,530.09
             559.00,530.09 533.00,532.00 533.00,532.00
             533.00,532.00 533.00,488.00 533.00,488.00
             533.00,488.00 537.00,436.00 537.00,436.00
             537.00,436.00 537.00,424.00 537.00,424.00
             537.02,411.95 539.87,413.76 540.00,403.00
             540.11,393.47 540.53,385.74 533.79,378.02
             521.26,363.67 498.17,367.13 490.93,385.00
             488.64,390.64 488.50,396.13 487.71,402.00
             486.12,413.81 484.64,411.60 485.49,425.00
             485.49,425.00 484.00,441.00 484.00,441.00
             484.00,441.00 484.00,451.00 484.00,451.00
             484.00,451.00 481.00,482.00 481.00,482.00
             481.00,482.00 481.00,533.00 481.00,533.00 Z" />
</svg>
