<?xml version="1.0" encoding="UTF-8" standalone="no"?>
<!DOCTYPE svg PUBLIC "-//W3C//DTD SVG 20010904//EN"
              "http://www.w3.org/TR/2001/REC-SVG-20010904/DTD/svg10.dtd">

<svg xmlns="http://www.w3.org/2000/svg"
     width="3.6in" height="3.6in"
     viewBox="0 0 1080 1080">
  <path id="Selection #2"
        fill="#5e5e5e" stroke="none" stroke-width="1"
        d="M 735.00,716.00
           C 731.88,722.90 727.77,723.34 723.76,728.04
             718.98,733.65 714.11,747.71 714.00,755.00
             713.85,765.68 716.59,780.56 723.76,788.96
             723.76,788.96 729.97,794.37 729.97,794.37
             733.25,797.35 734.98,799.77 739.44,801.31
             739.44,801.31 746.00,802.46 746.00,802.46
             756.41,804.35 756.71,803.94 767.00,804.00
             775.14,804.05 773.54,805.43 778.08,805.88
             783.60,806.43 788.80,803.58 793.23,800.72
             809.60,790.16 816.28,773.97 816.00,755.00
             815.89,747.65 811.24,734.70 806.80,728.74
             803.24,723.95 798.64,721.84 796.00,716.00
             790.46,714.51 790.11,712.06 784.72,710.41
             773.84,707.09 770.12,707.98 759.00,708.00
             744.56,708.02 742.26,714.05 735.00,716.00 Z" />
  <path id="Selection #1"
        fill="#858585" stroke="none" stroke-width="1"
        d="M 659.00,555.00
           C 659.00,555.00 659.00,558.00 659.00,558.00
             651.59,558.21 648.16,560.78 641.73,563.27
             622.76,570.60 605.03,590.35 594.89,607.57
             591.02,614.15 586.12,625.38 586.00,633.00
             586.00,633.00 586.00,652.00 586.00,652.00
             586.05,661.33 591.64,674.80 597.20,682.26
             597.20,682.26 605.00,690.33 605.00,690.33
             611.10,696.43 615.89,701.90 625.00,702.00
             625.00,702.00 621.00,733.00 621.00,733.00
             621.00,733.00 618.00,733.00 618.00,733.00
             618.00,733.00 618.00,740.00 618.00,740.00
             618.00,741.99 618.10,744.97 617.49,746.82
             615.29,753.54 606.93,755.27 602.35,759.37
             602.35,759.37 596.26,765.22 596.26,765.22
             596.26,765.22 590.37,769.38 590.37,769.38
             590.37,769.38 581.76,779.04 581.76,779.04
             581.76,779.04 578.22,784.26 578.22,784.26
             574.06,789.54 568.89,795.10 568.00,802.00
             568.00,802.00 565.00,802.00 565.00,802.00
             565.00,802.00 559.43,823.28 559.43,823.28
             559.43,823.28 558.74,829.91 558.74,829.91
             558.74,829.91 557.12,835.17 557.12,835.17
             557.12,835.17 557.12,851.00 557.12,851.00
             557.02,863.32 562.59,869.04 565.00,879.00
             569.70,881.61 573.78,891.07 578.33,895.67
             578.33,895.67 593.04,910.24 593.04,910.24
             593.04,910.24 598.26,913.78 598.26,913.78
             611.25,924.00 626.10,932.00 643.00,932.00
             643.00,932.00 643.00,935.00 643.00,935.00
             643.00,935.00 655.00,935.00 655.00,935.00
             655.00,935.00 655.00,932.00 655.00,932.00
             672.44,932.00 684.52,924.67 698.47,915.22
             701.70,913.03 711.94,904.74 714.00,902.00
             714.00,902.00 716.00,902.00 716.00,902.00
             720.43,907.08 728.14,905.22 733.91,906.26
             738.90,907.16 735.62,907.98 745.00,908.00
             745.00,908.00 766.00,908.00 766.00,908.00
             774.17,907.95 772.01,906.73 777.04,906.01
             777.04,906.01 784.91,906.01 784.91,906.01
             784.91,906.01 801.98,900.97 801.98,900.97
             805.50,901.34 805.61,905.82 808.26,909.73
             808.26,909.73 816.38,921.62 816.38,921.62
             819.41,924.64 826.46,927.19 830.00,935.00
             837.14,936.80 836.97,939.61 842.24,942.78
             842.24,942.78 863.80,953.62 863.80,953.62
             870.33,956.59 885.02,960.96 892.00,961.00
             892.00,961.00 906.00,961.00 906.00,961.00
             914.49,960.99 927.40,957.14 934.77,952.78
             939.13,950.20 946.69,944.16 951.00,943.00
             952.58,937.13 954.98,937.29 957.98,932.36
             964.31,921.91 964.71,921.75 968.32,909.58
             968.32,909.58 969.26,903.09 969.26,903.09
             970.37,897.16 970.99,900.83 971.00,892.00
             971.00,892.00 971.00,882.00 971.00,882.00
             970.94,871.51 964.21,852.32 958.32,843.48
             958.32,843.48 949.24,832.04 949.24,832.04
             946.62,828.87 944.07,827.76 942.00,824.00
             942.00,824.00 924.00,814.00 924.00,814.00
             924.00,814.00 924.00,785.00 924.00,785.00
             924.00,785.00 922.02,772.00 922.02,772.00
             922.02,772.00 920.13,760.96 920.13,760.96
             920.13,760.96 919.46,754.54 919.46,754.54
             919.46,754.54 918.00,753.00 918.00,753.00
             918.00,753.00 918.00,751.00 918.00,751.00
             918.00,751.00 933.65,740.63 933.65,740.63
             933.65,740.63 945.00,731.00 945.00,731.00
             946.31,726.11 948.24,725.46 950.36,720.58
             950.36,720.58 956.08,704.43 956.08,704.43
             956.08,704.43 962.31,691.56 962.31,691.56
             962.31,691.56 963.46,686.16 963.46,686.16
             963.46,686.16 966.88,675.83 966.88,675.83
             966.88,675.83 966.88,651.00 966.88,651.00
             966.99,643.87 963.40,630.87 959.77,624.74
             956.23,618.77 949.87,613.96 949.00,608.00
             947.11,607.52 946.42,607.42 944.67,606.40
             944.67,606.40 938.26,601.20 938.26,601.20
             938.26,601.20 925.53,592.68 925.53,592.68
             919.11,588.59 905.48,582.11 898.00,582.00
             898.00,582.00 888.00,582.00 888.00,582.00
             879.48,582.05 870.42,585.92 863.48,590.68
             863.48,590.68 857.76,595.28 857.76,595.28
             853.16,598.21 849.30,599.03 844.61,601.02
             838.66,603.54 834.69,606.40 828.00,608.00
             825.15,614.29 822.78,613.41 818.35,617.37
             816.53,618.99 814.30,621.86 811.86,622.36
             811.86,622.36 801.00,620.87 801.00,620.87
             801.00,620.87 789.09,620.87 789.09,620.87
             789.09,620.87 784.75,619.58 784.75,619.58
             782.26,619.03 770.79,623.29 765.57,619.58
             762.13,617.32 761.87,612.80 760.54,609.32
             760.54,609.32 756.33,602.47 756.33,602.47
             756.33,602.47 748.23,591.52 748.23,591.52
             742.17,583.12 738.65,576.62 729.96,569.77
             729.96,569.77 723.74,566.24 723.74,566.24
             717.87,562.35 711.18,558.20 704.00,558.00
             704.00,558.00 704.00,555.00 704.00,555.00
             704.00,555.00 690.00,553.06 690.00,553.06
             690.00,553.06 670.09,553.06 670.09,553.06
             670.09,553.06 659.00,555.00 659.00,555.00 Z
           M 796.00,716.00
           C 798.64,721.84 803.24,723.95 806.80,728.74
             811.24,734.70 815.89,747.65 816.00,755.00
             816.28,773.97 809.60,790.16 793.23,800.72
             788.77,803.59 783.62,806.40 778.08,805.88
             778.08,805.88 773.00,804.93 773.00,804.93
             771.06,804.93 769.75,806.01 767.13,805.72
             763.98,805.36 764.50,804.11 758.00,804.00
             750.83,803.88 746.39,803.91 739.44,801.32
             734.70,799.55 733.47,797.55 729.97,794.37
             729.97,794.37 723.76,788.96 723.76,788.96
             716.59,780.56 713.85,765.68 714.00,755.00
             714.11,747.71 718.98,733.65 723.76,728.04
             727.77,723.34 731.88,722.90 735.00,716.00
             742.26,714.05 744.56,708.02 759.00,708.00
             770.12,707.98 773.84,707.09 784.72,710.41
             790.11,712.06 790.46,714.51 796.00,716.00 Z" />
  <path id="Selection"
        fill="#623fff" stroke="none" stroke-width="1"
        d="M 767.00,88.44
           C 767.00,88.44 745.00,92.71 745.00,92.71
             745.00,92.71 732.00,93.46 732.00,93.46
             732.00,93.46 707.00,98.56 707.00,98.56
             707.00,98.56 694.00,100.21 694.00,100.21
             694.00,100.21 672.00,106.40 672.00,106.40
             672.00,106.40 654.00,109.43 654.00,109.43
             654.00,109.43 644.00,112.51 644.00,112.51
             644.00,112.51 634.00,114.66 634.00,114.66
             634.00,114.66 625.00,117.34 625.00,117.34
             625.00,117.34 606.00,121.43 606.00,121.43
             606.00,121.43 598.00,123.63 598.00,123.63
             598.00,123.63 583.00,126.00 583.00,126.00
             583.00,126.00 565.00,128.66 565.00,128.66
             565.00,128.66 537.00,135.58 537.00,135.58
             527.49,137.69 515.81,140.46 509.21,148.02
             500.16,158.38 501.17,174.45 511.04,183.90
             520.01,192.47 525.40,187.10 524.96,199.00
             524.96,199.00 519.00,237.00 519.00,237.00
             519.00,237.00 519.00,257.00 519.00,257.00
             519.00,257.00 520.04,267.00 520.04,267.00
             520.04,267.00 520.04,276.00 520.04,276.00
             521.02,284.50 522.98,286.50 523.00,297.00
             523.00,297.00 523.00,325.00 523.00,325.00
             523.00,325.00 522.00,341.00 522.00,341.00
             522.00,341.00 522.00,399.00 522.00,399.00
             522.02,411.60 523.81,411.73 529.67,422.00
             533.30,428.38 535.15,432.69 541.01,437.79
             545.28,441.50 550.89,443.59 556.00,445.86
             567.02,450.77 578.69,455.85 591.00,456.18
             591.00,456.18 606.00,456.18 606.00,456.18
             606.00,456.18 625.00,461.70 625.00,461.70
             640.57,464.02 649.48,464.02 665.00,464.00
             681.92,463.97 685.00,458.17 699.00,458.00
             717.86,457.78 716.79,459.37 734.00,464.08
             734.00,464.08 746.00,466.77 746.00,466.77
             746.00,466.77 768.00,473.54 768.00,473.54
             768.00,473.54 776.00,474.29 776.00,474.29
             776.00,474.29 796.00,476.91 796.00,476.91
             800.98,477.19 807.95,475.41 813.00,474.40
             813.00,474.40 838.00,469.08 838.00,469.08
             838.00,469.08 850.00,464.77 850.00,464.77
             858.60,462.19 866.17,460.46 874.00,455.45
             874.00,455.45 883.00,449.09 883.00,449.09
             891.62,443.56 893.29,443.93 900.53,435.00
             906.52,427.63 916.16,404.55 918.32,395.00
             918.32,395.00 919.93,383.00 919.93,383.00
             919.93,383.00 923.78,373.00 923.78,373.00
             927.03,362.70 929.87,349.80 930.00,339.00
             930.00,339.00 930.00,279.00 930.00,279.00
             930.00,279.00 929.00,262.00 929.00,262.00
             929.00,262.00 929.00,224.00 929.00,224.00
             928.98,209.09 924.89,208.98 923.33,200.00
             922.47,195.08 923.68,192.26 922.00,184.00
             920.23,175.35 916.72,167.10 913.33,159.00
             913.33,159.00 909.65,148.00 909.65,148.00
             906.30,140.59 893.29,123.64 887.00,118.46
             871.83,105.98 872.24,110.61 858.00,105.91
             838.58,99.50 840.15,98.23 818.00,93.80
             818.00,93.80 803.00,91.56 803.00,91.56
             788.85,89.33 782.35,86.47 767.00,88.44 Z
           M 356.00,142.22
           C 356.00,142.22 335.00,146.66 335.00,146.66
             335.00,146.66 325.00,149.76 325.00,149.76
             325.00,149.76 298.00,155.43 298.00,155.43
             298.00,155.43 283.00,159.54 283.00,159.54
             283.00,159.54 269.00,160.47 269.00,160.47
             269.00,160.47 261.00,162.63 261.00,162.63
             261.00,162.63 252.00,163.80 252.00,163.80
             252.00,163.80 225.00,170.34 225.00,170.34
             225.00,170.34 213.00,172.92 213.00,172.92
             213.00,172.92 201.00,177.23 201.00,177.23
             201.00,177.23 178.00,184.43 178.00,184.43
             178.00,184.43 164.00,192.24 164.00,192.24
             145.28,201.67 140.32,202.34 123.00,216.54
             116.04,222.25 110.24,226.38 106.35,235.00
             103.53,241.24 102.92,260.56 103.00,268.00
             103.00,268.00 105.00,287.00 105.00,287.00
             105.00,287.00 106.04,308.00 106.04,308.00
             106.04,308.00 106.04,317.00 106.04,317.00
             106.88,324.10 107.99,324.04 108.00,333.00
             108.00,333.00 109.04,353.00 109.04,353.00
             109.04,353.00 109.04,362.00 109.04,362.00
             109.04,362.00 110.70,370.00 110.70,370.00
             110.70,370.00 112.17,386.00 112.17,386.00
             112.17,386.00 113.70,394.00 113.70,394.00
             113.70,394.00 115.47,418.00 115.47,418.00
             116.73,424.67 123.98,436.39 129.02,440.79
             137.58,448.26 143.37,446.21 153.00,447.17
             153.00,447.17 167.00,449.90 167.00,449.90
             167.00,449.90 177.00,449.90 177.00,449.90
             177.00,449.90 199.00,452.00 199.00,452.00
             199.00,452.00 247.00,452.00 247.00,452.00
             247.00,452.00 288.00,458.00 288.00,458.00
             288.00,458.00 366.00,458.00 366.00,458.00
             382.15,458.03 390.97,464.98 406.00,465.00
             406.00,465.00 440.00,465.00 440.00,465.00
             444.16,464.99 446.93,465.05 451.00,463.78
             474.85,456.32 472.69,422.78 475.29,403.00
             475.29,403.00 478.56,386.00 478.56,386.00
             478.56,386.00 479.44,377.00 479.44,377.00
             479.44,377.00 485.00,346.00 485.00,346.00
             485.20,328.80 486.66,335.30 487.83,325.00
             487.83,325.00 489.17,306.00 489.17,306.00
             489.17,306.00 490.92,296.00 490.92,296.00
             490.92,296.00 490.92,281.00 490.92,281.00
             490.92,281.00 492.00,265.00 492.00,265.00
             492.00,265.00 492.00,199.00 492.00,199.00
             491.88,188.96 485.19,169.13 479.37,161.00
             477.64,158.59 474.27,155.14 472.00,153.21
             465.37,147.58 447.74,144.11 439.00,144.00
             439.00,144.00 420.00,144.00 420.00,144.00
             420.00,144.00 398.00,142.22 398.00,142.22
             398.00,142.22 356.00,142.22 356.00,142.22 Z
           M 270.00,461.42
           C 270.00,461.42 213.00,462.00 213.00,462.00
             213.00,462.00 184.00,465.00 184.00,465.00
             184.00,465.00 154.00,465.00 154.00,465.00
             136.51,465.03 123.22,474.49 123.00,493.00
             123.00,493.00 123.00,511.00 123.00,511.00
             123.00,511.00 124.00,526.00 124.00,526.00
             124.00,526.00 124.00,562.00 124.00,562.00
             123.98,573.04 121.83,586.15 119.63,597.00
             117.63,606.84 115.02,612.26 115.00,623.00
             115.00,623.00 115.00,632.00 115.00,632.00
             115.00,632.00 112.00,658.00 112.00,658.00
             112.00,658.00 112.00,711.00 112.00,711.00
             112.01,719.55 112.43,719.12 114.80,727.00
             116.56,732.89 117.93,737.84 121.63,743.00
             135.69,762.53 164.06,763.26 185.00,768.92
             185.00,768.92 212.00,775.38 212.00,775.38
             220.08,777.45 224.14,779.89 233.00,780.00
             233.00,780.00 260.00,778.83 260.00,778.83
             265.76,778.23 267.05,777.09 274.00,776.92
             274.00,776.92 300.00,776.92 300.00,776.92
             305.63,776.27 312.54,773.86 318.00,774.10
             318.00,774.10 352.00,780.00 352.00,780.00
             352.00,780.00 373.00,780.00 373.00,780.00
             391.52,779.97 397.25,774.53 411.00,763.66
             422.40,754.65 432.35,747.42 437.45,733.00
             437.45,733.00 440.99,715.00 440.99,715.00
             443.01,709.62 446.89,705.78 450.34,692.00
             452.27,684.27 451.96,681.67 452.00,674.00
             452.04,666.17 453.59,658.69 454.70,651.00
             454.70,651.00 456.04,631.00 456.04,631.00
             456.42,622.65 460.94,613.26 461.00,601.00
             461.04,591.45 460.51,587.70 462.45,578.00
             464.02,570.12 467.91,555.26 468.00,548.00
             468.19,531.31 470.36,518.77 456.96,506.10
             451.96,501.38 434.89,493.81 428.00,491.92
             428.00,491.92 415.00,489.63 415.00,489.63
             415.00,489.63 402.00,486.33 402.00,486.33
             402.00,486.33 392.00,482.55 392.00,482.55
             392.00,482.55 376.00,477.89 376.00,477.89
             376.00,477.89 334.00,469.30 334.00,469.30
             334.00,469.30 319.00,468.20 319.00,468.20
             305.63,465.68 282.86,459.86 270.00,461.42 Z
           M 568.00,800.00
           C 573.21,790.88 584.79,775.07 592.35,768.02
             592.35,768.02 605.24,757.72 605.24,757.72
             610.59,754.31 614.74,754.14 617.31,746.56
             618.36,743.45 618.00,736.55 618.00,733.00
             618.00,733.00 621.00,733.00 621.00,733.00
             621.01,722.61 621.65,727.11 623.01,720.83
             623.01,720.83 623.01,715.09 623.01,715.09
             623.87,711.78 625.85,709.00 624.51,705.33
             623.47,702.47 620.81,702.17 618.50,700.75
             618.50,700.75 603.86,690.14 603.86,690.14
             603.86,690.14 600.24,685.03 600.24,685.03
             585.71,667.15 585.63,656.18 586.00,634.00
             586.11,627.90 591.87,611.72 595.26,606.50
             595.26,606.50 598.80,602.26 598.80,602.26
             598.80,602.26 605.78,591.74 605.78,591.74
             605.78,591.74 627.48,571.23 627.48,571.23
             627.48,571.23 633.77,567.78 633.77,567.78
             641.45,563.25 649.80,558.11 659.00,558.00
             659.00,558.00 659.00,555.00 659.00,555.00
             659.00,555.00 674.00,553.00 674.00,553.00
             674.00,553.00 689.00,553.00 689.00,553.00
             689.00,553.00 706.00,555.00 706.00,555.00
             706.00,555.00 706.00,558.00 706.00,558.00
             712.89,558.49 716.93,561.75 722.47,565.32
             722.47,565.32 737.14,575.86 737.14,575.86
             741.02,579.74 744.77,587.15 747.68,591.52
             747.68,591.52 755.78,602.47 755.78,602.47
             755.78,602.47 760.51,610.17 760.51,610.17
             761.73,613.48 762.01,618.25 765.55,620.18
             770.57,622.90 777.85,619.20 783.00,619.02
             791.39,618.72 790.32,620.34 795.09,621.01
             795.09,621.01 803.96,621.01 803.96,621.01
             807.41,621.54 809.63,623.46 812.69,622.50
             815.46,621.64 819.22,616.78 821.74,614.78
             825.31,611.95 826.59,612.94 828.00,608.00
             833.57,607.21 832.13,605.98 836.17,604.49
             841.23,602.62 849.23,600.47 853.76,597.78
             853.76,597.78 858.74,593.78 858.74,593.78
             862.28,591.00 869.27,586.83 873.43,585.08
             882.54,581.23 886.50,582.00 896.00,582.00
             896.00,582.00 896.00,559.00 896.00,559.00
             895.97,539.61 888.91,520.44 872.00,509.55
             863.45,504.04 856.05,502.90 847.00,499.91
             847.00,499.91 830.00,493.58 830.00,493.58
             816.81,489.37 797.36,481.02 784.00,480.92
             784.00,480.92 765.00,480.92 765.00,480.92
             756.20,479.98 754.17,478.02 744.00,478.00
             744.00,478.00 726.00,478.00 726.00,478.00
             720.89,478.01 701.96,480.43 697.00,481.66
             697.00,481.66 680.00,486.20 680.00,486.20
             680.00,486.20 662.00,489.90 662.00,489.90
             662.00,489.90 652.00,489.90 652.00,489.90
             652.00,489.90 636.00,492.30 636.00,492.30
             636.00,492.30 624.00,495.53 624.00,495.53
             624.00,495.53 615.00,496.44 615.00,496.44
             615.00,496.44 596.00,500.21 596.00,500.21
             588.74,501.75 581.47,503.91 574.00,504.00
             570.90,504.03 564.71,504.26 562.00,503.27
             557.36,501.56 553.34,495.73 543.00,495.09
             519.31,493.63 512.17,520.40 506.58,538.00
             503.31,548.28 502.69,553.38 501.29,564.00
             501.29,564.00 499.98,575.00 499.98,575.00
             499.98,575.00 496.43,587.00 496.43,587.00
             496.43,587.00 494.29,598.00 494.29,598.00
             494.29,598.00 493.32,607.00 493.32,607.00
             493.32,607.00 490.43,617.00 490.43,617.00
             490.43,617.00 486.38,636.00 486.38,636.00
             486.38,636.00 483.67,644.00 483.67,644.00
             483.67,644.00 480.34,660.00 480.34,660.00
             480.34,660.00 465.85,705.00 465.85,705.00
             463.73,712.51 462.10,713.48 462.00,722.00
             461.91,730.36 463.04,740.24 468.39,747.00
             474.30,754.47 488.42,761.51 497.00,766.43
             497.00,766.43 529.00,783.51 529.00,783.51
             529.00,783.51 538.00,788.74 538.00,788.74
             547.62,793.75 557.58,797.24 568.00,800.00 Z" />
</svg>
