<?xml version="1.0" encoding="UTF-8" standalone="no"?>
<!DOCTYPE svg PUBLIC "-//W3C//DTD SVG 20010904//EN"
              "http://www.w3.org/TR/2001/REC-SVG-20010904/DTD/svg10.dtd">

<svg xmlns="http://www.w3.org/2000/svg"
     width="15in" height="15in"
     viewBox="0 0 1080 1080">
  <path id="Selection"
        fill="white" stroke="none" stroke-width="1"
        d="M 732.00,637.25
           C 715.99,641.07 712.13,650.76 703.81,663.00
             703.81,663.00 685.58,688.00 685.58,688.00
             685.58,688.00 666.28,717.00 666.28,717.00
             666.28,717.00 647.81,743.00 647.81,743.00
             647.81,743.00 624.20,784.00 624.20,784.00
             624.20,784.00 596.49,823.00 596.49,823.00
             596.49,823.00 581.26,842.00 581.26,842.00
             575.71,849.66 565.27,863.45 558.96,870.00
             549.65,879.67 538.99,887.34 538.09,902.00
             537.29,915.08 546.47,922.51 559.00,921.96
             571.04,921.44 578.05,913.95 586.00,906.00
             592.71,899.29 599.46,892.47 605.33,885.00
             605.33,885.00 624.68,859.00 624.68,859.00
             624.68,859.00 634.77,847.00 634.77,847.00
             634.77,847.00 665.92,803.00 665.92,803.00
             665.92,803.00 683.72,773.00 683.72,773.00
             683.72,773.00 690.29,761.00 690.29,761.00
             690.29,761.00 705.98,739.00 705.98,739.00
             705.98,739.00 721.52,715.00 721.52,715.00
             721.52,715.00 737.13,694.00 737.13,694.00
             737.13,694.00 742.98,686.00 742.98,686.00
             750.27,675.43 761.33,660.26 754.95,647.00
             752.90,642.74 749.42,639.76 745.00,638.13
             742.12,637.07 739.04,636.92 736.00,637.25
             736.00,637.25 732.00,637.25 732.00,637.25 Z
           M 374.00,821.00
           C 384.17,812.40 409.19,795.80 421.00,789.31
             421.00,789.31 442.00,778.89 442.00,778.89
             442.00,778.89 474.00,761.89 474.00,761.89
             490.51,753.86 507.59,740.15 523.00,729.66
             523.00,729.66 551.00,705.65 551.00,705.65
             557.39,701.18 567.41,700.94 575.10,687.00
             582.73,673.15 577.86,655.51 560.00,655.02
             532.73,654.27 517.62,679.10 498.00,692.65
             498.00,692.65 464.00,716.13 464.00,716.13
             464.00,716.13 446.00,724.89 446.00,724.89
             446.00,724.89 425.00,736.74 425.00,736.74
             425.00,736.74 403.00,747.43 403.00,747.43
             403.00,747.43 381.00,761.50 381.00,761.50
             381.00,761.50 366.00,770.89 366.00,770.89
             366.00,770.89 355.00,778.66 355.00,778.66
             355.00,778.66 345.00,784.06 345.00,784.06
             345.00,784.06 331.00,793.80 331.00,793.80
             331.00,793.80 322.17,799.90 322.17,799.90
             314.34,806.46 306.58,817.31 307.10,828.00
             307.78,841.80 321.63,848.60 330.96,856.75
             338.06,862.96 337.22,864.44 347.00,870.24
             351.88,873.15 355.13,873.77 360.00,875.87
             360.00,875.87 381.00,886.45 381.00,886.45
             381.00,886.45 406.00,902.78 406.00,902.78
             406.00,902.78 420.00,913.14 420.00,913.14
             435.97,922.86 431.89,936.77 452.00,935.96
             472.97,935.12 488.58,911.09 478.09,892.04
             475.85,887.97 467.60,877.25 464.00,874.55
             464.00,874.55 453.00,868.21 453.00,868.21
             453.00,868.21 445.00,861.78 445.00,861.78
             445.00,861.78 431.00,852.42 431.00,852.42
             419.28,844.05 405.97,837.29 393.00,831.03
             381.72,825.58 385.94,829.24 374.00,821.00 Z
           M 864.00,789.00
           C 855.21,800.71 834.63,813.39 822.00,821.44
             822.00,821.44 804.00,834.64 804.00,834.64
             804.00,834.64 781.00,847.22 781.00,847.22
             781.00,847.22 768.00,852.44 768.00,852.44
             763.67,854.35 748.48,864.05 745.02,867.18
             733.41,877.69 729.06,901.15 747.00,906.94
             749.93,907.89 752.94,908.09 756.00,907.96
             765.85,907.53 772.74,901.65 781.00,897.32
             781.00,897.32 791.00,893.13 791.00,893.13
             791.00,893.13 800.00,888.28 800.00,888.28
             800.00,888.28 822.00,876.55 822.00,876.55
             822.00,876.55 845.00,860.35 845.00,860.35
             862.52,848.30 879.10,837.28 895.00,822.93
             895.00,822.93 906.00,813.45 906.00,813.45
             916.69,804.94 927.66,797.76 926.90,782.00
             926.29,769.55 917.92,761.89 909.00,754.58
             909.00,754.58 885.00,734.60 885.00,734.60
             880.86,731.34 875.88,728.70 872.30,724.91
             872.30,724.91 866.11,717.88 866.11,717.88
             866.11,717.88 857.01,709.83 857.01,709.83
             857.01,709.83 849.83,702.80 849.83,702.80
             849.83,702.80 830.00,686.39 830.00,686.39
             822.28,680.02 818.96,673.52 808.00,673.04
             791.86,672.34 776.74,685.71 776.04,702.00
             775.45,715.75 785.51,722.45 795.00,730.41
             795.00,730.41 824.83,756.29 824.83,756.29
             828.94,760.33 829.83,763.22 835.01,767.53
             835.01,767.53 847.00,775.90 847.00,775.90
             852.59,780.12 857.70,786.04 864.00,789.00 Z" />
</svg>
