<?xml version="1.0" encoding="UTF-8" standalone="no"?>
<!DOCTYPE svg PUBLIC "-//W3C//DTD SVG 20010904//EN"
              "http://www.w3.org/TR/2001/REC-SVG-20010904/DTD/svg10.dtd">

<svg xmlns="http://www.w3.org/2000/svg"
     width="15in" height="15in"
     viewBox="0 0 1080 1080">
  <path id="Selection"
        fill="none" stroke="black" stroke-width="1"
        d="M 736.00,523.52
           C 720.12,527.89 719.40,537.33 713.69,550.00
             713.69,550.00 699.76,578.00 699.76,578.00
             699.76,578.00 690.69,600.00 690.69,600.00
             690.69,600.00 677.05,629.00 677.05,629.00
             677.05,629.00 672.14,645.00 672.14,645.00
             664.77,665.80 655.03,690.93 644.13,710.00
             644.13,710.00 637.32,721.00 637.32,721.00
             637.32,721.00 620.30,753.00 620.30,753.00
             613.92,762.74 605.33,769.19 605.01,782.00
             604.67,796.25 613.02,807.67 628.00,807.98
             632.65,808.08 635.77,807.74 640.00,805.62
             648.23,801.50 660.19,784.15 665.19,776.00
             665.19,776.00 680.90,746.00 680.90,746.00
             680.90,746.00 687.69,735.00 687.69,735.00
             687.69,735.00 708.80,690.00 708.80,690.00
             708.80,690.00 727.25,639.00 727.25,639.00
             727.25,639.00 735.57,622.00 735.57,622.00
             735.57,622.00 748.11,593.00 748.11,593.00
             753.47,582.56 765.47,560.23 765.96,549.00
             766.72,531.47 752.77,520.86 736.00,523.52 Z
           M 422.00,705.00
           C 427.12,702.58 430.59,698.34 435.00,694.81
             435.00,694.81 457.00,678.24 457.00,678.24
             463.71,673.19 473.60,668.36 481.00,664.13
             481.00,664.13 495.00,655.00 495.00,655.00
             495.00,655.00 514.00,644.25 514.00,644.25
             514.00,644.25 543.00,620.61 543.00,620.61
             549.19,615.54 554.43,611.00 559.83,605.00
             563.46,600.97 567.03,595.66 571.01,592.21
             575.05,588.72 577.30,588.66 581.00,586.15
             587.59,581.68 591.61,574.98 591.96,567.00
             592.77,548.41 576.31,537.38 559.00,541.92
             537.36,547.60 527.32,568.79 511.00,582.00
             502.33,589.02 494.40,597.13 485.00,603.20
             485.00,603.20 471.00,610.87 471.00,610.87
             471.00,610.87 454.00,621.86 454.00,621.86
             454.00,621.86 433.00,633.55 433.00,633.55
             433.00,633.55 401.00,657.46 401.00,657.46
             401.00,657.46 393.00,664.39 393.00,664.39
             393.00,664.39 383.00,670.92 383.00,670.92
             383.00,670.92 373.00,679.19 373.00,679.19
             361.84,688.12 355.64,693.59 356.01,709.00
             356.43,726.12 372.91,732.54 385.00,741.04
             393.33,746.90 396.86,751.57 407.00,756.63
             407.00,756.63 420.00,761.61 420.00,761.61
             420.00,761.61 446.00,773.30 446.00,773.30
             446.00,773.30 475.00,789.91 475.00,789.91
             482.31,794.47 480.59,794.48 490.00,799.25
             506.46,807.59 507.18,822.82 527.00,821.96
             541.01,821.35 550.56,809.71 549.96,796.00
             549.40,783.15 541.27,776.82 533.42,768.01
             525.38,758.99 519.38,758.88 510.00,752.91
             494.68,743.16 479.37,734.02 463.00,726.11
             463.00,726.11 450.00,720.24 450.00,720.24
             450.00,720.24 441.00,716.06 441.00,716.06
             432.50,712.81 427.98,712.95 422.00,705.00 Z
           M 905.00,676.00
           C 905.00,676.00 891.91,689.83 891.91,689.83
             891.91,689.83 869.00,708.32 869.00,708.32
             869.00,708.32 855.00,720.68 855.00,720.68
             855.00,720.68 834.00,733.68 834.00,733.68
             834.00,733.68 823.00,738.64 823.00,738.64
             819.78,740.37 816.94,742.70 814.00,744.85
             805.40,751.13 798.54,756.46 798.04,768.00
             797.44,781.71 806.99,793.35 821.00,793.96
             834.97,794.57 839.44,786.62 850.00,781.67
             859.71,777.11 878.72,765.88 887.00,759.34
             887.00,759.34 902.00,746.46 902.00,746.46
             902.00,746.46 926.99,725.96 926.99,725.96
             926.99,725.96 941.00,711.00 941.00,711.00
             941.00,711.00 951.04,700.09 951.04,700.09
             961.01,690.38 968.89,684.95 965.48,669.00
             962.39,654.51 951.23,647.72 940.00,639.98
             940.00,639.98 914.00,621.74 914.00,621.74
             914.00,621.74 900.00,613.07 900.00,613.07
             900.00,613.07 884.00,599.85 884.00,599.85
             884.00,599.85 869.00,588.21 869.00,588.21
             869.00,588.21 845.00,571.85 845.00,571.85
             837.12,566.06 831.44,559.49 821.00,559.04
             797.85,558.03 786.95,583.85 801.67,600.83
             809.59,609.97 828.65,620.89 839.00,628.66
             839.00,628.66 857.00,642.32 857.00,642.32
             857.00,642.32 870.00,653.51 870.00,653.51
             870.00,653.51 887.00,664.00 887.00,664.00
             892.99,668.01 898.51,672.82 905.00,676.00 Z" />
</svg>
