<?xml version="1.0" encoding="UTF-8" standalone="no"?>
<!DOCTYPE svg PUBLIC "-//W3C//DTD SVG 20010904//EN"
              "http://www.w3.org/TR/2001/REC-SVG-20010904/DTD/svg10.dtd">

<svg xmlns="http://www.w3.org/2000/svg"
     width="3.6in" height="3.6in"
     viewBox="0 0 1080 1080">
  <path id="lightgray"
        fill="#a9a9a9" stroke="none" stroke-width="1"
        d="M 598.00,120.48
           C 573.43,124.68 573.47,146.06 570.58,166.00
             570.58,166.00 567.29,188.00 567.29,188.00
             567.29,188.00 566.71,196.00 566.71,196.00
             565.70,203.76 564.01,211.09 564.00,219.00
             564.00,219.00 564.00,244.00 564.00,244.00
             564.00,244.00 563.00,260.00 563.00,260.00
             563.00,260.00 563.00,298.00 563.00,298.00
             563.02,310.96 565.78,326.35 577.00,334.36
             587.32,341.74 602.89,340.02 615.00,340.00
             615.00,340.00 632.00,339.00 632.00,339.00
             632.00,339.00 665.00,339.00 665.00,339.00
             679.21,338.98 681.13,335.42 686.42,334.93
             686.42,334.93 704.00,336.00 704.00,336.00
             717.55,336.02 719.29,335.71 732.00,330.95
             735.75,329.55 739.80,328.05 742.91,325.47
             759.61,311.61 751.85,279.87 725.00,281.04
             718.15,281.34 713.58,284.38 708.00,284.90
             702.00,285.45 698.51,284.46 693.00,284.04
             693.00,284.04 682.00,284.04 682.00,284.04
             667.08,284.02 669.30,287.98 656.00,288.08
             656.00,288.08 629.00,288.08 629.00,288.08
             625.73,288.04 616.65,289.97 614.60,288.08
             612.66,286.59 613.00,282.34 613.08,280.00
             613.08,280.00 613.08,262.00 613.08,262.00
             613.08,262.00 615.00,244.00 615.00,244.00
             615.00,244.00 615.00,220.00 615.00,220.00
             615.00,220.00 619.85,181.00 619.85,181.00
             619.85,181.00 622.29,161.00 622.29,161.00
             622.29,161.00 624.96,147.00 624.96,147.00
             625.32,138.04 622.12,130.98 615.00,125.39
             612.78,123.65 610.68,122.61 608.00,121.77
             604.48,120.67 601.66,120.27 598.00,120.48 Z
           M 389.00,362.21
           C 383.65,363.18 378.39,362.99 373.00,363.00
             373.00,363.00 353.00,364.91 353.00,364.91
             353.00,364.91 317.00,366.00 317.00,366.00
             294.06,366.00 281.04,363.71 259.00,372.42
             259.00,372.42 240.00,377.09 240.00,377.09
             230.96,380.46 224.46,389.38 224.04,399.00
             223.87,402.96 224.26,406.31 225.76,410.00
             227.06,413.18 228.71,415.50 231.09,417.96
             239.68,426.81 247.96,425.98 259.00,424.42
             265.14,423.56 265.57,423.97 272.00,421.98
             272.00,421.98 285.00,417.53 285.00,417.53
             287.66,416.93 290.29,417.00 293.00,417.00
             293.00,417.00 332.00,417.00 332.00,417.00
             332.00,417.00 353.00,415.17 353.00,415.17
             353.00,415.17 381.00,414.00 381.00,414.00
             381.00,414.00 403.00,412.00 403.00,412.00
             413.03,411.89 428.77,414.97 439.00,416.75
             439.00,416.75 460.00,420.71 460.00,420.71
             460.00,420.71 470.00,421.47 470.00,421.47
             470.00,421.47 482.00,425.12 482.00,425.12
             482.00,425.12 501.00,429.01 501.00,429.01
             510.48,431.07 521.87,435.89 531.00,436.00
             531.00,436.00 562.00,436.00 562.00,436.00
             568.89,435.97 575.60,434.56 580.82,429.67
             591.53,419.62 591.29,400.98 579.91,391.53
             574.29,386.87 567.99,386.01 561.00,386.00
             561.00,386.00 543.00,386.00 543.00,386.00
             533.84,385.96 524.78,382.84 516.00,380.42
             516.00,380.42 497.00,376.34 497.00,376.34
             497.00,376.34 484.00,372.42 484.00,372.42
             484.00,372.42 470.00,370.57 470.00,370.57
             470.00,370.57 442.00,365.92 442.00,365.92
             433.79,364.53 422.04,362.04 414.00,362.21
             414.00,362.21 389.00,362.21 389.00,362.21 Z
           M 331.00,503.16
           C 309.23,508.66 304.99,534.02 319.09,546.67
             328.33,554.97 340.59,552.88 352.00,553.00
             352.00,553.00 403.00,559.61 403.00,559.61
             413.02,561.49 422.74,563.98 433.00,564.00
             433.00,564.00 533.00,564.00 533.00,564.00
             533.00,564.00 579.00,569.08 579.00,569.08
             587.01,570.49 594.80,572.90 603.00,573.00
             620.00,573.20 637.13,573.65 654.00,571.42
             661.01,570.50 665.31,571.76 672.00,567.78
             688.64,557.89 688.28,532.74 671.00,523.67
             661.03,518.44 644.98,521.98 634.00,522.01
             634.00,522.01 601.83,522.01 601.83,522.01
             601.83,522.01 587.00,519.08 587.00,519.08
             587.00,519.08 532.00,513.00 532.00,513.00
             532.00,513.00 436.00,513.00 436.00,513.00
             425.40,512.98 413.58,510.01 403.00,508.25
             403.00,508.25 361.00,503.16 361.00,503.16
             361.00,503.16 339.00,503.16 339.00,503.16
             335.83,503.00 334.18,503.02 331.00,503.16 Z
           M 325.00,626.21
           C 325.00,626.21 285.00,632.13 285.00,632.13
             285.00,632.13 267.00,634.83 267.00,634.83
             267.00,634.83 229.00,636.00 229.00,636.00
             212.93,636.03 199.87,642.21 198.33,660.00
             198.09,662.70 198.59,665.39 199.24,668.00
             204.67,690.01 227.65,687.02 245.00,687.00
             260.29,686.98 290.39,683.07 306.00,680.56
             306.00,680.56 339.00,676.00 339.00,676.00
             356.16,675.80 366.83,675.76 384.00,678.42
             384.00,678.42 428.00,685.00 428.00,685.00
             428.00,685.00 482.00,685.00 482.00,685.00
             482.00,685.00 513.00,681.00 513.00,681.00
             530.30,680.80 524.50,681.93 538.00,683.71
             538.00,683.71 546.00,684.43 546.00,684.43
             546.00,684.43 573.00,689.42 573.00,689.42
             581.03,690.88 585.23,692.89 594.00,693.00
             606.10,693.14 616.28,693.24 624.66,683.00
             627.98,678.94 629.73,674.22 629.96,669.00
             630.47,657.27 623.56,646.66 612.00,643.49
             602.85,640.98 599.15,642.68 593.00,641.68
             593.00,641.68 562.00,635.59 562.00,635.59
             562.00,635.59 546.00,633.56 546.00,633.56
             546.00,633.56 536.00,631.32 536.00,631.32
             527.68,629.87 520.36,629.99 512.00,630.00
             512.00,630.00 474.00,635.00 474.00,635.00
             474.00,635.00 439.00,635.00 439.00,635.00
             425.18,634.98 411.58,631.37 398.00,629.27
             389.53,627.97 377.33,626.01 369.00,626.21
             369.00,626.21 325.00,626.21 325.00,626.21 Z" />
  <path id="gray"
        fill="#c9c9c9" stroke="none" stroke-width="1"
        d="M 607.00,121.00
           C 616.06,127.17 623.78,131.69 624.81,144.00
             625.24,149.08 623.07,154.01 622.29,159.00
             622.29,159.00 619.71,180.00 619.71,180.00
             619.71,180.00 617.17,196.00 617.17,196.00
             617.17,196.00 614.40,224.00 614.40,224.00
             614.40,224.00 614.40,244.00 614.40,244.00
             614.40,244.00 613.00,266.00 613.00,266.00
             613.00,266.00 613.00,290.00 613.00,290.00
             613.00,290.00 632.00,288.40 632.00,288.40
             632.00,288.40 656.00,288.40 656.00,288.40
             670.76,288.37 667.61,283.78 687.00,284.00
             687.00,284.00 704.00,285.20 704.00,285.20
             717.29,285.41 725.63,276.39 739.00,285.20
             757.94,297.12 754.11,321.05 733.00,330.13
             717.62,336.74 710.00,335.54 694.00,334.99
             694.00,334.99 686.00,334.38 686.00,334.38
             680.69,334.67 679.59,338.43 665.00,338.60
             665.00,338.60 635.00,338.60 635.00,338.60
             618.37,338.63 596.45,343.91 581.00,336.01
             566.23,328.45 563.02,310.09 563.00,295.00
             563.00,295.00 563.00,262.00 563.00,262.00
             563.00,262.00 564.60,240.00 564.60,240.00
             564.60,240.00 564.60,221.00 564.60,221.00
             564.62,205.76 567.74,189.19 569.87,174.00
             572.32,156.58 572.25,129.38 592.00,122.13
             596.13,120.61 601.58,121.00 606.00,121.00
             601.28,119.13 581.37,120.01 575.00,120.00
             575.00,120.00 545.00,116.29 545.00,116.29
             545.00,116.29 530.00,114.83 530.00,114.83
             530.00,114.83 516.00,112.04 516.00,112.04
             516.00,112.04 506.00,112.04 506.00,112.04
             506.00,112.04 496.00,109.30 496.00,109.30
             496.00,109.30 484.00,108.71 484.00,108.71
             472.42,107.21 460.73,105.02 449.00,105.00
             449.00,105.00 376.00,105.00 376.00,105.00
             376.00,105.00 356.00,103.00 356.00,103.00
             356.00,103.00 336.00,103.00 336.00,103.00
             322.27,103.02 325.66,105.98 313.00,106.00
             292.47,106.03 296.68,105.67 277.00,110.40
             272.66,111.45 270.39,110.62 265.00,112.55
             259.07,114.67 249.28,122.93 245.63,128.00
             240.31,135.40 240.31,140.08 238.08,148.00
             238.08,148.00 231.92,164.00 231.92,164.00
             231.92,164.00 226.97,185.96 226.97,185.96
             225.35,190.05 221.29,192.35 218.39,196.00
             215.25,199.96 212.57,206.08 211.43,211.00
             211.43,211.00 205.29,241.00 205.29,241.00
             205.29,241.00 201.71,273.00 201.71,273.00
             201.71,273.00 199.17,287.00 199.17,287.00
             199.17,287.00 197.83,307.00 197.83,307.00
             197.83,307.00 196.29,316.00 196.29,316.00
             196.29,316.00 193.70,338.00 193.70,338.00
             192.68,345.11 192.01,343.41 191.92,352.00
             191.92,352.00 191.92,366.00 191.92,366.00
             191.19,372.44 190.04,372.85 190.00,381.00
             190.00,381.00 190.00,395.00 190.00,395.00
             190.00,395.00 188.71,417.00 188.71,417.00
             188.01,422.40 187.08,423.86 187.00,430.00
             187.00,430.00 184.83,481.00 184.83,481.00
             184.83,481.00 181.29,505.00 181.29,505.00
             181.29,505.00 180.39,514.00 180.39,514.00
             180.39,514.00 176.29,534.00 176.29,534.00
             176.29,534.00 174.71,551.00 174.71,551.00
             174.71,551.00 171.29,574.00 171.29,574.00
             171.29,574.00 169.71,591.00 169.71,591.00
             169.71,591.00 167.94,600.00 167.94,600.00
             167.94,600.00 167.94,611.00 167.94,611.00
             167.94,611.00 163.29,638.00 163.29,638.00
             163.29,638.00 160.56,661.00 160.56,661.00
             160.56,661.00 155.44,692.00 155.44,692.00
             155.44,692.00 154.56,701.00 154.56,701.00
             154.56,701.00 151.44,716.00 151.44,716.00
             151.44,716.00 147.91,752.00 147.91,752.00
             147.91,752.00 146.92,762.00 146.92,762.00
             146.92,762.00 146.92,773.00 146.92,773.00
             146.12,780.10 145.01,780.04 145.00,789.00
             145.00,789.00 145.00,823.00 145.00,823.00
             145.02,833.72 148.45,844.49 150.55,855.00
             153.04,867.42 155.25,881.24 164.10,891.00
             176.18,904.32 186.93,901.49 203.00,903.17
             203.00,903.17 213.00,904.83 213.00,904.83
             213.00,904.83 230.00,906.44 230.00,906.44
             230.00,906.44 247.00,909.71 247.00,909.71
             247.00,909.71 278.00,913.28 278.00,913.28
             278.00,913.28 298.00,915.29 298.00,915.29
             298.00,915.29 316.00,918.71 316.00,918.71
             329.35,920.47 342.55,920.98 356.00,921.00
             356.00,921.00 371.00,922.00 371.00,922.00
             381.47,922.11 385.37,920.16 395.00,918.46
             395.00,918.46 413.00,916.71 413.00,916.71
             413.00,916.71 426.00,914.29 426.00,914.29
             426.00,914.29 443.00,912.71 443.00,912.71
             443.00,912.71 473.00,909.00 473.00,909.00
             473.00,909.00 498.00,909.00 498.00,909.00
             498.00,909.00 523.00,907.70 523.00,907.70
             531.38,906.51 531.98,905.02 542.00,905.00
             542.00,905.00 629.00,905.00 629.00,905.00
             637.35,905.01 636.83,905.77 644.00,906.71
             655.15,908.18 656.81,907.95 668.00,911.74
             668.00,911.74 682.00,917.78 682.00,917.78
             682.00,917.78 703.00,922.24 703.00,922.24
             709.48,923.82 711.94,925.66 720.00,926.71
             720.00,926.71 733.00,927.44 733.00,927.44
             741.55,928.77 751.56,931.90 760.00,932.00
             776.30,932.19 787.24,929.43 794.65,913.00
             796.71,908.43 798.08,899.30 799.21,894.00
             800.88,886.14 803.91,874.75 804.08,867.00
             804.08,867.00 804.08,856.00 804.08,856.00
             804.08,856.00 806.56,843.00 806.56,843.00
             806.56,843.00 808.71,827.00 808.71,827.00
             808.71,827.00 812.29,796.00 812.29,796.00
             812.29,796.00 816.00,768.00 816.00,768.00
             816.00,768.00 816.00,728.00 816.00,728.00
             816.00,728.00 818.00,701.00 818.00,701.00
             818.00,701.00 818.00,632.00 818.00,632.00
             817.98,621.65 815.01,613.04 813.44,603.00
             813.44,603.00 812.54,594.00 812.54,594.00
             810.62,583.10 807.05,567.96 807.00,557.00
             807.00,557.00 807.00,546.00 807.00,546.00
             807.00,546.00 803.29,518.00 803.29,518.00
             803.29,518.00 799.83,482.00 799.83,482.00
             799.07,474.77 798.01,474.98 798.00,466.00
             798.00,466.00 798.00,458.00 798.00,458.00
             797.99,449.41 797.32,451.11 796.30,444.00
             796.30,444.00 795.00,427.00 795.00,427.00
             795.00,427.00 795.00,407.00 795.00,407.00
             795.00,407.00 794.00,394.00 794.00,394.00
             793.89,384.59 793.02,375.30 791.56,366.00
             791.56,366.00 789.29,354.00 789.29,354.00
             789.29,354.00 787.83,333.00 787.83,333.00
             787.83,333.00 786.00,319.00 786.00,319.00
             785.91,311.30 786.89,298.90 784.45,292.00
             781.70,284.19 773.85,271.76 767.96,266.10
             767.96,266.10 757.00,256.98 757.00,256.98
             757.00,256.98 743.91,242.00 743.91,242.00
             743.91,242.00 725.17,223.00 725.17,223.00
             725.17,223.00 717.83,214.01 717.83,214.01
             717.83,214.01 693.00,190.17 693.00,190.17
             693.00,190.17 648.00,151.97 648.00,151.97
             648.00,151.97 628.00,134.83 628.00,134.83
             621.16,128.66 616.55,122.79 607.00,121.00 Z
           M 390.00,362.29
           C 412.45,360.19 429.36,364.22 451.00,367.58
             451.00,367.58 469.00,370.71 469.00,370.71
             469.00,370.71 484.00,372.50 484.00,372.50
             484.00,372.50 497.00,376.52 497.00,376.52
             497.00,376.52 514.00,380.04 514.00,380.04
             523.40,382.73 533.19,385.98 543.00,386.00
             543.00,386.00 560.00,386.00 560.00,386.00
             567.23,386.01 573.09,386.65 578.99,391.39
             590.94,400.99 591.40,419.60 579.96,429.79
             576.82,432.59 573.09,434.38 569.00,435.32
             569.00,435.32 532.00,436.00 532.00,436.00
             523.93,435.90 508.09,430.46 499.00,428.42
             499.00,428.42 483.00,425.12 483.00,425.12
             483.00,425.12 471.00,421.52 471.00,421.52
             471.00,421.52 461.00,420.57 461.00,420.57
             461.00,420.57 440.00,416.75 440.00,416.75
             427.60,414.59 414.60,411.86 402.00,412.00
             402.00,412.00 378.00,413.99 378.00,413.99
             378.00,413.99 329.00,416.80 329.00,416.80
             329.00,416.80 296.00,416.80 296.00,416.80
             293.03,416.80 287.76,416.78 285.00,417.38
             285.00,417.38 277.00,420.30 277.00,420.30
             270.14,422.74 258.27,424.91 251.00,425.00
             241.95,425.10 236.62,424.15 230.21,416.96
             218.42,403.72 224.35,382.51 241.00,376.76
             241.00,376.76 257.00,373.23 257.00,373.23
             271.52,368.88 273.19,366.23 290.00,366.06
             290.00,366.06 340.00,366.06 340.00,366.06
             340.00,366.06 374.99,363.22 374.99,363.22
             382.31,363.33 382.57,363.40 390.00,362.29 Z
           M 333.00,503.30
           C 355.26,501.09 380.92,505.00 403.00,508.42
             417.08,510.61 423.99,513.18 439.00,513.20
             439.00,513.20 527.00,513.20 527.00,513.20
             541.26,513.22 567.43,516.31 582.00,518.43
             588.72,519.40 602.56,523.03 608.00,522.29
             608.00,522.29 617.00,522.29 617.00,522.29
             617.00,522.29 640.00,522.29 640.00,522.29
             640.00,522.29 651.00,521.00 651.00,521.00
             659.26,520.91 666.89,520.78 674.00,525.80
             686.18,534.41 687.70,553.50 676.91,563.82
             668.41,571.94 654.15,571.55 643.00,572.04
             643.00,572.04 633.00,572.89 633.00,572.89
             633.00,572.89 608.00,572.89 608.00,572.89
             594.83,573.15 588.06,570.18 576.00,568.43
             559.90,566.09 542.23,563.82 526.00,563.84
             526.00,563.84 444.00,563.84 444.00,563.84
             444.00,563.84 431.00,563.84 431.00,563.84
             431.00,563.84 356.00,553.00 356.00,553.00
             343.70,552.86 329.09,555.31 319.18,546.48
             305.19,534.01 309.00,507.85 333.00,503.30 Z
           M 327.00,626.14
           C 327.00,626.14 368.00,626.14 368.00,626.14
             377.63,626.02 387.47,627.93 397.00,629.28
             410.25,631.16 423.56,634.98 437.00,635.00
             437.00,635.00 475.00,635.00 475.00,635.00
             475.00,635.00 510.71,630.20 510.71,630.20
             518.81,630.04 526.99,630.17 535.00,631.44
             535.00,631.44 546.00,633.70 546.00,633.70
             546.00,633.70 561.00,635.59 561.00,635.59
             561.00,635.59 593.00,641.70 593.00,641.70
             593.00,641.70 613.00,643.80 613.00,643.80
             622.55,646.69 629.30,656.21 629.91,666.00
             630.58,676.84 623.59,687.99 613.00,691.20
             609.16,692.37 600.19,692.84 596.00,692.80
             586.22,692.69 583.52,691.04 575.00,689.46
             575.00,689.46 566.00,688.20 566.00,688.20
             566.00,688.20 547.00,684.43 547.00,684.43
             547.00,684.43 538.00,683.56 538.00,683.56
             529.34,682.20 528.85,680.82 518.92,680.81
             518.92,680.81 481.00,685.00 481.00,685.00
             481.00,685.00 430.00,685.00 430.00,685.00
             430.00,685.00 378.00,677.43 378.00,677.43
             365.35,675.55 352.75,675.98 340.00,676.00
             340.00,676.00 305.00,680.57 305.00,680.57
             305.00,680.57 275.00,684.83 275.00,684.83
             275.00,684.83 252.00,686.09 252.00,686.09
             252.00,686.09 244.29,686.80 244.29,686.80
             232.34,687.04 215.36,688.32 206.18,679.67
             196.12,670.19 196.43,651.45 207.09,642.53
             213.57,637.10 222.12,636.22 230.25,636.19
             230.25,636.19 246.08,636.19 246.08,636.19
             267.11,636.14 304.85,629.54 327.00,626.14 Z" />
</svg>
