<?xml version="1.0" encoding="UTF-8" standalone="no"?>
<!DOCTYPE svg PUBLIC "-//W3C//DTD SVG 20010904//EN"
              "http://www.w3.org/TR/2001/REC-SVG-20010904/DTD/svg10.dtd">

<svg xmlns="http://www.w3.org/2000/svg"
     width="15in" height="15in"
     viewBox="0 0 1080 1080">
  <path id="Selection #1"
        fill="#00a7dc" stroke="none" stroke-width="1"
        d="M 106.00,370.00
           C 109.75,365.94 108.82,363.82 110.55,359.00
             110.55,359.00 118.36,342.00 118.36,342.00
             122.94,334.03 128.44,332.77 133.33,326.96
             133.33,326.96 142.07,315.00 142.07,315.00
             142.07,315.00 146.63,307.00 146.63,307.00
             149.48,303.02 158.80,293.77 163.00,291.36
             168.06,288.47 172.64,288.36 178.00,286.80
             178.00,286.80 202.00,281.10 202.00,281.10
             202.00,281.10 214.00,277.47 214.00,277.47
             218.69,276.59 221.09,277.40 228.00,275.51
             228.00,275.51 239.00,271.22 239.00,271.22
             239.00,271.22 251.00,268.57 251.00,268.57
             251.00,268.57 266.00,264.51 266.00,264.51
             266.00,264.51 296.00,256.11 296.00,256.11
             296.00,256.11 306.00,256.11 306.00,256.11
             306.00,256.11 318.00,255.00 318.00,255.00
             318.00,255.00 395.00,255.00 395.00,255.00
             405.00,255.02 405.61,256.49 414.00,257.70
             414.00,257.70 431.00,259.29 431.00,259.29
             439.75,260.44 440.73,261.98 451.00,262.00
             451.00,262.00 504.00,262.00 504.00,262.00
             512.35,262.01 511.83,262.77 519.00,263.71
             519.00,263.71 527.00,264.44 527.00,264.44
             535.67,265.80 534.97,266.98 545.00,267.00
             566.57,267.03 593.37,268.47 614.00,263.00
             613.19,259.68 613.04,258.41 613.00,255.00
             612.91,246.93 612.18,232.20 614.52,225.00
             622.50,200.42 652.65,188.19 672.00,174.08
             688.63,161.96 692.35,162.67 707.99,153.77
             714.97,149.79 715.49,146.23 722.00,142.53
             729.34,138.36 736.95,139.01 745.00,139.00
             761.73,138.97 761.25,132.95 773.00,128.70
             782.98,125.09 789.66,125.98 800.00,126.00
             807.36,126.01 812.96,126.64 819.00,131.39
             822.55,134.18 826.19,140.22 830.10,140.87
             830.10,140.87 853.00,142.30 853.00,142.30
             853.00,142.30 870.00,147.49 870.00,147.49
             887.10,152.84 899.09,157.77 909.78,173.00
             911.08,169.76 910.12,163.52 909.78,160.00
             908.82,155.30 907.26,147.10 905.17,143.00
             905.17,143.00 892.37,126.00 892.37,126.00
             884.78,115.89 872.56,104.14 863.00,95.72
             856.12,89.65 843.84,78.66 836.00,74.35
             836.00,74.35 828.00,70.97 828.00,70.97
             816.06,65.45 817.12,62.02 802.00,62.00
             802.00,62.00 784.00,62.00 784.00,62.00
             774.40,62.01 765.39,64.73 756.00,66.39
             756.00,66.39 741.00,67.46 741.00,67.46
             741.00,67.46 721.00,72.78 721.00,72.78
             721.00,72.78 703.00,72.78 703.00,72.78
             703.00,72.78 686.00,74.72 686.00,74.72
             677.12,75.78 667.50,76.55 659.00,79.55
             659.00,79.55 647.00,84.56 647.00,84.56
             647.00,84.56 630.00,91.32 630.00,91.32
             630.00,91.32 618.00,98.95 618.00,98.95
             613.18,101.50 606.48,101.91 599.00,107.35
             589.00,114.62 569.47,132.33 563.82,143.00
             563.82,143.00 555.65,161.00 555.65,161.00
             555.65,161.00 546.76,175.00 546.76,175.00
             544.70,179.11 543.07,186.99 540.69,189.21
             538.71,191.07 535.47,192.34 533.00,193.42
             520.00,199.12 508.82,198.84 495.00,199.00
             487.65,199.09 480.24,200.43 473.00,201.56
             473.00,201.56 464.00,202.44 464.00,202.44
             464.00,202.44 435.00,208.39 435.00,208.39
             435.00,208.39 425.00,209.44 425.00,209.44
             425.00,209.44 404.00,212.98 404.00,212.98
             397.48,213.11 375.66,210.48 369.00,208.99
             359.05,206.75 361.19,205.02 349.00,205.00
             349.00,205.00 318.00,205.00 318.00,205.00
             318.00,205.00 278.00,209.29 278.00,209.29
             269.25,210.44 268.27,211.98 258.00,212.00
             258.00,212.00 248.00,212.00 248.00,212.00
             248.00,212.00 222.00,216.56 222.00,216.56
             222.00,216.56 212.00,217.68 212.00,217.68
             212.00,217.68 185.00,227.80 185.00,227.80
             168.33,234.35 167.87,233.87 152.00,243.54
             138.44,251.79 139.31,251.67 128.00,263.00
             121.62,269.39 108.50,284.72 105.55,293.00
             104.20,296.79 103.02,313.43 103.00,318.00
             103.00,318.00 103.00,335.00 103.00,335.00
             103.08,341.14 104.01,342.60 104.71,348.00
             104.71,348.00 106.00,370.00 106.00,370.00 Z" />
  <path id="Selection"
        fill="#00c1ff" stroke="none" stroke-width="1"
        d="M 614.00,263.00
           C 606.02,264.50 591.78,266.99 584.00,267.00
             584.00,267.00 546.00,267.00 546.00,267.00
             535.97,266.98 536.67,265.80 528.00,264.44
             528.00,264.44 520.00,263.71 520.00,263.71
             512.83,262.77 513.35,262.01 505.00,262.00
             505.00,262.00 452.00,262.00 452.00,262.00
             441.73,261.98 440.75,260.44 432.00,259.29
             432.00,259.29 415.00,257.70 415.00,257.70
             406.61,256.49 406.00,255.02 396.00,255.00
             396.00,255.00 317.00,255.00 317.00,255.00
             317.00,255.00 305.00,256.11 305.00,256.11
             305.00,256.11 295.00,256.11 295.00,256.11
             295.00,256.11 265.00,264.51 265.00,264.51
             265.00,264.51 250.00,268.57 250.00,268.57
             250.00,268.57 238.00,271.22 238.00,271.22
             238.00,271.22 228.00,275.23 228.00,275.23
             221.03,277.38 218.10,276.51 213.00,277.47
             213.00,277.47 201.00,281.10 201.00,281.10
             201.00,281.10 177.00,286.80 177.00,286.80
             170.62,288.65 165.81,288.50 160.00,292.64
             147.65,301.42 144.24,311.61 135.63,323.00
             128.59,332.31 124.35,332.41 119.64,339.00
             119.64,339.00 110.55,358.00 110.55,358.00
             110.55,358.00 108.34,366.00 108.34,366.00
             106.16,371.89 103.39,372.54 101.44,385.00
             100.74,389.47 100.87,393.66 102.22,398.00
             103.49,402.10 105.70,404.52 104.97,409.00
             104.97,409.00 102.47,418.00 102.47,418.00
             102.47,418.00 99.39,442.00 99.39,442.00
             99.39,442.00 93.61,470.00 93.61,470.00
             93.61,470.00 90.00,507.00 90.00,507.00
             90.00,507.00 90.00,534.00 90.00,534.00
             90.00,534.00 88.00,553.00 88.00,553.00
             88.00,553.00 88.00,602.00 88.00,602.00
             88.02,612.25 91.03,622.92 93.00,633.00
             93.00,633.00 94.44,645.00 94.44,645.00
             94.44,645.00 98.83,672.00 98.83,672.00
             98.83,672.00 100.12,684.00 100.12,684.00
             100.12,684.00 100.12,693.00 100.12,693.00
             100.12,693.00 105.54,719.00 105.54,719.00
             105.54,719.00 107.43,733.00 107.43,733.00
             107.43,733.00 111.39,745.00 111.39,745.00
             111.39,745.00 112.92,754.00 112.92,754.00
             114.53,760.13 117.69,766.17 120.13,772.00
             122.34,777.29 122.08,779.61 125.55,785.00
             131.30,793.95 144.94,805.66 154.00,811.45
             154.00,811.45 187.00,826.30 187.00,826.30
             187.00,826.30 224.00,842.45 224.00,842.45
             224.00,842.45 235.00,845.22 235.00,845.22
             235.00,845.22 244.00,848.78 244.00,848.78
             252.00,851.30 265.49,851.96 274.00,852.00
             283.09,852.04 286.33,854.06 294.00,854.83
             294.00,854.83 314.00,856.17 314.00,856.17
             314.00,856.17 329.00,858.83 329.00,858.83
             329.00,858.83 359.00,860.00 359.00,860.00
             359.00,860.00 381.00,861.97 381.00,861.97
             381.00,861.97 393.00,861.00 393.00,861.00
             393.00,861.00 467.00,861.00 467.00,861.00
             477.17,861.02 481.57,863.09 491.00,864.56
             491.00,864.56 500.00,865.44 500.00,865.44
             510.25,867.04 523.79,869.98 534.00,870.00
             534.00,870.00 582.00,870.00 582.00,870.00
             601.34,869.97 619.44,860.20 636.00,860.00
             636.00,860.00 682.00,855.04 682.00,855.04
             682.00,855.04 691.00,855.04 691.00,855.04
             691.00,855.04 707.00,854.00 707.00,854.00
             707.00,854.00 738.00,850.56 738.00,850.56
             738.00,850.56 758.00,846.45 758.00,846.45
             758.00,846.45 801.00,837.79 801.00,837.79
             801.00,837.79 810.00,835.37 810.00,835.37
             810.00,835.37 834.00,832.83 834.00,832.83
             834.00,832.83 847.00,830.44 847.00,830.44
             847.00,830.44 856.00,829.56 856.00,829.56
             869.88,827.39 885.80,823.74 898.00,816.64
             902.80,813.84 906.59,809.17 911.00,805.67
             911.00,805.67 933.91,786.96 933.91,786.96
             942.26,778.49 946.29,771.00 953.13,762.00
             953.13,762.00 961.10,752.00 961.10,752.00
             967.49,742.71 972.87,732.57 976.77,722.00
             976.77,722.00 981.33,707.00 981.33,707.00
             981.33,707.00 987.20,692.00 987.20,692.00
             987.20,692.00 991.78,682.00 991.78,682.00
             991.78,682.00 999.40,646.00 999.40,646.00
             1001.30,636.50 1003.98,627.78 1004.00,618.00
             1004.00,618.00 1004.00,559.00 1004.00,559.00
             1003.98,549.07 1002.92,551.01 1002.17,544.00
             1002.17,544.00 1000.78,524.00 1000.78,524.00
             1000.78,524.00 1000.78,502.00 1000.78,502.00
             1000.78,502.00 993.01,475.00 993.01,475.00
             993.01,475.00 984.57,434.00 984.57,434.00
             984.57,434.00 981.62,425.00 981.62,425.00
             981.62,425.00 977.60,408.00 977.60,408.00
             977.60,408.00 975.57,396.00 975.57,396.00
             975.57,396.00 972.49,386.00 972.49,386.00
             972.49,386.00 968.61,367.00 968.61,367.00
             968.61,367.00 964.32,342.00 964.32,342.00
             964.32,342.00 958.49,324.00 958.49,324.00
             958.49,324.00 953.14,301.00 953.14,301.00
             953.14,301.00 944.81,282.00 944.81,282.00
             944.81,282.00 938.77,265.00 938.77,265.00
             938.77,265.00 936.48,256.00 936.48,256.00
             936.48,256.00 929.43,236.00 929.43,236.00
             929.43,236.00 926.53,217.00 926.53,217.00
             926.53,217.00 922.90,205.00 922.90,205.00
             922.90,205.00 920.08,192.00 920.08,192.00
             916.54,179.45 908.88,168.59 899.00,160.21
             891.27,153.66 878.55,149.93 869.00,146.84
             864.57,145.40 857.27,142.64 853.00,142.17
             853.00,142.17 830.10,140.69 830.10,140.69
             825.59,139.44 824.76,133.81 817.00,129.36
             808.92,124.73 797.19,125.99 788.00,126.00
             780.96,126.01 774.33,127.09 768.00,130.40
             762.98,133.02 762.29,134.91 756.00,137.15
             748.53,139.81 743.70,138.91 736.00,139.00
             728.31,139.09 721.86,140.85 716.09,146.18
             716.09,146.18 710.83,151.37 710.83,151.37
             709.04,152.78 702.26,156.44 700.00,157.52
             692.92,160.89 685.63,164.00 679.00,168.24
             679.00,168.24 661.00,181.05 661.00,181.05
             641.37,193.29 613.32,207.30 613.00,234.00
             613.00,234.00 613.00,255.00 613.00,255.00
             613.02,258.45 613.05,259.64 614.00,263.00 Z" />
</svg>
