<?xml version="1.0" encoding="UTF-8" standalone="no"?>
<!DOCTYPE svg PUBLIC "-//W3C//DTD SVG 20010904//EN"
              "http://www.w3.org/TR/2001/REC-SVG-20010904/DTD/svg10.dtd">

<svg xmlns="http://www.w3.org/2000/svg"
     width="15in" height="15in"
     viewBox="0 0 1080 1080">
  <path id="front"
        fill="#00c1ff" stroke="none" stroke-width="1"
        d="M 79.00,708.00
           C 80.22,714.88 78.22,722.19 77.08,729.00
             77.08,729.00 74.16,746.00 74.16,746.00
             74.16,746.00 70.44,758.00 70.44,758.00
             70.44,758.00 66.58,782.00 66.58,782.00
             66.25,786.84 68.22,802.66 69.48,807.42
             69.48,807.42 72.44,817.04 72.44,817.04
             72.44,817.04 76.12,847.00 76.12,847.00
             76.12,847.00 75.18,860.00 75.18,860.00
             75.39,861.92 81.22,873.04 82.64,874.83
             91.34,885.89 108.43,892.53 121.00,898.31
             121.00,898.31 160.00,916.53 160.00,916.53
             160.00,916.53 171.00,919.55 171.00,919.55
             171.00,919.55 178.00,922.45 178.00,922.45
             183.92,924.56 195.65,925.92 202.00,926.00
             220.49,926.21 215.06,927.54 228.00,929.02
             228.00,929.02 238.00,929.02 238.00,929.02
             238.00,929.02 248.00,931.70 248.00,931.70
             248.00,931.70 256.00,932.44 256.00,932.44
             256.00,932.44 268.00,934.71 268.00,934.71
             268.00,934.71 275.00,935.53 275.00,935.53
             275.00,935.53 300.00,944.12 300.00,944.12
             315.80,947.89 326.00,947.18 342.00,947.00
             342.00,947.00 379.00,942.00 379.00,942.00
             396.13,941.80 397.37,943.34 413.00,944.83
             413.00,944.83 425.00,945.44 425.00,945.44
             434.08,946.86 442.77,949.99 452.00,950.00
             460.63,950.01 469.44,950.06 478.00,951.30
             483.55,952.10 486.28,953.91 491.00,955.22
             491.00,955.22 498.00,956.37 498.00,956.37
             506.57,958.09 509.52,959.99 519.00,960.00
             519.00,960.00 552.00,960.00 552.00,960.00
             562.41,960.02 562.26,961.69 569.00,961.96
             581.95,962.48 583.43,958.37 593.00,953.43
             593.00,953.43 606.00,947.88 606.00,947.88
             606.00,947.88 625.00,943.12 625.00,943.12
             625.00,943.12 642.00,938.79 642.00,938.79
             642.00,938.79 655.00,934.43 655.00,934.43
             655.00,934.43 684.00,929.55 684.00,929.55
             684.00,929.55 708.00,924.45 708.00,924.45
             708.00,924.45 725.00,921.08 725.00,921.08
             725.00,921.08 736.00,917.29 736.00,917.29
             736.00,917.29 760.00,911.33 760.00,911.33
             760.00,911.33 774.00,909.58 774.00,909.58
             774.00,909.58 798.00,903.04 798.00,903.04
             798.00,903.04 820.00,898.43 820.00,898.43
             828.72,895.81 836.75,891.22 845.00,887.51
             845.00,887.51 877.00,873.80 877.00,873.80
             885.93,868.85 893.93,861.87 902.00,855.68
             902.00,855.68 913.00,847.82 913.00,847.82
             917.34,843.99 924.66,835.77 927.32,830.58
             927.32,830.58 931.55,820.28 931.55,820.28
             931.55,820.28 943.65,804.00 943.65,804.00
             943.65,804.00 955.00,782.42 955.00,782.42
             955.00,782.42 958.57,773.00 958.57,773.00
             958.57,773.00 962.91,764.00 962.91,764.00
             962.91,764.00 965.97,756.01 965.97,756.01
             965.97,756.01 971.81,746.96 971.81,746.96
             971.81,746.96 984.11,720.00 984.11,720.00
             984.11,720.00 987.18,705.09 987.18,705.09
             987.18,705.09 992.42,690.00 992.42,690.00
             992.42,690.00 996.96,671.00 996.96,671.00
             996.96,671.00 1007.12,650.83 1007.12,650.83
             1007.12,650.83 1010.99,633.00 1010.99,633.00
             1010.99,633.00 1020.85,607.83 1020.85,607.83
             1020.85,607.83 1024.41,586.00 1024.41,586.00
             1024.41,586.00 1029.43,554.00 1029.43,554.00
             1029.43,554.00 1029.43,539.00 1029.43,539.00
             1029.43,539.00 1030.51,529.00 1030.51,529.00
             1030.51,529.00 1030.51,518.00 1030.51,518.00
             1030.51,518.00 1030.51,508.42 1030.51,508.42
             1030.51,508.42 1030.51,501.00 1030.51,501.00
             1030.51,501.00 1031.29,492.00 1031.29,492.00
             1031.29,492.00 1030.05,467.00 1030.05,467.00
             1030.05,467.00 1031.26,448.00 1031.26,448.00
             1030.59,429.27 1034.91,419.76 1035.56,406.00
             1035.56,406.00 1035.05,393.00 1035.05,393.00
             1035.05,393.00 1035.99,379.00 1035.99,379.00
             1035.99,379.00 1035.06,370.42 1035.06,370.42
             1035.06,370.42 1041.67,350.00 1041.67,350.00
             1041.67,350.00 1046.86,329.00 1046.86,329.00
             1046.86,329.00 1055.13,309.00 1055.13,309.00
             1055.13,309.00 1057.41,298.00 1057.41,298.00
             1057.41,298.00 1063.55,277.00 1063.55,277.00
             1063.55,277.00 1065.00,265.42 1065.00,265.42
             1065.81,261.12 1070.67,257.66 1071.48,247.00
             1072.31,236.14 1066.14,231.42 1065.09,227.58
             1064.48,225.35 1065.22,219.72 1063.06,214.72
             1060.88,209.67 1056.77,206.31 1053.80,202.00
             1050.83,197.69 1051.35,195.80 1047.37,191.09
             1043.01,185.93 1036.05,181.24 1031.04,176.71
             1026.52,172.63 1023.81,168.41 1018.00,165.44
             1018.00,165.44 995.00,159.09 995.00,159.09
             995.00,159.09 982.00,159.09 982.00,159.09
             976.44,159.07 976.12,159.53 971.00,160.55
             954.82,163.79 952.50,168.49 939.00,174.41
             939.00,174.41 929.00,177.38 929.00,177.38
             913.94,182.07 918.08,181.79 902.00,182.00
             892.97,182.12 886.02,186.29 878.00,189.53
             878.00,189.53 861.00,194.58 861.00,194.58
             861.00,194.58 840.00,201.28 840.00,201.28
             840.00,201.28 820.00,206.75 820.00,206.75
             820.00,206.75 794.00,216.86 794.00,216.86
             794.00,216.86 781.00,223.75 781.00,223.75
             781.00,223.75 766.09,230.53 766.09,230.53
             761.56,233.38 760.61,237.14 755.00,241.47
             748.80,246.25 745.41,245.03 742.63,247.58
             742.63,247.58 732.28,264.00 732.28,264.00
             732.28,264.00 716.31,287.00 716.31,287.00
             712.35,294.25 712.30,297.82 709.40,305.00
             709.40,305.00 699.20,328.00 699.20,328.00
             699.20,328.00 694.52,340.00 694.52,340.00
             692.02,347.70 693.70,350.75 687.67,358.00
             679.44,367.90 674.76,366.84 664.00,370.04
             664.00,370.04 648.00,375.12 648.00,375.12
             648.00,375.12 623.00,381.60 623.00,381.60
             613.21,384.80 603.49,390.94 593.00,391.81
             593.00,391.81 581.00,391.18 581.00,391.18
             581.00,391.18 569.00,393.56 569.00,393.56
             569.00,393.56 555.00,395.61 555.00,395.61
             555.00,395.61 524.00,402.20 524.00,402.20
             524.00,402.20 508.00,404.42 508.00,404.42
             508.00,404.42 465.00,412.89 465.00,412.89
             465.00,412.89 451.00,417.41 451.00,417.41
             451.00,417.41 426.00,424.43 426.00,424.43
             426.00,424.43 415.00,428.10 415.00,428.10
             415.00,428.10 401.00,429.75 401.00,429.75
             401.00,429.75 378.00,435.39 378.00,435.39
             378.00,435.39 359.00,437.52 359.00,437.52
             359.00,437.52 341.00,442.54 341.00,442.54
             341.00,442.54 318.00,446.49 318.00,446.49
             318.00,446.49 304.00,451.51 304.00,451.51
             296.82,453.44 295.57,451.87 291.00,453.13
             291.00,453.13 277.00,457.98 277.00,457.98
             277.00,457.98 254.00,464.12 254.00,464.12
             254.00,464.12 238.00,468.20 238.00,468.20
             238.00,468.20 211.00,473.92 211.00,473.92
             211.00,473.92 198.00,479.58 198.00,479.58
             198.00,479.58 175.00,486.57 175.00,486.57
             175.00,486.57 163.00,489.44 163.00,489.44
             153.04,492.42 138.12,499.03 131.46,507.00
             126.85,512.53 115.11,528.88 112.14,535.00
             112.14,535.00 106.12,553.00 106.12,553.00
             106.12,553.00 99.99,564.00 99.99,564.00
             99.99,564.00 97.41,574.00 97.41,574.00
             97.41,574.00 93.29,585.00 93.29,585.00
             91.46,591.81 87.01,621.13 87.00,628.00
             87.00,628.00 87.00,637.00 87.00,637.00
             87.00,637.00 86.19,656.00 86.19,656.00
             86.19,656.00 85.01,665.83 85.01,665.83
             85.01,665.83 85.01,672.04 85.01,672.04
             85.01,672.04 81.80,688.00 81.80,688.00
             80.99,693.99 82.59,703.25 79.00,708.00 Z" />
  <path id="back"
        fill="#00a7dc" stroke="none" stroke-width="1"
        d="M 82.00,684.00
           C 85.39,678.79 85.24,670.13 85.53,664.00
             85.53,664.00 86.87,654.09 86.87,654.09
             86.87,654.09 86.87,629.00 86.87,629.00
             87.01,621.85 91.63,592.00 93.59,585.00
             93.59,585.00 97.46,575.00 97.46,575.00
             97.46,575.00 100.00,565.00 100.00,565.00
             100.00,565.00 106.55,553.00 106.55,553.00
             106.55,553.00 111.68,537.00 111.68,537.00
             114.68,530.24 129.78,509.26 135.09,504.18
             140.67,498.85 155.48,492.08 163.00,489.77
             163.00,489.77 179.00,485.66 179.00,485.66
             179.00,485.66 201.00,478.93 201.00,478.93
             201.00,478.93 212.00,473.92 212.00,473.92
             212.00,473.92 241.00,467.99 241.00,467.99
             241.00,467.99 274.00,459.12 274.00,459.12
             274.00,459.12 292.00,453.40 292.00,453.40
             296.09,452.43 298.87,453.37 306.00,451.23
             306.00,451.23 320.00,446.24 320.00,446.24
             320.00,446.24 344.00,442.11 344.00,442.11
             344.00,442.11 360.00,437.52 360.00,437.52
             360.00,437.52 378.00,435.56 378.00,435.56
             378.00,435.56 399.00,430.28 399.00,430.28
             399.00,430.28 415.00,428.33 415.00,428.33
             415.00,428.33 427.00,424.44 427.00,424.44
             427.00,424.44 452.00,417.56 452.00,417.56
             452.00,417.56 462.00,414.14 462.00,414.14
             462.00,414.14 504.00,405.26 504.00,405.26
             504.00,405.26 524.00,402.39 524.00,402.39
             524.00,402.39 580.00,391.40 580.00,391.40
             586.38,390.42 589.41,393.17 598.00,391.40
             605.22,389.79 614.96,385.15 622.00,382.46
             622.00,382.46 639.00,377.56 639.00,377.56
             639.00,377.56 679.00,366.08 679.00,366.08
             690.58,360.55 691.03,353.36 694.04,343.00
             694.04,343.00 699.60,328.00 699.60,328.00
             699.60,328.00 709.40,306.00 709.40,306.00
             712.30,298.82 712.35,295.25 716.31,288.00
             716.31,288.00 731.66,266.00 731.66,266.00
             731.66,266.00 742.39,249.14 742.39,249.14
             746.40,244.75 749.79,246.31 755.99,241.47
             761.44,237.21 761.85,233.65 767.04,230.53
             767.04,230.53 780.00,224.75 780.00,224.75
             792.85,218.37 805.34,212.11 819.00,207.52
             819.00,207.52 840.00,201.57 840.00,201.57
             840.00,201.57 864.00,194.02 864.00,194.02
             874.75,190.73 873.42,191.91 885.00,187.00
             880.56,185.23 877.71,186.42 872.00,183.81
             864.33,180.32 859.42,175.29 853.00,170.41
             849.39,167.67 847.04,167.51 841.00,162.54
             832.14,155.25 832.82,151.57 829.59,148.65
             827.39,146.66 823.73,145.86 821.00,144.48
             810.63,139.26 809.82,136.06 797.00,136.00
             797.00,136.00 778.00,136.00 778.00,136.00
             768.40,136.01 759.39,138.73 750.00,140.39
             750.00,140.39 735.00,141.46 735.00,141.46
             735.00,141.46 715.00,146.78 715.00,146.78
             715.00,146.78 697.00,146.78 697.00,146.78
             697.00,146.78 680.00,148.72 680.00,148.72
             671.12,149.78 661.50,150.55 653.00,153.55
             653.00,153.55 641.00,158.56 641.00,158.56
             641.00,158.56 624.00,165.32 624.00,165.32
             624.00,165.32 612.00,172.95 612.00,172.95
             612.00,172.95 596.00,179.36 596.00,179.36
             586.06,185.09 565.10,205.40 558.97,215.00
             558.97,215.00 550.18,234.00 550.18,234.00
             550.18,234.00 543.55,244.00 543.55,244.00
             536.50,254.97 538.40,259.74 534.69,263.21
             532.71,265.07 529.47,266.34 527.00,267.42
             514.00,273.12 502.82,272.84 489.00,273.00
             481.65,273.09 474.24,274.43 467.00,275.56
             467.00,275.56 458.00,276.44 458.00,276.44
             458.00,276.44 429.00,282.39 429.00,282.39
             429.00,282.39 419.00,283.44 419.00,283.44
             419.00,283.44 398.00,286.98 398.00,286.98
             391.48,287.11 369.66,284.48 363.00,282.99
             353.05,280.75 355.19,279.02 343.00,279.00
             343.00,279.00 312.00,279.00 312.00,279.00
             312.00,279.00 272.00,283.29 272.00,283.29
             263.25,284.44 262.27,285.98 252.00,286.00
             252.00,286.00 242.00,286.00 242.00,286.00
             242.00,286.00 216.00,290.56 216.00,290.56
             216.00,290.56 206.00,291.68 206.00,291.68
             206.00,291.68 179.00,301.80 179.00,301.80
             162.33,308.35 161.87,307.87 146.00,317.54
             132.44,325.79 133.31,325.67 122.00,337.00
             115.62,343.39 102.50,358.72 99.55,367.00
             98.20,370.79 97.02,387.43 97.00,392.00
             97.00,392.00 97.00,409.00 97.00,409.00
             97.08,415.14 98.01,416.60 98.71,422.00
             98.71,422.00 99.94,441.00 99.94,441.00
             99.76,446.60 97.34,448.64 96.86,453.00
             96.46,456.64 97.92,458.76 97.92,463.00
             97.92,467.27 96.53,469.47 96.20,473.00
             96.20,473.00 96.99,484.00 96.99,484.00
             97.18,492.51 94.64,500.64 93.43,509.00
             93.43,509.00 87.71,550.00 87.71,550.00
             85.50,566.80 84.03,561.96 84.00,583.00
             84.00,583.00 84.00,608.00 84.00,608.00
             84.00,608.00 82.00,627.00 82.00,627.00
             82.00,627.00 82.00,684.00 82.00,684.00 Z
           M 81.00,701.00
           C 81.00,701.00 76.92,724.00 76.92,724.00
             76.92,724.00 73.00,751.00 73.00,751.00
             73.00,751.00 79.41,716.00 79.41,716.00
             79.41,716.00 81.00,701.00 81.00,701.00 Z
           M 71.00,756.00
           C 71.00,756.00 71.00,757.00 71.00,757.00
             71.00,757.00 72.00,756.00 72.00,756.00
             72.00,756.00 71.00,756.00 71.00,756.00 Z
           M 66.00,784.00
           C 66.00,784.00 66.00,785.00 66.00,785.00
             66.00,785.00 67.00,784.00 67.00,784.00
             67.00,784.00 66.00,784.00 66.00,784.00 Z
           M 67.00,792.00
           C 67.00,792.00 67.00,793.00 67.00,793.00
             67.00,793.00 68.00,792.00 68.00,792.00
             68.00,792.00 67.00,792.00 67.00,792.00 Z
           M 67.00,795.00
           C 67.00,795.00 67.00,796.00 67.00,796.00
             67.00,796.00 68.00,795.00 68.00,795.00
             68.00,795.00 67.00,795.00 67.00,795.00 Z
           M 69.00,808.00
           C 69.00,808.00 69.00,809.00 69.00,809.00
             69.00,809.00 70.00,808.00 70.00,808.00
             70.00,808.00 69.00,808.00 69.00,808.00 Z
           M 70.00,810.00
           C 70.00,810.00 70.00,811.00 70.00,811.00
             70.00,811.00 71.00,810.00 71.00,810.00
             71.00,810.00 70.00,810.00 70.00,810.00 Z
           M 71.00,812.00
           C 71.00,812.00 71.00,813.00 71.00,813.00
             71.00,813.00 72.00,812.00 72.00,812.00
             72.00,812.00 71.00,812.00 71.00,812.00 Z
           M 71.00,814.00
           C 71.00,814.00 71.00,815.00 71.00,815.00
             71.00,815.00 72.00,814.00 72.00,814.00
             72.00,814.00 71.00,814.00 71.00,814.00 Z
           M 72.00,816.00
           C 72.00,816.00 72.00,817.00 72.00,817.00
             72.00,817.00 73.00,816.00 73.00,816.00
             73.00,816.00 72.00,816.00 72.00,816.00 Z
           M 73.00,822.00
           C 73.00,822.00 73.00,823.00 73.00,823.00
             73.00,823.00 74.00,822.00 74.00,822.00
             74.00,822.00 73.00,822.00 73.00,822.00 Z
           M 74.00,832.00
           C 74.00,832.00 74.00,833.00 74.00,833.00
             74.00,833.00 75.00,832.00 75.00,832.00
             75.00,832.00 74.00,832.00 74.00,832.00 Z
           M 75.00,835.00
           C 75.00,835.00 75.00,836.00 75.00,836.00
             75.00,836.00 76.00,835.00 76.00,835.00
             76.00,835.00 75.00,835.00 75.00,835.00 Z" />
</svg>
