<?xml version="1.0" encoding="UTF-8" standalone="no"?>
<!DOCTYPE svg PUBLIC "-//W3C//DTD SVG 20010904//EN"
              "http://www.w3.org/TR/2001/REC-SVG-20010904/DTD/svg10.dtd">

<svg xmlns="http://www.w3.org/2000/svg"
     width="15in" height="15in"
     viewBox="0 0 1080 1080">
  <path id="white"
        fill="white" stroke="none" stroke-width="1"
        d="M 732.00,493.00
           C 738.72,496.60 744.84,501.42 752.00,504.13
             760.77,507.45 780.85,512.01 787.00,515.97
             789.93,517.85 792.56,520.51 794.98,523.00
             799.04,527.16 802.03,531.17 803.20,537.00
             804.12,541.59 801.35,546.44 800.16,551.00
             798.67,556.67 797.61,566.99 797.18,573.00
             796.28,585.67 802.60,601.73 813.00,609.21
             826.86,619.18 851.32,618.01 865.00,608.21
             876.89,599.70 881.84,586.21 882.00,572.00
             882.14,559.06 877.75,542.19 867.96,533.18
             861.41,527.16 855.30,526.63 852.56,523.59
             852.56,523.59 844.14,504.00 844.14,504.00
             838.14,493.12 828.84,484.22 819.00,476.75
             796.02,459.30 781.50,467.32 757.00,448.76
             740.89,436.56 733.66,426.76 721.65,411.00
             716.68,404.47 713.10,396.88 706.96,391.29
             701.29,386.12 683.69,373.44 677.00,369.45
             677.00,369.45 664.00,362.57 664.00,362.57
             661.02,360.87 657.12,358.26 654.00,357.13
             647.26,354.69 636.89,355.64 631.00,359.80
             627.53,362.25 625.00,365.18 623.14,369.00
             621.32,372.74 621.05,374.93 621.00,379.00
             620.97,381.99 620.93,385.11 621.80,388.00
             625.98,401.86 637.89,405.17 649.00,411.31
             649.00,411.31 659.00,417.98 659.00,417.98
             662.21,420.21 664.84,421.77 667.20,425.04
             671.31,430.74 669.55,435.54 670.17,442.00
             670.17,442.00 673.72,463.00 673.72,463.00
             675.10,472.76 676.03,478.37 678.64,488.00
             678.64,488.00 682.10,499.00 682.10,499.00
             682.10,499.00 685.46,516.00 685.46,516.00
             685.46,516.00 687.94,529.00 687.94,529.00
             688.13,530.75 688.26,532.07 687.23,533.62
             687.23,533.62 672.04,546.00 672.04,546.00
             663.82,554.54 659.58,567.19 661.44,579.00
             664.09,595.79 674.12,609.11 688.00,618.48
             692.96,621.83 705.61,626.34 707.57,630.11
             707.57,630.11 712.20,652.00 712.20,652.00
             712.20,652.00 720.13,687.00 720.13,687.00
             721.24,691.47 723.69,704.89 722.69,709.00
             721.53,713.70 716.42,716.81 712.91,722.00
             708.66,728.30 705.53,740.39 705.09,748.00
             704.31,761.71 712.58,778.80 726.00,783.61
             735.52,787.03 741.60,785.73 751.00,785.09
             759.92,784.48 763.01,785.18 772.00,781.55
             789.25,774.58 800.56,757.57 800.99,739.00
             801.22,728.60 798.56,716.24 789.99,709.53
             781.29,702.73 774.48,706.18 772.43,698.98
             771.46,695.57 773.00,691.00 770.12,680.00
             770.12,680.00 760.34,638.00 760.34,638.00
             760.34,638.00 756.30,616.00 756.30,616.00
             756.38,612.91 760.05,606.04 761.28,602.00
             764.74,590.66 765.13,586.73 765.00,575.00
             764.87,563.94 760.47,552.13 752.91,544.00
             752.91,544.00 740.17,532.79 740.17,532.79
             739.02,530.87 738.14,524.60 737.58,522.00
             737.58,522.00 732.00,493.00 732.00,493.00 Z" />
  <path id="yellow"
        fill="#fcff8c" stroke="none" stroke-width="1"
        d="M 767.00,665.00
           C 767.00,665.00 772.70,687.00 772.70,687.00
             772.70,687.00 774.00,703.00 774.00,703.00
             798.71,705.08 807.79,733.58 798.69,754.00
             794.75,762.82 789.34,772.54 781.00,777.87
             776.23,780.92 765.67,785.22 760.00,785.96
             760.00,785.96 751.00,785.96 751.00,785.96
             751.00,785.96 743.00,786.96 743.00,786.96
             725.38,787.64 712.83,778.26 706.46,762.00
             704.65,757.36 703.84,752.98 704.04,748.00
             704.31,741.28 708.43,728.52 712.22,723.00
             714.67,719.44 720.25,714.14 721.29,711.00
             722.63,707.66 721.50,703.42 721.29,700.00
             720.28,690.85 718.91,681.79 716.00,673.00
             700.12,680.19 685.34,700.05 675.15,714.00
             661.14,733.18 649.05,738.44 642.43,762.00
             641.40,765.67 640.03,772.28 640.32,776.00
             642.02,797.37 659.96,817.95 678.00,828.13
             682.42,830.62 687.26,832.28 692.00,834.05
             700.89,837.36 705.27,838.95 715.00,839.00
             715.00,839.00 741.00,839.00 741.00,839.00
             741.00,839.00 761.00,837.28 761.00,837.28
             774.00,835.73 785.04,834.92 796.00,826.47
             800.85,822.74 804.15,818.45 808.17,814.00
             816.04,805.29 822.27,799.62 825.97,788.00
             825.97,788.00 832.15,752.00 832.15,752.00
             836.93,733.53 841.00,724.37 837.20,705.00
             835.74,697.56 833.88,692.09 829.10,686.04
             817.94,671.91 800.75,668.92 784.00,666.72
             777.24,665.83 774.08,665.02 767.00,665.00 Z" />
  <path id="blue&apos;"
        fill="#739dff" stroke="none" stroke-width="1"
        d="M 570.00,480.52
           C 558.77,483.53 554.64,487.21 545.00,492.22
             536.88,496.43 533.69,496.32 526.29,503.44
             514.00,515.24 505.06,535.24 502.08,552.00
             502.08,552.00 502.08,560.00 502.08,560.00
             499.66,582.68 500.56,603.84 506.13,626.00
             510.52,643.50 515.38,665.07 529.04,677.83
             533.38,681.88 539.36,685.57 545.00,687.48
             559.84,692.49 594.03,691.03 611.00,691.00
             624.50,690.98 634.22,687.96 647.00,686.28
             655.86,685.11 671.91,682.71 679.00,677.44
             691.85,667.89 692.72,652.51 691.16,638.00
             690.59,632.65 690.09,627.17 688.32,622.04
             686.43,616.57 680.78,614.03 676.29,608.99
             669.60,601.49 664.63,593.59 661.52,584.00
             658.83,575.72 659.98,566.03 663.12,558.00
             665.23,552.60 668.70,550.42 668.07,546.00
             667.61,542.76 662.71,534.45 661.03,531.00
             657.58,523.94 654.58,518.16 649.54,512.00
             639.63,499.92 621.97,489.19 606.00,489.00
             603.42,488.97 599.35,489.22 597.00,488.42
             593.30,487.15 590.17,483.22 584.00,481.11
             579.57,479.59 574.56,479.79 570.00,480.52 Z" />
  <path id="green"
        fill="#a8ff8c" stroke="none" stroke-width="1"
        d="M 792.00,464.00
           C 808.03,466.48 815.51,473.23 827.00,483.91
             834.84,491.20 838.86,494.41 844.55,504.00
             844.55,504.00 852.90,523.37 852.90,523.37
             855.23,526.27 863.71,528.66 868.91,533.33
             878.58,542.01 883.14,560.45 883.00,573.00
             882.70,598.72 863.39,616.70 838.00,617.00
             830.70,617.08 827.90,617.15 821.00,614.27
             805.63,607.85 797.42,593.30 796.18,577.00
             795.92,573.50 796.68,571.37 796.91,568.00
             796.91,568.00 797.46,560.00 797.46,560.00
             797.46,560.00 802.49,539.00 802.49,539.00
             802.49,537.09 801.59,533.83 800.96,532.00
             795.09,515.08 772.43,510.48 757.00,507.00
             753.35,513.41 746.57,529.64 748.33,536.91
             749.36,541.16 753.50,541.98 758.12,550.00
             764.23,560.61 766.14,569.93 766.00,582.00
             765.93,587.45 764.83,592.79 763.28,598.00
             761.89,602.69 759.80,606.06 761.28,611.00
             761.28,611.00 766.70,623.00 766.70,623.00
             777.32,645.35 787.95,654.79 811.00,663.42
             821.07,667.20 824.85,669.50 836.00,668.96
             846.40,668.46 848.88,662.51 856.00,661.22
             856.00,661.22 863.00,660.33 863.00,660.33
             872.27,658.43 893.54,651.40 902.00,647.24
             906.52,645.02 913.26,641.94 916.91,638.67
             921.30,634.73 932.34,616.02 935.65,610.00
             940.56,601.09 945.78,573.12 944.83,563.00
             943.79,551.93 940.66,543.48 937.88,533.00
             931.44,508.71 929.80,501.73 920.01,478.00
             914.39,464.39 908.34,448.30 895.00,440.21
             888.68,436.38 878.34,434.85 871.00,435.01
             862.01,435.22 849.55,438.93 848.00,438.95
             843.03,439.03 840.39,433.84 831.00,433.09
             811.51,431.53 799.58,448.25 792.00,464.00 Z" />
  <path id="read"
        fill="#ff7474" stroke="none" stroke-width="1"
        d="M 628.00,360.00
           C 633.47,357.38 638.66,354.18 645.00,354.18
             653.39,354.18 660.16,359.56 667.00,363.65
             674.16,367.95 674.55,366.93 683.00,372.86
             693.25,380.05 704.60,387.36 712.79,397.00
             712.79,397.00 721.38,410.00 721.38,410.00
             735.21,428.65 751.61,449.44 774.00,458.00
             778.24,446.67 781.03,434.82 783.45,423.00
             783.45,423.00 785.72,414.00 785.72,414.00
             789.98,393.38 788.84,375.30 777.57,357.00
             769.11,343.25 763.54,340.01 750.00,332.69
             744.09,329.50 740.63,327.40 734.00,325.44
             734.00,325.44 719.00,322.12 719.00,322.12
             709.45,319.85 699.89,317.04 690.00,317.00
             682.80,316.97 676.56,317.46 670.00,320.82
             670.00,320.82 659.00,327.96 659.00,327.96
             650.46,332.54 648.61,330.35 640.19,340.00
             640.19,340.00 628.00,360.00 628.00,360.00 Z
           M 618.00,380.00
           C 614.00,394.16 599.99,412.13 599.21,426.00
             598.86,432.21 602.93,443.90 605.00,450.00
             606.48,454.34 608.63,460.07 610.88,464.00
             615.67,472.39 632.39,492.45 640.00,498.32
             647.57,504.16 676.38,517.40 686.00,520.00
             686.00,520.00 681.52,499.00 681.52,499.00
             681.52,499.00 676.93,486.00 676.93,486.00
             676.93,486.00 673.30,469.00 673.30,469.00
             673.30,469.00 672.56,461.00 672.56,461.00
             671.41,453.64 669.09,446.49 669.00,439.00
             668.96,434.91 669.49,429.71 667.55,426.04
             665.66,422.49 662.17,420.77 659.00,418.57
             659.00,418.57 632.00,402.18 632.00,402.18
             618.99,391.97 621.90,387.59 618.00,380.00 Z
           M 734.00,495.00
           C 734.00,495.00 736.00,510.00 736.00,510.00
             736.00,510.00 747.00,503.00 747.00,503.00
             747.00,503.00 734.00,495.00 734.00,495.00 Z" />
  <path id="front"
        fill="#ffab46" stroke="none" stroke-width="1"
        d="M 796.00,131.48
           C 796.00,131.48 766.00,137.16 766.00,137.16
             766.00,137.16 747.00,143.98 747.00,143.98
             747.00,143.98 725.00,146.74 725.00,146.74
             720.02,148.64 716.47,155.11 705.00,161.22
             705.00,161.22 672.00,176.07 672.00,176.07
             672.00,176.07 657.00,187.87 657.00,187.87
             651.93,191.07 649.06,190.36 646.21,192.58
             643.22,194.91 640.59,202.30 638.75,206.00
             634.15,215.28 630.36,222.01 627.00,232.00
             622.75,244.66 626.23,245.92 616.65,257.98
             612.91,262.70 610.68,264.38 605.00,266.84
             597.84,269.25 590.39,267.01 583.00,266.84
             583.00,266.84 546.00,266.84 546.00,266.84
             535.97,266.98 536.67,265.80 528.00,264.44
             528.00,264.44 520.00,263.71 520.00,263.71
             512.83,262.77 513.35,262.01 505.00,262.00
             505.00,262.00 452.00,262.00 452.00,262.00
             441.73,261.98 440.75,260.44 432.00,259.29
             432.00,259.29 415.00,257.70 415.00,257.70
             406.61,256.49 406.00,255.02 396.00,255.00
             396.00,255.00 317.00,255.00 317.00,255.00
             317.00,255.00 305.00,256.11 305.00,256.11
             305.00,256.11 295.00,256.11 295.00,256.11
             295.00,256.11 265.00,264.51 265.00,264.51
             265.00,264.51 250.00,268.57 250.00,268.57
             250.00,268.57 238.00,271.22 238.00,271.22
             238.00,271.22 228.00,275.23 228.00,275.23
             221.03,277.38 218.10,276.51 213.00,277.47
             213.00,277.47 201.00,281.10 201.00,281.10
             201.00,281.10 177.00,286.80 177.00,286.80
             172.11,288.22 167.66,288.45 163.00,290.83
             149.14,297.93 142.79,314.44 133.33,325.98
             128.40,332.01 122.51,333.78 118.36,341.00
             118.36,341.00 110.55,358.00 110.55,358.00
             110.55,358.00 108.34,366.00 108.34,366.00
             105.94,372.49 101.89,375.70 101.09,388.00
             100.32,399.86 106.05,402.35 104.97,409.00
             104.97,409.00 102.47,418.00 102.47,418.00
             102.47,418.00 99.39,442.00 99.39,442.00
             99.39,442.00 93.61,470.00 93.61,470.00
             93.61,470.00 90.00,507.00 90.00,507.00
             90.00,507.00 90.00,534.00 90.00,534.00
             90.00,534.00 88.00,553.00 88.00,553.00
             88.00,553.00 88.00,602.00 88.00,602.00
             88.02,613.17 91.46,624.06 93.39,635.00
             93.39,635.00 94.44,645.00 94.44,645.00
             94.44,645.00 97.71,662.00 97.71,662.00
             97.71,662.00 100.10,683.00 100.10,683.00
             100.10,683.00 100.10,693.00 100.10,693.00
             100.10,693.00 105.54,719.00 105.54,719.00
             106.48,724.36 105.54,725.52 107.66,734.00
             107.66,734.00 111.39,745.00 111.39,745.00
             111.39,745.00 112.92,754.00 112.92,754.00
             114.53,760.13 117.69,766.17 120.13,772.00
             123.92,781.07 122.51,782.41 130.17,791.00
             150.56,813.88 168.35,818.08 195.00,829.86
             195.00,829.86 224.00,842.45 224.00,842.45
             224.00,842.45 235.00,845.22 235.00,845.22
             235.00,845.22 244.00,848.78 244.00,848.78
             249.29,850.45 262.36,851.93 268.00,852.00
             286.49,852.21 281.06,853.54 294.00,854.83
             294.00,854.83 315.00,856.29 315.00,856.29
             325.18,857.63 334.57,859.98 345.00,860.00
             345.00,860.00 360.00,860.00 360.00,860.00
             360.00,860.00 381.00,861.97 381.00,861.97
             381.00,861.97 393.00,861.00 393.00,861.00
             393.00,861.00 467.00,861.00 467.00,861.00
             477.17,861.02 481.57,863.09 491.00,864.56
             491.00,864.56 500.00,865.44 500.00,865.44
             510.25,867.04 523.79,869.98 534.00,870.00
             534.00,870.00 582.00,870.00 582.00,870.00
             601.34,869.97 619.44,860.20 636.00,860.00
             636.00,860.00 682.00,855.04 682.00,855.04
             682.00,855.04 691.00,855.04 691.00,855.04
             691.00,855.04 707.00,854.00 707.00,854.00
             707.00,854.00 739.00,850.39 739.00,850.39
             739.00,850.39 797.00,838.60 797.00,838.60
             797.00,838.60 811.00,835.20 811.00,835.20
             811.00,835.20 834.00,832.83 834.00,832.83
             834.00,832.83 847.00,830.44 847.00,830.44
             847.00,830.44 855.00,829.71 855.00,829.71
             867.83,828.02 888.20,822.99 899.00,816.03
             899.00,816.03 912.00,804.89 912.00,804.89
             912.00,804.89 933.91,786.96 933.91,786.96
             942.26,778.49 946.29,771.00 953.13,762.00
             953.13,762.00 960.40,753.00 960.40,753.00
             960.40,753.00 971.74,734.00 971.74,734.00
             976.56,724.14 977.23,718.33 980.55,709.00
             980.55,709.00 986.81,693.00 986.81,693.00
             986.81,693.00 991.78,682.00 991.78,682.00
             991.78,682.00 999.60,645.00 999.60,645.00
             1001.50,635.55 1003.98,627.79 1004.00,618.00
             1004.00,618.00 1004.00,559.00 1004.00,559.00
             1003.98,548.44 1002.59,549.79 1002.09,543.00
             1002.09,543.00 1001.00,510.00 1001.00,510.00
             1000.98,497.14 996.69,488.91 993.49,477.00
             993.49,477.00 984.57,434.00 984.57,434.00
             984.57,434.00 981.35,424.00 981.35,424.00
             981.35,424.00 979.57,415.00 979.57,415.00
             979.57,415.00 977.37,407.00 977.37,407.00
             977.37,407.00 975.57,396.00 975.57,396.00
             975.57,396.00 972.49,386.00 972.49,386.00
             972.49,386.00 968.80,368.00 968.80,368.00
             968.80,368.00 964.08,341.00 964.08,341.00
             964.08,341.00 958.49,324.00 958.49,324.00
             958.49,324.00 953.14,301.00 953.14,301.00
             953.14,301.00 946.43,286.00 946.43,286.00
             946.43,286.00 939.09,266.00 939.09,266.00
             939.09,266.00 936.48,256.00 936.48,256.00
             932.30,243.00 930.51,242.39 927.80,228.00
             927.80,228.00 926.53,217.00 926.53,217.00
             926.53,217.00 922.90,205.00 922.90,205.00
             919.66,192.27 918.39,181.91 909.53,171.00
             897.97,156.74 887.87,152.77 871.00,147.49
             871.00,147.49 854.00,142.30 854.00,142.30
             854.00,142.30 830.09,140.70 830.09,140.70
             830.09,140.70 821.99,136.97 821.99,136.97
             814.82,134.11 803.67,130.74 796.00,131.48 Z
           M 775.00,459.00
           C 775.00,459.00 792.00,463.00 792.00,463.00
             797.33,449.04 812.41,430.27 829.00,431.21
             838.40,431.74 842.81,436.99 847.00,437.57
             847.00,437.57 871.00,434.00 871.00,434.00
             876.57,433.94 880.56,433.94 886.00,435.57
             907.75,442.09 915.13,464.23 923.13,483.00
             923.13,483.00 933.84,513.00 933.84,513.00
             933.84,513.00 938.14,531.00 938.14,531.00
             941.13,541.56 945.61,552.94 945.96,564.00
             945.96,564.00 945.08,574.00 945.08,574.00
             943.17,597.91 935.63,615.75 921.24,635.00
             912.27,647.01 888.27,654.04 874.00,658.14
             874.00,658.14 853.00,663.47 853.00,663.47
             846.80,665.88 845.32,669.78 835.00,670.67
             828.42,671.24 821.09,667.76 815.00,665.74
             805.09,662.46 791.87,656.64 784.09,649.68
             772.61,639.41 765.99,623.91 759.85,610.00
             754.52,619.35 758.25,617.27 759.85,627.00
             759.85,627.00 760.46,635.00 760.46,635.00
             762.25,645.18 765.97,653.62 766.00,664.00
             773.90,664.07 775.14,665.09 782.00,665.84
             801.53,667.95 822.87,672.32 833.47,691.00
             836.43,696.21 839.37,710.84 839.82,717.00
             840.63,728.21 834.04,743.80 832.19,755.00
             829.69,770.23 830.25,786.84 820.96,800.00
             814.85,808.66 799.12,826.10 790.00,831.10
             781.10,835.97 770.89,837.18 761.00,838.17
             761.00,838.17 741.00,840.00 741.00,840.00
             741.00,840.00 716.00,840.00 716.00,840.00
             704.35,839.98 690.52,835.09 680.00,830.11
             671.30,825.99 662.91,818.14 656.59,810.96
             647.57,800.72 639.16,788.24 639.18,774.00
             639.18,770.12 640.78,764.71 642.00,761.00
             643.59,756.18 645.31,750.27 647.95,746.00
             652.69,738.34 661.04,730.94 666.92,723.99
             666.92,723.99 676.48,711.00 676.48,711.00
             676.48,711.00 694.66,688.04 694.66,688.04
             697.79,684.30 703.94,679.64 708.00,676.77
             710.20,675.22 713.58,673.54 714.51,670.90
             715.40,668.39 713.57,663.61 712.88,661.00
             712.88,661.00 708.30,640.00 708.30,640.00
             707.82,636.67 708.35,632.20 706.15,629.49
             704.29,627.23 693.49,622.94 690.00,621.00
             692.41,638.89 693.03,629.24 693.00,651.00
             692.98,663.40 687.53,675.27 676.00,681.17
             671.78,683.32 661.07,685.38 656.00,686.40
             656.00,686.40 641.00,688.44 641.00,688.44
             631.18,689.98 629.17,691.98 618.00,692.00
             618.00,692.00 564.00,692.00 564.00,692.00
             557.20,691.99 554.59,691.50 548.00,689.87
             530.59,685.56 518.40,670.38 512.55,654.00
             512.55,654.00 506.62,632.00 506.62,632.00
             503.82,621.10 500.02,610.39 500.00,599.00
             500.00,599.00 500.00,561.00 500.00,561.00
             500.01,551.61 500.90,551.54 503.26,543.00
             503.26,543.00 505.52,534.00 505.52,534.00
             509.28,522.47 518.29,509.36 527.00,501.04
             533.70,494.65 538.34,494.05 546.00,490.19
             556.48,484.91 566.51,476.83 579.00,478.17
             589.84,479.33 592.67,485.38 598.00,486.93
             598.00,486.93 609.00,486.93 609.00,486.93
             612.51,487.55 621.53,490.55 625.00,491.92
             632.14,494.76 636.25,497.93 642.00,502.87
             653.65,512.88 656.57,518.38 663.10,532.00
             665.31,536.59 667.61,541.08 669.00,546.00
             669.00,546.00 688.00,533.00 688.00,533.00
             688.00,533.00 686.00,520.00 686.00,520.00
             679.72,518.86 673.84,515.92 668.00,513.42
             668.00,513.42 643.00,501.21 643.00,501.21
             639.52,498.74 636.04,495.05 633.00,492.00
             628.30,487.29 614.73,471.28 611.47,466.00
             605.52,456.36 598.74,436.32 599.01,425.00
             599.26,414.86 609.21,399.54 613.68,390.00
             613.68,390.00 618.54,378.00 618.54,378.00
             618.54,378.00 621.35,369.00 621.35,369.00
             621.35,369.00 631.67,353.00 631.67,353.00
             635.38,346.47 636.18,342.75 642.04,337.09
             650.50,328.91 654.90,330.11 661.00,326.34
             666.26,323.09 668.48,320.30 675.00,318.10
             687.92,313.75 706.23,318.13 719.00,321.71
             728.70,324.42 732.96,323.99 743.00,328.44
             747.61,330.48 759.23,336.55 763.00,339.52
             777.10,350.60 785.97,368.42 788.26,386.00
             789.99,399.31 786.26,412.17 783.42,425.00
             783.42,425.00 779.57,442.00 779.57,442.00
             779.57,442.00 775.00,459.00 775.00,459.00 Z
           M 747.00,537.00
           C 748.15,522.78 751.50,518.51 756.00,506.00
             756.00,506.00 747.00,503.79 747.00,503.79
             747.00,503.79 742.02,506.55 742.02,506.55
             742.02,506.55 738.06,510.32 738.06,510.32
             738.06,510.32 738.80,525.00 738.80,525.00
             738.80,525.00 740.98,533.36 740.98,533.36
             740.98,533.36 747.00,537.00 747.00,537.00 Z" />
  <path id="back"
        fill="#ffa231" stroke="none" stroke-width="1"
        d="M 106.00,370.00
           C 109.75,365.94 108.82,363.82 110.55,359.00
             110.55,359.00 118.36,342.00 118.36,342.00
             122.94,334.03 128.44,332.77 133.33,326.96
             143.45,314.94 147.87,301.02 162.00,291.97
             167.44,288.48 172.14,288.50 178.00,286.80
             178.00,286.80 202.00,281.10 202.00,281.10
             202.00,281.10 214.00,277.47 214.00,277.47
             218.69,276.59 221.09,277.40 228.00,275.51
             228.00,275.51 239.00,271.22 239.00,271.22
             239.00,271.22 251.00,268.57 251.00,268.57
             251.00,268.57 266.00,264.51 266.00,264.51
             266.00,264.51 296.00,256.11 296.00,256.11
             296.00,256.11 306.00,256.11 306.00,256.11
             306.00,256.11 318.00,255.00 318.00,255.00
             318.00,255.00 395.00,255.00 395.00,255.00
             405.00,255.02 405.61,256.49 414.00,257.70
             414.00,257.70 431.00,259.29 431.00,259.29
             439.75,260.44 440.73,261.98 451.00,262.00
             451.00,262.00 504.00,262.00 504.00,262.00
             512.35,262.01 511.83,262.77 519.00,263.71
             519.00,263.71 527.00,264.44 527.00,264.44
             533.56,265.47 535.83,266.91 543.00,267.00
             543.00,267.00 578.00,267.00 578.00,267.00
             587.18,267.01 597.02,271.17 606.00,267.87
             613.65,265.06 621.74,255.59 624.45,248.00
             624.45,248.00 627.70,234.00 627.70,234.00
             627.70,234.00 638.69,209.00 638.69,209.00
             640.44,205.18 643.44,197.16 646.39,194.51
             649.37,191.83 652.62,192.46 659.00,188.53
             665.41,184.59 668.06,180.06 673.00,176.99
             673.00,176.99 701.00,165.22 701.00,165.22
             705.63,163.03 711.12,160.11 715.00,156.79
             717.97,154.25 721.70,149.83 725.00,148.17
             725.00,148.17 747.00,145.25 747.00,145.25
             747.00,145.25 763.00,139.54 763.00,139.54
             763.00,139.54 784.00,135.00 784.00,135.00
             784.00,135.00 799.00,132.34 799.00,132.34
             809.15,132.34 823.24,140.26 830.00,140.90
             830.00,140.90 844.00,142.13 844.00,142.13
             844.00,142.13 853.00,142.13 853.00,142.13
             853.00,142.13 870.00,147.49 870.00,147.49
             887.10,152.84 899.09,157.77 909.78,173.00
             911.08,169.76 910.12,163.52 909.78,160.00
             908.82,155.30 907.26,147.10 905.17,143.00
             905.17,143.00 892.37,126.00 892.37,126.00
             884.78,115.89 872.56,104.14 863.00,95.72
             856.12,89.65 843.84,78.66 836.00,74.35
             836.00,74.35 828.00,70.97 828.00,70.97
             816.06,65.45 817.12,62.02 802.00,62.00
             802.00,62.00 784.00,62.00 784.00,62.00
             774.40,62.01 765.39,64.73 756.00,66.39
             756.00,66.39 741.00,67.46 741.00,67.46
             741.00,67.46 721.00,72.78 721.00,72.78
             721.00,72.78 703.00,72.78 703.00,72.78
             703.00,72.78 686.00,74.72 686.00,74.72
             677.12,75.78 667.50,76.55 659.00,79.55
             659.00,79.55 647.00,84.56 647.00,84.56
             647.00,84.56 630.00,91.32 630.00,91.32
             630.00,91.32 618.00,98.95 618.00,98.95
             613.18,101.50 606.48,101.91 599.00,107.35
             589.00,114.62 569.47,132.33 563.82,143.00
             563.82,143.00 555.65,161.00 555.65,161.00
             555.65,161.00 546.76,175.00 546.76,175.00
             544.70,179.11 543.07,186.99 540.69,189.21
             538.71,191.07 535.47,192.34 533.00,193.42
             520.00,199.12 508.82,198.84 495.00,199.00
             487.65,199.09 480.24,200.43 473.00,201.56
             473.00,201.56 464.00,202.44 464.00,202.44
             464.00,202.44 435.00,208.39 435.00,208.39
             435.00,208.39 425.00,209.44 425.00,209.44
             425.00,209.44 404.00,212.98 404.00,212.98
             397.48,213.11 375.66,210.48 369.00,208.99
             359.05,206.75 361.19,205.02 349.00,205.00
             349.00,205.00 318.00,205.00 318.00,205.00
             318.00,205.00 278.00,209.29 278.00,209.29
             269.44,210.41 267.89,211.98 258.00,212.00
             258.00,212.00 248.00,212.00 248.00,212.00
             248.00,212.00 222.00,216.56 222.00,216.56
             222.00,216.56 212.00,217.68 212.00,217.68
             212.00,217.68 185.00,227.80 185.00,227.80
             168.33,234.35 167.87,233.87 152.00,243.54
             138.44,251.79 139.31,251.67 128.00,263.00
             121.62,269.39 108.50,284.72 105.55,293.00
             104.20,296.79 103.02,313.43 103.00,318.00
             103.00,318.00 103.00,335.00 103.00,335.00
             103.08,341.14 104.01,342.60 104.71,348.00
             104.71,348.00 106.00,370.00 106.00,370.00 Z" />
</svg>
