<?xml version="1.0" encoding="UTF-8" standalone="no"?>
<!DOCTYPE svg PUBLIC "-//W3C//DTD SVG 20010904//EN"
              "http://www.w3.org/TR/2001/REC-SVG-20010904/DTD/svg10.dtd">

<svg xmlns="http://www.w3.org/2000/svg"
     width="15in" height="15in"
     viewBox="0 0 1080 1080">
  <path id="blue"
        fill="#739dff" stroke="none" stroke-width="1"
        d="M 610.00,535.46
           C 599.82,537.72 590.43,542.38 581.00,546.69
             570.43,551.52 566.76,551.24 556.00,558.77
             537.78,571.53 518.37,594.05 508.37,614.00
             508.37,614.00 498.99,636.00 498.99,636.00
             498.99,636.00 490.75,656.00 490.75,656.00
             487.34,666.41 481.71,698.11 481.09,709.00
             480.89,712.64 481.59,716.40 482.13,720.00
             482.63,723.31 483.48,726.97 484.92,730.00
             487.23,734.90 491.16,739.17 496.00,741.62
             507.12,747.26 532.05,746.00 545.00,746.00
             545.00,746.00 563.00,746.00 563.00,746.00
             573.48,745.98 582.79,743.73 593.00,742.28
             606.75,740.34 626.10,738.82 638.00,731.53
             654.81,721.24 666.74,697.38 668.68,678.00
             669.27,672.08 665.30,669.80 662.64,665.00
             659.13,658.65 657.66,653.92 657.78,646.72
             658.01,633.08 660.41,627.37 668.44,616.00
             676.45,604.65 681.06,605.83 680.61,597.49
             680.61,597.49 679.17,584.00 679.17,584.00
             679.17,584.00 678.54,575.00 678.54,575.00
             676.51,563.78 669.19,553.49 659.00,548.27
             646.63,541.94 639.73,544.87 635.01,543.69
             630.86,542.64 629.73,539.48 624.99,536.92
             620.37,534.43 615.03,534.77 610.00,535.46 Z" />
  <path id="yellow"
        fill="#fcff8c" stroke="none" stroke-width="1"
        d="M 729.00,720.00
           C 729.00,720.00 725.96,741.00 725.96,741.00
             725.96,741.00 721.00,758.00 721.00,758.00
             723.74,758.39 726.53,758.78 728.79,760.14
             745.22,769.00 735.86,790.33 728.79,802.00
             716.82,820.83 692.82,839.32 670.00,840.91
             660.21,841.60 647.05,843.36 638.01,838.95
             623.46,831.85 627.08,811.42 633.31,800.00
             637.26,792.76 643.92,783.69 650.00,778.17
             650.00,778.17 664.93,765.79 664.93,765.79
             669.20,759.63 673.90,736.14 675.00,728.00
             664.63,731.03 647.62,743.70 639.00,750.60
             639.00,750.60 605.00,779.19 605.00,779.19
             605.00,779.19 579.00,799.17 579.00,799.17
             566.84,810.04 553.10,828.94 553.74,846.00
             554.27,859.86 560.42,874.89 572.00,883.21
             575.74,885.90 578.91,887.05 583.00,888.86
             592.16,892.91 594.80,893.98 605.00,894.00
             605.00,894.00 630.00,894.00 630.00,894.00
             630.00,894.00 650.00,892.28 650.00,892.28
             663.19,890.72 671.40,890.46 684.00,884.69
             695.63,879.37 702.08,873.45 712.00,865.88
             719.90,859.86 727.13,854.81 733.54,847.00
             747.68,829.75 749.77,818.89 758.14,807.00
             758.14,807.00 766.33,795.00 766.33,795.00
             766.33,795.00 777.68,776.00 777.68,776.00
             785.33,759.61 789.06,736.29 769.00,727.35
             764.51,725.34 756.91,723.39 752.00,722.59
             752.00,722.59 729.00,720.00 729.00,720.00 Z" />
  <path id="green"
        fill="#a8ff8c" stroke="none" stroke-width="1"
        d="M 840.00,519.00
           C 843.42,519.92 850.09,522.15 852.99,523.99
             857.78,527.04 863.18,534.16 866.19,539.00
             868.61,542.89 871.22,546.72 872.91,551.00
             875.84,558.44 875.91,571.19 874.00,579.00
             878.42,581.55 883.26,583.82 886.35,588.04
             894.00,598.46 888.50,618.37 883.51,629.00
             871.17,655.33 846.21,672.34 817.00,672.00
             813.74,671.96 811.14,671.82 808.00,670.75
             790.99,664.98 790.61,648.57 795.22,634.00
             797.52,626.72 805.63,612.52 810.00,606.00
             812.08,602.91 817.05,596.82 818.11,594.00
             821.10,586.08 817.88,575.55 810.96,570.70
             808.84,569.21 804.55,567.74 802.00,566.86
             802.00,566.86 789.00,562.93 789.00,562.93
             784.03,562.34 779.45,568.50 776.67,572.00
             773.41,576.09 764.66,587.86 764.80,593.00
             764.89,596.00 767.26,598.43 768.36,602.00
             768.36,602.00 769.63,613.18 769.63,613.18
             770.22,624.00 762.32,640.16 756.39,649.00
             752.87,654.24 745.99,661.43 746.40,667.74
             746.93,675.88 746.90,687.49 749.55,695.00
             754.11,707.95 763.16,713.63 775.00,718.86
             783.96,722.82 787.89,724.72 798.00,723.91
             806.36,723.24 812.27,718.38 817.00,716.85
             817.00,716.85 828.00,715.20 828.00,715.20
             828.00,715.20 847.00,710.37 847.00,710.37
             863.64,706.09 885.02,699.00 898.00,687.71
             898.00,687.71 925.68,660.00 925.68,660.00
             932.25,652.11 945.04,630.69 948.99,621.00
             954.31,607.95 954.37,596.52 956.28,583.00
             958.07,570.42 960.98,557.78 961.00,545.00
             961.02,530.89 963.61,505.45 951.90,495.20
             939.87,485.06 915.67,492.25 902.00,495.20
             898.53,488.09 893.01,487.84 886.00,488.01
             872.43,488.34 858.20,499.87 849.00,509.00
             845.57,512.40 842.56,514.87 840.00,519.00 Z" />
  <path id="red"
        fill="#ff7474" stroke="none" stroke-width="1"
        d="M 719.00,415.00
           C 725.47,412.22 732.68,408.41 740.00,409.31
             747.99,410.30 750.73,414.32 756.58,418.91
             756.58,418.91 765.91,425.51 765.91,425.51
             772.39,430.91 783.91,443.55 787.62,451.00
             790.27,456.31 789.48,458.08 790.76,463.00
             790.76,463.00 795.56,476.00 795.56,476.00
             800.01,488.20 802.93,496.44 813.04,505.58
             815.13,507.47 820.03,512.27 822.91,511.97
             825.54,511.70 827.64,507.98 829.02,506.00
             829.02,506.00 841.67,488.00 841.67,488.00
             857.66,463.97 877.74,436.39 867.97,406.00
             864.60,395.51 860.55,393.15 852.00,387.41
             847.45,384.36 846.42,383.12 841.00,381.06
             841.00,381.06 828.00,377.58 828.00,377.58
             818.60,374.99 809.89,372.05 800.00,372.00
             793.16,371.97 787.63,371.80 781.00,374.10
             781.00,374.10 764.00,382.65 764.00,382.65
             758.99,384.88 755.37,384.93 749.00,388.32
             738.45,393.94 734.69,398.64 726.83,406.96
             723.75,410.22 721.97,411.18 719.00,415.00 Z
           M 700.00,436.00
           C 700.00,436.00 676.65,461.70 676.65,461.70
             671.17,467.85 665.89,472.31 662.32,480.00
             659.76,485.52 659.26,490.90 658.43,496.83
             657.95,501.89 657.61,515.21 658.43,520.00
             659.47,528.13 667.76,547.85 673.21,553.96
             679.34,560.82 699.12,570.86 708.00,575.00
             710.87,569.37 713.47,558.36 713.91,552.00
             713.91,552.00 714.44,542.00 714.44,542.00
             714.44,542.00 723.42,504.00 723.42,504.00
             726.17,491.85 731.77,486.44 729.82,480.01
             727.21,471.43 710.28,463.28 705.47,457.90
             702.54,454.63 699.51,449.48 699.27,445.00
             699.27,445.00 700.00,436.00 700.00,436.00 Z
           M 767.00,550.00
           C 767.00,550.00 764.00,565.00 764.00,565.00
             764.00,565.00 777.00,558.00 777.00,558.00
             773.81,553.91 771.88,551.94 767.00,550.00 Z" />
  <path id="white"
        fill="white" stroke="none" stroke-width="1"
        d="M 719.00,758.00
           C 719.00,758.00 725.08,741.00 725.08,741.00
             725.08,741.00 728.43,720.00 728.43,720.00
             728.43,720.00 733.72,694.00 733.72,694.00
             733.72,694.00 738.88,672.00 738.88,672.00
             740.37,668.32 746.66,662.01 749.58,658.00
             757.39,647.25 761.71,640.67 766.14,628.00
             770.51,615.48 770.85,596.57 757.00,590.00
             757.00,590.00 766.00,548.00 766.00,548.00
             766.00,548.00 782.00,559.10 782.00,559.10
             795.23,565.55 809.28,564.31 817.52,578.00
             820.08,582.25 820.71,586.13 819.78,591.00
             818.90,595.63 812.58,602.56 809.69,607.00
             802.84,617.53 794.15,633.27 794.00,646.00
             793.95,650.94 793.70,655.45 796.00,660.00
             803.52,674.85 828.96,672.20 842.00,667.46
             868.39,657.85 888.34,631.30 888.99,603.00
             889.26,590.99 885.04,583.44 873.00,580.00
             876.29,561.62 873.79,548.99 862.40,534.00
             847.49,514.37 828.85,522.71 811.17,504.83
             800.10,493.63 795.09,479.65 790.36,465.00
             790.36,465.00 786.65,451.00 786.65,451.00
             782.24,441.06 768.00,427.22 759.00,421.08
             752.58,416.70 747.14,411.24 739.00,411.02
             735.15,410.91 731.71,411.07 728.00,412.22
             713.64,416.69 698.02,432.91 701.52,449.00
             703.69,459.03 708.57,459.79 716.00,465.04
             719.57,467.57 720.87,469.03 724.00,471.84
             726.75,474.31 729.72,476.27 730.81,480.00
             732.32,485.17 727.81,492.95 726.08,498.00
             726.08,498.00 723.79,507.00 723.79,507.00
             723.79,507.00 718.92,525.00 718.92,525.00
             718.92,525.00 715.43,544.00 715.43,544.00
             715.43,544.00 714.71,552.00 714.71,552.00
             714.71,552.00 706.98,585.95 706.98,585.95
             705.24,590.06 701.74,590.88 698.00,592.76
             692.50,595.52 687.96,598.38 683.00,602.02
             672.26,609.90 661.88,623.63 659.23,637.00
             658.84,640.45 658.96,645.41 659.23,649.00
             659.12,659.24 663.99,668.72 672.04,675.10
             675.03,677.47 683.53,681.44 684.51,684.13
             685.46,686.73 681.92,697.49 681.26,701.00
             681.26,701.00 675.61,729.00 675.61,729.00
             675.61,729.00 672.50,747.00 672.50,747.00
             671.59,750.85 667.75,763.08 665.49,765.79
             665.49,765.79 651.01,777.17 651.01,777.17
             640.91,786.49 629.34,803.81 629.01,818.00
             628.94,821.02 629.00,824.04 629.68,827.00
             633.51,843.56 650.17,840.97 663.00,840.09
             669.63,839.63 671.80,840.20 679.00,838.50
             699.25,833.71 719.48,818.35 729.22,800.00
             734.31,790.41 741.90,772.18 731.89,763.39
             728.00,759.96 723.78,759.28 719.00,758.00 Z" />
  <path id="front"
        fill="#ffa130" stroke="none" stroke-width="1"
        d="M 79.00,708.00
           C 79.69,713.57 77.64,722.26 76.68,728.00
             76.68,728.00 74.07,745.42 74.07,745.42
             74.07,745.42 70.44,758.00 70.44,758.00
             70.44,758.00 66.42,783.00 66.42,783.00
             66.14,787.76 68.55,804.25 69.83,809.17
             69.83,809.17 72.49,818.00 72.49,818.00
             72.49,818.00 75.74,841.00 75.74,841.00
             76.92,852.63 74.84,856.79 75.18,860.00
             75.39,861.92 81.22,873.04 82.64,874.83
             91.91,886.62 109.79,892.88 123.00,899.26
             123.00,899.26 160.00,916.53 160.00,916.53
             160.00,916.53 171.00,919.55 171.00,919.55
             176.81,921.59 176.50,922.41 184.00,924.11
             189.75,925.42 200.93,925.99 207.00,926.00
             217.20,926.02 218.32,927.58 227.00,928.96
             227.00,928.96 238.00,928.96 238.00,928.96
             238.00,928.96 247.00,931.53 247.00,931.53
             247.00,931.53 256.00,932.44 256.00,932.44
             256.00,932.44 277.00,936.09 277.00,936.09
             291.13,940.47 302.41,946.81 318.00,947.00
             318.00,947.00 355.00,945.84 355.00,945.84
             355.00,945.84 379.00,942.00 379.00,942.00
             396.13,941.80 397.37,943.34 413.00,944.83
             413.00,944.83 425.00,945.44 425.00,945.44
             434.08,946.86 442.77,949.99 452.00,950.00
             460.63,950.01 469.44,950.06 478.00,951.30
             483.55,952.10 486.28,953.91 491.00,955.22
             491.00,955.22 498.00,956.37 498.00,956.37
             506.57,958.09 509.52,959.99 519.00,960.00
             519.00,960.00 552.00,960.00 552.00,960.00
             560.84,960.01 569.16,963.25 578.00,961.10
             586.99,958.92 587.53,956.26 593.00,953.43
             593.00,953.43 611.00,946.24 611.00,946.24
             611.00,946.24 641.00,939.08 641.00,939.08
             641.00,939.08 658.00,933.66 658.00,933.66
             658.00,933.66 684.00,929.55 684.00,929.55
             684.00,929.55 708.00,924.45 708.00,924.45
             708.00,924.45 724.00,921.34 724.00,921.34
             724.00,921.34 737.00,917.04 737.00,917.04
             737.00,917.04 751.00,914.08 751.00,914.08
             751.00,914.08 760.00,911.33 760.00,911.33
             760.00,911.33 774.00,909.58 774.00,909.58
             774.00,909.58 798.00,903.04 798.00,903.04
             798.00,903.04 820.00,898.43 820.00,898.43
             820.00,898.43 846.00,887.09 846.00,887.09
             846.00,887.09 877.00,873.80 877.00,873.80
             885.93,868.85 893.93,861.87 902.00,855.68
             907.39,851.54 909.50,851.31 914.99,845.96
             918.84,842.20 924.86,835.37 927.32,830.58
             927.32,830.58 931.55,820.28 931.55,820.28
             931.55,820.28 943.65,804.00 943.65,804.00
             943.65,804.00 954.24,784.13 954.24,784.13
             954.24,784.13 965.51,757.00 965.51,757.00
             965.51,757.00 971.81,746.96 971.81,746.96
             971.81,746.96 984.11,720.00 984.11,720.00
             984.11,720.00 987.18,705.09 987.18,705.09
             987.18,705.09 992.67,689.00 992.67,689.00
             992.67,689.00 997.36,670.00 997.36,670.00
             997.36,670.00 1007.47,649.91 1007.47,649.91
             1007.47,649.91 1010.99,633.00 1010.99,633.00
             1010.99,633.00 1020.85,607.83 1020.85,607.83
             1020.85,607.83 1025.08,582.00 1025.08,582.00
             1025.08,582.00 1029.48,553.00 1029.48,553.00
             1029.48,553.00 1029.48,539.00 1029.48,539.00
             1029.48,539.00 1030.61,529.00 1030.61,529.00
             1030.61,529.00 1030.61,506.72 1030.61,506.72
             1030.61,506.72 1031.29,492.00 1031.29,492.00
             1031.29,492.00 1030.05,467.00 1030.05,467.00
             1030.05,467.00 1031.26,448.00 1031.26,448.00
             1030.65,430.73 1034.20,422.12 1035.27,407.00
             1035.27,407.00 1035.27,393.00 1035.27,393.00
             1035.27,393.00 1035.99,379.00 1035.99,379.00
             1035.90,375.54 1034.69,371.59 1035.31,368.72
             1035.31,368.72 1040.81,353.00 1040.81,353.00
             1040.81,353.00 1046.52,330.00 1046.52,330.00
             1046.52,330.00 1054.81,310.00 1054.81,310.00
             1054.81,310.00 1057.41,298.00 1057.41,298.00
             1057.41,298.00 1063.34,278.00 1063.34,278.00
             1063.34,278.00 1065.00,265.42 1065.00,265.42
             1065.81,261.12 1070.67,257.66 1071.48,247.00
             1072.31,236.14 1066.14,231.42 1065.09,227.58
             1064.48,225.35 1065.22,219.72 1063.06,214.72
             1060.88,209.67 1056.77,206.31 1053.80,202.00
             1050.83,197.69 1051.35,195.80 1047.37,191.09
             1043.01,185.93 1036.05,181.24 1031.04,176.71
             1026.52,172.63 1023.81,168.41 1018.00,165.44
             1018.00,165.44 995.00,159.09 995.00,159.09
             995.00,159.09 982.00,159.09 982.00,159.09
             976.44,159.07 976.12,159.53 971.00,160.55
             954.82,163.79 952.50,168.49 939.00,174.41
             939.00,174.41 917.01,181.01 917.01,181.01
             917.01,181.01 908.25,181.01 908.25,181.01
             893.58,181.30 880.79,188.65 867.00,192.58
             867.00,192.58 839.00,201.28 839.00,201.28
             822.79,206.11 814.35,207.85 798.00,214.87
             798.00,214.87 780.00,223.89 780.00,223.89
             780.00,223.89 766.09,230.36 766.09,230.36
             761.64,233.16 760.46,236.85 755.96,240.47
             749.55,245.64 745.07,244.74 741.79,248.30
             741.79,248.30 732.66,263.00 732.66,263.00
             732.66,263.00 715.32,288.00 715.32,288.00
             712.18,293.90 712.14,297.19 709.94,303.00
             709.94,303.00 702.23,320.00 702.23,320.00
             702.23,320.00 693.90,341.00 693.90,341.00
             693.90,341.00 691.78,350.00 691.78,350.00
             689.22,357.97 682.77,364.05 675.00,366.91
             675.00,366.91 662.00,370.44 662.00,370.44
             662.00,370.44 647.00,375.26 647.00,375.26
             647.00,375.26 623.00,381.44 623.00,381.44
             623.00,381.44 596.00,390.91 596.00,390.91
             588.75,392.36 587.77,389.84 581.00,390.91
             581.00,390.91 573.00,392.54 573.00,392.54
             573.00,392.54 554.00,395.61 554.00,395.61
             554.00,395.61 528.00,401.20 528.00,401.20
             528.00,401.20 501.00,405.45 501.00,405.45
             501.00,405.45 462.00,413.44 462.00,413.44
             462.00,413.44 453.00,416.57 453.00,416.57
             453.00,416.57 425.00,424.44 425.00,424.44
             425.00,424.44 412.00,428.33 412.00,428.33
             412.00,428.33 398.00,430.01 398.00,430.01
             398.00,430.01 375.00,435.57 375.00,435.57
             375.00,435.57 359.00,437.29 359.00,437.29
             359.00,437.29 344.00,441.58 344.00,441.58
             344.00,441.58 320.00,445.66 320.00,445.66
             320.00,445.66 304.00,451.24 304.00,451.24
             304.00,451.24 292.00,452.61 292.00,452.61
             292.00,452.61 274.00,458.57 274.00,458.57
             274.00,458.57 256.00,463.15 256.00,463.15
             256.00,463.15 240.00,467.58 240.00,467.58
             240.00,467.58 219.00,471.42 219.00,471.42
             219.00,471.42 207.00,475.03 207.00,475.03
             207.00,475.03 199.00,478.93 199.00,478.93
             199.00,478.93 184.00,483.58 184.00,483.58
             169.21,487.80 145.66,493.09 134.30,503.52
             129.15,508.25 113.75,530.41 110.95,537.00
             110.95,537.00 106.74,551.00 106.74,551.00
             106.74,551.00 99.81,564.00 99.81,564.00
             99.81,564.00 97.43,573.00 97.43,573.00
             97.43,573.00 93.30,584.00 93.30,584.00
             91.06,591.95 86.42,621.92 86.58,630.00
             86.58,630.00 86.58,639.00 86.58,639.00
             86.58,639.00 84.95,662.28 84.95,662.28
             84.95,662.28 84.95,671.00 84.95,671.00
             84.95,671.00 81.63,689.00 81.63,689.00
             80.98,694.18 81.64,703.85 79.00,708.00 Z
           M 825.00,514.00
           C 829.24,514.60 836.34,517.37 839.96,515.61
             842.42,514.42 848.79,508.11 851.01,505.96
             860.27,497.04 873.72,487.19 887.00,486.18
             893.58,485.69 899.96,487.92 903.00,494.00
             916.55,489.60 942.22,484.50 953.62,495.53
             958.78,500.52 961.91,511.95 962.00,519.00
             962.00,519.00 960.83,565.00 960.83,565.00
             960.83,565.00 957.28,585.00 957.28,585.00
             957.28,585.00 953.76,610.00 953.76,610.00
             949.62,627.65 932.93,653.69 920.72,666.96
             920.72,666.96 912.32,674.87 912.32,674.87
             904.47,682.83 895.84,692.11 886.00,697.48
             886.00,697.48 876.00,701.45 876.00,701.45
             857.21,708.90 837.84,714.17 818.00,718.04
             810.45,719.52 803.53,726.71 792.00,725.90
             787.54,725.59 782.19,723.11 778.00,721.40
             758.97,713.63 746.26,703.00 746.00,681.00
             745.96,677.08 745.26,669.17 746.00,666.00
             737.83,672.04 740.01,674.43 737.96,683.00
             737.96,683.00 733.11,701.92 733.11,701.92
             731.77,708.99 732.45,711.74 729.00,719.00
             729.00,719.00 753.00,721.92 753.00,721.92
             758.09,722.78 764.31,724.19 769.00,726.31
             771.84,727.60 774.61,729.08 776.91,731.21
             797.26,750.00 775.47,782.57 764.14,800.00
             764.14,800.00 755.38,813.00 755.38,813.00
             755.38,813.00 739.25,841.00 739.25,841.00
             731.91,851.79 724.94,856.69 715.00,864.42
             705.74,871.63 693.70,881.53 683.00,886.13
             660.75,895.69 628.09,895.04 604.00,895.00
             592.87,894.98 576.41,889.15 568.09,881.67
             564.61,878.54 562.85,874.97 560.58,871.00
             552.44,856.78 548.85,841.30 556.91,826.00
             568.95,803.14 585.78,793.59 605.00,778.34
             605.00,778.34 620.00,765.28 620.00,765.28
             620.00,765.28 649.00,741.68 649.00,741.68
             649.00,741.68 665.00,731.78 665.00,731.78
             667.59,730.43 672.53,728.67 674.27,726.59
             676.31,724.13 676.59,718.21 677.01,714.99
             677.01,714.99 680.90,695.00 680.90,695.00
             681.60,692.23 684.13,686.84 682.88,684.38
             681.47,681.61 673.92,678.26 671.00,677.00
             667.14,691.55 664.06,706.92 654.33,718.99
             651.60,722.37 649.31,724.18 646.00,726.92
             629.49,740.54 615.26,740.62 595.00,743.29
             595.00,743.29 571.00,747.00 571.00,747.00
             571.00,747.00 523.00,747.00 523.00,747.00
             514.02,747.00 502.09,747.25 494.00,742.72
             484.43,737.37 482.09,729.82 480.39,720.00
             479.71,716.09 479.13,713.13 479.32,709.11
             479.32,709.11 482.92,685.09 482.92,685.09
             484.28,676.24 485.33,666.56 488.09,658.00
             488.09,658.00 498.00,634.00 498.00,634.00
             498.00,634.00 507.11,613.00 507.11,613.00
             518.50,590.94 540.63,566.12 562.00,553.45
             569.31,549.12 574.10,548.62 581.00,545.66
             592.36,540.80 607.31,531.62 620.00,533.18
             629.78,534.39 630.94,540.36 636.04,541.69
             636.04,541.69 648.00,542.48 648.00,542.48
             660.95,545.08 671.34,553.29 677.33,565.00
             680.98,572.12 682.00,592.53 682.00,601.00
             689.32,596.22 697.77,590.88 706.00,588.00
             705.58,582.90 706.98,579.60 709.00,575.00
             702.05,573.70 695.98,569.81 690.00,566.20
             685.67,563.59 676.64,559.00 673.53,555.67
             668.42,550.22 658.87,528.46 657.23,521.00
             656.82,517.57 656.96,510.73 657.23,507.00
             657.09,499.98 658.96,485.16 661.99,479.00
             666.74,469.37 683.36,454.41 691.00,445.48
             691.00,445.48 700.48,434.00 700.48,434.00
             700.48,434.00 707.18,425.00 707.18,425.00
             707.18,425.00 725.00,407.99 725.00,407.99
             732.79,400.21 731.99,398.85 742.00,392.03
             754.96,383.18 758.96,384.34 765.00,381.59
             779.94,374.79 780.70,370.80 799.00,371.00
             808.97,371.12 818.57,374.43 828.00,377.23
             828.00,377.23 843.00,381.34 843.00,381.34
             859.72,388.56 870.77,400.03 871.00,419.00
             871.29,443.92 862.73,456.97 849.35,477.00
             849.35,477.00 837.66,495.00 837.66,495.00
             833.28,501.45 828.45,506.93 825.00,514.00 Z
           M 758.00,589.00
           C 758.00,589.00 763.00,592.00 763.00,592.00
             763.00,592.00 785.00,561.00 785.00,561.00
             783.02,560.17 780.13,558.74 778.00,558.80
             775.80,558.87 773.87,560.13 772.00,561.14
             769.93,562.27 767.02,563.69 765.43,565.39
             761.85,569.18 759.86,583.26 758.00,589.00 Z" />
  <path id="back"
        fill="#ff9618" stroke="none" stroke-width="1"
        d="M 81.00,694.00
           C 83.31,690.43 84.64,677.75 85.07,673.00
             85.07,673.00 87.00,649.00 87.00,649.00
             87.00,649.00 87.00,632.00 87.00,632.00
             87.01,625.06 91.81,592.69 93.60,586.00
             93.60,586.00 97.78,575.00 97.78,575.00
             97.78,575.00 100.48,565.00 100.48,565.00
             100.48,565.00 106.91,553.00 106.91,553.00
             106.91,553.00 111.90,537.00 111.90,537.00
             114.77,530.68 131.05,507.76 136.09,503.38
             148.46,492.63 176.84,486.49 193.00,481.86
             206.43,478.01 206.30,475.92 213.00,473.91
             213.00,473.91 245.00,467.12 245.00,467.12
             245.00,467.12 278.00,458.28 278.00,458.28
             278.00,458.28 292.00,453.61 292.00,453.61
             292.00,453.61 303.00,452.33 303.00,452.33
             303.00,452.33 319.00,446.75 319.00,446.75
             319.00,446.75 343.00,442.71 343.00,442.71
             343.00,442.71 360.00,437.81 360.00,437.81
             360.00,437.81 380.00,435.39 380.00,435.39
             380.00,435.39 400.00,430.32 400.00,430.32
             400.00,430.32 416.00,428.48 416.00,428.48
             416.00,428.48 428.00,424.43 428.00,424.43
             428.00,424.43 484.00,409.45 484.00,409.45
             484.00,409.45 510.00,404.43 510.00,404.43
             510.00,404.43 533.00,400.79 533.00,400.79
             533.00,400.79 558.00,395.46 558.00,395.46
             558.00,395.46 572.00,393.56 572.00,393.56
             572.00,393.56 582.00,391.74 582.00,391.74
             582.00,391.74 590.00,391.74 590.00,391.74
             598.68,392.18 608.10,388.83 616.00,385.34
             616.00,385.34 624.00,381.78 624.00,381.78
             624.00,381.78 650.00,375.12 650.00,375.12
             650.00,375.12 667.00,369.74 667.00,369.74
             667.00,369.74 677.00,367.24 677.00,367.24
             683.87,364.87 689.91,358.92 692.21,352.00
             692.21,352.00 694.57,342.00 694.57,342.00
             694.57,342.00 698.60,331.00 698.60,331.00
             698.60,331.00 709.99,305.00 709.99,305.00
             709.99,305.00 715.32,290.00 715.32,290.00
             715.32,290.00 733.28,264.00 733.28,264.00
             733.28,264.00 742.63,249.22 742.63,249.22
             746.17,245.20 750.08,246.30 756.00,241.61
             756.00,241.61 766.04,231.64 766.04,231.64
             766.04,231.64 784.00,223.05 784.00,223.05
             784.00,223.05 799.00,215.31 799.00,215.31
             799.00,215.31 821.00,207.03 821.00,207.03
             821.00,207.03 842.00,201.28 842.00,201.28
             842.00,201.28 858.00,195.91 858.00,195.91
             866.42,193.49 877.58,191.10 885.00,187.00
             880.56,185.23 877.71,186.42 872.00,183.81
             864.33,180.32 859.42,175.29 853.00,170.41
             849.39,167.67 847.04,167.51 841.00,162.54
             832.14,155.25 832.82,151.57 829.59,148.65
             827.39,146.66 823.73,145.86 821.00,144.48
             810.63,139.26 809.82,136.06 797.00,136.00
             797.00,136.00 776.00,136.00 776.00,136.00
             768.17,136.10 758.01,138.98 750.00,140.39
             750.00,140.39 735.00,141.46 735.00,141.46
             735.00,141.46 715.00,146.78 715.00,146.78
             715.00,146.78 697.00,146.78 697.00,146.78
             697.00,146.78 680.00,148.72 680.00,148.72
             671.12,149.78 661.50,150.55 653.00,153.55
             653.00,153.55 641.00,158.56 641.00,158.56
             641.00,158.56 624.00,165.32 624.00,165.32
             624.00,165.32 612.00,172.95 612.00,172.95
             607.18,175.50 600.48,175.91 593.00,181.35
             583.00,188.62 563.47,206.33 557.82,217.00
             557.82,217.00 549.65,235.00 549.65,235.00
             549.65,235.00 540.76,249.00 540.76,249.00
             538.70,253.11 537.07,260.99 534.69,263.21
             532.71,265.07 529.47,266.34 527.00,267.42
             514.00,273.12 502.82,272.84 489.00,273.00
             481.65,273.09 474.24,274.43 467.00,275.56
             467.00,275.56 458.00,276.44 458.00,276.44
             458.00,276.44 429.00,282.39 429.00,282.39
             429.00,282.39 419.00,283.44 419.00,283.44
             419.00,283.44 400.00,286.91 400.00,286.91
             393.23,287.38 370.06,284.57 363.00,282.99
             353.05,280.75 355.19,279.02 343.00,279.00
             343.00,279.00 314.00,279.00 314.00,279.00
             300.23,279.02 285.66,281.49 272.00,283.29
             263.25,284.44 262.27,285.98 252.00,286.00
             252.00,286.00 242.00,286.00 242.00,286.00
             235.35,286.08 225.04,288.87 218.00,290.20
             218.00,290.20 206.00,291.68 206.00,291.68
             206.00,291.68 180.00,301.40 180.00,301.40
             166.88,306.69 160.48,308.03 148.00,316.26
             148.00,316.26 137.00,322.93 137.00,322.93
             128.88,328.85 116.02,342.80 109.87,351.00
             106.26,355.81 101.56,361.36 99.55,367.00
             98.11,371.03 97.01,388.13 97.00,393.00
             97.00,393.00 97.00,409.00 97.00,409.00
             97.08,415.14 98.01,416.60 98.71,422.00
             98.71,422.00 99.94,441.00 99.94,441.00
             99.76,446.60 97.34,448.64 96.86,453.00
             96.46,456.64 97.92,458.76 97.92,463.00
             97.92,467.27 96.53,469.47 96.20,473.00
             96.20,473.00 96.99,484.00 96.99,484.00
             97.18,492.51 94.64,500.64 93.43,509.00
             93.43,509.00 87.71,550.00 87.71,550.00
             85.50,566.80 84.03,561.96 84.00,583.00
             84.00,583.00 84.00,608.00 84.00,608.00
             84.00,608.00 82.00,627.00 82.00,627.00
             82.00,627.00 81.00,694.00 81.00,694.00 Z
           M 920.00,180.00
           C 920.00,180.00 925.00,180.00 925.00,180.00
             925.00,180.00 920.00,180.00 920.00,180.00 Z
           M 913.00,181.00
           C 913.00,181.00 919.00,182.00 919.00,182.00
             919.00,182.00 913.00,181.00 913.00,181.00 Z
           M 708.00,575.00
           C 708.00,575.00 708.00,576.00 708.00,576.00
             708.00,576.00 709.00,575.00 709.00,575.00
             709.00,575.00 708.00,575.00 708.00,575.00 Z
           M 81.00,699.00
           C 81.00,699.00 80.00,704.00 80.00,704.00
             82.11,702.11 81.96,701.61 81.00,699.00 Z
           M 80.00,705.00
           C 80.00,705.00 79.00,710.00 79.00,710.00
             81.11,708.11 80.96,707.61 80.00,705.00 Z
           M 79.00,711.00
           C 79.00,711.00 78.00,716.00 78.00,716.00
             80.11,714.11 79.96,713.61 79.00,711.00 Z
           M 78.00,717.00
           C 78.00,717.00 76.00,729.00 76.00,729.00
             78.84,726.47 79.27,720.47 78.00,717.00 Z
           M 76.00,730.00
           C 76.00,730.00 75.00,735.00 75.00,735.00
             75.00,735.00 76.00,730.00 76.00,730.00 Z
           M 75.00,736.00
           C 75.00,736.00 74.00,741.00 74.00,741.00
             74.00,741.00 75.00,736.00 75.00,736.00 Z
           M 74.00,742.00
           C 74.00,742.00 73.00,747.00 73.00,747.00
             75.11,745.11 74.96,744.61 74.00,742.00 Z
           M 71.00,756.00
           C 71.00,756.00 71.00,757.00 71.00,757.00
             71.00,757.00 72.00,756.00 72.00,756.00
             72.00,756.00 71.00,756.00 71.00,756.00 Z
           M 69.00,764.00
           C 69.00,764.00 67.00,782.00 67.00,782.00
             68.81,777.77 70.64,768.27 69.00,764.00 Z
           M 68.00,798.00
           C 68.00,798.00 68.00,799.00 68.00,799.00
             68.00,799.00 69.00,798.00 69.00,798.00
             69.00,798.00 68.00,798.00 68.00,798.00 Z
           M 69.00,805.00
           C 69.00,805.00 69.00,806.00 69.00,806.00
             69.00,806.00 70.00,805.00 70.00,805.00
             70.00,805.00 69.00,805.00 69.00,805.00 Z
           M 69.00,808.00
           C 69.00,808.00 69.00,809.00 69.00,809.00
             69.00,809.00 70.00,808.00 70.00,808.00
             70.00,808.00 69.00,808.00 69.00,808.00 Z
           M 70.00,810.00
           C 70.00,810.00 70.00,811.00 70.00,811.00
             70.00,811.00 71.00,810.00 71.00,810.00
             71.00,810.00 70.00,810.00 70.00,810.00 Z
           M 71.00,812.00
           C 71.00,812.00 72.00,817.00 72.00,817.00
             72.00,817.00 71.00,812.00 71.00,812.00 Z
           M 74.00,829.00
           C 74.00,829.00 74.00,830.00 74.00,830.00
             74.00,830.00 75.00,829.00 75.00,829.00
             75.00,829.00 74.00,829.00 74.00,829.00 Z
           M 76.00,853.00
           C 76.00,853.00 75.00,862.00 75.00,862.00
             75.00,862.00 76.00,853.00 76.00,853.00 Z" />
</svg>
