<?xml version="1.0" encoding="UTF-8" standalone="no"?>
<!DOCTYPE svg PUBLIC "-//W3C//DTD SVG 20010904//EN"
              "http://www.w3.org/TR/2001/REC-SVG-20010904/DTD/svg10.dtd">

<svg xmlns="http://www.w3.org/2000/svg"
     width="15in" height="15in"
     viewBox="0 0 1080 1080">
  <path id="yellow"
        fill="#ffed6c" stroke="none" stroke-width="1"
        d="M 498.74,523.02
           C 495.96,526.77 497.93,531.80 498.74,536.00
             498.74,536.00 501.29,553.00 501.29,553.00
             501.29,553.00 503.85,562.00 503.85,562.00
             504.58,564.69 505.53,570.31 507.70,572.02
             509.80,573.69 514.91,573.07 521.00,576.97
             527.00,580.81 542.80,597.09 547.67,603.00
             551.20,607.28 551.85,609.82 554.55,614.00
             554.55,614.00 560.91,623.00 560.91,623.00
             560.91,623.00 571.60,643.00 571.60,643.00
             571.60,643.00 575.34,654.00 575.34,654.00
             575.34,654.00 579.45,663.00 579.45,663.00
             579.45,663.00 582.55,675.00 582.55,675.00
             582.55,675.00 593.79,707.00 593.79,707.00
             593.79,707.00 597.20,721.00 597.20,721.00
             597.20,721.00 601.34,733.00 601.34,733.00
             601.34,733.00 603.29,746.00 603.29,746.00
             603.29,746.00 605.80,759.00 605.80,759.00
             605.80,759.00 608.71,774.00 608.71,774.00
             608.71,774.00 609.47,782.00 609.47,782.00
             609.47,782.00 612.76,793.00 612.76,793.00
             615.15,802.82 613.62,800.76 618.14,811.00
             623.00,822.01 628.89,830.10 642.00,830.91
             645.74,831.14 649.53,830.48 653.00,829.07
             656.11,827.81 658.53,826.22 660.74,823.90
             677.00,808.55 664.45,788.43 660.74,771.00
             660.74,771.00 659.71,763.00 659.71,763.00
             659.71,763.00 657.58,752.00 657.58,752.00
             657.58,752.00 649.33,712.00 649.33,712.00
             649.33,712.00 644.92,700.00 644.92,700.00
             644.92,700.00 642.08,687.00 642.08,687.00
             642.08,687.00 631.55,655.00 631.55,655.00
             631.55,655.00 619.68,622.00 619.68,622.00
             619.68,622.00 610.89,607.00 610.89,607.00
             610.89,607.00 605.21,595.00 605.21,595.00
             605.21,595.00 591.07,573.00 591.07,573.00
             591.07,573.00 579.66,560.00 579.66,560.00
             571.52,549.82 573.08,552.49 564.00,544.70
             564.00,544.70 556.00,537.39 556.00,537.39
             544.86,528.61 531.37,522.17 517.00,522.00
             512.00,521.95 502.95,521.17 498.74,523.02 Z" />
  <path id="green"
        fill="#e0ff6c" stroke="none" stroke-width="1"
        d="M 507.00,573.00
           C 507.00,573.00 501.52,552.00 501.52,552.00
             501.52,552.00 500.20,540.00 500.20,540.00
             500.20,540.00 497.00,523.00 497.00,523.00
             490.40,523.00 485.25,523.40 479.00,525.93
             473.95,527.97 470.42,531.23 466.00,534.26
             457.62,539.99 444.76,551.29 438.21,559.00
             438.21,559.00 432.62,567.00 432.62,567.00
             428.04,572.90 418.77,584.49 416.00,591.00
             413.30,583.60 414.61,583.68 413.56,577.00
             413.56,577.00 410.00,545.00 410.00,545.00
             409.92,537.64 409.75,530.30 408.70,523.00
             408.70,523.00 406.29,511.00 406.29,511.00
             406.29,511.00 404.71,494.00 404.71,494.00
             404.71,494.00 402.00,471.00 402.00,471.00
             402.00,471.00 402.00,455.00 402.00,455.00
             402.00,455.00 401.04,444.00 401.04,444.00
             401.04,444.00 401.04,431.00 401.04,431.00
             401.04,431.00 399.09,409.00 399.09,409.00
             399.09,409.00 397.83,390.00 397.83,390.00
             397.83,390.00 396.00,369.00 396.00,369.00
             396.00,369.00 396.00,351.00 396.00,351.00
             396.00,351.00 394.09,329.00 394.09,329.00
             394.09,329.00 393.00,291.00 393.00,291.00
             393.00,291.00 388.92,262.00 388.92,262.00
             388.92,262.00 388.92,251.00 388.92,251.00
             388.92,251.00 386.17,231.00 386.17,231.00
             386.17,231.00 384.83,211.00 384.83,211.00
             383.81,201.20 383.02,204.59 383.00,192.00
             382.99,184.70 382.36,178.99 377.61,173.00
             366.72,159.27 345.86,159.70 335.64,174.00
             332.11,178.93 331.07,184.07 331.09,190.00
             331.09,190.00 331.09,207.00 331.09,207.00
             332.46,219.94 333.79,214.51 334.00,233.00
             334.00,233.00 337.00,261.00 337.00,261.00
             337.00,261.00 337.00,265.00 337.00,265.00
             337.02,276.40 339.81,281.20 340.83,291.00
             340.83,291.00 342.00,327.00 342.00,327.00
             342.00,327.00 345.00,367.00 345.00,367.00
             345.00,367.00 345.00,385.00 345.00,385.00
             345.00,385.00 349.08,432.00 349.08,432.00
             349.08,432.00 349.08,446.00 349.08,446.00
             349.08,446.00 351.00,466.00 351.00,466.00
             351.06,479.52 351.48,492.57 353.29,506.00
             353.29,506.00 358.08,544.00 358.08,544.00
             358.08,544.00 358.08,555.00 358.08,555.00
             358.08,555.00 360.83,575.00 360.83,575.00
             360.83,575.00 366.17,630.00 366.17,630.00
             366.17,630.00 370.00,661.00 370.00,661.00
             370.00,661.00 370.00,693.00 370.00,693.00
             370.00,693.00 372.00,713.00 372.00,713.00
             372.21,731.49 373.54,726.06 374.83,739.00
             374.83,739.00 376.17,759.00 376.17,759.00
             376.17,759.00 383.00,798.00 383.00,798.00
             383.00,798.00 384.83,808.00 384.83,808.00
             385.40,813.69 384.33,816.97 386.22,823.00
             389.51,833.52 400.08,841.23 411.00,841.91
             414.39,842.12 417.81,841.60 421.00,840.45
             424.94,839.05 428.00,836.98 430.90,833.96
             441.83,822.53 437.17,807.85 437.00,794.00
             437.00,794.00 437.00,773.00 437.00,773.00
             437.00,773.00 440.00,743.00 440.00,743.00
             440.03,726.36 440.11,709.51 442.29,693.00
             442.29,693.00 447.20,669.00 447.20,669.00
             447.20,669.00 448.37,660.00 448.37,660.00
             448.37,660.00 455.55,635.00 455.55,635.00
             455.55,635.00 459.77,625.00 459.77,625.00
             459.77,625.00 462.63,616.00 462.63,616.00
             466.83,606.14 479.79,590.48 488.00,583.59
             493.94,578.60 499.16,574.24 507.00,573.00 Z" />
</svg>
