<?xml version="1.0" encoding="UTF-8" standalone="no"?>
<!DOCTYPE svg PUBLIC "-//W3C//DTD SVG 20010904//EN"
              "http://www.w3.org/TR/2001/REC-SVG-20010904/DTD/svg10.dtd">

<svg xmlns="http://www.w3.org/2000/svg"
     width="15in" height="15in"
     viewBox="0 0 1080 1080">
  <path id="Selection #2"
        fill="#38f9ff" stroke="none" stroke-width="1"
        d="M 770.00,499.52
           C 760.34,502.13 754.97,507.72 754.18,518.00
             753.54,526.48 757.92,535.09 766.04,538.29
             772.96,541.01 783.12,539.47 792.00,541.02
             797.37,541.95 797.78,543.46 802.00,544.60
             814.27,547.93 823.76,550.65 833.96,558.84
             850.33,571.99 860.97,598.27 861.00,619.00
             861.00,619.00 861.00,627.00 861.00,627.00
             860.98,636.07 859.45,636.86 856.32,645.00
             854.58,649.52 852.89,656.82 849.46,660.37
             846.19,663.74 839.75,665.84 836.00,668.50
             836.00,668.50 829.42,674.21 829.42,674.21
             829.42,674.21 811.00,687.21 811.00,687.21
             805.40,690.43 798.69,691.97 794.27,697.05
             783.23,709.76 791.06,729.53 808.00,730.82
             814.43,731.31 818.39,729.08 824.00,726.74
             839.98,720.07 841.08,718.41 854.09,707.38
             863.22,699.64 872.78,696.44 881.33,687.00
             887.00,680.74 891.24,669.89 894.01,662.00
             896.49,654.97 900.04,648.42 901.76,641.00
             901.76,641.00 901.76,616.00 901.76,616.00
             901.91,608.87 900.94,608.93 900.16,603.00
             896.49,575.07 887.59,554.89 867.88,534.40
             864.71,531.10 859.10,524.44 855.83,522.10
             853.16,520.20 845.51,517.19 842.00,515.58
             833.03,511.46 826.47,508.53 817.00,505.50
             817.00,505.50 805.00,501.53 805.00,501.53
             795.27,499.29 779.85,497.96 770.00,499.52 Z
           M 703.00,508.53
           C 692.31,511.69 684.11,521.12 673.96,526.34
             673.96,526.34 661.00,531.36 661.00,531.36
             661.00,531.36 629.00,548.26 629.00,548.26
             629.00,548.26 610.00,553.79 610.00,553.79
             610.00,553.79 583.00,563.55 583.00,563.55
             583.00,563.55 555.00,570.49 555.00,570.49
             555.00,570.49 547.00,571.67 547.00,571.67
             547.00,571.67 534.00,574.70 534.00,574.70
             534.00,574.70 525.00,575.30 525.00,575.30
             517.91,576.31 519.61,576.99 511.00,577.00
             511.00,577.00 470.00,577.00 470.00,577.00
             460.07,576.98 462.01,575.92 455.00,575.00
             455.00,575.00 445.00,575.00 445.00,575.00
             445.00,575.00 432.00,573.18 432.00,573.18
             432.00,573.18 420.00,574.04 420.00,574.04
             420.00,574.04 406.00,574.04 406.00,574.04
             406.00,574.04 394.00,575.00 394.00,575.00
             394.00,575.00 373.00,575.00 373.00,575.00
             361.65,574.98 361.45,573.17 352.00,571.46
             347.28,570.61 346.23,571.51 341.00,569.77
             334.15,567.49 328.32,562.79 321.00,562.19
             306.35,560.97 295.16,575.13 300.40,589.00
             303.52,597.25 314.02,604.07 322.00,607.05
             335.19,611.98 333.88,609.85 343.00,611.46
             352.41,613.13 353.03,614.98 364.00,615.00
             364.00,615.00 409.00,615.00 409.00,615.00
             409.00,615.00 421.00,614.01 421.00,614.01
             421.00,614.01 433.00,615.00 433.00,615.00
             433.00,615.00 442.00,615.00 442.00,615.00
             442.00,615.00 468.00,618.00 468.00,618.00
             468.00,618.00 516.00,618.00 516.00,618.00
             526.19,617.98 525.55,616.60 534.00,615.29
             534.00,615.29 548.00,613.54 548.00,613.54
             548.00,613.54 571.00,608.51 571.00,608.51
             571.00,608.51 579.00,607.33 579.00,607.33
             579.00,607.33 598.00,601.46 598.00,601.46
             598.00,601.46 605.00,599.60 605.00,599.60
             605.00,599.60 620.00,593.90 620.00,593.90
             620.00,593.90 647.00,585.29 647.00,585.29
             647.00,585.29 679.28,568.63 679.28,568.63
             683.27,566.64 687.01,566.43 693.83,562.65
             701.90,558.18 720.58,546.04 724.18,538.00
             730.72,523.41 719.26,506.02 703.00,508.53 Z
           M 714.00,579.55
           C 714.00,579.55 698.00,585.24 698.00,585.24
             698.00,585.24 685.00,588.39 685.00,588.39
             685.00,588.39 676.00,591.76 676.00,591.76
             676.00,591.76 668.00,593.97 668.00,593.97
             668.00,593.97 641.00,603.56 641.00,603.56
             641.00,603.56 618.00,607.82 618.00,607.82
             614.18,608.28 612.21,607.64 608.00,608.78
             608.00,608.78 579.00,618.16 579.00,618.16
             579.00,618.16 570.00,619.84 570.00,619.84
             570.00,619.84 543.00,629.53 543.00,629.53
             543.00,629.53 534.00,630.46 534.00,630.46
             534.00,630.46 521.00,633.54 521.00,633.54
             521.00,633.54 512.00,634.30 512.00,634.30
             512.00,634.30 501.00,636.70 501.00,636.70
             501.00,636.70 491.00,637.46 491.00,637.46
             491.00,637.46 477.00,640.94 477.00,640.94
             477.00,640.94 465.00,640.94 465.00,640.94
             465.00,640.94 457.00,643.06 457.00,643.06
             457.00,643.06 446.00,643.06 446.00,643.06
             436.72,644.62 427.43,646.89 418.00,646.95
             418.00,646.95 394.00,646.95 394.00,646.95
             394.00,646.95 384.00,645.17 384.00,645.17
             384.00,645.17 375.00,644.53 375.00,644.53
             375.00,644.53 365.00,641.39 365.00,641.39
             365.00,641.39 354.00,640.10 354.00,640.10
             343.62,637.58 327.33,630.04 317.00,630.08
             309.03,630.11 300.19,636.38 297.70,644.00
             296.93,646.34 296.94,649.53 297.02,652.00
             297.26,660.35 303.48,666.96 311.00,670.02
             311.00,670.02 318.00,672.16 318.00,672.16
             318.00,672.16 328.00,674.78 328.00,674.78
             328.00,674.78 345.00,680.10 345.00,680.10
             345.00,680.10 356.00,682.01 356.00,682.01
             366.53,684.28 377.12,686.87 388.00,687.00
             388.00,687.00 429.00,687.00 429.00,687.00
             429.00,687.00 451.00,684.00 451.00,684.00
             451.00,684.00 461.00,684.00 461.00,684.00
             461.00,684.00 471.00,681.90 471.00,681.90
             471.00,681.90 482.00,681.90 482.00,681.90
             482.00,681.90 495.00,678.67 495.00,678.67
             495.00,678.67 507.00,677.54 507.00,677.54
             507.00,677.54 519.00,674.46 519.00,674.46
             519.00,674.46 529.00,673.70 529.00,673.70
             529.00,673.70 538.00,671.51 538.00,671.51
             538.00,671.51 547.00,670.11 547.00,670.11
             547.00,670.11 574.00,662.77 574.00,662.77
             574.00,662.77 581.00,659.68 581.00,659.68
             581.00,659.68 595.00,656.11 595.00,656.11
             595.00,656.11 619.00,648.61 619.00,648.61
             619.00,648.61 639.00,645.17 639.00,645.17
             639.00,645.17 648.00,644.45 648.00,644.45
             648.00,644.45 655.00,641.84 655.00,641.84
             655.00,641.84 662.00,640.24 662.00,640.24
             662.00,640.24 675.00,634.79 675.00,634.79
             675.00,634.79 693.00,629.54 693.00,629.54
             693.00,629.54 700.00,626.84 700.00,626.84
             709.38,623.90 721.72,622.45 729.91,616.74
             747.96,604.16 737.00,575.65 714.00,579.55 Z
           M 714.00,648.84
           C 711.13,650.24 707.89,652.66 705.00,653.49
             705.00,653.49 696.00,654.46 696.00,654.46
             696.00,654.46 651.00,663.63 651.00,663.63
             651.00,663.63 644.00,666.38 644.00,666.38
             644.00,666.38 635.00,668.37 635.00,668.37
             635.00,668.37 617.00,673.41 617.00,673.41
             617.00,673.41 608.00,675.46 608.00,675.46
             608.00,675.46 594.00,681.04 594.00,681.04
             594.00,681.04 586.00,682.55 586.00,682.55
             586.00,682.55 580.00,684.53 580.00,684.53
             580.00,684.53 571.00,685.32 571.00,685.32
             571.00,685.32 553.00,688.70 553.00,688.70
             540.80,690.44 528.30,689.98 516.00,690.00
             507.65,690.01 503.05,691.75 495.00,692.72
             495.00,692.72 486.00,693.30 486.00,693.30
             486.00,693.30 475.00,695.70 475.00,695.70
             475.00,695.70 465.00,696.46 465.00,696.46
             455.62,698.12 456.03,699.98 445.00,700.00
             445.00,700.00 415.00,700.00 415.00,700.00
             415.00,700.00 385.00,696.00 385.00,696.00
             385.00,696.00 355.00,696.00 355.00,696.00
             344.81,695.88 332.88,689.67 323.09,694.96
             309.74,702.19 308.48,720.09 320.44,729.32
             325.72,733.39 345.00,736.99 352.00,737.00
             352.00,737.00 379.00,737.00 379.00,737.00
             379.00,737.00 411.00,741.00 411.00,741.00
             411.00,741.00 449.00,741.00 449.00,741.00
             460.64,740.98 460.12,739.04 470.00,737.44
             470.00,737.44 487.00,734.29 487.00,734.29
             487.00,734.29 503.00,732.72 503.00,732.72
             503.00,732.72 519.00,731.00 519.00,731.00
             519.00,731.00 540.00,731.00 540.00,731.00
             551.47,730.95 563.64,727.98 575.00,726.42
             575.00,726.42 587.00,725.33 587.00,725.33
             587.00,725.33 611.00,718.77 611.00,718.77
             611.00,718.77 618.00,715.69 618.00,715.69
             618.00,715.69 628.00,713.56 628.00,713.56
             628.00,713.56 638.00,710.03 638.00,710.03
             638.00,710.03 653.00,706.41 653.00,706.41
             653.00,706.41 672.00,700.75 672.00,700.75
             672.00,700.75 682.00,699.33 682.00,699.33
             682.00,699.33 705.00,694.32 705.00,694.32
             713.96,692.76 723.17,692.21 731.00,686.87
             750.31,673.70 741.60,648.31 723.00,648.00
             719.25,647.94 717.67,647.86 714.00,648.84 Z
           M 651.00,720.46
           C 644.21,721.91 637.46,724.24 631.00,726.77
             631.00,726.77 625.00,729.36 625.00,729.36
             625.00,729.36 619.00,730.32 619.00,730.32
             619.00,730.32 604.00,733.62 604.00,733.62
             604.00,733.62 568.00,743.54 568.00,743.54
             568.00,743.54 558.00,744.30 558.00,744.30
             549.87,745.47 551.81,746.98 541.00,747.00
             541.00,747.00 491.00,747.00 491.00,747.00
             491.00,747.00 465.00,748.18 465.00,748.18
             457.36,749.10 458.91,750.98 447.00,750.91
             447.00,750.91 431.00,750.91 431.00,750.91
             425.46,750.24 425.45,749.09 418.00,749.00
             414.69,748.96 410.08,749.26 407.00,748.36
             401.91,746.85 395.86,741.07 386.00,746.14
             373.21,752.71 369.42,769.80 380.09,779.79
             389.40,788.51 400.97,789.86 413.00,790.00
             413.00,790.00 428.00,791.00 428.00,791.00
             428.00,791.00 455.00,791.00 455.00,791.00
             455.00,791.00 474.00,789.00 474.00,789.00
             474.00,789.00 495.00,788.00 495.00,788.00
             495.00,788.00 541.00,788.00 541.00,788.00
             548.64,787.99 555.53,786.36 563.00,785.30
             563.00,785.30 572.00,784.70 572.00,784.70
             572.00,784.70 594.00,780.24 594.00,780.24
             594.00,780.24 610.00,774.89 610.00,774.89
             610.00,774.89 629.00,769.89 629.00,769.89
             638.18,767.80 634.66,769.67 645.00,765.74
             657.03,761.17 673.51,757.46 674.81,742.00
             676.00,727.89 664.53,718.64 651.00,720.46 Z
           M 735.00,736.44
           C 724.97,738.54 719.57,744.70 711.83,750.59
             711.83,750.59 704.30,756.24 704.30,756.24
             704.30,756.24 697.74,762.96 697.74,762.96
             692.03,767.35 685.06,768.52 681.09,770.54
             681.09,770.54 672.00,776.49 672.00,776.49
             672.00,776.49 658.00,782.65 658.00,782.65
             647.93,787.59 650.11,790.20 637.00,795.05
             637.00,795.05 629.00,797.36 629.00,797.36
             618.78,800.68 608.68,804.88 598.00,806.56
             598.00,806.56 584.00,807.30 584.00,807.30
             584.00,807.30 560.00,811.00 560.00,811.00
             541.61,811.21 548.65,812.54 538.00,813.82
             538.00,813.82 516.00,815.00 516.00,815.00
             516.00,815.00 451.00,815.00 451.00,815.00
             441.01,814.98 440.03,813.95 431.00,811.70
             431.00,811.70 415.00,808.46 415.00,808.46
             415.00,808.46 402.00,806.71 402.00,806.71
             402.00,806.71 394.00,804.94 394.00,804.94
             394.00,804.94 382.00,804.94 382.00,804.94
             382.00,804.94 370.00,801.75 370.00,801.75
             370.00,801.75 362.00,800.70 362.00,800.70
             362.00,800.70 352.00,798.31 352.00,798.31
             352.00,798.31 330.00,795.24 330.00,795.24
             321.32,792.94 309.93,785.78 301.00,786.13
             290.42,786.55 282.96,794.79 282.18,805.00
             281.03,820.15 293.53,824.92 305.00,829.99
             311.12,832.69 322.37,836.11 329.00,836.83
             329.00,836.83 341.00,838.04 341.00,838.04
             341.00,838.04 367.00,843.83 367.00,843.83
             367.00,843.83 388.00,845.67 388.00,845.67
             388.00,845.67 398.00,847.83 398.00,847.83
             398.00,847.83 406.00,848.34 406.00,848.34
             406.00,848.34 414.00,850.74 414.00,850.74
             414.00,850.74 421.00,851.34 421.00,851.34
             427.40,852.54 428.76,855.97 446.00,856.00
             446.00,856.00 521.00,856.00 521.00,856.00
             521.00,856.00 547.00,853.71 547.00,853.71
             553.65,852.67 554.07,851.10 562.00,851.00
             562.00,851.00 569.00,851.00 569.00,851.00
             569.00,851.00 589.00,848.28 589.00,848.28
             589.00,848.28 602.00,847.70 602.00,847.70
             602.00,847.70 623.00,843.16 623.00,843.16
             623.00,843.16 637.00,837.79 637.00,837.79
             650.89,832.95 647.75,835.78 664.00,827.98
             670.61,824.81 674.61,820.89 678.00,819.12
             678.00,819.12 687.00,815.67 687.00,815.67
             687.00,815.67 700.00,808.17 700.00,808.17
             700.00,808.17 719.01,798.74 719.01,798.74
             724.48,795.47 728.46,790.39 733.30,786.36
             733.30,786.36 752.16,771.18 752.16,771.18
             766.62,756.27 755.51,733.96 735.00,736.44 Z" />
  <path id="Selection #1"
        fill="#ffbf68" stroke="none" stroke-width="1"
        d="M 552.00,184.55
           C 539.24,188.74 532.60,199.98 537.56,212.96
             540.47,220.58 551.97,232.68 556.86,239.44
             556.86,239.44 564.30,255.00 564.30,255.00
             569.79,267.16 575.15,279.44 575.00,293.00
             574.95,297.06 573.70,307.23 572.55,311.00
             571.10,315.70 566.82,322.49 564.49,327.00
             564.49,327.00 560.91,335.00 560.91,335.00
             555.88,345.44 549.66,355.97 545.95,367.00
             545.95,367.00 544.45,374.00 544.45,374.00
             542.99,379.42 540.13,380.80 540.00,392.00
             540.00,392.00 540.00,422.00 540.00,422.00
             540.04,430.54 543.12,450.93 545.73,459.00
             545.73,459.00 558.52,485.09 558.52,485.09
             558.52,485.09 563.17,494.83 563.17,494.83
             563.17,494.83 569.42,504.00 569.42,504.00
             577.49,517.43 584.95,534.11 604.00,529.59
             615.41,526.88 620.65,513.58 617.32,503.00
             615.93,498.62 611.01,493.44 608.43,489.00
             608.43,489.00 605.45,483.04 605.45,483.04
             605.45,483.04 599.02,473.99 599.02,473.99
             599.02,473.99 585.38,447.00 585.38,447.00
             581.09,436.65 580.95,412.65 581.00,401.00
             581.06,388.04 587.48,373.32 593.55,362.00
             593.55,362.00 598.74,353.00 598.74,353.00
             598.74,353.00 601.97,344.17 601.97,344.17
             605.34,337.52 609.67,331.15 611.97,324.00
             616.59,309.69 616.60,294.78 615.17,280.00
             615.17,280.00 614.66,273.00 614.66,273.00
             614.66,273.00 611.55,264.00 611.55,264.00
             611.55,264.00 610.16,257.00 610.16,257.00
             610.16,257.00 607.20,251.00 607.20,251.00
             607.20,251.00 596.71,227.00 596.71,227.00
             596.71,227.00 593.34,219.17 593.34,219.17
             593.34,219.17 579.89,201.60 579.89,201.60
             572.09,191.65 566.65,182.06 552.00,184.55 Z
           M 349.00,264.47
           C 346.18,265.16 344.57,265.52 342.04,267.14
             332.69,273.12 331.60,284.14 334.62,294.00
             334.62,294.00 337.38,301.00 337.38,301.00
             338.64,305.12 340.95,315.79 341.00,320.00
             341.00,320.00 341.00,334.00 341.00,334.00
             340.90,339.90 335.38,359.72 333.27,366.00
             333.27,366.00 327.67,379.00 327.67,379.00
             322.92,390.86 316.06,409.32 316.00,422.00
             316.00,422.00 316.00,428.00 316.00,428.00
             316.09,435.68 318.03,439.02 319.49,446.00
             319.49,446.00 320.90,455.00 320.90,455.00
             322.33,461.01 323.73,463.56 325.88,469.00
             325.88,469.00 328.12,476.00 328.12,476.00
             331.16,483.62 337.51,492.52 342.39,499.17
             342.39,499.17 347.24,507.00 347.24,507.00
             356.07,520.23 368.71,538.72 387.00,534.15
             399.68,530.98 404.92,514.83 398.52,504.00
             398.52,504.00 383.29,486.00 383.29,486.00
             383.29,486.00 377.24,477.00 377.24,477.00
             377.24,477.00 371.81,470.00 371.81,470.00
             371.81,470.00 360.85,446.00 360.85,446.00
             360.85,446.00 359.10,436.00 359.10,436.00
             359.10,436.00 356.47,427.00 356.47,427.00
             355.41,418.58 363.32,402.67 366.74,395.00
             366.74,395.00 373.54,375.00 373.54,375.00
             375.43,369.82 374.59,368.79 375.55,365.00
             377.72,356.43 380.86,354.30 381.00,343.00
             381.00,343.00 381.00,314.00 381.00,314.00
             380.98,303.05 377.66,289.99 373.22,280.00
             371.20,275.45 369.81,271.75 365.82,268.49
             361.07,264.61 354.92,263.69 349.00,264.47 Z
           M 475.00,345.47
           C 472.35,346.10 470.40,346.53 468.00,348.00
             452.91,357.29 461.84,374.51 462.00,388.00
             462.00,388.00 459.70,421.00 459.70,421.00
             459.70,421.00 457.89,429.00 457.89,429.00
             456.63,434.57 456.99,440.32 457.00,446.00
             457.02,457.95 458.76,455.04 459.79,462.00
             460.78,468.69 461.16,475.64 463.80,482.00
             463.80,482.00 469.74,493.00 469.74,493.00
             469.74,493.00 471.68,499.00 471.68,499.00
             471.68,499.00 475.39,506.00 475.39,506.00
             480.19,515.01 484.76,522.95 496.00,523.82
             507.40,524.70 518.16,515.79 517.87,504.00
             517.62,493.68 502.08,468.86 500.46,460.00
             500.46,460.00 498.04,442.00 498.04,442.00
             497.72,434.58 499.42,433.74 499.91,428.00
             499.91,428.00 501.07,416.00 501.07,416.00
             501.07,416.00 501.07,407.00 501.07,407.00
             501.07,407.00 502.91,398.00 502.91,398.00
             502.91,398.00 502.91,384.00 502.91,384.00
             502.98,373.76 502.00,376.31 500.46,368.00
             500.46,368.00 499.17,360.00 499.17,360.00
             495.66,348.49 486.53,343.89 475.00,345.47 Z" />
  <path id="Selection"
        fill="#FFF" stroke="none" stroke-width="1"
        d="M 742.00,34.22
           C 742.00,34.22 730.00,36.83 730.00,36.83
             730.00,36.83 713.00,38.44 713.00,38.44
             703.26,39.96 693.94,41.98 684.00,42.00
             684.00,42.00 657.00,42.00 657.00,42.00
             657.00,42.00 642.00,41.04 642.00,41.04
             642.00,41.04 634.00,41.91 634.00,41.91
             634.00,41.91 595.00,45.17 595.00,45.17
             595.00,45.17 571.00,49.71 571.00,49.71
             571.00,49.71 530.00,54.29 530.00,54.29
             530.00,54.29 500.00,58.00 500.00,58.00
             500.00,58.00 442.00,58.00 442.00,58.00
             433.02,58.01 433.23,59.07 426.00,59.83
             426.00,59.83 389.00,64.43 389.00,64.43
             389.00,64.43 379.00,67.51 379.00,67.51
             379.00,67.51 352.00,71.91 352.00,71.91
             344.01,72.40 327.12,67.11 319.00,64.92
             310.45,62.61 307.00,63.37 303.00,62.47
             303.00,62.47 295.00,59.92 295.00,59.92
             289.77,58.49 277.46,57.07 272.00,56.92
             272.00,56.92 256.00,56.92 256.00,56.92
             256.00,56.92 246.00,55.00 246.00,55.00
             246.00,55.00 236.00,55.00 236.00,55.00
             236.00,55.00 211.00,52.00 211.00,52.00
             211.00,52.00 187.00,52.00 187.00,52.00
             187.00,52.00 160.00,54.74 160.00,54.74
             157.01,54.25 154.56,51.58 152.00,49.97
             148.71,47.90 144.86,46.59 141.00,46.17
             138.08,45.86 134.87,46.02 132.00,46.68
             121.61,49.06 113.86,57.46 112.11,68.00
             112.11,68.00 112.11,78.00 112.11,78.00
             112.11,78.00 111.00,90.00 111.00,90.00
             111.00,90.00 111.00,144.00 111.00,144.00
             111.00,144.00 116.71,188.00 116.71,188.00
             117.52,194.49 115.48,196.63 116.17,204.00
             116.17,204.00 118.04,220.00 118.04,220.00
             118.04,220.00 118.04,229.00 118.04,229.00
             119.14,238.71 120.14,236.81 120.00,249.00
             120.00,249.00 118.00,274.00 118.00,274.00
             118.00,274.00 118.00,298.00 118.00,298.00
             118.00,298.00 117.00,312.00 117.00,312.00
             117.00,312.00 117.00,427.00 117.00,427.00
             117.00,427.00 114.90,449.00 114.90,449.00
             114.90,449.00 114.90,459.00 114.90,459.00
             114.90,459.00 113.17,468.00 113.17,468.00
             113.17,468.00 110.96,489.00 110.96,489.00
             110.96,489.00 110.96,498.00 110.96,498.00
             110.96,498.00 109.00,518.00 109.00,518.00
             109.00,518.00 109.00,547.00 109.00,547.00
             109.00,547.00 108.00,563.00 108.00,563.00
             108.00,563.00 108.00,611.00 108.00,611.00
             108.00,611.00 105.96,636.00 105.96,636.00
             105.96,636.00 105.96,646.00 105.96,646.00
             105.96,646.00 104.92,656.00 104.92,656.00
             104.92,656.00 104.92,667.00 104.92,667.00
             104.92,667.00 103.00,681.00 103.00,681.00
             103.00,681.00 103.00,693.00 103.00,693.00
             103.00,693.00 101.04,709.00 101.04,709.00
             101.04,709.00 101.99,721.00 101.99,721.00
             101.99,721.00 98.92,746.00 98.92,746.00
             98.92,746.00 98.92,761.00 98.92,761.00
             98.12,768.10 97.01,768.04 97.00,777.00
             97.00,777.00 97.00,796.00 97.00,796.00
             97.00,796.00 99.68,820.00 99.68,820.00
             99.68,820.00 102.98,831.00 102.98,831.00
             102.98,831.00 104.92,845.00 104.92,845.00
             109.09,861.10 120.56,887.46 131.21,900.00
             143.74,914.75 162.30,925.82 178.00,936.91
             178.00,936.91 187.00,943.45 187.00,943.45
             187.00,943.45 198.00,950.16 198.00,950.16
             203.09,953.87 207.44,958.60 213.00,961.65
             213.00,961.65 222.00,965.20 222.00,965.20
             222.00,965.20 233.00,970.39 233.00,970.39
             233.00,970.39 269.00,981.92 269.00,981.92
             269.00,981.92 285.00,987.08 285.00,987.08
             293.59,989.43 316.03,991.99 325.00,992.00
             325.00,992.00 369.00,992.00 369.00,992.00
             369.00,992.00 395.00,990.00 395.00,990.00
             395.00,990.00 408.00,990.00 408.00,990.00
             408.00,990.00 425.00,990.83 425.00,990.83
             425.00,990.83 459.00,985.17 459.00,985.17
             459.00,985.17 494.00,981.17 494.00,981.17
             494.00,981.17 514.00,979.83 514.00,979.83
             514.00,979.83 523.00,978.29 523.00,978.29
             523.00,978.29 554.00,974.83 554.00,974.83
             554.00,974.83 592.00,971.00 592.00,971.00
             592.00,971.00 642.00,971.00 642.00,971.00
             642.00,971.00 680.00,975.56 680.00,975.56
             680.00,975.56 690.00,976.68 690.00,976.68
             690.00,976.68 705.00,981.06 705.00,981.06
             709.16,982.83 711.02,984.72 716.00,986.07
             716.00,986.07 729.00,987.92 729.00,987.92
             742.98,991.54 775.62,999.49 789.00,1000.96
             789.00,1000.96 798.00,1000.96 798.00,1000.96
             798.00,1000.96 808.00,1002.00 808.00,1002.00
             808.00,1002.00 828.00,1002.00 828.00,1002.00
             842.24,1001.98 846.05,1000.57 859.00,996.08
             863.65,994.46 867.49,993.51 872.00,991.18
             872.00,991.18 886.00,982.53 886.00,982.53
             912.53,965.80 926.15,954.48 940.74,926.00
             946.23,915.30 945.27,913.86 948.52,904.00
             948.52,904.00 952.08,894.00 952.08,894.00
             953.43,888.85 952.43,887.72 954.62,882.00
             954.62,882.00 968.74,855.00 968.74,855.00
             968.74,855.00 975.34,834.00 975.34,834.00
             975.34,834.00 979.94,812.00 979.94,812.00
             979.94,812.00 979.94,801.00 979.94,801.00
             979.94,801.00 985.51,776.00 985.51,776.00
             988.06,767.81 989.33,759.56 990.04,751.00
             990.04,751.00 990.04,742.00 990.04,742.00
             990.04,742.00 992.83,728.00 992.83,728.00
             992.83,728.00 994.17,708.00 994.17,708.00
             994.17,708.00 996.56,695.00 996.56,695.00
             996.56,695.00 997.29,687.00 997.29,687.00
             997.29,687.00 1001.00,654.00 1001.00,654.00
             1001.00,654.00 1002.04,632.00 1002.04,632.00
             1002.04,632.00 1002.04,623.00 1002.04,623.00
             1002.04,623.00 1005.56,606.00 1005.56,606.00
             1005.56,606.00 1006.29,598.00 1006.29,598.00
             1006.29,598.00 1009.56,581.00 1009.56,581.00
             1009.56,581.00 1012.29,558.00 1012.29,558.00
             1012.29,558.00 1016.00,528.00 1016.00,528.00
             1016.00,528.00 1016.00,435.00 1016.00,435.00
             1015.99,426.50 1014.39,418.37 1013.29,410.00
             1013.29,410.00 1011.39,391.00 1011.39,391.00
             1011.39,391.00 1006.65,373.00 1006.65,373.00
             1006.65,373.00 996.46,323.00 996.46,323.00
             996.46,323.00 995.56,309.00 995.56,309.00
             995.56,309.00 988.57,274.00 988.57,274.00
             988.57,274.00 986.37,266.00 986.37,266.00
             985.53,261.61 986.62,258.89 985.08,253.00
             985.08,253.00 980.77,241.00 980.77,241.00
             980.77,241.00 974.80,219.00 974.80,219.00
             974.80,219.00 971.09,209.00 971.09,209.00
             971.09,209.00 965.45,189.00 965.45,189.00
             963.64,184.00 961.61,182.22 959.52,178.00
             959.52,178.00 953.95,163.00 953.95,163.00
             953.95,163.00 950.45,148.00 950.45,148.00
             950.45,148.00 930.33,98.00 930.33,98.00
             930.33,98.00 926.74,89.00 926.74,89.00
             920.96,76.86 911.15,62.88 900.00,55.22
             890.92,48.98 871.09,42.73 860.00,41.10
             860.00,41.10 850.00,41.10 850.00,41.10
             850.00,41.10 840.00,40.00 840.00,40.00
             840.00,40.00 824.00,40.00 824.00,40.00
             811.79,39.98 813.88,37.14 805.00,36.00
             805.00,36.00 795.00,36.00 795.00,36.00
             788.56,35.19 788.15,34.04 780.00,34.22
             780.00,34.22 742.00,34.22 742.00,34.22 Z
           M 553.00,184.34
           C 567.32,182.81 572.21,191.81 579.89,201.60
             579.89,201.60 593.34,219.17 593.34,219.17
             593.34,219.17 596.71,227.00 596.71,227.00
             596.71,227.00 607.20,251.00 607.20,251.00
             607.20,251.00 610.16,257.00 610.16,257.00
             610.16,257.00 611.55,264.00 611.55,264.00
             611.55,264.00 614.66,273.00 614.66,273.00
             614.66,273.00 615.17,280.00 615.17,280.00
             616.60,294.78 616.59,309.69 611.97,324.00
             609.67,331.15 605.34,337.52 601.97,344.17
             601.97,344.17 598.74,353.00 598.74,353.00
             598.74,353.00 593.55,362.00 593.55,362.00
             587.48,373.32 581.06,388.04 581.00,401.00
             580.95,412.65 581.09,436.65 585.38,447.00
             585.38,447.00 599.02,473.99 599.02,473.99
             599.02,473.99 605.45,483.04 605.45,483.04
             605.45,483.04 608.43,489.00 608.43,489.00
             611.01,493.44 615.93,498.62 617.32,503.00
             620.65,513.58 615.41,526.88 604.00,529.59
             584.95,534.11 577.49,517.43 569.42,504.00
             569.42,504.00 563.17,494.83 563.17,494.83
             563.17,494.83 558.52,485.09 558.52,485.09
             558.52,485.09 545.73,459.00 545.73,459.00
             542.93,450.34 540.01,430.19 540.14,421.00
             540.14,421.00 540.14,387.00 540.14,387.00
             541.27,379.53 543.16,378.78 544.45,374.00
             544.45,374.00 545.95,367.00 545.95,367.00
             549.66,355.97 555.88,345.44 560.91,335.00
             560.91,335.00 564.49,327.00 564.49,327.00
             566.82,322.49 571.10,315.70 572.55,311.00
             573.70,307.23 574.95,297.06 575.00,293.00
             575.15,279.44 569.79,267.16 564.30,255.00
             564.30,255.00 556.86,239.44 556.86,239.44
             551.97,232.68 540.47,220.58 537.56,212.96
             532.51,199.74 539.64,187.82 553.00,184.34 Z
           M 350.00,264.30
           C 355.64,263.86 361.32,264.82 365.82,268.49
             369.81,271.75 371.20,275.45 373.22,280.00
             377.66,289.99 380.98,303.05 380.85,314.00
             380.85,314.00 380.85,348.00 380.85,348.00
             379.48,356.55 376.73,360.36 375.55,365.00
             374.59,368.79 375.43,369.82 373.54,375.00
             373.54,375.00 366.74,395.00 366.74,395.00
             363.32,402.67 355.41,418.58 356.47,427.00
             356.47,427.00 359.10,436.00 359.10,436.00
             359.10,436.00 360.85,446.00 360.85,446.00
             360.85,446.00 371.81,470.00 371.81,470.00
             371.81,470.00 377.24,477.00 377.24,477.00
             377.24,477.00 383.29,486.00 383.29,486.00
             388.03,492.47 395.95,499.05 399.08,505.00
             405.28,516.77 398.19,532.34 385.00,534.56
             364.72,537.97 352.66,513.97 343.05,500.09
             337.73,492.39 331.63,484.79 328.12,476.00
             328.12,476.00 325.88,469.00 325.88,469.00
             323.73,463.56 322.33,461.01 320.90,455.00
             320.90,455.00 319.49,446.00 319.49,446.00
             318.03,439.02 316.09,435.68 316.00,428.00
             316.00,428.00 316.00,421.00 316.00,421.00
             316.14,409.28 323.24,390.07 327.67,379.00
             327.67,379.00 333.27,366.00 333.27,366.00
             335.67,358.88 340.96,339.92 341.00,333.00
             341.00,333.00 341.00,320.00 341.00,320.00
             340.95,315.79 338.64,305.12 337.38,301.00
             337.38,301.00 334.62,294.00 334.62,294.00
             331.60,284.14 332.69,273.12 342.04,267.14
             344.79,265.38 346.88,264.92 350.00,264.30 Z
           M 476.00,345.30
           C 487.26,344.28 495.77,348.85 499.17,360.00
             499.17,360.00 500.46,368.00 500.46,368.00
             502.00,376.31 502.98,373.76 502.91,384.00
             502.91,384.00 502.91,398.00 502.91,398.00
             502.91,398.00 501.09,408.00 501.09,408.00
             501.09,408.00 499.82,429.00 499.82,429.00
             499.82,429.00 498.04,439.00 498.04,439.00
             498.04,439.00 500.46,460.00 500.46,460.00
             502.08,468.86 517.62,493.68 517.87,504.00
             518.16,515.79 507.40,524.70 496.00,523.82
             484.76,522.95 480.19,515.01 475.39,506.00
             475.39,506.00 471.68,499.00 471.68,499.00
             471.68,499.00 469.74,493.00 469.74,493.00
             469.74,493.00 463.80,482.00 463.80,482.00
             461.16,475.64 460.78,468.69 459.79,462.00
             458.76,455.04 457.02,457.95 457.00,446.00
             457.00,446.00 457.00,437.00 457.00,437.00
             457.09,429.44 458.77,427.46 459.70,421.00
             459.70,421.00 461.85,393.00 461.85,393.00
             461.85,393.00 461.85,383.00 461.85,383.00
             460.09,370.51 454.45,355.11 469.00,347.44
             471.25,346.25 473.54,345.78 476.00,345.30 Z
           M 771.00,499.32
           C 794.95,496.70 818.64,504.42 840.00,514.65
             844.48,516.79 853.35,520.11 856.71,522.77
             856.71,522.77 867.12,533.60 867.12,533.60
             887.38,554.75 896.37,574.15 900.16,603.00
             901.15,610.56 901.99,608.55 902.00,618.00
             902.00,618.00 902.00,633.00 902.00,633.00
             901.98,645.43 898.40,650.10 894.37,661.00
             891.34,669.18 888.37,677.30 883.32,684.56
             876.91,693.79 866.52,697.75 858.00,704.17
             842.41,715.92 844.09,718.36 824.00,726.74
             819.05,728.81 816.68,730.38 811.00,730.82
             793.78,732.13 783.32,713.52 792.81,699.00
             797.45,691.92 805.37,690.69 812.00,686.61
             812.00,686.61 828.58,674.90 828.58,674.90
             828.58,674.90 837.00,667.83 837.00,667.83
             841.32,665.10 847.75,663.23 850.67,658.79
             853.41,654.64 854.32,650.48 855.94,646.00
             859.06,637.33 860.98,636.79 861.00,627.00
             861.00,627.00 861.00,618.00 861.00,618.00
             860.96,610.37 860.00,608.98 858.51,602.00
             858.51,602.00 857.22,595.00 857.22,595.00
             854.09,583.74 844.37,568.29 835.83,560.44
             825.96,551.36 814.52,548.00 802.00,544.60
             796.34,543.07 795.27,540.16 782.00,540.00
             774.42,539.92 766.96,540.69 760.88,535.07
             749.06,524.14 752.34,503.52 771.00,499.32 Z
           M 704.00,508.33
           C 723.55,506.60 732.73,530.44 719.91,543.98
             714.69,549.49 698.01,560.76 690.99,564.08
             690.99,564.08 679.28,568.63 679.28,568.63
             666.24,575.14 653.84,583.21 640.00,588.06
             640.00,588.06 620.00,593.90 620.00,593.90
             620.00,593.90 606.00,599.24 606.00,599.24
             606.00,599.24 580.00,607.10 580.00,607.10
             580.00,607.10 572.00,608.32 572.00,608.32
             572.00,608.32 556.00,611.66 556.00,611.66
             556.00,611.66 534.00,615.29 534.00,615.29
             525.55,616.60 526.19,617.98 516.00,618.00
             516.00,618.00 469.00,618.00 469.00,618.00
             461.42,617.99 458.15,617.01 451.00,616.15
             451.00,616.15 421.00,614.01 421.00,614.01
             421.00,614.01 407.00,615.00 407.00,615.00
             407.00,615.00 364.00,615.00 364.00,615.00
             353.03,614.98 352.41,613.13 343.00,611.46
             343.00,611.46 334.00,610.67 334.00,610.67
             324.10,608.95 311.49,603.10 304.63,595.70
             292.05,582.12 302.55,560.66 321.00,562.19
             328.32,562.79 334.15,567.49 341.00,569.77
             346.23,571.51 347.28,570.61 352.00,571.46
             361.45,573.17 361.65,574.98 373.00,575.00
             373.00,575.00 395.00,575.00 395.00,575.00
             395.00,575.00 406.00,574.04 406.00,574.04
             406.00,574.04 418.00,574.04 418.00,574.04
             418.00,574.04 429.00,573.18 429.00,573.18
             429.00,573.18 455.00,575.17 455.00,575.17
             462.01,575.92 460.07,576.98 470.00,577.00
             470.00,577.00 511.00,577.00 511.00,577.00
             519.61,576.99 517.91,576.31 525.00,575.30
             525.00,575.30 535.00,574.54 535.00,574.54
             535.00,574.54 548.00,571.46 548.00,571.46
             548.00,571.46 564.00,568.56 564.00,568.56
             564.00,568.56 593.00,560.20 593.00,560.20
             593.00,560.20 602.00,556.42 602.00,556.42
             602.00,556.42 613.00,552.90 613.00,552.90
             613.00,552.90 628.00,548.68 628.00,548.68
             628.00,548.68 660.00,531.86 660.00,531.86
             660.00,531.86 672.99,526.82 672.99,526.82
             683.93,521.75 692.17,511.14 704.00,508.33 Z
           M 715.00,579.34
           C 738.79,576.81 747.37,606.09 728.96,617.37
             720.56,622.52 709.27,623.93 700.00,626.84
             700.00,626.84 693.00,629.54 693.00,629.54
             693.00,629.54 675.00,634.79 675.00,634.79
             675.00,634.79 662.00,640.24 662.00,640.24
             662.00,640.24 655.00,641.84 655.00,641.84
             655.00,641.84 648.00,644.45 648.00,644.45
             648.00,644.45 639.00,645.17 639.00,645.17
             639.00,645.17 619.00,648.61 619.00,648.61
             619.00,648.61 595.00,656.11 595.00,656.11
             595.00,656.11 581.00,659.68 581.00,659.68
             581.00,659.68 575.00,662.40 575.00,662.40
             575.00,662.40 562.00,666.27 562.00,666.27
             562.00,666.27 545.00,670.54 545.00,670.54
             545.00,670.54 538.00,671.51 538.00,671.51
             538.00,671.51 530.00,673.54 530.00,673.54
             530.00,673.54 519.00,674.46 519.00,674.46
             519.00,674.46 507.00,677.54 507.00,677.54
             507.00,677.54 495.00,678.67 495.00,678.67
             495.00,678.67 482.00,681.94 482.00,681.94
             482.00,681.94 470.00,681.94 470.00,681.94
             470.00,681.94 462.00,683.70 462.00,683.70
             462.00,683.70 450.00,684.28 450.00,684.28
             450.00,684.28 431.00,687.00 431.00,687.00
             431.00,687.00 390.00,687.00 390.00,687.00
             372.01,686.97 346.23,680.58 329.00,675.09
             329.00,675.09 322.00,673.55 322.00,673.55
             308.50,669.99 296.55,665.14 297.02,649.00
             297.33,638.00 308.17,629.15 319.00,630.18
             328.50,631.08 342.59,636.79 352.00,639.56
             359.21,641.68 360.96,640.53 365.00,641.39
             365.00,641.39 374.00,644.32 374.00,644.32
             374.00,644.32 397.00,647.00 397.00,647.00
             413.92,647.20 421.11,647.06 438.00,644.84
             438.00,644.84 447.00,642.99 447.00,642.99
             447.00,642.99 457.00,642.99 457.00,642.99
             457.00,642.99 466.00,640.90 466.00,640.90
             466.00,640.90 477.00,640.90 477.00,640.90
             477.00,640.90 492.00,637.30 492.00,637.30
             492.00,637.30 501.00,636.70 501.00,636.70
             501.00,636.70 512.00,634.30 512.00,634.30
             512.00,634.30 521.00,633.54 521.00,633.54
             521.00,633.54 534.00,630.46 534.00,630.46
             534.00,630.46 543.00,629.53 543.00,629.53
             543.00,629.53 570.00,619.84 570.00,619.84
             570.00,619.84 579.00,618.16 579.00,618.16
             579.00,618.16 608.00,608.78 608.00,608.78
             612.21,607.64 614.18,608.28 618.00,607.82
             618.00,607.82 642.00,603.28 642.00,603.28
             642.00,603.28 656.00,598.17 656.00,598.17
             656.00,598.17 676.00,591.76 676.00,591.76
             676.00,591.76 683.00,588.97 683.00,588.97
             683.00,588.97 698.00,585.24 698.00,585.24
             698.00,585.24 715.00,579.34 715.00,579.34 Z
           M 715.00,648.67
           C 718.75,647.84 725.44,647.48 729.00,648.67
             743.81,654.48 748.01,676.50 730.00,687.53
             720.84,693.14 704.75,694.43 694.00,696.32
             694.00,696.32 683.00,699.11 683.00,699.11
             683.00,699.11 673.00,700.51 673.00,700.51
             673.00,700.51 653.00,706.41 653.00,706.41
             653.00,706.41 644.00,708.37 644.00,708.37
             644.00,708.37 628.00,713.56 628.00,713.56
             628.00,713.56 618.00,715.69 618.00,715.69
             618.00,715.69 611.00,718.77 611.00,718.77
             611.00,718.77 586.00,725.54 586.00,725.54
             586.00,725.54 576.00,726.28 576.00,726.28
             576.00,726.28 539.00,731.00 539.00,731.00
             539.00,731.00 519.00,731.00 519.00,731.00
             519.00,731.00 496.00,733.17 496.00,733.17
             496.00,733.17 477.00,736.54 477.00,736.54
             477.00,736.54 468.00,737.81 468.00,737.81
             458.68,739.66 459.77,740.98 449.00,741.00
             449.00,741.00 411.00,741.00 411.00,741.00
             411.00,741.00 380.00,736.85 380.00,736.85
             380.00,736.85 345.00,736.85 345.00,736.85
             345.00,736.85 334.00,734.01 334.00,734.01
             329.47,732.82 326.38,733.09 322.17,730.51
             307.74,721.65 309.37,698.94 326.00,693.68
             334.83,690.90 347.17,695.98 357.00,696.00
             357.00,696.00 384.00,696.00 384.00,696.00
             384.00,696.00 416.00,700.00 416.00,700.00
             416.00,700.00 445.00,700.00 445.00,700.00
             456.03,699.98 455.62,698.12 465.00,696.46
             465.00,696.46 475.00,695.70 475.00,695.70
             475.00,695.70 486.00,693.30 486.00,693.30
             486.00,693.30 495.00,692.72 495.00,692.72
             503.05,691.75 507.65,690.01 516.00,690.00
             528.30,689.98 540.80,690.44 553.00,688.70
             553.00,688.70 571.00,685.32 571.00,685.32
             571.00,685.32 580.00,684.53 580.00,684.53
             580.00,684.53 586.00,682.55 586.00,682.55
             586.00,682.55 594.00,681.04 594.00,681.04
             594.00,681.04 608.00,675.46 608.00,675.46
             608.00,675.46 617.00,673.41 617.00,673.41
             617.00,673.41 635.00,668.37 635.00,668.37
             635.00,668.37 644.00,666.38 644.00,666.38
             644.00,666.38 651.00,663.63 651.00,663.63
             651.00,663.63 696.00,654.46 696.00,654.46
             696.00,654.46 705.00,653.49 705.00,653.49
             705.00,653.49 715.00,648.67 715.00,648.67 Z
           M 652.00,720.30
           C 668.62,718.80 681.38,735.91 672.09,750.70
             667.04,758.73 649.02,764.68 640.00,767.70
             640.00,767.70 629.00,769.89 629.00,769.89
             629.00,769.89 610.00,774.89 610.00,774.89
             610.00,774.89 594.00,780.24 594.00,780.24
             594.00,780.24 572.00,784.70 572.00,784.70
             572.00,784.70 563.00,785.30 563.00,785.30
             555.53,786.36 548.64,787.99 541.00,788.00
             541.00,788.00 495.00,788.00 495.00,788.00
             495.00,788.00 470.00,789.17 470.00,789.17
             462.99,789.92 464.93,790.98 455.00,791.00
             455.00,791.00 428.00,791.00 428.00,791.00
             428.00,791.00 411.00,790.00 411.00,790.00
             400.04,789.98 389.73,787.91 381.04,780.62
             368.45,770.07 373.38,748.75 390.00,744.56
             397.55,742.65 402.49,747.02 407.00,748.36
             410.08,749.26 414.69,748.96 418.00,749.00
             425.45,749.09 425.46,750.24 431.00,750.91
             431.00,750.91 447.00,750.91 447.00,750.91
             459.64,750.98 458.04,748.08 475.00,748.00
             475.00,748.00 489.00,747.00 489.00,747.00
             489.00,747.00 541.00,747.00 541.00,747.00
             551.81,746.98 549.87,745.47 558.00,744.30
             558.00,744.30 568.00,743.54 568.00,743.54
             568.00,743.54 604.00,733.62 604.00,733.62
             604.00,733.62 619.00,730.32 619.00,730.32
             619.00,730.32 625.00,729.36 625.00,729.36
             625.00,729.36 631.00,726.77 631.00,726.77
             637.77,724.12 644.84,721.63 652.00,720.30 Z
           M 736.00,736.29
           C 752.00,735.12 763.50,750.00 757.04,764.00
             753.02,772.71 740.83,780.10 733.30,786.36
             728.46,790.39 724.48,795.47 719.01,798.74
             719.01,798.74 700.00,808.17 700.00,808.17
             700.00,808.17 687.00,815.67 687.00,815.67
             687.00,815.67 678.00,819.12 678.00,819.12
             678.00,819.12 669.00,825.18 669.00,825.18
             669.00,825.18 655.00,832.26 655.00,832.26
             655.00,832.26 638.00,837.46 638.00,837.46
             638.00,837.46 622.00,843.45 622.00,843.45
             622.00,843.45 601.00,848.00 601.00,848.00
             601.00,848.00 590.00,848.00 590.00,848.00
             590.00,848.00 569.00,851.09 569.00,851.09
             569.00,851.09 558.00,851.09 558.00,851.09
             558.00,851.09 548.00,853.54 548.00,853.54
             548.00,853.54 522.00,856.00 522.00,856.00
             522.00,856.00 446.00,856.00 446.00,856.00
             441.88,855.99 432.76,855.32 429.00,854.16
             429.00,854.16 422.00,851.55 422.00,851.55
             422.00,851.55 413.00,850.53 413.00,850.53
             413.00,850.53 406.00,848.34 406.00,848.34
             406.00,848.34 398.00,847.83 398.00,847.83
             398.00,847.83 386.00,845.30 386.00,845.30
             386.00,845.30 367.00,843.83 367.00,843.83
             367.00,843.83 341.00,838.04 341.00,838.04
             341.00,838.04 328.00,836.70 328.00,836.70
             318.39,835.32 306.71,831.13 298.00,826.90
             289.30,822.68 283.07,818.46 282.19,808.00
             281.23,796.70 289.43,786.59 301.00,786.13
             309.37,785.80 320.84,792.46 329.00,794.95
             329.00,794.95 351.00,798.14 351.00,798.14
             351.00,798.14 361.00,800.54 361.00,800.54
             361.00,800.54 368.00,801.32 368.00,801.32
             368.00,801.32 382.00,804.94 382.00,804.94
             382.00,804.94 394.00,804.94 394.00,804.94
             394.00,804.94 402.00,806.71 402.00,806.71
             402.00,806.71 415.00,808.46 415.00,808.46
             415.00,808.46 431.00,811.70 431.00,811.70
             440.03,813.95 441.01,814.98 451.00,815.00
             451.00,815.00 516.00,815.00 516.00,815.00
             516.00,815.00 538.00,813.82 538.00,813.82
             548.65,812.54 541.61,811.21 560.00,811.00
             560.00,811.00 584.00,807.30 584.00,807.30
             590.22,806.41 592.60,807.79 601.00,805.99
             601.00,805.99 636.00,795.40 636.00,795.40
             648.70,791.20 648.26,787.43 658.00,782.65
             658.00,782.65 672.00,776.49 672.00,776.49
             672.00,776.49 681.09,770.54 681.09,770.54
             685.06,768.52 692.03,767.35 697.74,762.96
             697.74,762.96 704.30,756.24 704.30,756.24
             704.30,756.24 712.71,749.90 712.71,749.90
             720.59,743.78 725.62,738.09 736.00,736.29 Z" />
</svg>
