<?xml version="1.0" encoding="UTF-8" standalone="no"?>
<!DOCTYPE svg PUBLIC "-//W3C//DTD SVG 20010904//EN"
              "http://www.w3.org/TR/2001/REC-SVG-20010904/DTD/svg10.dtd">

<svg xmlns="http://www.w3.org/2000/svg"
     width="15in" height="15in"
     viewBox="0 0 1080 1080">
  <path id="Selection #1"
        fill="#38f9ff" stroke="none" stroke-width="1"
        d="M 777.00,475.47
           C 755.47,480.58 749.08,505.58 764.04,519.90
             773.14,528.60 782.60,526.87 794.00,527.00
             806.77,527.15 808.29,530.33 818.00,533.08
             818.00,533.08 843.00,541.10 843.00,541.10
             843.00,541.10 851.00,546.46 851.00,546.46
             854.21,548.56 856.91,549.85 859.91,552.47
             878.35,568.53 891.96,600.58 892.00,625.00
             892.00,625.00 892.00,640.00 892.00,640.00
             891.98,651.27 889.46,652.17 885.61,662.00
             883.59,667.17 881.94,674.20 878.79,678.79
             875.25,683.94 866.10,686.68 861.00,689.97
             856.99,692.55 854.59,695.78 851.00,698.61
             851.00,698.61 831.00,713.04 831.00,713.04
             822.40,718.52 812.71,719.10 805.64,729.00
             794.07,745.18 805.00,768.67 825.00,769.91
             831.95,770.34 838.73,767.25 845.00,764.57
             865.55,755.81 867.06,753.69 884.00,739.27
             895.45,729.53 907.41,726.40 918.79,713.00
             925.46,705.14 930.59,691.65 934.09,682.00
             937.88,671.55 943.86,661.42 944.00,650.00
             944.00,650.00 944.00,622.00 944.00,622.00
             943.91,615.05 942.77,613.76 942.17,608.00
             941.41,600.75 938.92,585.77 936.78,579.00
             936.78,579.00 933.01,570.00 933.01,570.00
             924.58,549.71 915.63,534.70 900.00,519.00
             895.92,514.90 890.13,507.59 886.00,504.64
             882.62,502.22 876.96,500.18 873.00,498.24
             873.00,498.24 844.00,485.55 844.00,485.55
             844.00,485.55 835.00,483.23 835.00,483.23
             835.00,483.23 823.00,478.92 823.00,478.92
             809.75,475.29 790.60,473.57 777.00,475.47 Z
           M 691.00,487.47
           C 677.83,490.60 665.75,504.48 653.00,510.60
             648.17,512.91 646.47,511.93 638.00,516.26
             638.00,516.26 597.00,537.57 597.00,537.57
             597.00,537.57 562.00,548.52 562.00,548.52
             562.00,548.52 550.00,553.45 550.00,553.45
             550.00,553.45 516.00,563.40 516.00,563.40
             516.00,563.40 505.00,565.20 505.00,565.20
             505.00,565.20 478.00,570.56 478.00,570.56
             478.00,570.56 470.00,571.29 470.00,571.29
             461.25,572.44 460.27,573.98 450.00,574.00
             450.00,574.00 393.00,574.00 393.00,574.00
             384.65,573.99 385.17,573.23 378.00,572.29
             378.00,572.29 347.00,569.09 347.00,569.09
             347.00,569.09 331.00,570.00 331.00,570.00
             331.00,570.00 316.00,570.00 316.00,570.00
             316.00,570.00 301.00,571.00 301.00,571.00
             301.00,571.00 269.00,571.00 269.00,571.00
             258.57,570.98 255.51,569.30 246.00,567.61
             235.52,565.76 239.95,568.32 226.00,563.24
             218.53,560.52 210.93,551.55 196.00,556.22
             179.75,561.30 172.65,581.03 182.64,595.00
             191.11,606.85 210.93,615.04 225.00,617.54
             225.00,617.54 234.00,618.44 234.00,618.44
             246.46,620.39 254.54,622.98 268.00,623.00
             268.00,623.00 307.00,623.00 307.00,623.00
             307.00,623.00 332.00,621.00 332.00,621.00
             332.00,621.00 372.00,624.17 372.00,624.17
             372.00,624.17 392.00,626.00 392.00,626.00
             392.00,626.00 456.00,626.00 456.00,626.00
             465.20,625.99 474.00,623.50 483.00,621.80
             483.00,621.80 494.00,620.56 494.00,620.56
             494.00,620.56 517.00,615.80 517.00,615.80
             517.00,615.80 540.00,611.08 540.00,611.08
             540.00,611.08 556.00,605.92 556.00,605.92
             556.00,605.92 565.00,603.78 565.00,603.78
             565.00,603.78 580.00,597.74 580.00,597.74
             580.00,597.74 618.00,585.57 618.00,585.57
             618.00,585.57 660.00,564.12 660.00,564.12
             660.00,564.12 673.00,559.14 673.00,559.14
             679.52,556.27 688.88,550.42 695.00,546.45
             703.14,541.17 716.16,531.21 719.45,522.00
             726.23,503.03 711.06,484.68 691.00,487.47 Z
           M 706.00,577.47
           C 706.00,577.47 685.00,584.48 685.00,584.48
             685.00,584.48 669.00,588.52 669.00,588.52
             669.00,588.52 659.00,592.26 659.00,592.26
             659.00,592.26 635.00,599.86 635.00,599.86
             635.00,599.86 613.00,607.80 613.00,607.80
             605.08,610.10 602.86,609.36 596.00,610.44
             596.00,610.44 580.00,613.71 580.00,613.71
             575.98,614.24 574.44,613.76 570.00,614.92
             570.00,614.92 560.00,618.48 560.00,618.48
             560.00,618.48 534.00,626.23 534.00,626.23
             534.00,626.23 520.00,629.52 520.00,629.52
             520.00,629.52 509.00,634.08 509.00,634.08
             509.00,634.08 487.00,641.08 487.00,641.08
             487.00,641.08 474.00,642.80 474.00,642.80
             474.00,642.80 423.00,651.29 423.00,651.29
             423.00,651.29 405.00,654.71 405.00,654.71
             405.00,654.71 388.00,656.30 388.00,656.30
             382.48,657.09 382.75,657.92 376.00,658.14
             376.00,658.14 364.00,658.14 364.00,658.14
             352.59,659.77 343.63,662.85 331.00,663.00
             331.00,663.00 302.00,663.00 302.00,663.00
             295.79,662.99 276.20,660.27 270.00,658.76
             270.00,658.76 260.00,655.68 260.00,655.68
             260.00,655.68 245.00,653.57 245.00,653.57
             239.44,652.28 238.57,651.15 234.00,649.55
             234.00,649.55 225.00,647.38 225.00,647.38
             217.71,645.22 210.72,642.59 203.00,642.09
             188.60,641.15 175.99,651.37 175.09,666.00
             174.15,681.23 184.80,689.53 198.00,693.81
             198.00,693.81 218.00,699.51 218.00,699.51
             218.00,699.51 233.00,704.34 233.00,704.34
             233.00,704.34 247.00,706.60 247.00,706.60
             260.91,709.94 274.54,713.83 289.00,714.00
             289.00,714.00 345.00,714.00 345.00,714.00
             345.00,714.00 376.00,710.00 376.00,710.00
             389.94,709.98 387.49,708.79 399.00,707.29
             399.00,707.29 411.00,706.71 411.00,706.71
             411.00,706.71 433.00,702.44 433.00,702.44
             433.00,702.44 442.00,701.56 442.00,701.56
             442.00,701.56 457.00,698.44 457.00,698.44
             457.00,698.44 466.00,697.56 466.00,697.56
             466.00,697.56 503.00,690.12 503.00,690.12
             503.00,690.12 525.00,684.14 525.00,684.14
             525.00,684.14 537.00,679.10 537.00,679.10
             537.00,679.10 551.00,675.79 551.00,675.79
             551.00,675.79 562.00,671.74 562.00,671.74
             562.00,671.74 584.00,665.60 584.00,665.60
             584.00,665.60 608.00,661.29 608.00,661.29
             613.80,660.52 615.52,660.95 622.00,659.34
             622.00,659.34 641.00,653.77 641.00,653.77
             641.00,653.77 656.00,647.55 656.00,647.55
             656.00,647.55 676.00,641.79 676.00,641.79
             676.00,641.79 686.00,638.09 686.00,638.09
             697.24,634.38 716.64,631.07 726.00,624.36
             740.68,613.85 740.69,592.14 726.00,581.64
             719.94,577.30 713.19,576.46 706.00,577.47 Z
           M 710.00,664.47
           C 700.30,666.77 698.95,670.29 694.00,671.57
             694.00,671.57 684.00,672.17 684.00,672.17
             684.00,672.17 668.00,675.40 668.00,675.40
             668.00,675.40 627.00,683.92 627.00,683.92
             627.00,683.92 614.00,688.51 614.00,688.51
             614.00,688.51 598.00,691.92 598.00,691.92
             598.00,691.92 580.00,697.51 580.00,697.51
             580.00,697.51 567.00,700.55 567.00,700.55
             567.00,700.55 555.00,705.56 555.00,705.56
             555.00,705.56 532.00,711.53 532.00,711.53
             532.00,711.53 525.00,712.17 525.00,712.17
             525.00,712.17 509.00,714.29 509.00,714.29
             499.43,715.55 489.65,717.98 480.00,718.00
             480.00,718.00 452.00,718.00 452.00,718.00
             443.65,718.01 444.17,718.77 437.00,719.71
             437.00,719.71 419.00,721.44 419.00,721.44
             419.00,721.44 398.00,725.56 398.00,725.56
             398.00,725.56 389.00,726.44 389.00,726.44
             379.81,727.88 375.86,729.98 366.00,730.00
             366.00,730.00 324.00,730.00 324.00,730.00
             315.65,729.99 316.17,729.23 309.00,728.29
             309.00,728.29 301.00,727.56 301.00,727.56
             295.75,726.74 294.81,726.07 289.00,726.00
             289.00,726.00 253.00,726.00 253.00,726.00
             253.00,726.00 222.00,721.09 222.00,721.09
             200.60,719.85 187.30,744.74 199.64,762.00
             201.80,765.03 204.77,767.78 208.00,769.64
             214.62,773.43 235.11,776.99 243.00,777.00
             243.00,777.00 276.00,777.00 276.00,777.00
             285.63,777.02 286.41,778.22 295.00,779.56
             295.00,779.56 303.00,780.29 303.00,780.29
             310.17,781.23 309.65,781.99 318.00,782.00
             318.00,782.00 371.00,782.00 371.00,782.00
             380.09,781.99 395.46,778.31 405.00,776.40
             405.00,776.40 456.00,770.00 456.00,770.00
             456.00,770.00 485.00,770.00 485.00,770.00
             485.00,770.00 520.00,765.29 520.00,765.29
             520.00,765.29 548.00,761.57 548.00,761.57
             548.00,761.57 558.00,758.49 558.00,758.49
             558.00,758.49 571.00,755.48 571.00,755.48
             571.00,755.48 584.00,750.22 584.00,750.22
             584.00,750.22 598.00,747.08 598.00,747.08
             598.00,747.08 608.00,743.22 608.00,743.22
             608.00,743.22 624.00,739.62 624.00,739.62
             624.00,739.62 644.00,733.49 644.00,733.49
             644.00,733.49 693.00,723.44 693.00,723.44
             693.00,723.44 701.00,722.71 701.00,722.71
             706.55,721.98 719.24,718.26 724.00,715.65
             730.57,712.04 736.89,706.17 739.45,699.00
             746.15,680.25 731.53,661.46 710.00,664.47 Z
           M 625.00,756.44
           C 615.91,758.12 616.78,758.69 609.00,761.45
             609.00,761.45 601.00,763.92 601.00,763.92
             601.00,763.92 593.00,767.23 593.00,767.23
             593.00,767.23 567.00,772.91 567.00,772.91
             567.00,772.91 543.00,780.40 543.00,780.40
             543.00,780.40 535.00,781.68 535.00,781.68
             535.00,781.68 525.00,784.57 525.00,784.57
             525.00,784.57 507.00,787.29 507.00,787.29
             498.16,788.45 498.71,789.98 488.00,790.00
             488.00,790.00 420.00,790.00 420.00,790.00
             420.00,790.00 398.00,792.10 398.00,792.10
             398.00,792.10 388.00,792.10 388.00,792.10
             379.32,793.42 378.20,794.98 368.00,795.00
             368.00,795.00 349.00,795.00 349.00,795.00
             349.00,795.00 329.00,792.75 329.00,792.75
             325.80,793.00 318.75,793.25 316.00,792.75
             311.27,791.23 306.63,786.50 297.00,787.09
             276.45,788.36 265.69,812.99 278.39,829.00
             283.83,835.86 299.27,843.41 308.00,844.85
             308.00,844.85 325.00,844.85 325.00,844.85
             325.00,844.85 340.00,846.00 340.00,846.00
             340.00,846.00 379.00,846.00 379.00,846.00
             387.98,845.99 387.77,844.93 395.00,844.17
             395.00,844.17 413.00,842.91 413.00,842.91
             413.00,842.91 425.00,842.00 425.00,842.00
             425.00,842.00 488.00,842.00 488.00,842.00
             497.94,841.98 507.26,839.96 517.00,838.44
             517.00,838.44 526.00,837.56 526.00,837.56
             526.00,837.56 555.00,831.62 555.00,831.62
             555.00,831.62 568.00,827.09 568.00,827.09
             568.00,827.09 583.00,822.77 583.00,822.77
             583.00,822.77 601.00,818.37 601.00,818.37
             601.00,818.37 610.00,817.07 610.00,817.07
             610.00,817.07 619.00,813.46 619.00,813.46
             634.45,807.42 654.65,803.41 655.91,783.00
             657.00,765.26 641.70,754.30 625.00,756.44 Z
           M 732.00,776.47
           C 721.35,779.00 714.26,785.78 706.00,792.33
             706.00,792.33 692.01,803.17 692.01,803.17
             688.80,806.11 686.55,809.40 682.96,811.90
             675.28,817.25 671.07,816.58 665.00,819.35
             660.27,821.51 658.23,824.16 654.00,826.65
             654.00,826.65 634.00,835.78 634.00,835.78
             622.84,841.07 624.17,843.39 617.00,847.18
             609.48,851.15 601.01,852.88 593.00,855.52
             593.00,855.52 572.00,862.76 572.00,862.76
             559.12,865.94 552.30,865.67 540.00,867.29
             540.00,867.29 512.00,871.00 512.00,871.00
             512.00,871.00 505.00,871.00 505.00,871.00
             497.76,871.09 491.05,873.30 484.00,874.54
             484.00,874.54 456.00,877.00 456.00,877.00
             456.00,877.00 369.00,877.00 369.00,877.00
             356.10,876.98 354.25,874.49 343.00,871.89
             343.00,871.89 325.00,868.29 325.00,868.29
             325.00,868.29 317.00,867.56 317.00,867.56
             309.64,866.41 302.49,864.09 295.00,864.00
             287.09,863.91 282.87,864.45 275.00,861.91
             275.00,861.91 267.00,859.47 267.00,859.47
             267.00,859.47 257.00,858.47 257.00,858.47
             257.00,858.47 247.00,855.47 247.00,855.47
             247.00,855.47 215.00,850.84 215.00,850.84
             203.55,847.75 195.19,840.80 183.00,840.09
             163.06,838.93 149.40,860.62 159.36,878.00
             165.13,888.07 185.00,896.42 196.00,899.80
             196.00,899.80 220.00,904.83 220.00,904.83
             220.00,904.83 234.00,906.37 234.00,906.37
             246.75,908.96 265.37,914.85 278.00,915.00
             294.40,915.19 291.58,916.30 306.00,918.56
             306.00,918.56 316.00,919.68 316.00,919.68
             316.00,919.68 325.00,922.32 325.00,922.32
             325.00,922.32 335.00,923.53 335.00,923.53
             335.00,923.53 343.00,926.08 343.00,926.08
             349.12,927.71 356.69,928.99 363.00,929.00
             363.00,929.00 462.00,929.00 462.00,929.00
             462.00,929.00 494.00,925.56 494.00,925.56
             500.56,924.53 502.83,923.09 510.00,923.00
             529.75,922.77 522.83,921.65 537.00,920.17
             556.09,918.17 571.05,917.27 590.00,912.08
             590.00,912.08 608.00,905.42 608.00,905.42
             608.00,905.42 630.00,898.57 630.00,898.57
             639.11,894.72 642.61,893.02 651.00,887.69
             651.00,887.69 660.00,881.71 660.00,881.71
             660.00,881.71 673.00,876.65 673.00,876.65
             673.00,876.65 691.00,866.03 691.00,866.03
             699.13,862.27 707.77,859.12 715.00,853.63
             715.00,853.63 729.28,840.60 729.28,840.60
             729.28,840.60 743.00,829.46 743.00,829.46
             749.58,824.10 755.85,821.32 759.65,813.00
             768.26,794.11 753.23,773.52 732.00,776.47 Z" />
  <path id="Selection"
        fill="#ffbf68" stroke="none" stroke-width="1"
        d="M 500.00,75.47
           C 483.68,79.35 474.57,95.22 480.93,111.00
             482.29,114.37 494.35,131.80 497.02,135.00
             497.02,135.00 506.31,146.00 506.31,146.00
             506.31,146.00 516.42,168.00 516.42,168.00
             516.42,168.00 523.78,185.00 523.78,185.00
             523.78,185.00 526.21,195.00 526.21,195.00
             528.07,201.24 528.91,200.87 529.00,208.00
             529.00,208.00 529.00,215.00 529.00,215.00
             528.92,221.20 528.17,222.23 527.00,228.00
             527.00,228.00 525.51,237.00 525.51,237.00
             525.51,237.00 515.26,257.00 515.26,257.00
             515.26,257.00 509.73,269.00 509.73,269.00
             509.73,269.00 503.26,281.00 503.26,281.00
             503.26,281.00 497.69,294.00 497.69,294.00
             497.69,294.00 491.86,307.00 491.86,307.00
             491.86,307.00 489.08,318.00 489.08,318.00
             486.31,327.81 484.02,325.35 484.00,339.00
             484.00,339.00 484.00,380.00 484.00,380.00
             484.09,387.01 485.54,390.48 486.56,397.00
             488.00,406.17 488.57,415.04 491.52,424.00
             491.52,424.00 508.22,458.00 508.22,458.00
             508.22,458.00 513.93,470.00 513.93,470.00
             513.93,470.00 522.39,482.00 522.39,482.00
             522.39,482.00 526.35,490.00 526.35,490.00
             528.06,493.07 530.50,496.17 532.63,499.00
             540.65,509.68 548.56,517.26 563.00,514.53
             581.08,511.12 589.69,490.40 580.04,475.00
             580.04,475.00 572.85,465.00 572.85,465.00
             572.85,465.00 567.04,454.00 567.04,454.00
             567.04,454.00 559.21,443.00 559.21,443.00
             559.21,443.00 547.14,419.00 547.14,419.00
             547.14,419.00 540.62,406.00 540.62,406.00
             539.19,401.41 539.33,396.69 538.71,392.00
             537.82,385.19 536.09,381.52 536.00,374.00
             536.00,374.00 536.00,349.00 536.00,349.00
             536.02,335.10 544.39,315.33 550.89,303.00
             550.89,303.00 558.65,290.00 558.65,290.00
             561.51,284.74 561.16,281.96 563.09,278.00
             563.09,278.00 575.45,254.00 575.45,254.00
             577.21,249.07 577.35,244.04 578.37,239.00
             579.68,232.56 580.90,232.90 581.00,225.00
             581.15,212.21 580.91,199.60 578.53,187.00
             578.53,187.00 575.92,178.00 575.92,178.00
             575.92,178.00 573.45,168.00 573.45,168.00
             573.45,168.00 569.33,159.00 569.33,159.00
             569.33,159.00 559.78,137.00 559.78,137.00
             559.78,137.00 551.65,119.00 551.65,119.00
             551.65,119.00 543.31,108.00 543.31,108.00
             543.31,108.00 533.37,95.00 533.37,95.00
             523.75,82.25 517.81,72.98 500.00,75.47 Z
           M 242.00,176.47
           C 238.16,177.38 235.28,178.29 232.00,180.64
             208.35,197.54 230.72,222.60 231.00,246.00
             231.00,246.00 231.00,265.00 231.00,265.00
             230.99,273.92 224.80,297.14 221.56,306.00
             221.56,306.00 213.33,325.00 213.33,325.00
             213.33,325.00 210.45,334.00 210.45,334.00
             210.45,334.00 205.55,345.00 205.55,345.00
             202.88,352.53 198.91,374.00 199.00,382.00
             199.09,389.72 201.44,397.46 203.00,405.00
             203.00,405.00 206.92,424.00 206.92,424.00
             206.92,424.00 211.80,436.00 211.80,436.00
             211.80,436.00 216.43,449.00 216.43,449.00
             219.73,456.70 228.54,469.08 233.65,476.00
             233.65,476.00 238.55,484.00 238.55,484.00
             238.55,484.00 247.37,496.00 247.37,496.00
             257.04,508.89 269.87,524.48 288.00,520.32
             305.20,516.37 312.97,497.15 304.65,482.00
             300.06,473.63 295.79,471.92 290.67,465.91
             290.67,465.91 278.07,448.00 278.07,448.00
             278.07,448.00 270.69,439.00 270.69,439.00
             268.14,435.19 258.15,412.63 256.78,408.00
             256.78,408.00 253.32,391.00 253.32,391.00
             253.32,391.00 251.39,384.00 251.39,384.00
             250.75,380.18 252.55,372.97 253.42,369.00
             255.74,358.52 259.48,352.43 263.65,343.00
             263.65,343.00 266.55,334.00 266.55,334.00
             266.55,334.00 269.80,326.00 269.80,326.00
             269.80,326.00 273.34,315.00 273.34,315.00
             273.34,315.00 276.20,302.00 276.20,302.00
             279.28,291.46 281.98,288.47 282.00,277.00
             282.00,277.00 282.00,238.00 282.00,238.00
             281.99,228.91 280.85,226.51 278.89,218.00
             278.89,218.00 277.08,209.00 277.08,209.00
             275.96,204.81 274.08,200.93 272.30,197.00
             270.97,194.05 269.78,190.71 268.03,188.00
             262.09,178.79 252.62,174.99 242.00,176.47 Z
           M 402.00,279.47
           C 398.56,280.28 396.04,281.02 393.00,282.97
             372.68,296.00 384.79,314.09 385.00,332.00
             385.00,332.00 383.70,363.00 383.70,363.00
             383.70,363.00 379.00,396.00 379.00,396.00
             379.00,396.00 379.00,410.00 379.00,410.00
             379.02,421.90 380.49,419.02 381.81,427.00
             383.01,434.32 384.28,445.26 386.93,452.00
             386.93,452.00 394.37,466.00 394.37,466.00
             394.37,466.00 396.93,474.00 396.93,474.00
             396.93,474.00 401.69,483.00 401.69,483.00
             408.00,494.66 413.98,505.98 429.00,506.91
             442.91,507.76 455.05,496.88 455.91,483.00
             456.79,468.72 437.21,439.79 434.81,428.00
             434.81,428.00 433.70,418.00 433.70,418.00
             432.88,412.28 431.17,409.48 431.01,403.00
             430.74,391.82 432.85,390.74 433.83,382.00
             433.83,382.00 435.00,362.00 435.00,362.00
             435.04,353.85 436.19,353.44 436.92,347.00
             436.92,347.00 436.92,327.00 436.92,327.00
             436.99,318.45 436.02,317.09 434.40,309.00
             433.40,304.00 432.45,297.46 430.17,293.00
             424.56,282.04 413.71,277.83 402.00,279.47 Z" />
</svg>
