<?xml version="1.0" encoding="UTF-8" standalone="no"?>
<!DOCTYPE svg PUBLIC "-//W3C//DTD SVG 20010904//EN"
              "http://www.w3.org/TR/2001/REC-SVG-20010904/DTD/svg10.dtd">

<svg xmlns="http://www.w3.org/2000/svg"
     width="15in" height="15in"
     viewBox="0 0 1080 1080">
  <path id="black"
        fill="black" stroke="none" stroke-width="1"
        d="M 739.00,130.00
           C 740.71,117.01 740.37,118.25 736.42,106.00
             733.44,96.74 731.03,93.52 725.12,86.00
             720.96,80.71 718.53,75.78 713.00,71.39
             707.20,66.79 698.93,63.33 692.00,60.92
             685.62,58.70 682.13,56.73 675.00,55.46
             662.53,53.25 641.29,53.98 628.00,54.00
             628.00,54.00 612.00,55.00 612.00,55.00
             612.00,55.00 606.00,55.00 606.00,55.00
             598.10,55.10 598.44,56.32 592.00,57.63
             592.00,57.63 580.00,59.67 580.00,59.67
             574.90,60.96 559.46,67.34 555.00,70.24
             541.06,79.31 529.90,93.61 523.92,109.00
             522.33,113.10 522.45,115.15 521.49,119.00
             521.49,119.00 519.21,126.00 519.21,126.00
             518.52,128.29 518.11,131.59 516.42,133.30
             514.71,135.02 511.54,135.96 509.28,134.89
             509.28,134.89 501.00,127.64 501.00,127.64
             494.93,123.30 489.14,122.92 482.00,123.00
             467.59,123.17 464.60,127.75 453.00,131.23
             453.00,131.23 435.00,136.20 435.00,136.20
             435.00,136.20 419.00,141.32 419.00,141.32
             419.00,141.32 405.00,143.21 405.00,143.21
             397.10,144.88 385.80,147.91 378.00,148.14
             378.00,148.14 366.00,148.14 366.00,148.14
             357.32,149.42 356.20,150.98 346.00,151.00
             346.00,151.00 268.00,151.00 268.00,151.00
             261.44,151.01 252.19,152.36 246.00,154.55
             246.00,154.55 237.00,158.23 237.00,158.23
             237.00,158.23 229.00,160.22 229.00,160.22
             223.88,161.83 207.33,169.23 203.00,172.22
             198.32,175.44 185.83,186.54 182.63,191.00
             182.63,191.00 174.76,206.00 174.76,206.00
             174.76,206.00 168.20,215.00 168.20,215.00
             160.62,225.92 155.00,236.46 150.55,249.00
             150.55,249.00 145.21,268.00 145.21,268.00
             145.21,268.00 141.91,283.00 141.91,283.00
             141.91,283.00 137.66,295.00 137.66,295.00
             135.78,302.53 135.69,310.32 134.83,318.00
             134.83,318.00 132.44,330.00 132.44,330.00
             132.44,330.00 131.56,339.00 131.56,339.00
             131.56,339.00 125.86,376.00 125.86,376.00
             125.86,376.00 125.86,388.00 125.86,388.00
             124.58,396.68 123.02,397.80 122.91,408.00
             122.91,408.00 122.91,422.00 122.91,422.00
             122.91,422.00 120.94,431.00 120.94,431.00
             120.94,431.00 120.94,442.00 120.94,442.00
             119.18,453.75 115.02,465.05 115.00,477.00
             115.00,477.00 115.00,516.00 115.00,516.00
             115.00,516.00 117.00,537.00 117.00,537.00
             117.00,537.00 117.00,610.00 117.00,610.00
             116.98,624.12 112.37,628.04 111.00,640.00
             111.00,640.00 111.00,650.00 111.00,650.00
             111.00,650.00 109.00,664.00 109.00,664.00
             109.00,664.00 108.00,698.00 108.00,698.00
             108.00,698.00 106.00,719.00 106.00,719.00
             106.00,719.00 106.00,739.00 106.00,739.00
             106.00,739.00 107.83,760.00 107.83,760.00
             108.59,768.01 107.29,769.67 109.92,779.00
             109.92,779.00 119.74,801.00 119.74,801.00
             119.74,801.00 127.43,817.00 127.43,817.00
             130.62,822.52 132.12,823.46 135.37,828.00
             145.70,842.42 152.76,851.30 168.00,861.04
             184.05,871.30 202.73,875.18 221.00,879.21
             221.00,879.21 233.00,882.53 233.00,882.53
             233.00,882.53 242.00,883.44 242.00,883.44
             242.00,883.44 259.00,886.71 259.00,886.71
             259.00,886.71 284.00,888.00 284.00,888.00
             284.00,888.00 310.00,889.17 310.00,889.17
             310.00,889.17 320.00,891.00 320.00,891.00
             320.00,891.00 329.00,891.00 329.00,891.00
             329.00,891.00 339.00,893.00 339.00,893.00
             339.00,893.00 349.00,893.00 349.00,893.00
             349.00,893.00 375.00,896.29 375.00,896.29
             375.00,896.29 392.00,899.56 392.00,899.56
             392.00,899.56 401.00,900.44 401.00,900.44
             406.25,901.26 407.19,901.93 413.00,902.00
             413.00,902.00 430.00,902.00 430.00,902.00
             430.00,902.00 445.00,903.00 445.00,903.00
             445.00,903.00 488.00,903.00 488.00,903.00
             488.00,903.00 514.00,905.00 514.00,905.00
             514.00,905.00 532.00,905.00 532.00,905.00
             532.00,905.00 559.00,908.00 559.00,908.00
             559.00,908.00 633.00,908.00 633.00,908.00
             633.00,908.00 658.00,906.00 658.00,906.00
             658.00,906.00 688.00,908.00 688.00,908.00
             688.00,908.00 714.00,909.91 714.00,909.91
             714.00,909.91 730.00,909.00 730.00,909.00
             730.00,909.00 753.00,909.00 753.00,909.00
             762.32,908.99 768.99,906.80 778.00,905.00
             778.00,905.00 803.00,899.78 803.00,899.78
             803.00,899.78 814.00,895.49 814.00,895.49
             814.00,895.49 857.00,885.07 857.00,885.07
             857.00,885.07 882.00,869.59 882.00,869.59
             891.47,864.09 896.31,864.29 904.83,854.99
             914.82,844.07 916.55,836.63 923.21,825.00
             925.86,820.36 929.33,817.68 932.17,812.00
             938.20,799.96 938.15,790.00 938.00,777.00
             938.00,777.00 936.00,757.00 936.00,757.00
             936.00,757.00 936.00,725.00 936.00,725.00
             936.00,725.00 938.00,704.00 938.00,704.00
             938.00,704.00 938.00,684.00 938.00,684.00
             938.00,684.00 935.00,647.00 935.00,647.00
             935.00,647.00 935.00,549.00 935.00,549.00
             934.99,539.72 932.05,529.24 930.20,520.00
             930.20,520.00 927.39,501.00 927.39,501.00
             927.39,501.00 922.44,476.00 922.44,476.00
             922.44,476.00 921.54,467.00 921.54,467.00
             921.54,467.00 918.29,451.00 918.29,451.00
             918.29,451.00 917.56,438.00 917.56,438.00
             917.56,438.00 913.44,417.00 913.44,417.00
             913.44,417.00 912.53,408.00 912.53,408.00
             912.53,408.00 910.37,400.00 910.37,400.00
             910.37,400.00 901.58,354.00 901.58,354.00
             901.58,354.00 897.51,340.00 897.51,340.00
             897.51,340.00 894.79,326.00 894.79,326.00
             894.79,326.00 890.60,309.00 890.60,309.00
             890.60,309.00 888.08,294.00 888.08,294.00
             888.08,294.00 880.39,270.00 880.39,270.00
             880.39,270.00 873.95,255.00 873.95,255.00
             873.95,255.00 872.07,242.00 872.07,242.00
             872.07,242.00 865.77,226.00 865.77,226.00
             865.77,226.00 863.14,216.00 863.14,216.00
             863.14,216.00 857.74,203.00 857.74,203.00
             855.02,194.96 853.64,187.89 848.32,181.00
             841.08,171.62 838.50,173.23 832.00,167.79
             821.13,158.70 810.12,149.15 797.00,143.35
             797.00,143.35 767.00,136.40 767.00,136.40
             767.00,136.40 752.00,133.34 752.00,133.34
             746.48,131.96 745.35,130.90 739.00,130.00 Z
           M 680.00,116.00
           C 680.00,116.00 646.00,114.00 646.00,114.00
             646.00,114.00 629.00,114.00 629.00,114.00
             629.00,114.00 585.00,121.00 585.00,121.00
             585.00,121.00 577.00,121.00 577.00,121.00
             582.25,113.92 592.60,110.99 601.00,109.39
             601.00,109.39 612.00,107.00 612.00,107.00
             612.00,107.00 622.00,107.00 622.00,107.00
             622.00,107.00 632.00,105.08 632.00,105.08
             632.00,105.08 652.00,105.08 652.00,105.08
             658.16,105.01 673.22,107.34 677.58,111.51
             679.14,113.00 679.33,114.10 680.00,116.00 Z
           M 681.00,116.00
           C 681.00,116.00 681.00,117.00 681.00,117.00
             681.00,117.00 680.00,116.00 680.00,116.00
             680.00,116.00 681.00,116.00 681.00,116.00 Z
           M 631.00,165.29
           C 635.12,164.90 645.01,164.77 649.00,165.29
             649.00,165.29 658.00,166.83 658.00,166.83
             658.00,166.83 687.00,170.37 687.00,170.37
             687.00,170.37 703.00,175.08 703.00,175.08
             703.00,175.08 714.00,176.68 714.00,176.68
             714.00,176.68 723.00,179.32 723.00,179.32
             723.00,179.32 733.00,181.44 733.00,181.44
             733.00,181.44 742.00,184.34 742.00,184.34
             742.00,184.34 776.00,190.99 776.00,190.99
             781.56,193.12 794.43,203.67 799.00,208.00
             799.00,208.00 806.18,214.59 806.18,214.59
             806.18,214.59 811.14,226.00 811.14,226.00
             811.14,226.00 821.39,256.00 821.39,256.00
             821.39,256.00 822.92,265.00 822.92,265.00
             822.92,265.00 831.23,286.00 831.23,286.00
             831.23,286.00 833.21,294.00 833.21,294.00
             833.21,294.00 837.63,308.00 837.63,308.00
             837.63,308.00 839.43,320.00 839.43,320.00
             839.43,320.00 842.76,331.00 842.76,331.00
             842.76,331.00 847.21,353.00 847.21,353.00
             847.21,353.00 851.10,366.00 851.10,366.00
             851.10,366.00 855.60,389.00 855.60,389.00
             855.60,389.00 861.39,417.00 861.39,417.00
             861.39,417.00 862.44,427.00 862.44,427.00
             862.44,427.00 866.56,448.00 866.56,448.00
             866.56,448.00 867.17,460.00 867.17,460.00
             867.17,460.00 870.39,476.00 870.39,476.00
             870.39,476.00 871.44,486.00 871.44,486.00
             871.44,486.00 875.56,507.00 875.56,507.00
             875.56,507.00 878.00,524.00 878.00,524.00
             880.06,533.93 882.98,543.81 883.00,554.00
             883.00,554.00 883.00,652.00 883.00,652.00
             883.00,652.00 884.29,669.00 884.29,669.00
             885.12,675.33 885.96,675.65 886.00,683.00
             886.00,683.00 886.00,703.00 886.00,703.00
             886.00,703.00 885.14,720.00 885.14,720.00
             885.14,720.00 885.14,767.00 885.14,767.00
             885.01,772.55 886.75,781.37 885.14,786.00
             884.38,789.71 880.41,793.92 878.26,798.00
             875.15,803.93 872.21,813.14 867.67,817.79
             864.19,821.35 859.18,822.42 855.00,824.93
             855.00,824.93 839.00,835.92 839.00,835.92
             839.00,835.92 798.00,845.92 798.00,845.92
             798.00,845.92 789.00,849.37 789.00,849.37
             789.00,849.37 779.00,850.92 779.00,850.92
             767.91,853.79 756.59,857.86 745.00,858.00
             745.00,858.00 723.00,858.00 723.00,858.00
             723.00,858.00 703.00,856.08 703.00,856.08
             703.00,856.08 689.00,856.08 689.00,856.08
             689.00,856.08 677.00,855.04 677.00,855.04
             677.00,855.04 662.00,855.04 662.00,855.04
             662.00,855.04 650.00,854.10 650.00,854.10
             644.04,854.37 642.92,855.98 633.00,856.00
             633.00,856.00 564.00,856.00 564.00,856.00
             564.00,856.00 537.00,853.00 537.00,853.00
             537.00,853.00 512.00,853.00 512.00,853.00
             512.00,853.00 493.00,851.18 493.00,851.18
             493.00,851.18 479.00,852.00 479.00,852.00
             479.00,852.00 455.00,852.00 455.00,852.00
             455.00,852.00 430.00,850.00 430.00,850.00
             430.00,850.00 418.00,850.00 418.00,850.00
             408.82,849.89 400.00,847.85 391.00,846.44
             391.00,846.44 382.00,845.56 382.00,845.56
             382.00,845.56 365.00,842.10 365.00,842.10
             365.00,842.10 355.00,842.10 355.00,842.10
             355.00,842.10 334.00,839.83 334.00,839.83
             334.00,839.83 305.00,836.96 305.00,836.96
             305.00,836.96 290.00,836.96 290.00,836.96
             290.00,836.96 281.00,835.15 281.00,835.15
             281.00,835.15 270.00,835.15 270.00,835.15
             260.25,834.95 242.42,830.31 232.00,828.42
             217.16,825.74 198.38,821.58 187.17,810.79
             178.91,802.84 172.67,791.20 167.74,781.00
             161.46,767.99 159.02,765.55 159.00,751.00
             159.00,751.00 158.05,736.00 158.05,736.00
             158.05,736.00 158.05,720.00 158.05,720.00
             158.05,720.00 159.08,710.00 159.08,710.00
             159.08,710.00 159.08,694.00 159.08,694.00
             159.88,686.90 160.99,686.96 161.00,678.00
             161.00,678.00 162.10,659.00 162.10,659.00
             162.10,659.00 162.10,649.00 162.10,649.00
             163.88,636.79 167.98,633.82 168.00,619.00
             168.00,619.00 168.00,528.00 168.00,528.00
             168.00,528.00 167.00,511.00 167.00,511.00
             167.00,511.00 167.00,482.00 167.00,482.00
             167.02,471.65 169.99,463.04 171.56,453.00
             171.56,453.00 174.14,427.00 174.14,427.00
             174.14,427.00 174.14,410.00 174.14,410.00
             174.14,410.00 176.91,396.00 176.91,396.00
             176.91,396.00 179.29,366.00 179.29,366.00
             179.29,366.00 181.56,354.00 181.56,354.00
             181.56,354.00 182.44,345.00 182.44,345.00
             182.44,345.00 185.56,329.00 185.56,329.00
             185.56,329.00 188.60,307.00 188.60,307.00
             188.60,307.00 193.08,292.00 193.08,292.00
             193.08,292.00 197.21,274.00 197.21,274.00
             197.21,274.00 202.46,261.00 202.46,261.00
             205.00,254.03 204.47,253.54 209.15,247.00
             209.15,247.00 220.07,232.00 220.07,232.00
             223.45,226.36 222.70,224.40 228.04,219.04
             235.85,211.21 243.36,210.82 253.00,207.78
             263.03,204.61 260.32,203.02 273.00,203.00
             273.00,203.00 348.00,203.00 348.00,203.00
             348.00,203.00 371.00,200.29 371.00,200.29
             371.00,200.29 383.00,199.71 383.00,199.71
             383.00,199.71 419.00,193.44 419.00,193.44
             419.00,193.44 427.00,192.71 427.00,192.71
             427.00,192.71 440.00,189.80 440.00,189.80
             443.04,189.50 445.99,190.97 449.00,191.77
             452.34,192.16 457.49,192.04 461.00,191.77
             461.00,191.77 475.00,191.00 475.00,191.00
             475.00,191.00 494.00,191.00 494.00,191.00
             506.28,190.98 518.26,187.09 530.00,183.92
             530.00,183.92 560.00,177.45 560.00,177.45
             560.00,177.45 583.00,173.17 583.00,173.17
             583.00,173.17 595.00,172.56 595.00,172.56
             595.00,172.56 631.00,165.29 631.00,165.29 Z
           M 329.00,393.22
           C 329.00,393.22 313.00,395.68 313.00,395.68
             308.93,396.60 305.16,398.77 301.00,398.82
             301.00,398.82 284.00,397.00 284.00,397.00
             269.69,396.98 259.02,397.57 246.00,404.80
             240.14,408.05 226.96,421.53 222.46,427.00
             211.32,440.54 205.33,456.73 199.55,473.00
             199.55,473.00 196.39,483.00 196.39,483.00
             187.78,505.00 175.04,533.15 175.08,557.00
             175.08,557.00 175.08,581.00 175.08,581.00
             175.08,581.00 177.71,595.00 177.71,595.00
             177.71,595.00 178.68,604.00 178.68,604.00
             178.68,604.00 183.51,618.00 183.51,618.00
             183.51,618.00 188.55,641.00 188.55,641.00
             188.55,641.00 194.73,653.00 194.73,653.00
             194.73,653.00 203.62,671.00 203.62,671.00
             203.62,671.00 211.90,682.00 211.90,682.00
             214.36,685.71 215.05,688.35 218.21,691.99
             224.66,699.41 241.79,713.35 251.00,717.07
             251.00,717.07 273.00,722.20 273.00,722.20
             278.96,723.39 284.89,724.92 291.00,725.00
             304.05,725.15 324.65,725.56 337.00,723.20
             337.00,723.20 375.00,711.39 375.00,711.39
             375.00,711.39 389.00,705.55 389.00,705.55
             406.25,699.40 423.60,694.21 439.00,683.78
             448.34,677.46 457.24,670.28 464.91,662.00
             464.91,662.00 477.09,647.46 477.09,647.46
             477.09,647.46 485.00,640.91 485.00,640.91
             485.00,640.91 497.00,629.17 497.00,629.17
             511.97,615.80 509.64,619.77 520.46,602.00
             526.80,591.60 530.94,586.95 531.00,574.00
             531.00,574.00 531.00,558.00 531.00,558.00
             530.86,546.48 526.04,536.68 522.52,526.00
             522.52,526.00 519.65,517.00 519.65,517.00
             519.65,517.00 514.63,508.00 514.63,508.00
             514.63,508.00 512.45,501.00 512.45,501.00
             512.45,501.00 508.14,491.00 508.14,491.00
             501.67,476.76 486.41,452.32 475.91,441.00
             469.40,433.98 460.20,425.90 452.00,420.93
             452.00,420.93 442.00,415.54 442.00,415.54
             442.00,415.54 434.00,410.34 434.00,410.34
             424.12,404.69 403.35,397.14 392.00,396.84
             392.00,396.84 380.00,396.84 380.00,396.84
             372.24,395.33 374.11,393.02 361.00,393.22
             361.00,393.22 329.00,393.22 329.00,393.22 Z
           M 345.00,444.34
           C 361.84,442.36 361.21,446.92 375.00,448.86
             375.00,448.86 386.00,448.86 386.00,448.86
             392.60,449.09 402.33,452.20 408.00,455.61
             408.00,455.61 415.00,460.45 415.00,460.45
             415.00,460.45 428.83,467.64 428.83,467.64
             440.09,476.51 455.92,500.65 461.66,514.00
             461.66,514.00 465.33,525.00 465.33,525.00
             465.33,525.00 472.80,541.00 472.80,541.00
             472.80,541.00 477.19,554.00 477.19,554.00
             478.70,558.68 480.85,562.93 479.50,568.00
             475.58,582.77 454.82,597.46 444.00,608.01
             444.00,608.01 432.17,620.00 432.17,620.00
             425.46,627.51 425.24,630.09 416.00,636.84
             401.15,647.70 385.90,651.52 369.00,657.55
             369.00,657.55 352.00,664.56 352.00,664.56
             352.00,664.56 340.00,667.86 340.00,667.86
             331.44,670.86 328.72,672.88 319.00,673.00
             319.00,673.00 296.00,673.00 296.00,673.00
             289.15,672.92 273.83,670.02 268.00,666.64
             260.17,662.10 256.89,656.03 252.10,649.00
             244.21,637.41 247.13,641.91 241.19,630.00
             241.19,630.00 237.68,623.00 237.68,623.00
             237.68,623.00 234.09,607.00 234.09,607.00
             230.74,595.17 227.06,583.45 227.00,571.00
             227.00,571.00 227.00,561.00 227.00,561.00
             227.01,553.99 229.23,541.58 231.55,535.00
             231.55,535.00 235.77,525.00 235.77,525.00
             235.77,525.00 245.99,499.00 245.99,499.00
             252.38,483.29 251.19,475.40 262.63,460.00
             265.07,456.71 268.32,452.03 272.00,450.17
             280.36,445.96 285.27,455.78 297.00,454.81
             297.00,454.81 306.00,453.19 306.00,453.19
             313.21,452.59 317.72,456.59 327.00,454.07
             336.08,451.62 337.26,446.60 345.00,444.34 Z" />
  <path id="blue"
        fill="#c0f5ff" stroke="none" stroke-width="1"
        d="M 344.00,444.57
           C 337.07,447.28 335.22,451.85 327.00,454.07
             318.95,456.25 316.16,453.72 309.00,453.18
             303.97,452.80 301.42,454.45 297.00,454.81
             285.27,455.78 280.36,445.96 272.00,450.17
             268.32,452.03 265.07,456.71 262.63,460.00
             251.19,475.40 252.38,483.29 245.99,499.00
             245.99,499.00 235.77,525.00 235.77,525.00
             235.77,525.00 231.55,535.00 231.55,535.00
             229.23,541.58 227.01,553.99 227.00,561.00
             227.00,561.00 227.00,572.00 227.00,572.00
             227.14,584.03 230.85,595.56 234.09,607.00
             234.09,607.00 237.68,623.00 237.68,623.00
             237.68,623.00 241.19,630.00 241.19,630.00
             247.13,641.91 244.21,637.41 252.10,649.00
             256.89,656.03 260.17,662.10 268.00,666.64
             273.83,670.02 289.15,672.92 296.00,673.00
             296.00,673.00 326.00,672.38 326.00,672.38
             332.52,671.21 334.23,669.88 340.00,667.86
             340.00,667.86 352.00,664.56 352.00,664.56
             352.00,664.56 369.00,657.55 369.00,657.55
             385.90,651.52 401.15,647.70 416.00,636.84
             425.24,630.09 425.46,627.51 432.17,620.00
             432.17,620.00 444.00,608.01 444.00,608.01
             454.82,597.46 475.58,582.77 479.50,568.00
             480.85,562.93 478.70,558.68 477.19,554.00
             477.19,554.00 472.80,541.00 472.80,541.00
             472.80,541.00 465.33,525.00 465.33,525.00
             465.33,525.00 461.66,514.00 461.66,514.00
             455.92,500.65 440.09,476.51 428.83,467.64
             428.83,467.64 415.00,460.45 415.00,460.45
             415.00,460.45 408.00,455.61 408.00,455.61
             402.33,452.20 392.60,449.09 386.00,448.86
             386.00,448.86 375.00,448.86 375.00,448.86
             362.01,447.02 359.30,441.80 344.00,444.57 Z" />
  <path id="red"
        fill="#ff6767" stroke="none" stroke-width="1"
        d="M 702.00,235.23
           C 682.47,240.11 674.70,259.76 679.13,278.00
             680.01,281.63 680.92,284.81 682.97,288.00
             691.34,301.05 710.04,308.04 725.00,308.91
             730.23,309.21 734.34,307.98 739.00,305.74
             744.83,302.94 749.34,299.75 752.64,294.00
             758.08,284.50 756.85,263.47 751.65,254.00
             744.65,241.24 733.27,235.02 719.00,235.23
             713.43,234.99 707.48,234.70 702.00,235.23 Z" />
  <path id="gray"
        fill="#b9b9b9" stroke="none" stroke-width="1"
        d="M 577.00,120.86
           C 577.00,120.86 590.00,120.86 590.00,120.86
             590.00,120.86 629.00,114.00 629.00,114.00
             629.00,114.00 647.00,114.00 647.00,114.00
             647.00,114.00 680.00,116.00 680.00,116.00
             679.33,114.10 679.14,113.00 677.58,111.51
             673.85,107.95 659.40,105.07 654.00,105.09
             654.00,105.09 632.00,105.09 632.00,105.09
             632.00,105.09 622.00,107.00 622.00,107.00
             622.00,107.00 612.00,107.00 612.00,107.00
             612.00,107.00 601.00,109.39 601.00,109.39
             592.60,110.99 582.25,113.92 577.00,120.86 Z
           M 630.00,165.36
           C 630.00,165.36 595.00,172.56 595.00,172.56
             595.00,172.56 583.00,173.17 583.00,173.17
             583.00,173.17 560.00,177.45 560.00,177.45
             560.00,177.45 530.00,183.92 530.00,183.92
             518.26,187.09 506.28,190.98 494.00,191.00
             494.00,191.00 474.00,191.00 474.00,191.00
             474.00,191.00 461.00,191.77 461.00,191.77
             457.49,192.04 452.34,192.16 449.00,191.77
             445.99,190.97 443.04,189.50 440.00,189.80
             440.00,189.80 427.00,192.71 427.00,192.71
             427.00,192.71 419.00,193.44 419.00,193.44
             419.00,193.44 383.00,199.71 383.00,199.71
             383.00,199.71 371.00,200.29 371.00,200.29
             371.00,200.29 348.00,203.00 348.00,203.00
             348.00,203.00 273.00,203.00 273.00,203.00
             261.82,203.02 263.52,204.10 254.00,207.45
             245.93,210.30 238.52,210.47 231.00,216.39
             222.63,222.97 223.55,227.25 218.09,235.00
             214.54,240.04 207.91,247.94 205.38,253.00
             205.38,253.00 202.08,262.00 202.08,262.00
             195.65,278.36 197.36,274.86 193.34,291.00
             193.34,291.00 188.37,308.00 188.37,308.00
             188.37,308.00 187.54,315.00 187.54,315.00
             187.54,315.00 181.71,353.00 181.71,353.00
             181.71,353.00 179.17,367.00 179.17,367.00
             179.17,367.00 176.91,396.00 176.91,396.00
             176.39,403.13 174.05,405.59 174.00,416.00
             173.94,428.28 173.46,440.85 171.56,453.00
             169.99,463.04 167.02,471.65 167.00,482.00
             167.00,482.00 167.00,512.00 167.00,512.00
             167.00,512.00 168.00,526.00 168.00,526.00
             168.00,526.00 168.00,619.00 168.00,619.00
             167.98,633.37 164.34,635.85 162.44,648.00
             162.44,648.00 161.00,678.00 161.00,678.00
             161.00,678.00 159.00,698.00 159.00,698.00
             159.00,698.00 158.00,734.00 158.00,734.00
             158.00,734.00 159.00,751.00 159.00,751.00
             159.02,765.55 161.46,767.99 167.74,781.00
             172.67,791.20 178.91,802.84 187.17,810.79
             200.12,823.26 220.31,825.77 237.00,829.42
             244.28,831.02 262.36,834.92 269.00,835.08
             269.00,835.08 280.00,835.08 280.00,835.08
             287.01,835.92 285.07,836.98 295.00,837.00
             295.00,837.00 344.00,840.83 344.00,840.83
             344.00,840.83 356.00,842.12 356.00,842.12
             356.00,842.12 365.00,842.12 365.00,842.12
             365.00,842.12 382.00,845.56 382.00,845.56
             382.00,845.56 390.00,846.29 390.00,846.29
             390.00,846.29 403.00,848.71 403.00,848.71
             403.00,848.71 428.00,850.00 428.00,850.00
             428.00,850.00 455.00,852.00 455.00,852.00
             455.00,852.00 490.00,851.18 490.00,851.18
             490.00,851.18 512.00,853.00 512.00,853.00
             512.00,853.00 538.00,853.00 538.00,853.00
             538.00,853.00 564.00,856.00 564.00,856.00
             564.00,856.00 633.00,856.00 633.00,856.00
             642.92,855.98 644.04,854.37 650.00,854.10
             650.00,854.10 662.00,855.00 662.00,855.00
             662.00,855.00 697.00,856.00 697.00,856.00
             697.00,856.00 723.00,858.00 723.00,858.00
             723.00,858.00 743.00,858.00 743.00,858.00
             755.41,857.98 767.13,853.99 779.00,850.92
             779.00,850.92 789.00,849.37 789.00,849.37
             789.00,849.37 797.00,846.22 797.00,846.22
             797.00,846.22 839.00,835.92 839.00,835.92
             839.00,835.92 855.00,824.93 855.00,824.93
             859.90,821.99 864.58,821.45 868.47,816.90
             872.55,812.13 875.25,803.74 878.26,798.00
             880.63,793.49 884.72,789.59 885.66,785.00
             886.69,779.95 885.06,774.21 885.00,769.00
             885.00,769.00 885.00,720.00 885.00,720.00
             885.00,720.00 886.00,703.00 886.00,703.00
             886.00,703.00 886.00,682.00 886.00,682.00
             885.92,675.88 885.00,674.41 884.29,669.00
             884.29,669.00 883.00,652.00 883.00,652.00
             883.00,652.00 883.00,554.00 883.00,554.00
             882.98,543.81 880.06,533.93 878.00,524.00
             878.00,524.00 875.56,507.00 875.56,507.00
             875.56,507.00 871.44,486.00 871.44,486.00
             871.44,486.00 870.39,476.00 870.39,476.00
             870.39,476.00 867.17,460.00 867.17,460.00
             867.17,460.00 866.56,448.00 866.56,448.00
             866.56,448.00 862.44,427.00 862.44,427.00
             862.44,427.00 861.39,417.00 861.39,417.00
             861.39,417.00 855.60,389.00 855.60,389.00
             855.60,389.00 851.10,366.00 851.10,366.00
             851.10,366.00 847.21,353.00 847.21,353.00
             847.21,353.00 842.76,331.00 842.76,331.00
             842.76,331.00 839.43,320.00 839.43,320.00
             839.43,320.00 837.63,308.00 837.63,308.00
             837.63,308.00 833.21,294.00 833.21,294.00
             833.21,294.00 831.23,286.00 831.23,286.00
             831.23,286.00 822.92,265.00 822.92,265.00
             822.92,265.00 821.39,256.00 821.39,256.00
             821.39,256.00 811.14,226.00 811.14,226.00
             811.14,226.00 806.18,214.59 806.18,214.59
             806.18,214.59 799.00,208.00 799.00,208.00
             794.43,203.67 781.56,193.12 776.00,190.99
             776.00,190.99 742.00,184.34 742.00,184.34
             742.00,184.34 733.00,181.44 733.00,181.44
             733.00,181.44 723.00,179.32 723.00,179.32
             723.00,179.32 714.00,176.68 714.00,176.68
             714.00,176.68 703.00,175.08 703.00,175.08
             703.00,175.08 687.00,170.37 687.00,170.37
             687.00,170.37 658.00,166.83 658.00,166.83
             658.00,166.83 649.00,165.36 649.00,165.36
             644.56,164.71 634.49,164.86 630.00,165.36 Z
           M 703.00,235.30
           C 722.55,233.35 741.11,234.79 751.65,254.00
             756.85,263.47 758.08,284.50 752.64,294.00
             749.34,299.75 744.83,302.94 739.00,305.74
             734.34,307.98 730.23,309.21 725.00,308.91
             710.04,308.04 691.34,301.05 682.97,288.00
             680.92,284.81 680.01,281.63 679.13,278.00
             674.62,259.45 682.85,239.24 703.00,235.30 Z
           M 330.00,393.14
           C 330.00,393.14 362.00,393.14 362.00,393.14
             373.48,393.05 373.07,395.47 380.00,396.84
             380.00,396.84 392.00,396.84 392.00,396.84
             403.35,397.14 424.12,404.69 434.00,410.34
             434.00,410.34 442.00,415.54 442.00,415.54
             442.00,415.54 452.00,420.93 452.00,420.93
             460.32,425.98 470.36,434.75 476.83,442.00
             489.38,456.06 504.33,481.49 511.67,499.00
             511.67,499.00 514.63,508.00 514.63,508.00
             514.63,508.00 519.65,517.00 519.65,517.00
             519.65,517.00 522.52,526.00 522.52,526.00
             526.04,536.68 530.86,546.48 531.00,558.00
             531.00,558.00 531.00,575.00 531.00,575.00
             530.85,587.03 526.33,592.37 520.46,602.00
             509.64,619.77 511.97,615.80 497.00,629.17
             497.00,629.17 485.00,640.91 485.00,640.91
             485.00,640.91 477.09,647.46 477.09,647.46
             477.09,647.46 464.91,662.00 464.91,662.00
             457.24,670.28 448.34,677.46 439.00,683.78
             423.60,694.21 406.25,699.40 389.00,705.55
             389.00,705.55 375.00,711.39 375.00,711.39
             375.00,711.39 337.00,723.20 337.00,723.20
             324.65,725.56 304.05,725.15 291.00,725.00
             284.89,724.92 278.96,723.39 273.00,722.20
             273.00,722.20 251.00,717.07 251.00,717.07
             241.79,713.35 224.66,699.41 218.21,691.99
             215.05,688.35 214.36,685.71 211.90,682.00
             211.90,682.00 203.62,671.00 203.62,671.00
             203.62,671.00 194.73,653.00 194.73,653.00
             194.73,653.00 188.55,641.00 188.55,641.00
             188.55,641.00 183.51,618.00 183.51,618.00
             183.51,618.00 178.68,604.00 178.68,604.00
             178.68,604.00 177.71,595.00 177.71,595.00
             177.71,595.00 175.08,581.00 175.08,581.00
             175.08,581.00 175.08,557.00 175.08,557.00
             175.04,533.15 187.78,505.00 196.39,483.00
             196.39,483.00 199.55,473.00 199.55,473.00
             205.33,456.73 211.32,440.54 222.46,427.00
             227.51,420.87 240.23,407.82 247.00,404.26
             260.30,397.29 270.54,396.93 285.00,397.00
             285.00,397.00 301.00,398.82 301.00,398.82
             305.16,398.77 308.93,396.60 313.00,395.68
             313.00,395.68 321.00,394.83 321.00,394.83
             321.00,394.83 330.00,393.14 330.00,393.14 Z" />
</svg>
