<?xml version="1.0" encoding="UTF-8" standalone="no"?>
<!DOCTYPE svg PUBLIC "-//W3C//DTD SVG 20010904//EN"
              "http://www.w3.org/TR/2001/REC-SVG-20010904/DTD/svg10.dtd">

<svg xmlns="http://www.w3.org/2000/svg"
     width="3.6in" height="3.6in"
     viewBox="0 0 1080 1080">
  <path id="Selection"
        fill="#ff2b2b" stroke="none" stroke-width="1"
        d="M 853.00,166.47
           C 831.50,171.58 828.66,191.70 825.00,210.00
             825.00,210.00 816.44,247.00 816.44,247.00
             816.44,247.00 815.91,258.00 815.91,258.00
             815.91,258.00 814.00,274.00 814.00,274.00
             814.00,274.00 814.00,284.00 814.00,284.00
             814.00,284.00 810.00,330.00 810.00,330.00
             810.00,330.00 807.00,364.00 807.00,364.00
             807.00,364.00 807.00,417.00 807.00,417.00
             807.00,417.00 804.96,439.00 804.96,439.00
             804.96,439.00 804.96,448.00 804.96,448.00
             803.86,457.67 801.02,462.74 801.00,474.00
             801.00,474.00 798.00,519.00 798.00,519.00
             798.00,519.00 796.00,544.00 796.00,544.00
             796.00,544.00 796.00,572.00 796.00,572.00
             796.00,572.00 795.00,591.00 795.00,591.00
             795.00,591.00 793.00,613.00 793.00,613.00
             793.00,613.00 793.00,647.00 793.00,647.00
             793.02,660.46 795.78,658.93 796.82,667.00
             798.10,676.91 799.19,687.40 802.22,697.00
             802.22,697.00 805.78,706.00 805.78,706.00
             808.55,714.53 811.29,722.64 816.64,730.00
             822.82,738.51 828.82,745.22 840.00,745.91
             853.53,746.74 862.91,736.93 870.37,727.00
             874.60,721.37 876.89,718.83 879.12,712.00
             879.12,712.00 890.09,684.00 890.09,684.00
             893.60,671.76 896.98,644.85 897.00,632.00
             897.00,632.00 899.00,610.00 899.00,610.00
             899.00,610.00 899.00,577.00 899.00,577.00
             899.00,577.00 900.00,560.00 900.00,560.00
             900.00,560.00 901.17,536.00 901.17,536.00
             901.17,536.00 902.83,526.00 902.83,526.00
             902.83,526.00 904.17,506.00 904.17,506.00
             904.17,506.00 908.00,466.00 908.00,466.00
             908.00,466.00 908.00,456.00 908.00,456.00
             908.00,456.00 909.00,441.00 909.00,441.00
             909.00,441.00 909.00,382.00 909.00,382.00
             909.00,382.00 906.17,351.00 906.17,351.00
             906.17,351.00 904.39,328.00 904.39,328.00
             901.48,311.45 896.20,294.89 895.92,278.00
             895.92,278.00 895.92,267.00 895.92,267.00
             895.92,267.00 894.33,258.00 894.33,258.00
             894.00,254.20 895.25,250.65 896.12,247.00
             896.12,247.00 898.92,234.00 898.92,234.00
             901.54,224.29 905.15,217.33 901.45,207.00
             899.64,201.92 896.36,197.79 892.00,194.63
             889.75,193.01 886.54,191.81 884.93,189.61
             883.12,187.14 883.26,183.04 880.03,178.00
             873.83,168.34 863.98,164.93 853.00,166.47 Z
           M 465.00,180.47
           C 448.93,184.29 446.01,193.69 442.88,208.00
             441.45,214.55 442.40,216.31 441.83,222.00
             441.83,222.00 439.44,235.00 439.44,235.00
             439.44,235.00 438.71,243.00 438.71,243.00
             438.71,243.00 435.29,266.00 435.29,266.00
             435.29,266.00 433.83,282.00 433.83,282.00
             433.83,282.00 432.14,291.00 432.14,291.00
             432.14,291.00 432.14,303.00 432.14,303.00
             432.14,303.00 430.00,328.00 430.00,328.00
             430.00,328.00 430.00,366.00 430.00,366.00
             430.00,366.00 433.00,408.00 433.00,408.00
             433.00,408.00 433.00,481.00 433.00,481.00
             433.00,503.43 432.36,525.72 435.29,548.00
             435.29,548.00 437.56,560.00 437.56,560.00
             437.56,560.00 438.29,568.00 438.29,568.00
             438.29,568.00 440.60,580.00 440.60,580.00
             442.40,589.01 441.30,596.26 444.61,605.00
             444.61,605.00 449.93,622.00 449.93,622.00
             449.93,622.00 453.80,630.00 453.80,630.00
             453.80,630.00 456.61,638.00 456.61,638.00
             456.61,638.00 460.91,648.00 460.91,648.00
             460.91,648.00 467.55,668.00 467.55,668.00
             467.55,668.00 478.26,692.00 478.26,692.00
             484.35,703.58 497.70,712.04 511.00,709.53
             528.45,706.24 534.92,686.19 541.30,672.00
             552.42,647.29 553.54,644.40 559.00,618.00
             559.00,618.00 561.56,606.00 561.56,606.00
             561.56,606.00 563.21,585.00 563.21,585.00
             563.21,585.00 565.53,576.00 565.53,576.00
             565.53,576.00 569.00,543.00 569.00,543.00
             569.00,543.00 569.00,454.00 569.00,454.00
             569.00,454.00 567.00,427.00 567.00,427.00
             567.00,427.00 567.00,355.00 567.00,355.00
             566.98,344.75 563.97,334.08 562.00,324.00
             562.00,324.00 559.79,308.00 559.79,308.00
             559.79,308.00 557.37,299.00 557.37,299.00
             553.23,278.64 556.74,280.94 548.42,257.00
             546.09,250.29 543.27,241.97 539.45,236.00
             539.45,236.00 533.31,227.00 533.31,227.00
             527.43,217.22 522.70,207.74 513.00,200.79
             509.73,198.45 505.92,196.58 502.00,195.68
             499.46,195.09 495.29,195.16 493.37,193.98
             493.37,193.98 485.98,186.21 485.98,186.21
             479.90,180.90 472.83,179.38 465.00,180.47 Z
           M 212.00,190.47
           C 196.42,194.17 191.36,206.48 181.54,216.87
             175.86,222.87 169.47,219.82 161.39,230.00
             155.96,236.85 156.73,241.25 155.71,249.00
             154.88,255.33 154.04,255.65 154.00,263.00
             154.00,263.00 154.00,290.00 154.00,290.00
             154.00,290.00 156.00,310.00 156.00,310.00
             156.00,310.00 156.00,352.00 156.00,352.00
             156.00,352.00 162.00,393.00 162.00,393.00
             162.00,393.00 162.00,403.00 162.00,403.00
             162.00,403.00 161.04,416.00 161.04,416.00
             161.04,416.00 163.00,437.00 163.00,437.00
             163.00,437.00 163.00,552.00 163.00,552.00
             163.02,562.25 164.42,561.94 165.04,569.00
             165.04,569.00 165.04,578.00 165.04,578.00
             165.04,578.00 167.70,595.00 167.70,595.00
             167.70,595.00 168.47,604.00 168.47,604.00
             168.47,604.00 171.57,615.00 171.57,615.00
             171.57,615.00 175.52,632.00 175.52,632.00
             175.52,632.00 183.35,653.00 183.35,653.00
             183.35,653.00 188.53,663.00 188.53,663.00
             188.53,663.00 191.23,671.00 191.23,671.00
             197.66,688.21 209.00,709.68 231.00,705.53
             249.47,702.05 251.17,687.14 254.20,672.00
             254.20,672.00 262.29,618.00 262.29,618.00
             263.81,606.42 265.98,594.72 266.00,583.00
             266.00,583.00 266.00,573.00 266.00,573.00
             266.00,573.00 267.08,560.00 267.08,560.00
             267.08,560.00 267.08,549.00 267.08,549.00
             267.08,549.00 269.00,528.00 269.00,528.00
             269.00,528.00 269.00,503.00 269.00,503.00
             269.00,503.00 270.00,490.00 270.00,490.00
             270.00,490.00 270.00,394.00 270.00,394.00
             270.00,394.00 269.00,377.00 269.00,377.00
             269.00,377.00 262.02,292.00 262.02,292.00
             262.02,292.00 260.29,280.00 260.29,280.00
             260.29,280.00 259.56,272.00 259.56,272.00
             259.56,272.00 251.89,235.00 251.89,235.00
             250.40,228.53 246.58,211.13 243.64,206.00
             237.27,194.90 224.49,188.72 212.00,190.47 Z
           M 835.00,816.47
           C 827.11,818.34 827.38,819.43 821.00,823.23
             816.37,825.99 814.51,825.88 810.04,830.10
             796.05,843.32 797.80,858.52 798.00,876.00
             798.12,886.10 800.78,896.09 809.00,902.61
             820.62,911.83 832.18,908.44 845.00,906.44
             845.00,906.44 854.00,905.53 854.00,905.53
             876.87,901.21 883.38,873.16 876.45,854.00
             874.41,848.34 869.99,843.28 866.92,838.00
             866.92,838.00 861.36,827.00 861.36,827.00
             854.93,818.01 845.61,814.99 835.00,816.47 Z
           M 511.00,825.23
           C 491.56,829.66 482.79,838.31 474.69,856.00
             468.91,868.62 467.98,868.93 468.00,883.00
             468.04,906.50 482.57,934.69 509.00,935.00
             522.48,935.15 524.17,934.96 537.00,930.74
             540.90,929.46 543.52,928.85 547.00,926.36
             550.99,923.52 553.79,919.55 557.09,916.00
             560.70,912.10 563.48,909.61 566.45,905.00
             569.09,900.91 576.64,880.75 577.77,876.00
             578.08,873.10 578.03,869.95 577.77,867.00
             577.88,857.16 574.63,852.08 569.53,844.00
             566.02,838.45 563.97,834.84 558.00,831.36
             546.78,824.83 537.31,825.00 525.00,825.23
             525.00,825.23 511.00,825.23 511.00,825.23 Z
           M 200.00,826.44
           C 188.63,828.54 170.84,836.28 163.21,845.02
             159.63,849.12 153.36,863.52 151.92,869.00
             150.31,875.16 151.08,879.93 152.42,886.00
             156.24,903.30 166.84,917.77 186.00,917.77
             186.00,917.77 210.00,917.77 210.00,917.77
             225.94,914.55 242.89,902.15 250.65,888.00
             259.62,871.64 253.30,847.74 239.00,836.39
             229.15,828.58 212.31,824.86 200.00,826.44 Z" />
</svg>
