<?xml version="1.0" encoding="UTF-8" standalone="no"?>
<!DOCTYPE svg PUBLIC "-//W3C//DTD SVG 20010904//EN"
              "http://www.w3.org/TR/2001/REC-SVG-20010904/DTD/svg10.dtd">

<svg xmlns="http://www.w3.org/2000/svg"
     width="15in" height="15in"
     viewBox="0 0 1080 1080">
  <path id="back"
        fill="#00a7dc" stroke="none" stroke-width="1"
        d="M 106.00,370.00
           C 109.75,365.94 108.82,363.82 110.55,359.00
             110.55,359.00 118.36,342.00 118.36,342.00
             122.94,334.03 128.44,332.77 133.33,326.96
             133.33,326.96 142.07,315.00 142.07,315.00
             142.07,315.00 146.63,307.00 146.63,307.00
             149.48,303.02 158.80,293.77 163.00,291.36
             168.06,288.47 172.64,288.36 178.00,286.80
             178.00,286.80 202.00,281.10 202.00,281.10
             202.00,281.10 214.00,277.47 214.00,277.47
             218.69,276.59 221.09,277.40 228.00,275.51
             228.00,275.51 239.00,271.22 239.00,271.22
             239.00,271.22 251.00,268.57 251.00,268.57
             251.00,268.57 266.00,264.51 266.00,264.51
             266.00,264.51 296.00,256.11 296.00,256.11
             296.00,256.11 306.00,256.11 306.00,256.11
             306.00,256.11 318.00,255.00 318.00,255.00
             318.00,255.00 395.00,255.00 395.00,255.00
             405.00,255.02 405.61,256.49 414.00,257.70
             414.00,257.70 431.00,259.29 431.00,259.29
             439.75,260.44 440.73,261.98 451.00,262.00
             451.00,262.00 504.00,262.00 504.00,262.00
             512.35,262.01 511.83,262.77 519.00,263.71
             519.00,263.71 527.00,264.44 527.00,264.44
             535.67,265.80 534.97,266.98 545.00,267.00
             566.57,267.03 593.37,268.47 614.00,263.00
             613.19,259.68 613.04,258.41 613.00,255.00
             612.91,246.93 612.18,232.20 614.52,225.00
             622.50,200.42 652.65,188.19 672.00,174.08
             688.63,161.96 692.35,162.67 707.99,153.77
             714.97,149.79 715.49,146.23 722.00,142.53
             729.34,138.36 736.95,139.01 745.00,139.00
             761.73,138.97 761.25,132.95 773.00,128.70
             782.98,125.09 789.66,125.98 800.00,126.00
             807.36,126.01 812.96,126.64 819.00,131.39
             822.55,134.18 826.19,140.22 830.10,140.87
             830.10,140.87 853.00,142.30 853.00,142.30
             853.00,142.30 870.00,147.49 870.00,147.49
             887.10,152.84 899.09,157.77 909.78,173.00
             911.08,169.76 910.12,163.52 909.78,160.00
             908.82,155.30 907.26,147.10 905.17,143.00
             905.17,143.00 892.37,126.00 892.37,126.00
             884.78,115.89 872.56,104.14 863.00,95.72
             856.12,89.65 843.84,78.66 836.00,74.35
             836.00,74.35 828.00,70.97 828.00,70.97
             816.06,65.45 817.12,62.02 802.00,62.00
             802.00,62.00 784.00,62.00 784.00,62.00
             774.40,62.01 765.39,64.73 756.00,66.39
             756.00,66.39 741.00,67.46 741.00,67.46
             741.00,67.46 721.00,72.78 721.00,72.78
             721.00,72.78 703.00,72.78 703.00,72.78
             703.00,72.78 686.00,74.72 686.00,74.72
             677.12,75.78 667.50,76.55 659.00,79.55
             659.00,79.55 647.00,84.56 647.00,84.56
             647.00,84.56 630.00,91.32 630.00,91.32
             630.00,91.32 618.00,98.95 618.00,98.95
             613.18,101.50 606.48,101.91 599.00,107.35
             589.00,114.62 569.47,132.33 563.82,143.00
             563.82,143.00 555.65,161.00 555.65,161.00
             555.65,161.00 546.76,175.00 546.76,175.00
             544.70,179.11 543.07,186.99 540.69,189.21
             538.71,191.07 535.47,192.34 533.00,193.42
             520.00,199.12 508.82,198.84 495.00,199.00
             487.65,199.09 480.24,200.43 473.00,201.56
             473.00,201.56 464.00,202.44 464.00,202.44
             464.00,202.44 435.00,208.39 435.00,208.39
             435.00,208.39 425.00,209.44 425.00,209.44
             425.00,209.44 404.00,212.98 404.00,212.98
             397.48,213.11 375.66,210.48 369.00,208.99
             359.05,206.75 361.19,205.02 349.00,205.00
             349.00,205.00 318.00,205.00 318.00,205.00
             318.00,205.00 278.00,209.29 278.00,209.29
             269.25,210.44 268.27,211.98 258.00,212.00
             258.00,212.00 248.00,212.00 248.00,212.00
             248.00,212.00 222.00,216.56 222.00,216.56
             222.00,216.56 212.00,217.68 212.00,217.68
             212.00,217.68 185.00,227.80 185.00,227.80
             168.33,234.35 167.87,233.87 152.00,243.54
             138.44,251.79 139.31,251.67 128.00,263.00
             121.62,269.39 108.50,284.72 105.55,293.00
             104.20,296.79 103.02,313.43 103.00,318.00
             103.00,318.00 103.00,335.00 103.00,335.00
             103.08,341.14 104.01,342.60 104.71,348.00
             104.71,348.00 106.00,370.00 106.00,370.00 Z" />
  <path id="front"
        fill="#00c1ff" stroke="none" stroke-width="1"
        d="M 614.00,263.00
           C 606.02,264.50 591.78,266.99 584.00,267.00
             584.00,267.00 546.00,267.00 546.00,267.00
             535.97,266.98 536.67,265.80 528.00,264.44
             528.00,264.44 520.00,263.71 520.00,263.71
             512.83,262.77 513.35,262.01 505.00,262.00
             505.00,262.00 452.00,262.00 452.00,262.00
             441.73,261.98 440.75,260.44 432.00,259.29
             432.00,259.29 415.00,257.70 415.00,257.70
             406.61,256.49 406.00,255.02 396.00,255.00
             396.00,255.00 317.00,255.00 317.00,255.00
             317.00,255.00 305.00,256.11 305.00,256.11
             305.00,256.11 295.00,256.11 295.00,256.11
             295.00,256.11 265.00,264.51 265.00,264.51
             265.00,264.51 250.00,268.57 250.00,268.57
             250.00,268.57 238.00,271.22 238.00,271.22
             238.00,271.22 228.00,275.23 228.00,275.23
             221.03,277.38 218.10,276.51 213.00,277.47
             213.00,277.47 201.00,281.10 201.00,281.10
             201.00,281.10 177.00,286.80 177.00,286.80
             170.62,288.65 165.81,288.50 160.00,292.64
             147.65,301.42 144.24,311.61 135.63,323.00
             128.59,332.31 124.35,332.41 119.64,339.00
             119.64,339.00 110.55,358.00 110.55,358.00
             110.55,358.00 108.34,366.00 108.34,366.00
             106.16,371.89 103.39,372.54 101.44,385.00
             100.74,389.47 100.87,393.66 102.22,398.00
             103.49,402.10 105.70,404.52 104.97,409.00
             104.97,409.00 102.47,418.00 102.47,418.00
             102.47,418.00 99.39,442.00 99.39,442.00
             99.39,442.00 93.61,470.00 93.61,470.00
             93.61,470.00 90.00,507.00 90.00,507.00
             90.00,507.00 90.00,534.00 90.00,534.00
             90.00,534.00 88.00,553.00 88.00,553.00
             88.00,553.00 88.00,602.00 88.00,602.00
             88.02,612.25 91.03,622.92 93.00,633.00
             93.00,633.00 94.44,645.00 94.44,645.00
             94.44,645.00 98.83,672.00 98.83,672.00
             98.83,672.00 100.12,684.00 100.12,684.00
             100.12,684.00 100.12,693.00 100.12,693.00
             100.12,693.00 105.54,719.00 105.54,719.00
             105.54,719.00 107.43,733.00 107.43,733.00
             107.43,733.00 111.39,745.00 111.39,745.00
             111.39,745.00 112.92,754.00 112.92,754.00
             114.53,760.13 117.69,766.17 120.13,772.00
             122.34,777.29 122.08,779.61 125.55,785.00
             131.30,793.95 144.94,805.66 154.00,811.45
             154.00,811.45 187.00,826.30 187.00,826.30
             187.00,826.30 224.00,842.45 224.00,842.45
             224.00,842.45 235.00,845.22 235.00,845.22
             235.00,845.22 244.00,848.78 244.00,848.78
             252.00,851.30 265.49,851.96 274.00,852.00
             283.09,852.04 286.33,854.06 294.00,854.83
             294.00,854.83 314.00,856.17 314.00,856.17
             314.00,856.17 329.00,858.83 329.00,858.83
             329.00,858.83 359.00,860.00 359.00,860.00
             359.00,860.00 381.00,861.97 381.00,861.97
             381.00,861.97 393.00,861.00 393.00,861.00
             393.00,861.00 467.00,861.00 467.00,861.00
             477.17,861.02 481.57,863.09 491.00,864.56
             491.00,864.56 500.00,865.44 500.00,865.44
             510.25,867.04 523.79,869.98 534.00,870.00
             534.00,870.00 582.00,870.00 582.00,870.00
             601.34,869.97 619.44,860.20 636.00,860.00
             636.00,860.00 682.00,855.04 682.00,855.04
             682.00,855.04 691.00,855.04 691.00,855.04
             691.00,855.04 707.00,854.00 707.00,854.00
             707.00,854.00 738.00,850.56 738.00,850.56
             738.00,850.56 758.00,846.45 758.00,846.45
             758.00,846.45 801.00,837.79 801.00,837.79
             801.00,837.79 810.00,835.37 810.00,835.37
             810.00,835.37 834.00,832.83 834.00,832.83
             834.00,832.83 847.00,830.44 847.00,830.44
             847.00,830.44 856.00,829.56 856.00,829.56
             869.88,827.39 885.80,823.74 898.00,816.64
             902.80,813.84 906.59,809.17 911.00,805.67
             911.00,805.67 933.91,786.96 933.91,786.96
             942.26,778.49 946.29,771.00 953.13,762.00
             953.13,762.00 961.10,752.00 961.10,752.00
             967.49,742.71 972.87,732.57 976.77,722.00
             976.77,722.00 981.33,707.00 981.33,707.00
             981.33,707.00 987.20,692.00 987.20,692.00
             987.20,692.00 991.78,682.00 991.78,682.00
             991.78,682.00 999.40,646.00 999.40,646.00
             1001.30,636.50 1003.98,627.78 1004.00,618.00
             1004.00,618.00 1004.00,559.00 1004.00,559.00
             1003.98,549.07 1002.92,551.01 1002.17,544.00
             1002.17,544.00 1000.78,524.00 1000.78,524.00
             1000.78,524.00 1000.78,502.00 1000.78,502.00
             1000.78,502.00 993.01,475.00 993.01,475.00
             993.01,475.00 984.57,434.00 984.57,434.00
             984.57,434.00 981.62,425.00 981.62,425.00
             981.62,425.00 977.60,408.00 977.60,408.00
             977.60,408.00 975.57,396.00 975.57,396.00
             975.57,396.00 972.49,386.00 972.49,386.00
             972.49,386.00 968.61,367.00 968.61,367.00
             968.61,367.00 964.32,342.00 964.32,342.00
             964.32,342.00 958.49,324.00 958.49,324.00
             958.49,324.00 953.14,301.00 953.14,301.00
             953.14,301.00 944.81,282.00 944.81,282.00
             944.81,282.00 938.77,265.00 938.77,265.00
             938.77,265.00 936.48,256.00 936.48,256.00
             936.48,256.00 929.43,236.00 929.43,236.00
             929.43,236.00 926.53,217.00 926.53,217.00
             926.53,217.00 922.90,205.00 922.90,205.00
             922.90,205.00 920.08,192.00 920.08,192.00
             916.54,179.45 908.88,168.59 899.00,160.21
             891.27,153.66 878.55,149.93 869.00,146.84
             864.57,145.40 857.27,142.64 853.00,142.17
             853.00,142.17 830.10,140.69 830.10,140.69
             825.59,139.44 824.76,133.81 817.00,129.36
             808.92,124.73 797.19,125.99 788.00,126.00
             780.96,126.01 774.33,127.09 768.00,130.40
             762.98,133.02 762.29,134.91 756.00,137.15
             748.53,139.81 743.70,138.91 736.00,139.00
             728.31,139.09 721.86,140.85 716.09,146.18
             716.09,146.18 710.83,151.37 710.83,151.37
             709.04,152.78 702.26,156.44 700.00,157.52
             692.92,160.89 685.63,164.00 679.00,168.24
             679.00,168.24 661.00,181.05 661.00,181.05
             641.37,193.29 613.32,207.30 613.00,234.00
             613.00,234.00 613.00,255.00 613.00,255.00
             613.02,258.45 613.05,259.64 614.00,263.00 Z
           M 738.00,522.30
           C 752.84,520.87 765.96,530.71 766.91,546.00
             768.08,564.97 750.33,587.67 743.46,605.00
             743.46,605.00 734.69,627.00 734.69,627.00
             734.69,627.00 725.81,645.00 725.81,645.00
             725.81,645.00 720.78,661.00 720.78,661.00
             720.78,661.00 717.55,669.00 717.55,669.00
             717.55,669.00 710.08,691.00 710.08,691.00
             710.08,691.00 702.44,706.00 702.44,706.00
             702.44,706.00 693.74,726.00 693.74,726.00
             693.74,726.00 683.59,744.00 683.59,744.00
             683.59,744.00 676.53,757.00 676.53,757.00
             676.53,757.00 669.91,771.00 669.91,771.00
             669.91,771.00 660.07,786.00 660.07,786.00
             660.07,786.00 653.63,794.00 653.63,794.00
             647.40,802.68 643.73,808.57 632.00,809.83
             612.94,811.87 598.54,794.25 604.22,776.00
             607.74,764.70 614.51,760.30 620.45,751.00
             620.45,751.00 625.82,740.00 625.82,740.00
             625.82,740.00 632.10,730.00 632.10,730.00
             632.10,730.00 637.26,719.00 637.26,719.00
             637.26,719.00 646.22,704.00 646.22,704.00
             646.22,704.00 653.78,687.00 653.78,687.00
             653.78,687.00 662.56,669.00 662.56,669.00
             662.56,669.00 678.60,622.00 678.60,622.00
             678.60,622.00 686.38,607.00 686.38,607.00
             686.38,607.00 699.00,577.00 699.00,577.00
             699.00,577.00 712.14,551.00 712.14,551.00
             718.33,537.03 720.66,525.69 738.00,522.30 Z
           M 423.00,705.00
           C 424.92,706.81 426.75,708.60 429.00,710.01
             429.00,710.01 462.00,724.43 462.00,724.43
             475.42,730.17 488.37,737.99 501.00,745.33
             501.00,745.33 513.00,754.01 513.00,754.01
             513.00,754.01 526.00,760.35 526.00,760.35
             530.51,763.04 543.72,776.36 546.18,781.00
             552.82,793.56 553.48,807.75 541.98,817.79
             537.85,821.40 532.48,823.57 527.00,823.91
             513.66,824.73 509.55,817.86 501.63,809.42
             497.68,805.22 494.11,802.38 489.00,799.76
             489.00,799.76 475.00,791.32 475.00,791.32
             475.00,791.32 461.00,783.09 461.00,783.09
             461.00,783.09 452.00,777.37 452.00,777.37
             452.00,777.37 430.00,767.58 430.00,767.58
             430.00,767.58 421.00,763.20 421.00,763.20
             421.00,763.20 403.00,755.65 403.00,755.65
             403.00,755.65 384.00,741.91 384.00,741.91
             371.93,733.39 355.13,725.83 354.09,709.00
             353.60,701.06 358.40,689.62 364.09,684.18
             364.09,684.18 373.00,677.63 373.00,677.63
             381.18,671.17 382.65,669.35 392.00,663.65
             396.44,660.95 398.97,657.80 403.00,654.68
             403.00,654.68 420.00,642.54 420.00,642.54
             423.72,639.47 427.00,635.54 431.00,632.97
             431.00,632.97 438.00,629.49 438.00,629.49
             438.00,629.49 445.00,625.35 445.00,625.35
             445.00,625.35 453.00,621.39 453.00,621.39
             453.00,621.39 471.00,609.34 471.00,609.34
             471.00,609.34 485.00,602.08 485.00,602.08
             494.44,595.57 502.49,587.76 511.00,580.17
             511.00,580.17 521.83,570.96 521.83,570.96
             521.83,570.96 531.30,559.00 531.30,559.00
             538.67,550.50 552.34,540.28 564.00,540.01
             578.96,539.67 591.92,548.06 592.91,564.00
             593.43,572.51 589.63,580.34 583.00,585.61
             583.00,585.61 573.17,591.79 573.17,591.79
             573.17,591.79 561.08,605.00 561.08,605.00
             548.80,618.35 551.12,614.26 540.00,624.17
             532.21,631.12 524.83,638.77 516.00,644.45
             516.00,644.45 496.00,655.46 496.00,655.46
             496.00,655.46 476.00,668.49 476.00,668.49
             476.00,668.49 461.00,676.32 461.00,676.32
             461.00,676.32 450.00,685.07 450.00,685.07
             450.00,685.07 438.00,693.30 438.00,693.30
             432.44,698.04 430.05,701.99 423.00,705.00 Z
           M 903.00,676.00
           C 895.83,672.94 889.76,666.58 883.00,662.46
             883.00,662.46 870.00,655.07 870.00,655.07
             870.00,655.07 859.00,645.30 859.00,645.30
             859.00,645.30 840.00,630.58 840.00,630.58
             840.00,630.58 817.00,615.22 817.00,615.22
             806.56,607.50 794.98,599.31 794.09,585.00
             793.24,571.09 804.12,558.95 818.00,558.09
             830.28,557.34 837.76,565.56 847.00,572.09
             847.00,572.09 857.00,578.64 857.00,578.64
             857.00,578.64 870.00,587.68 870.00,587.68
             870.00,587.68 880.00,595.84 880.00,595.84
             880.00,595.84 890.00,602.68 890.00,602.68
             890.00,602.68 901.00,612.37 901.00,612.37
             901.00,612.37 916.00,621.36 916.00,621.36
             916.00,621.36 936.00,636.12 936.00,636.12
             936.00,636.12 947.00,642.96 947.00,642.96
             955.73,648.68 964.29,657.72 967.07,668.00
             972.61,688.49 954.78,696.91 943.42,710.00
             930.33,725.08 920.92,732.16 906.00,744.46
             906.00,744.46 885.00,762.62 885.00,762.62
             879.53,766.86 858.71,778.84 852.00,782.04
             842.71,786.47 835.98,794.17 824.00,794.91
             804.07,796.14 790.42,774.34 800.36,757.00
             804.02,750.63 816.43,741.36 823.00,737.79
             823.00,737.79 833.00,732.97 833.00,732.97
             833.00,732.97 845.00,725.32 845.00,725.32
             856.04,719.92 858.18,715.69 867.00,708.21
             867.00,708.21 874.00,703.37 874.00,703.37
             874.00,703.37 889.83,690.54 889.83,690.54
             889.83,690.54 903.00,676.00 903.00,676.00 Z" />
  <path id="white"
        fill="white" stroke="none" stroke-width="1"
        d="M 736.00,523.52
           C 720.12,527.89 719.40,537.33 713.69,550.00
             713.69,550.00 699.76,578.00 699.76,578.00
             699.76,578.00 690.69,600.00 690.69,600.00
             690.69,600.00 677.05,629.00 677.05,629.00
             677.05,629.00 672.14,645.00 672.14,645.00
             664.77,665.80 655.03,690.93 644.13,710.00
             644.13,710.00 637.32,721.00 637.32,721.00
             637.32,721.00 620.30,753.00 620.30,753.00
             613.92,762.74 605.33,769.19 605.01,782.00
             604.67,796.25 613.02,807.67 628.00,807.98
             632.65,808.08 635.77,807.74 640.00,805.62
             648.23,801.50 660.19,784.15 665.19,776.00
             665.19,776.00 680.90,746.00 680.90,746.00
             680.90,746.00 687.69,735.00 687.69,735.00
             687.69,735.00 708.80,690.00 708.80,690.00
             708.80,690.00 727.25,639.00 727.25,639.00
             727.25,639.00 735.57,622.00 735.57,622.00
             735.57,622.00 748.11,593.00 748.11,593.00
             753.47,582.56 765.47,560.23 765.96,549.00
             766.72,531.47 752.77,520.86 736.00,523.52 Z
           M 422.00,705.00
           C 427.12,702.58 430.59,698.34 435.00,694.81
             435.00,694.81 457.00,678.24 457.00,678.24
             463.71,673.19 473.60,668.36 481.00,664.13
             481.00,664.13 495.00,655.00 495.00,655.00
             495.00,655.00 514.00,644.25 514.00,644.25
             514.00,644.25 543.00,620.61 543.00,620.61
             549.19,615.54 554.43,611.00 559.83,605.00
             563.46,600.97 567.03,595.66 571.01,592.21
             575.05,588.72 577.30,588.66 581.00,586.15
             587.59,581.68 591.61,574.98 591.96,567.00
             592.77,548.41 576.31,537.38 559.00,541.92
             537.36,547.60 527.32,568.79 511.00,582.00
             502.33,589.02 494.40,597.13 485.00,603.20
             485.00,603.20 471.00,610.87 471.00,610.87
             471.00,610.87 454.00,621.86 454.00,621.86
             454.00,621.86 433.00,633.55 433.00,633.55
             433.00,633.55 401.00,657.46 401.00,657.46
             401.00,657.46 393.00,664.39 393.00,664.39
             393.00,664.39 383.00,670.92 383.00,670.92
             383.00,670.92 373.00,679.19 373.00,679.19
             361.84,688.12 355.64,693.59 356.01,709.00
             356.43,726.12 372.91,732.54 385.00,741.04
             393.33,746.90 396.86,751.57 407.00,756.63
             407.00,756.63 420.00,761.61 420.00,761.61
             420.00,761.61 446.00,773.30 446.00,773.30
             446.00,773.30 475.00,789.91 475.00,789.91
             482.31,794.47 480.59,794.48 490.00,799.25
             506.46,807.59 507.18,822.82 527.00,821.96
             541.01,821.35 550.56,809.71 549.96,796.00
             549.40,783.15 541.27,776.82 533.42,768.01
             525.38,758.99 519.38,758.88 510.00,752.91
             494.68,743.16 479.37,734.02 463.00,726.11
             463.00,726.11 450.00,720.24 450.00,720.24
             450.00,720.24 441.00,716.06 441.00,716.06
             432.50,712.81 427.98,712.95 422.00,705.00 Z
           M 905.00,676.00
           C 905.00,676.00 891.91,689.83 891.91,689.83
             891.91,689.83 869.00,708.32 869.00,708.32
             869.00,708.32 855.00,720.68 855.00,720.68
             855.00,720.68 834.00,733.68 834.00,733.68
             834.00,733.68 823.00,738.64 823.00,738.64
             819.78,740.37 816.94,742.70 814.00,744.85
             805.40,751.13 798.54,756.46 798.04,768.00
             797.44,781.71 806.99,793.35 821.00,793.96
             834.97,794.57 839.44,786.62 850.00,781.67
             859.71,777.11 878.72,765.88 887.00,759.34
             887.00,759.34 902.00,746.46 902.00,746.46
             902.00,746.46 926.99,725.96 926.99,725.96
             926.99,725.96 941.00,711.00 941.00,711.00
             941.00,711.00 951.04,700.09 951.04,700.09
             961.01,690.38 968.89,684.95 965.48,669.00
             962.39,654.51 951.23,647.72 940.00,639.98
             940.00,639.98 914.00,621.74 914.00,621.74
             914.00,621.74 900.00,613.07 900.00,613.07
             900.00,613.07 884.00,599.85 884.00,599.85
             884.00,599.85 869.00,588.21 869.00,588.21
             869.00,588.21 845.00,571.85 845.00,571.85
             837.12,566.06 831.44,559.49 821.00,559.04
             797.85,558.03 786.95,583.85 801.67,600.83
             809.59,609.97 828.65,620.89 839.00,628.66
             839.00,628.66 857.00,642.32 857.00,642.32
             857.00,642.32 870.00,653.51 870.00,653.51
             870.00,653.51 887.00,664.00 887.00,664.00
             892.99,668.01 898.51,672.82 905.00,676.00 Z" />
</svg>
