<?xml version="1.0" encoding="UTF-8" standalone="no"?>
<!DOCTYPE svg PUBLIC "-//W3C//DTD SVG 20010904//EN"
              "http://www.w3.org/TR/2001/REC-SVG-20010904/DTD/svg10.dtd">

<svg xmlns="http://www.w3.org/2000/svg"
     width="15in" height="15in"
     viewBox="0 0 1080 1080">
  <path id="back"
        fill="#00a7dc" stroke="none" stroke-width="1"
        d="M 82.00,684.00
           C 85.39,678.79 85.24,670.13 85.53,664.00
             85.53,664.00 86.87,654.09 86.87,654.09
             86.87,654.09 86.87,629.00 86.87,629.00
             87.01,621.85 91.63,592.00 93.59,585.00
             93.59,585.00 97.46,575.00 97.46,575.00
             97.46,575.00 100.00,565.00 100.00,565.00
             100.00,565.00 106.55,553.00 106.55,553.00
             106.55,553.00 111.68,537.00 111.68,537.00
             114.68,530.24 129.78,509.26 135.09,504.18
             140.67,498.85 155.48,492.08 163.00,489.77
             163.00,489.77 179.00,485.66 179.00,485.66
             179.00,485.66 201.00,478.93 201.00,478.93
             201.00,478.93 212.00,473.92 212.00,473.92
             212.00,473.92 241.00,467.99 241.00,467.99
             241.00,467.99 274.00,459.12 274.00,459.12
             274.00,459.12 292.00,453.40 292.00,453.40
             296.09,452.43 298.87,453.37 306.00,451.23
             306.00,451.23 320.00,446.24 320.00,446.24
             320.00,446.24 344.00,442.11 344.00,442.11
             344.00,442.11 360.00,437.52 360.00,437.52
             360.00,437.52 378.00,435.56 378.00,435.56
             378.00,435.56 399.00,430.28 399.00,430.28
             399.00,430.28 415.00,428.33 415.00,428.33
             415.00,428.33 427.00,424.44 427.00,424.44
             427.00,424.44 452.00,417.56 452.00,417.56
             452.00,417.56 462.00,414.14 462.00,414.14
             462.00,414.14 504.00,405.26 504.00,405.26
             504.00,405.26 524.00,402.39 524.00,402.39
             524.00,402.39 580.00,391.40 580.00,391.40
             586.38,390.42 589.41,393.17 598.00,391.40
             605.22,389.79 614.96,385.15 622.00,382.46
             622.00,382.46 639.00,377.56 639.00,377.56
             639.00,377.56 679.00,366.08 679.00,366.08
             690.58,360.55 691.03,353.36 694.04,343.00
             694.04,343.00 699.60,328.00 699.60,328.00
             699.60,328.00 709.40,306.00 709.40,306.00
             712.30,298.82 712.35,295.25 716.31,288.00
             716.31,288.00 731.66,266.00 731.66,266.00
             731.66,266.00 742.39,249.14 742.39,249.14
             746.40,244.75 749.79,246.31 755.99,241.47
             761.44,237.21 761.85,233.65 767.04,230.53
             767.04,230.53 780.00,224.75 780.00,224.75
             792.85,218.37 805.34,212.11 819.00,207.52
             819.00,207.52 840.00,201.57 840.00,201.57
             840.00,201.57 864.00,194.02 864.00,194.02
             874.75,190.73 873.42,191.91 885.00,187.00
             880.56,185.23 877.71,186.42 872.00,183.81
             864.33,180.32 859.42,175.29 853.00,170.41
             849.39,167.67 847.04,167.51 841.00,162.54
             832.14,155.25 832.82,151.57 829.59,148.65
             827.39,146.66 823.73,145.86 821.00,144.48
             810.63,139.26 809.82,136.06 797.00,136.00
             797.00,136.00 778.00,136.00 778.00,136.00
             768.40,136.01 759.39,138.73 750.00,140.39
             750.00,140.39 735.00,141.46 735.00,141.46
             735.00,141.46 715.00,146.78 715.00,146.78
             715.00,146.78 697.00,146.78 697.00,146.78
             697.00,146.78 680.00,148.72 680.00,148.72
             671.12,149.78 661.50,150.55 653.00,153.55
             653.00,153.55 641.00,158.56 641.00,158.56
             641.00,158.56 624.00,165.32 624.00,165.32
             624.00,165.32 612.00,172.95 612.00,172.95
             612.00,172.95 596.00,179.36 596.00,179.36
             586.06,185.09 565.10,205.40 558.97,215.00
             558.97,215.00 550.18,234.00 550.18,234.00
             550.18,234.00 543.55,244.00 543.55,244.00
             536.50,254.97 538.40,259.74 534.69,263.21
             532.71,265.07 529.47,266.34 527.00,267.42
             514.00,273.12 502.82,272.84 489.00,273.00
             481.65,273.09 474.24,274.43 467.00,275.56
             467.00,275.56 458.00,276.44 458.00,276.44
             458.00,276.44 429.00,282.39 429.00,282.39
             429.00,282.39 419.00,283.44 419.00,283.44
             419.00,283.44 398.00,286.98 398.00,286.98
             391.48,287.11 369.66,284.48 363.00,282.99
             353.05,280.75 355.19,279.02 343.00,279.00
             343.00,279.00 312.00,279.00 312.00,279.00
             312.00,279.00 272.00,283.29 272.00,283.29
             263.25,284.44 262.27,285.98 252.00,286.00
             252.00,286.00 242.00,286.00 242.00,286.00
             242.00,286.00 216.00,290.56 216.00,290.56
             216.00,290.56 206.00,291.68 206.00,291.68
             206.00,291.68 179.00,301.80 179.00,301.80
             162.33,308.35 161.87,307.87 146.00,317.54
             132.44,325.79 133.31,325.67 122.00,337.00
             115.62,343.39 102.50,358.72 99.55,367.00
             98.20,370.79 97.02,387.43 97.00,392.00
             97.00,392.00 97.00,409.00 97.00,409.00
             97.08,415.14 98.01,416.60 98.71,422.00
             98.71,422.00 99.94,441.00 99.94,441.00
             99.76,446.60 97.34,448.64 96.86,453.00
             96.46,456.64 97.92,458.76 97.92,463.00
             97.92,467.27 96.53,469.47 96.20,473.00
             96.20,473.00 96.99,484.00 96.99,484.00
             97.18,492.51 94.64,500.64 93.43,509.00
             93.43,509.00 87.71,550.00 87.71,550.00
             85.50,566.80 84.03,561.96 84.00,583.00
             84.00,583.00 84.00,608.00 84.00,608.00
             84.00,608.00 82.00,627.00 82.00,627.00
             82.00,627.00 82.00,684.00 82.00,684.00 Z
           M 81.00,701.00
           C 81.00,701.00 76.92,724.00 76.92,724.00
             76.92,724.00 73.00,751.00 73.00,751.00
             73.00,751.00 79.41,716.00 79.41,716.00
             79.41,716.00 81.00,701.00 81.00,701.00 Z
           M 71.00,756.00
           C 71.00,756.00 71.00,757.00 71.00,757.00
             71.00,757.00 72.00,756.00 72.00,756.00
             72.00,756.00 71.00,756.00 71.00,756.00 Z
           M 66.00,784.00
           C 66.00,784.00 66.00,785.00 66.00,785.00
             66.00,785.00 67.00,784.00 67.00,784.00
             67.00,784.00 66.00,784.00 66.00,784.00 Z
           M 67.00,792.00
           C 67.00,792.00 67.00,793.00 67.00,793.00
             67.00,793.00 68.00,792.00 68.00,792.00
             68.00,792.00 67.00,792.00 67.00,792.00 Z
           M 67.00,795.00
           C 67.00,795.00 67.00,796.00 67.00,796.00
             67.00,796.00 68.00,795.00 68.00,795.00
             68.00,795.00 67.00,795.00 67.00,795.00 Z
           M 69.00,808.00
           C 69.00,808.00 69.00,809.00 69.00,809.00
             69.00,809.00 70.00,808.00 70.00,808.00
             70.00,808.00 69.00,808.00 69.00,808.00 Z
           M 70.00,810.00
           C 70.00,810.00 70.00,811.00 70.00,811.00
             70.00,811.00 71.00,810.00 71.00,810.00
             71.00,810.00 70.00,810.00 70.00,810.00 Z
           M 71.00,812.00
           C 71.00,812.00 71.00,813.00 71.00,813.00
             71.00,813.00 72.00,812.00 72.00,812.00
             72.00,812.00 71.00,812.00 71.00,812.00 Z
           M 71.00,814.00
           C 71.00,814.00 71.00,815.00 71.00,815.00
             71.00,815.00 72.00,814.00 72.00,814.00
             72.00,814.00 71.00,814.00 71.00,814.00 Z
           M 72.00,816.00
           C 72.00,816.00 72.00,817.00 72.00,817.00
             72.00,817.00 73.00,816.00 73.00,816.00
             73.00,816.00 72.00,816.00 72.00,816.00 Z
           M 73.00,822.00
           C 73.00,822.00 73.00,823.00 73.00,823.00
             73.00,823.00 74.00,822.00 74.00,822.00
             74.00,822.00 73.00,822.00 73.00,822.00 Z
           M 74.00,832.00
           C 74.00,832.00 74.00,833.00 74.00,833.00
             74.00,833.00 75.00,832.00 75.00,832.00
             75.00,832.00 74.00,832.00 74.00,832.00 Z
           M 75.00,835.00
           C 75.00,835.00 75.00,836.00 75.00,836.00
             75.00,836.00 76.00,835.00 76.00,835.00
             76.00,835.00 75.00,835.00 75.00,835.00 Z" />
  <path id="front"
        fill="#00c1ff" stroke="none" stroke-width="1"
        d="M 79.00,708.00
           C 80.22,714.88 78.22,722.19 77.08,729.00
             77.08,729.00 74.16,746.00 74.16,746.00
             74.16,746.00 70.44,758.00 70.44,758.00
             70.44,758.00 66.58,782.00 66.58,782.00
             66.25,786.84 68.22,802.66 69.48,807.42
             69.48,807.42 72.44,817.04 72.44,817.04
             72.44,817.04 76.12,847.00 76.12,847.00
             76.12,847.00 75.18,860.00 75.18,860.00
             75.39,861.92 81.22,873.04 82.64,874.83
             91.34,885.89 108.43,892.53 121.00,898.31
             121.00,898.31 160.00,916.53 160.00,916.53
             160.00,916.53 171.00,919.55 171.00,919.55
             171.00,919.55 178.00,922.45 178.00,922.45
             183.92,924.56 195.65,925.92 202.00,926.00
             220.49,926.21 215.06,927.54 228.00,929.02
             228.00,929.02 238.00,929.02 238.00,929.02
             238.00,929.02 248.00,931.70 248.00,931.70
             248.00,931.70 256.00,932.44 256.00,932.44
             256.00,932.44 268.00,934.71 268.00,934.71
             268.00,934.71 275.00,935.53 275.00,935.53
             275.00,935.53 300.00,944.12 300.00,944.12
             315.80,947.89 326.00,947.18 342.00,947.00
             342.00,947.00 379.00,942.00 379.00,942.00
             396.13,941.80 397.37,943.34 413.00,944.83
             413.00,944.83 425.00,945.44 425.00,945.44
             434.08,946.86 442.77,949.99 452.00,950.00
             460.63,950.01 469.44,950.06 478.00,951.30
             483.55,952.10 486.28,953.91 491.00,955.22
             491.00,955.22 498.00,956.37 498.00,956.37
             506.57,958.09 509.52,959.99 519.00,960.00
             519.00,960.00 552.00,960.00 552.00,960.00
             562.41,960.02 562.26,961.69 569.00,961.96
             581.95,962.48 583.43,958.37 593.00,953.43
             593.00,953.43 606.00,947.88 606.00,947.88
             606.00,947.88 625.00,943.12 625.00,943.12
             625.00,943.12 642.00,938.79 642.00,938.79
             642.00,938.79 655.00,934.43 655.00,934.43
             655.00,934.43 684.00,929.55 684.00,929.55
             684.00,929.55 708.00,924.45 708.00,924.45
             708.00,924.45 725.00,921.08 725.00,921.08
             725.00,921.08 736.00,917.29 736.00,917.29
             736.00,917.29 760.00,911.33 760.00,911.33
             760.00,911.33 774.00,909.58 774.00,909.58
             774.00,909.58 798.00,903.04 798.00,903.04
             798.00,903.04 820.00,898.43 820.00,898.43
             828.72,895.81 836.75,891.22 845.00,887.51
             845.00,887.51 877.00,873.80 877.00,873.80
             885.93,868.85 893.93,861.87 902.00,855.68
             902.00,855.68 913.00,847.82 913.00,847.82
             917.34,843.99 924.66,835.77 927.32,830.58
             927.32,830.58 931.55,820.28 931.55,820.28
             931.55,820.28 943.65,804.00 943.65,804.00
             943.65,804.00 955.00,782.42 955.00,782.42
             955.00,782.42 958.57,773.00 958.57,773.00
             958.57,773.00 962.91,764.00 962.91,764.00
             962.91,764.00 965.97,756.01 965.97,756.01
             965.97,756.01 971.81,746.96 971.81,746.96
             971.81,746.96 984.11,720.00 984.11,720.00
             984.11,720.00 987.18,705.09 987.18,705.09
             987.18,705.09 992.42,690.00 992.42,690.00
             992.42,690.00 996.96,671.00 996.96,671.00
             996.96,671.00 1007.12,650.83 1007.12,650.83
             1007.12,650.83 1010.99,633.00 1010.99,633.00
             1010.99,633.00 1020.85,607.83 1020.85,607.83
             1020.85,607.83 1024.41,586.00 1024.41,586.00
             1024.41,586.00 1029.43,554.00 1029.43,554.00
             1029.43,554.00 1029.43,539.00 1029.43,539.00
             1029.43,539.00 1030.51,529.00 1030.51,529.00
             1030.51,529.00 1030.51,518.00 1030.51,518.00
             1030.51,518.00 1030.51,508.42 1030.51,508.42
             1030.51,508.42 1030.51,501.00 1030.51,501.00
             1030.51,501.00 1031.29,492.00 1031.29,492.00
             1031.29,492.00 1030.05,467.00 1030.05,467.00
             1030.05,467.00 1031.26,448.00 1031.26,448.00
             1030.59,429.27 1034.91,419.76 1035.56,406.00
             1035.56,406.00 1035.05,393.00 1035.05,393.00
             1035.05,393.00 1035.99,379.00 1035.99,379.00
             1035.99,379.00 1035.06,370.42 1035.06,370.42
             1035.06,370.42 1041.67,350.00 1041.67,350.00
             1041.67,350.00 1046.86,329.00 1046.86,329.00
             1046.86,329.00 1055.13,309.00 1055.13,309.00
             1055.13,309.00 1057.41,298.00 1057.41,298.00
             1057.41,298.00 1063.55,277.00 1063.55,277.00
             1063.55,277.00 1065.00,265.42 1065.00,265.42
             1065.81,261.12 1070.67,257.66 1071.48,247.00
             1072.31,236.14 1066.14,231.42 1065.09,227.58
             1064.48,225.35 1065.22,219.72 1063.06,214.72
             1060.88,209.67 1056.77,206.31 1053.80,202.00
             1050.83,197.69 1051.35,195.80 1047.37,191.09
             1043.01,185.93 1036.05,181.24 1031.04,176.71
             1026.52,172.63 1023.81,168.41 1018.00,165.44
             1018.00,165.44 995.00,159.09 995.00,159.09
             995.00,159.09 982.00,159.09 982.00,159.09
             976.44,159.07 976.12,159.53 971.00,160.55
             954.82,163.79 952.50,168.49 939.00,174.41
             939.00,174.41 929.00,177.38 929.00,177.38
             913.94,182.07 918.08,181.79 902.00,182.00
             892.97,182.12 886.02,186.29 878.00,189.53
             878.00,189.53 861.00,194.58 861.00,194.58
             861.00,194.58 840.00,201.28 840.00,201.28
             840.00,201.28 820.00,206.75 820.00,206.75
             820.00,206.75 794.00,216.86 794.00,216.86
             794.00,216.86 781.00,223.75 781.00,223.75
             781.00,223.75 766.09,230.53 766.09,230.53
             761.56,233.38 760.61,237.14 755.00,241.47
             748.80,246.25 745.41,245.03 742.63,247.58
             742.63,247.58 732.28,264.00 732.28,264.00
             732.28,264.00 716.31,287.00 716.31,287.00
             712.35,294.25 712.30,297.82 709.40,305.00
             709.40,305.00 699.20,328.00 699.20,328.00
             699.20,328.00 694.52,340.00 694.52,340.00
             692.02,347.70 693.70,350.75 687.67,358.00
             679.44,367.90 674.76,366.84 664.00,370.04
             664.00,370.04 648.00,375.12 648.00,375.12
             648.00,375.12 623.00,381.60 623.00,381.60
             613.21,384.80 603.49,390.94 593.00,391.81
             593.00,391.81 581.00,391.18 581.00,391.18
             581.00,391.18 569.00,393.56 569.00,393.56
             569.00,393.56 555.00,395.61 555.00,395.61
             555.00,395.61 524.00,402.20 524.00,402.20
             524.00,402.20 508.00,404.42 508.00,404.42
             508.00,404.42 465.00,412.89 465.00,412.89
             465.00,412.89 451.00,417.41 451.00,417.41
             451.00,417.41 426.00,424.43 426.00,424.43
             426.00,424.43 415.00,428.10 415.00,428.10
             415.00,428.10 401.00,429.75 401.00,429.75
             401.00,429.75 378.00,435.39 378.00,435.39
             378.00,435.39 359.00,437.52 359.00,437.52
             359.00,437.52 341.00,442.54 341.00,442.54
             341.00,442.54 318.00,446.49 318.00,446.49
             318.00,446.49 304.00,451.51 304.00,451.51
             296.82,453.44 295.57,451.87 291.00,453.13
             291.00,453.13 277.00,457.98 277.00,457.98
             277.00,457.98 254.00,464.12 254.00,464.12
             254.00,464.12 238.00,468.20 238.00,468.20
             238.00,468.20 211.00,473.92 211.00,473.92
             211.00,473.92 198.00,479.58 198.00,479.58
             198.00,479.58 175.00,486.57 175.00,486.57
             175.00,486.57 163.00,489.44 163.00,489.44
             153.04,492.42 138.12,499.03 131.46,507.00
             126.85,512.53 115.11,528.88 112.14,535.00
             112.14,535.00 106.12,553.00 106.12,553.00
             106.12,553.00 99.99,564.00 99.99,564.00
             99.99,564.00 97.41,574.00 97.41,574.00
             97.41,574.00 93.29,585.00 93.29,585.00
             91.46,591.81 87.01,621.13 87.00,628.00
             87.00,628.00 87.00,637.00 87.00,637.00
             87.00,637.00 86.19,656.00 86.19,656.00
             86.19,656.00 85.01,665.83 85.01,665.83
             85.01,665.83 85.01,672.04 85.01,672.04
             85.01,672.04 81.80,688.00 81.80,688.00
             80.99,693.99 82.59,703.25 79.00,708.00 Z
           M 734.00,636.54
           C 737.54,635.96 740.51,635.79 744.00,636.54
             746.16,637.40 748.91,638.62 750.70,639.97
             765.12,650.81 755.72,669.36 748.20,681.00
             748.20,681.00 723.44,714.28 723.44,714.28
             723.44,714.28 707.92,739.00 707.92,739.00
             707.92,739.00 693.74,758.00 693.74,758.00
             693.74,758.00 684.93,774.00 684.93,774.00
             684.93,774.00 678.65,784.04 678.65,784.04
             678.65,784.04 665.20,807.00 665.20,807.00
             665.20,807.00 655.44,820.00 655.44,820.00
             655.44,820.00 640.36,841.99 640.36,841.99
             640.36,841.99 618.88,869.00 618.88,869.00
             618.88,869.00 594.91,899.00 594.91,899.00
             594.91,899.00 586.28,907.28 586.28,907.28
             577.32,916.25 571.98,923.49 558.00,923.96
             536.11,924.69 530.83,903.22 541.23,887.17
             547.11,878.09 555.99,871.72 563.00,863.58
             563.00,863.58 570.07,854.09 570.07,854.09
             570.07,854.09 579.12,843.00 579.12,843.00
             579.12,843.00 586.82,832.20 586.82,832.20
             586.82,832.20 596.39,821.09 596.39,821.09
             596.39,821.09 608.75,803.00 608.75,803.00
             608.75,803.00 622.43,784.42 622.43,784.42
             622.43,784.42 632.34,767.04 632.34,767.04
             632.34,767.04 639.72,755.00 639.72,755.00
             639.72,755.00 645.84,743.28 645.84,743.28
             645.84,743.28 659.84,724.00 659.84,724.00
             659.84,724.00 674.95,701.00 674.95,701.00
             674.95,701.00 698.21,668.83 698.21,668.83
             708.89,653.99 713.77,639.70 734.00,636.54 Z
           M 376.00,819.00
           C 377.75,821.02 378.85,822.46 381.09,824.04
             381.09,824.04 408.00,837.30 408.00,837.30
             419.92,842.96 435.63,853.16 446.39,861.01
             446.39,861.01 455.01,868.31 455.01,868.31
             458.11,870.41 462.56,871.59 466.83,874.90
             469.89,877.29 478.74,889.38 480.26,893.00
             489.84,915.71 469.77,939.58 448.00,937.91
             434.34,936.86 434.02,928.88 428.61,922.00
             425.56,918.12 422.19,915.74 418.00,913.28
             409.45,908.27 412.26,908.94 406.83,904.95
             406.83,904.95 387.00,891.35 387.00,891.35
             387.00,891.35 360.00,877.26 360.00,877.26
             360.00,877.26 344.00,870.03 344.00,870.03
             338.57,866.71 333.86,860.94 328.91,856.81
             318.23,847.90 304.16,841.02 305.10,824.99
             305.51,818.02 309.25,812.33 313.42,807.00
             321.25,797.02 322.95,798.08 332.00,791.70
             332.00,791.70 347.00,781.43 347.00,781.43
             347.00,781.43 356.00,776.79 356.00,776.79
             356.00,776.79 368.00,768.37 368.00,768.37
             368.00,768.37 388.00,755.96 388.00,755.96
             388.00,755.96 400.00,747.35 400.00,747.35
             400.00,747.35 425.00,735.63 425.00,735.63
             425.00,735.63 447.00,722.81 447.00,722.81
             459.53,716.54 462.10,716.94 475.00,707.58
             475.00,707.58 505.00,685.82 505.00,685.82
             505.00,685.82 518.00,673.17 518.00,673.17
             524.75,667.15 541.18,656.13 550.00,654.47
             555.96,653.34 565.74,653.74 570.99,657.00
             581.89,663.79 581.87,677.99 575.83,688.00
             567.79,701.32 557.86,702.01 552.00,706.41
             538.10,716.87 535.38,723.18 517.00,735.05
             517.00,735.05 486.00,756.94 486.00,756.94
             486.00,756.94 461.00,769.39 461.00,769.39
             461.00,769.39 446.00,778.20 446.00,778.20
             446.00,778.20 420.00,790.88 420.00,790.88
             420.00,790.88 411.00,797.11 411.00,797.11
             411.00,797.11 400.00,803.43 400.00,803.43
             393.02,807.46 381.98,816.98 376.00,819.00 Z
           M 862.00,792.00
           C 858.92,787.78 848.39,778.42 844.00,775.54
             840.72,773.39 838.19,772.33 835.00,769.67
             829.96,765.46 828.62,762.30 824.70,758.29
             824.70,758.29 805.00,740.42 805.00,740.42
             794.24,731.99 778.47,721.91 774.95,708.00
             769.68,687.13 797.57,664.81 817.00,674.05
             817.00,674.05 843.01,695.39 843.01,695.39
             843.01,695.39 851.72,702.46 851.72,702.46
             851.72,702.46 859.72,710.47 859.72,710.47
             859.72,710.47 867.91,717.10 867.91,717.10
             867.91,717.10 876.17,726.41 876.17,726.41
             876.17,726.41 887.00,734.28 887.00,734.28
             892.36,738.24 897.03,742.36 901.92,746.87
             912.41,756.54 924.02,761.86 928.22,777.00
             933.91,797.56 914.19,808.53 901.00,819.20
             901.00,819.20 873.00,842.57 873.00,842.57
             873.00,842.57 848.00,859.74 848.00,859.74
             848.00,859.74 839.00,866.60 839.00,866.60
             839.00,866.60 832.00,870.93 832.00,870.93
             832.00,870.93 823.00,877.53 823.00,877.53
             823.00,877.53 807.00,885.71 807.00,885.71
             800.41,889.40 799.66,890.55 792.00,893.85
             792.00,893.85 781.00,898.78 781.00,898.78
             769.36,904.83 753.86,914.74 741.09,905.20
             727.56,895.09 733.50,876.52 744.10,866.92
             747.98,863.41 762.22,854.31 767.00,852.04
             767.00,852.04 780.00,846.60 780.00,846.60
             780.00,846.60 790.00,840.81 790.00,840.81
             794.62,838.48 796.11,838.50 801.00,835.25
             801.00,835.25 819.00,821.78 819.00,821.78
             819.00,821.78 827.00,817.23 827.00,817.23
             827.00,817.23 845.00,805.10 845.00,805.10
             851.41,800.61 854.50,794.56 862.00,792.00 Z" />
  <path id="white"
        fill="white" stroke="none" stroke-width="1"
        d="M 732.00,637.25
           C 715.99,641.07 712.13,650.76 703.81,663.00
             703.81,663.00 685.58,688.00 685.58,688.00
             685.58,688.00 666.28,717.00 666.28,717.00
             666.28,717.00 647.81,743.00 647.81,743.00
             647.81,743.00 624.20,784.00 624.20,784.00
             624.20,784.00 596.49,823.00 596.49,823.00
             596.49,823.00 581.26,842.00 581.26,842.00
             575.71,849.66 565.27,863.45 558.96,870.00
             549.65,879.67 538.99,887.34 538.09,902.00
             537.29,915.08 546.47,922.51 559.00,921.96
             571.04,921.44 578.05,913.95 586.00,906.00
             592.71,899.29 599.46,892.47 605.33,885.00
             605.33,885.00 624.68,859.00 624.68,859.00
             624.68,859.00 634.77,847.00 634.77,847.00
             634.77,847.00 665.92,803.00 665.92,803.00
             665.92,803.00 683.72,773.00 683.72,773.00
             683.72,773.00 690.29,761.00 690.29,761.00
             690.29,761.00 705.98,739.00 705.98,739.00
             705.98,739.00 721.52,715.00 721.52,715.00
             721.52,715.00 737.13,694.00 737.13,694.00
             737.13,694.00 742.98,686.00 742.98,686.00
             750.27,675.43 761.33,660.26 754.95,647.00
             752.90,642.74 749.42,639.76 745.00,638.13
             742.12,637.07 739.04,636.92 736.00,637.25
             736.00,637.25 732.00,637.25 732.00,637.25 Z
           M 374.00,821.00
           C 384.17,812.40 409.19,795.80 421.00,789.31
             421.00,789.31 442.00,778.89 442.00,778.89
             442.00,778.89 474.00,761.89 474.00,761.89
             490.51,753.86 507.59,740.15 523.00,729.66
             523.00,729.66 551.00,705.65 551.00,705.65
             557.39,701.18 567.41,700.94 575.10,687.00
             582.73,673.15 577.86,655.51 560.00,655.02
             532.73,654.27 517.62,679.10 498.00,692.65
             498.00,692.65 464.00,716.13 464.00,716.13
             464.00,716.13 446.00,724.89 446.00,724.89
             446.00,724.89 425.00,736.74 425.00,736.74
             425.00,736.74 403.00,747.43 403.00,747.43
             403.00,747.43 381.00,761.50 381.00,761.50
             381.00,761.50 366.00,770.89 366.00,770.89
             366.00,770.89 355.00,778.66 355.00,778.66
             355.00,778.66 345.00,784.06 345.00,784.06
             345.00,784.06 331.00,793.80 331.00,793.80
             331.00,793.80 322.17,799.90 322.17,799.90
             314.34,806.46 306.58,817.31 307.10,828.00
             307.78,841.80 321.63,848.60 330.96,856.75
             338.06,862.96 337.22,864.44 347.00,870.24
             351.88,873.15 355.13,873.77 360.00,875.87
             360.00,875.87 381.00,886.45 381.00,886.45
             381.00,886.45 406.00,902.78 406.00,902.78
             406.00,902.78 420.00,913.14 420.00,913.14
             435.97,922.86 431.89,936.77 452.00,935.96
             472.97,935.12 488.58,911.09 478.09,892.04
             475.85,887.97 467.60,877.25 464.00,874.55
             464.00,874.55 453.00,868.21 453.00,868.21
             453.00,868.21 445.00,861.78 445.00,861.78
             445.00,861.78 431.00,852.42 431.00,852.42
             419.28,844.05 405.97,837.29 393.00,831.03
             381.72,825.58 385.94,829.24 374.00,821.00 Z
           M 864.00,789.00
           C 855.21,800.71 834.63,813.39 822.00,821.44
             822.00,821.44 804.00,834.64 804.00,834.64
             804.00,834.64 781.00,847.22 781.00,847.22
             781.00,847.22 768.00,852.44 768.00,852.44
             763.67,854.35 748.48,864.05 745.02,867.18
             733.41,877.69 729.06,901.15 747.00,906.94
             749.93,907.89 752.94,908.09 756.00,907.96
             765.85,907.53 772.74,901.65 781.00,897.32
             781.00,897.32 791.00,893.13 791.00,893.13
             791.00,893.13 800.00,888.28 800.00,888.28
             800.00,888.28 822.00,876.55 822.00,876.55
             822.00,876.55 845.00,860.35 845.00,860.35
             862.52,848.30 879.10,837.28 895.00,822.93
             895.00,822.93 906.00,813.45 906.00,813.45
             916.69,804.94 927.66,797.76 926.90,782.00
             926.29,769.55 917.92,761.89 909.00,754.58
             909.00,754.58 885.00,734.60 885.00,734.60
             880.86,731.34 875.88,728.70 872.30,724.91
             872.30,724.91 866.11,717.88 866.11,717.88
             866.11,717.88 857.01,709.83 857.01,709.83
             857.01,709.83 849.83,702.80 849.83,702.80
             849.83,702.80 830.00,686.39 830.00,686.39
             822.28,680.02 818.96,673.52 808.00,673.04
             791.86,672.34 776.74,685.71 776.04,702.00
             775.45,715.75 785.51,722.45 795.00,730.41
             795.00,730.41 824.83,756.29 824.83,756.29
             828.94,760.33 829.83,763.22 835.01,767.53
             835.01,767.53 847.00,775.90 847.00,775.90
             852.59,780.12 857.70,786.04 864.00,789.00 Z" />
</svg>
