<?xml version="1.0" encoding="UTF-8" standalone="no"?>
<!DOCTYPE svg PUBLIC "-//W3C//DTD SVG 20010904//EN"
              "http://www.w3.org/TR/2001/REC-SVG-20010904/DTD/svg10.dtd">

<svg xmlns="http://www.w3.org/2000/svg"
     width="3.6in" height="3.6in"
     viewBox="0 0 1080 1080">
  <path id="black"
        fill="black" stroke="none" stroke-width="1"
        d="M 508.00,243.52
           C 487.53,249.16 481.98,273.70 499.00,286.44
             505.10,291.01 509.36,290.31 516.00,291.90
             536.97,296.92 538.85,296.76 560.00,297.00
             566.26,297.08 575.49,299.50 582.00,300.80
             598.63,304.13 626.88,310.97 643.00,311.00
             643.00,311.00 782.00,311.00 782.00,311.00
             790.53,310.99 799.49,308.72 805.96,302.81
             817.13,292.62 816.59,275.96 804.99,266.34
             795.15,258.18 786.22,261.98 775.00,262.00
             775.00,262.00 644.00,262.00 644.00,262.00
             633.03,261.98 622.64,258.86 612.00,256.67
             612.00,256.67 588.00,252.33 588.00,252.33
             579.66,250.55 578.52,249.05 569.00,249.00
             569.00,249.00 559.00,249.00 559.00,249.00
             551.11,248.99 552.67,248.41 546.00,247.32
             546.00,247.32 535.00,246.08 535.00,246.08
             524.18,244.18 519.99,241.62 508.00,243.52 Z
           M 703.00,438.21
           C 695.59,439.64 689.59,440.99 682.00,441.00
             682.00,441.00 646.00,444.72 646.00,444.72
             646.00,444.72 621.00,447.17 621.00,447.17
             621.00,447.17 612.00,448.71 612.00,448.71
             612.00,448.71 582.00,451.00 582.00,451.00
             582.00,451.00 547.00,454.00 547.00,454.00
             547.00,454.00 535.00,454.00 535.00,454.00
             535.00,454.00 515.00,455.92 515.00,455.92
             515.00,455.92 503.00,455.92 503.00,455.92
             503.00,455.92 472.00,459.00 472.00,459.00
             472.00,459.00 444.00,459.00 444.00,459.00
             444.00,459.00 422.00,457.00 422.00,457.00
             422.00,457.00 399.00,457.00 399.00,457.00
             390.65,456.99 391.17,456.23 384.00,455.29
             384.00,455.29 368.00,453.71 368.00,453.71
             368.00,453.71 340.00,450.00 340.00,450.00
             330.43,449.89 319.03,448.55 311.00,454.56
             297.27,464.84 297.72,484.58 312.00,494.15
             318.96,498.81 325.18,497.91 333.00,498.00
             339.24,498.08 340.50,498.97 346.00,499.71
             346.00,499.71 398.00,506.00 398.00,506.00
             398.00,506.00 422.00,506.00 422.00,506.00
             422.00,506.00 438.00,507.00 438.00,507.00
             438.00,507.00 477.00,507.00 477.00,507.00
             477.00,507.00 508.00,504.00 508.00,504.00
             508.00,504.00 519.00,504.00 519.00,504.00
             519.00,504.00 529.00,503.04 529.00,503.04
             529.00,503.04 543.00,503.04 543.00,503.04
             543.00,503.04 579.00,500.00 579.00,500.00
             579.00,500.00 613.00,497.72 613.00,497.72
             613.00,497.72 662.00,491.83 662.00,491.83
             662.00,491.83 687.00,489.00 687.00,489.00
             687.00,489.00 716.00,486.00 716.00,486.00
             738.50,485.74 743.49,487.72 765.00,491.25
             774.03,492.73 783.19,495.88 792.00,491.81
             810.30,483.36 810.77,456.99 793.00,447.67
             785.78,443.88 777.77,444.34 770.00,442.80
             745.03,437.84 745.21,438.00 720.00,438.21
             720.00,438.21 703.00,438.21 703.00,438.21 Z
           M 470.00,645.21
           C 470.00,645.21 452.00,647.17 452.00,647.17
             452.00,647.17 422.00,650.17 422.00,650.17
             422.00,650.17 381.00,655.00 381.00,655.00
             381.00,655.00 363.00,655.00 363.00,655.00
             363.00,655.00 334.00,658.00 334.00,658.00
             323.58,658.12 312.35,654.59 303.00,660.85
             288.70,670.43 288.28,690.13 302.00,700.45
             311.01,707.21 320.40,707.12 331.00,707.00
             331.00,707.00 350.00,705.71 350.00,705.71
             357.14,704.78 356.65,704.01 365.00,704.00
             365.00,704.00 378.00,704.00 378.00,704.00
             378.00,704.00 429.00,698.29 429.00,698.29
             429.00,698.29 448.00,696.83 448.00,696.83
             448.00,696.83 489.00,693.00 489.00,693.00
             489.00,693.00 503.00,693.00 503.00,693.00
             503.00,693.00 536.00,696.71 536.00,696.71
             536.00,696.71 572.00,699.00 572.00,699.00
             572.00,699.00 595.00,701.71 595.00,701.71
             595.00,701.71 622.00,704.00 622.00,704.00
             622.00,704.00 670.00,704.00 670.00,704.00
             670.00,704.00 685.00,705.00 685.00,705.00
             685.00,705.00 708.00,705.00 708.00,705.00
             708.00,705.00 721.00,704.00 721.00,704.00
             737.78,703.81 750.98,704.69 767.00,697.33
             787.40,687.97 786.23,661.60 768.00,653.19
             755.94,647.62 743.46,654.98 731.00,655.09
             731.00,655.09 711.00,655.09 711.00,655.09
             705.47,655.76 705.43,656.91 698.00,657.00
             698.00,657.00 677.00,655.00 677.00,655.00
             677.00,655.00 619.00,655.00 619.00,655.00
             610.02,654.99 610.23,653.93 603.00,653.17
             603.00,653.17 569.00,651.00 569.00,651.00
             569.00,651.00 543.00,648.17 543.00,648.17
             543.00,648.17 508.00,645.21 508.00,645.21
             508.00,645.21 470.00,645.21 470.00,645.21 Z" />
  <path id="Selection"
        fill="#FFFFFF" stroke="none" stroke-width="1"
        d="M 697.00,85.15
           C 697.00,85.15 643.00,91.30 643.00,91.30
             643.00,91.30 626.00,94.71 626.00,94.71
             626.00,94.71 576.00,99.00 576.00,99.00
             576.00,99.00 561.00,100.00 561.00,100.00
             561.00,100.00 531.00,100.00 531.00,100.00
             522.04,100.01 522.10,101.12 515.00,102.00
             515.00,102.00 505.00,102.00 505.00,102.00
             505.00,102.00 487.00,105.70 487.00,105.70
             487.00,105.70 475.00,106.29 475.00,106.29
             475.00,106.29 462.00,108.94 462.00,108.94
             462.00,108.94 451.00,108.94 451.00,108.94
             451.00,108.94 437.00,111.86 437.00,111.86
             437.00,111.86 420.00,111.86 420.00,111.86
             413.88,112.08 412.41,113.00 407.00,113.71
             407.00,113.71 390.00,115.00 390.00,115.00
             390.00,115.00 322.00,115.00 322.00,115.00
             311.63,115.02 310.33,116.56 301.00,119.08
             295.86,120.47 291.90,120.56 287.00,123.36
             284.17,124.98 277.45,130.71 275.04,133.09
             269.72,138.35 270.18,140.62 266.61,144.58
             266.61,144.58 253.00,157.37 253.00,157.37
             247.11,161.59 243.66,161.68 238.97,169.00
             235.36,174.62 235.01,179.58 235.08,186.00
             235.08,186.00 235.08,206.00 235.08,206.00
             235.88,213.10 236.99,213.04 237.00,222.00
             237.00,222.00 237.00,300.00 237.00,300.00
             237.00,300.00 238.00,315.00 238.00,315.00
             238.00,315.00 238.00,435.00 238.00,435.00
             238.00,435.00 241.00,467.00 241.00,467.00
             241.00,467.00 241.00,563.00 241.00,563.00
             240.98,575.73 237.03,574.74 237.03,585.00
             237.03,585.00 238.92,602.00 238.92,602.00
             238.92,602.00 242.10,612.00 242.10,612.00
             243.38,617.17 245.99,636.71 246.00,642.00
             246.00,642.00 246.00,775.00 246.00,775.00
             246.02,787.47 248.17,788.35 250.76,799.00
             254.38,813.85 256.14,823.27 264.35,837.00
             268.02,843.14 273.09,845.90 277.72,851.01
             285.84,860.00 291.56,865.75 301.00,873.37
             301.00,873.37 308.00,879.37 308.00,879.37
             308.00,879.37 318.00,884.96 318.00,884.96
             322.08,887.57 322.96,889.22 328.00,891.68
             334.87,895.02 338.49,895.11 345.00,897.22
             345.00,897.22 356.00,901.32 356.00,901.32
             356.00,901.32 366.00,902.53 366.00,902.53
             366.00,902.53 374.00,905.08 374.00,905.08
             378.32,906.23 387.61,907.94 392.00,908.00
             392.00,908.00 404.00,908.00 404.00,908.00
             404.00,908.00 444.00,915.42 444.00,915.42
             452.08,917.20 467.30,920.91 475.00,921.00
             475.00,921.00 525.00,921.00 525.00,921.00
             525.00,921.00 539.00,920.01 539.00,920.01
             539.00,920.01 560.00,921.17 560.00,921.17
             574.20,922.59 589.70,931.97 609.00,932.00
             609.00,932.00 687.00,932.00 687.00,932.00
             687.00,932.00 704.00,933.00 704.00,933.00
             704.00,933.00 730.00,933.00 730.00,933.00
             735.77,932.93 742.96,931.51 748.00,928.64
             751.82,926.46 754.11,923.32 758.00,922.31
             758.00,922.31 766.00,921.20 766.00,921.20
             766.00,921.20 787.00,916.79 787.00,916.79
             787.00,916.79 798.00,913.49 798.00,913.49
             798.00,913.49 822.00,908.61 822.00,908.61
             822.00,908.61 837.00,907.53 837.00,907.53
             848.71,905.34 859.93,898.24 866.07,888.00
             872.51,877.27 872.43,865.83 874.80,854.00
             874.80,854.00 881.29,812.00 881.29,812.00
             881.29,812.00 883.83,798.00 883.83,798.00
             883.83,798.00 888.60,758.00 888.60,758.00
             888.60,758.00 895.39,733.00 895.39,733.00
             895.39,733.00 897.61,712.00 897.61,712.00
             900.11,697.80 902.98,683.49 903.00,669.00
             903.00,669.00 903.00,616.00 903.00,616.00
             903.00,616.00 908.00,564.00 908.00,564.00
             908.00,564.00 908.00,532.00 908.00,532.00
             908.00,532.00 909.00,516.00 909.00,516.00
             909.00,516.00 909.00,497.00 909.00,497.00
             909.00,497.00 911.04,471.00 911.04,471.00
             911.04,471.00 911.04,457.00 911.04,457.00
             911.04,457.00 912.00,447.00 912.00,447.00
             912.00,447.00 915.29,410.00 915.29,410.00
             916.23,402.83 916.99,403.35 917.00,395.00
             917.00,395.00 917.00,341.00 917.00,341.00
             917.00,341.00 915.00,314.00 915.00,314.00
             915.00,314.00 915.00,266.00 915.00,266.00
             914.98,255.80 913.42,254.68 912.06,246.00
             912.06,246.00 912.06,236.00 912.06,236.00
             910.36,221.24 909.03,227.07 909.00,207.00
             909.00,207.00 907.92,191.00 907.92,191.00
             907.92,191.00 907.92,176.00 907.92,176.00
             907.92,176.00 906.17,166.00 906.17,166.00
             905.36,157.86 906.90,157.52 904.09,148.00
             902.56,142.83 901.01,141.34 899.20,137.00
             895.52,128.20 894.82,123.63 887.83,116.02
             878.84,106.22 866.24,104.09 854.00,101.34
             854.00,101.34 842.00,97.66 842.00,97.66
             842.00,97.66 825.00,94.80 825.00,94.80
             825.00,94.80 817.00,92.64 817.00,92.64
             817.00,92.64 802.00,89.44 802.00,89.44
             802.00,89.44 785.00,87.83 785.00,87.83
             785.00,87.83 759.00,85.15 759.00,85.15
             759.00,85.15 731.00,85.15 731.00,85.15
             731.00,85.15 697.00,85.15 697.00,85.15 Z
           M 511.00,241.29
           C 525.69,239.90 538.57,246.97 555.00,247.00
             555.00,247.00 563.00,247.00 563.00,247.00
             573.65,247.02 578.09,248.94 588.00,251.00
             602.92,254.09 633.18,260.98 647.00,261.00
             647.00,261.00 773.00,261.00 773.00,261.00
             781.95,260.99 781.67,259.87 788.00,259.33
             808.05,257.60 820.65,279.87 812.00,297.00
             805.98,308.92 793.27,311.98 781.00,312.00
             781.00,312.00 640.00,312.00 640.00,312.00
             619.50,311.97 577.85,299.02 562.00,299.00
             562.00,299.00 549.00,299.00 549.00,299.00
             543.00,298.93 522.40,295.15 516.00,293.59
             511.35,292.46 507.82,292.72 503.00,290.64
             486.46,283.50 481.96,262.31 494.33,249.18
             498.89,244.33 504.64,242.36 511.00,241.29 Z
           M 707.00,436.14
           C 707.00,436.14 733.00,436.14 733.00,436.14
             741.55,436.01 746.89,437.57 755.00,438.72
             755.00,438.72 772.00,441.70 772.00,441.70
             772.00,441.70 783.00,442.82 783.00,442.82
             795.96,445.57 807.04,453.91 807.91,468.00
             808.14,471.74 807.48,475.53 806.07,479.00
             804.49,482.91 802.16,486.01 798.98,488.79
             789.11,497.41 778.68,494.76 767.00,493.13
             767.00,493.13 748.00,490.19 748.00,490.19
             741.97,488.99 741.68,488.08 735.00,488.00
             735.00,488.00 714.00,488.00 714.00,488.00
             707.53,488.08 706.71,488.91 701.00,489.72
             691.92,491.00 689.89,490.90 681.00,491.00
             681.00,491.00 640.00,495.83 640.00,495.83
             640.00,495.83 583.00,501.00 583.00,501.00
             583.00,501.00 551.00,504.00 551.00,504.00
             551.00,504.00 538.00,504.00 538.00,504.00
             538.00,504.00 513.00,506.08 513.00,506.08
             513.00,506.08 501.00,506.08 501.00,506.08
             501.00,506.08 472.00,509.00 472.00,509.00
             472.00,509.00 440.00,509.00 440.00,509.00
             440.00,509.00 418.00,507.00 418.00,507.00
             418.00,507.00 395.00,507.00 395.00,507.00
             395.00,507.00 339.00,500.00 339.00,500.00
             329.54,499.89 319.19,500.99 311.00,495.20
             296.54,484.98 296.54,463.02 311.00,452.80
             318.51,447.49 328.23,447.90 337.00,448.00
             337.00,448.00 357.00,450.71 357.00,450.71
             357.00,450.71 403.00,456.00 403.00,456.00
             403.00,456.00 426.00,456.00 426.00,456.00
             426.00,456.00 442.00,457.00 442.00,457.00
             442.00,457.00 476.00,457.00 476.00,457.00
             476.00,457.00 506.00,454.00 506.00,454.00
             506.00,454.00 541.00,453.00 541.00,453.00
             541.00,453.00 559.00,451.17 559.00,451.17
             559.00,451.17 584.00,450.00 584.00,450.00
             584.00,450.00 652.00,442.28 652.00,442.28
             652.00,442.28 688.00,439.00 688.00,439.00
             688.00,439.00 707.00,436.14 707.00,436.14 Z
           M 478.00,643.28
           C 500.71,641.17 523.48,644.91 546.00,647.17
             546.00,647.17 564.00,649.00 564.00,649.00
             564.00,649.00 575.00,649.00 575.00,649.00
             583.60,649.01 583.39,649.74 591.00,650.72
             591.00,650.72 623.00,654.00 623.00,654.00
             623.00,654.00 676.00,654.00 676.00,654.00
             676.00,654.00 692.00,655.00 692.00,655.00
             692.00,655.00 731.00,654.00 731.00,654.00
             746.87,653.98 752.77,646.20 766.00,650.60
             786.53,657.42 788.84,685.59 771.00,697.03
             767.06,699.56 763.40,700.23 759.00,701.38
             740.57,706.18 742.68,704.97 724.00,705.00
             724.00,705.00 701.00,706.92 701.00,706.92
             701.00,706.92 683.00,706.92 683.00,706.92
             675.90,706.12 675.96,705.01 667.00,705.00
             667.00,705.00 618.00,705.00 618.00,705.00
             618.00,705.00 578.00,701.00 578.00,701.00
             578.00,701.00 567.00,701.00 567.00,701.00
             567.00,701.00 540.00,698.28 540.00,698.28
             540.00,698.28 524.00,696.83 524.00,696.83
             524.00,696.83 508.00,695.00 508.00,695.00
             508.00,695.00 482.00,695.00 482.00,695.00
             482.00,695.00 462.00,696.91 462.00,696.91
             462.00,696.91 416.00,701.28 416.00,701.28
             416.00,701.28 382.00,705.00 382.00,705.00
             382.00,705.00 364.00,705.00 364.00,705.00
             364.00,705.00 338.00,708.00 338.00,708.00
             323.72,708.16 306.39,709.59 296.53,696.99
             283.43,680.23 296.00,653.43 318.00,655.33
             322.79,655.74 325.12,657.15 331.00,656.96
             331.00,656.96 359.00,654.00 359.00,654.00
             359.00,654.00 377.00,654.00 377.00,654.00
             377.00,654.00 428.00,648.17 428.00,648.17
             428.00,648.17 478.00,643.28 478.00,643.28 Z" />
</svg>
