<?xml version="1.0" encoding="UTF-8" standalone="no"?>
<!DOCTYPE svg PUBLIC "-//W3C//DTD SVG 20010904//EN"
              "http://www.w3.org/TR/2001/REC-SVG-20010904/DTD/svg10.dtd">

<svg xmlns="http://www.w3.org/2000/svg"
     width="3.6in" height="3.6in"
     viewBox="0 0 1080 1080">
  <path id="Selection"
        fill="#c95eff" stroke="none" stroke-width="1"
        d="M 871.00,304.47
           C 860.33,307.00 852.55,313.95 850.47,325.00
             850.47,325.00 849.67,338.00 849.67,338.00
             849.67,338.00 846.92,347.00 846.92,347.00
             846.92,347.00 843.20,365.00 843.20,365.00
             843.20,365.00 840.96,377.00 840.96,377.00
             840.96,377.00 840.96,386.00 840.96,386.00
             840.96,386.00 839.29,395.00 839.29,395.00
             839.29,395.00 838.71,402.00 838.71,402.00
             838.71,402.00 837.17,411.00 837.17,411.00
             837.17,411.00 835.54,428.00 835.54,428.00
             833.93,437.14 832.02,441.06 832.00,451.00
             832.00,451.00 832.00,505.00 832.00,505.00
             832.00,505.00 837.92,557.00 837.92,557.00
             837.92,557.00 839.47,573.00 839.47,573.00
             839.47,573.00 841.63,581.00 841.63,581.00
             841.63,581.00 842.68,588.00 842.68,588.00
             842.68,588.00 845.32,597.00 845.32,597.00
             846.44,601.97 845.52,604.57 847.22,610.00
             850.37,620.07 859.46,627.26 870.00,627.91
             885.90,628.89 896.82,616.27 897.00,601.00
             897.08,593.46 897.30,589.48 895.57,582.00
             893.87,574.61 890.93,567.64 890.00,560.00
             890.00,560.00 890.00,550.00 890.00,550.00
             890.00,550.00 888.29,541.00 888.29,541.00
             888.29,541.00 886.83,525.00 886.83,525.00
             886.83,525.00 884.00,499.00 884.00,499.00
             884.00,499.00 884.00,457.00 884.00,457.00
             884.02,445.60 886.81,440.80 887.83,431.00
             887.83,431.00 889.30,415.00 889.30,415.00
             889.30,415.00 892.94,393.00 892.94,393.00
             892.94,393.00 892.94,382.00 892.94,382.00
             892.94,382.00 895.26,370.00 895.26,370.00
             898.92,350.37 902.27,353.99 902.00,331.00
             901.79,313.12 888.61,302.01 871.00,304.47 Z
           M 202.00,545.00
           C 199.63,552.19 199.59,560.45 198.83,568.00
             198.83,568.00 194.44,601.00 194.44,601.00
             193.52,606.86 194.26,609.22 192.23,616.00
             187.17,632.86 170.04,658.68 169.09,674.00
             167.80,694.91 191.87,708.61 209.00,696.36
             220.29,688.29 220.53,680.06 225.44,669.00
             225.44,669.00 239.14,640.00 239.14,640.00
             248.24,614.33 248.74,584.98 252.29,558.00
             252.29,558.00 255.70,541.00 255.70,541.00
             255.70,541.00 259.67,512.00 259.67,512.00
             259.67,512.00 265.48,497.00 265.48,497.00
             265.48,497.00 268.24,485.00 268.24,485.00
             268.24,485.00 272.66,469.00 272.66,469.00
             275.49,457.69 279.84,446.77 284.20,436.00
             288.28,425.92 292.51,419.35 288.45,408.00
             281.54,388.65 255.92,385.20 243.39,401.00
             240.40,404.77 236.30,415.11 234.14,420.00
             234.14,420.00 212.00,490.00 212.00,490.00
             212.00,490.00 201.78,474.00 201.78,474.00
             201.78,474.00 190.75,459.00 190.75,459.00
             190.75,459.00 179.42,440.00 179.42,440.00
             179.42,440.00 172.27,427.00 172.27,427.00
             169.72,421.91 169.18,419.02 165.78,414.00
             163.06,409.97 159.73,406.36 157.51,402.00
             157.51,402.00 148.65,382.00 148.65,382.00
             148.65,382.00 135.91,364.00 135.91,364.00
             135.91,364.00 129.09,353.00 129.09,353.00
             129.09,353.00 119.61,340.00 119.61,340.00
             115.09,332.51 115.16,327.61 106.00,322.36
             87.43,311.72 64.90,326.77 67.17,348.00
             68.08,356.44 74.02,364.98 78.47,372.00
             78.47,372.00 90.25,389.00 90.25,389.00
             90.25,389.00 95.55,398.00 95.55,398.00
             95.55,398.00 101.25,406.00 101.25,406.00
             101.25,406.00 113.35,431.00 113.35,431.00
             113.35,431.00 122.13,444.00 122.13,444.00
             122.13,444.00 138.92,475.00 138.92,475.00
             138.92,475.00 148.25,488.00 148.25,488.00
             148.25,488.00 153.55,497.00 153.55,497.00
             153.55,497.00 160.09,506.00 160.09,506.00
             160.09,506.00 167.52,518.00 167.52,518.00
             167.52,518.00 176.67,530.00 176.67,530.00
             184.48,540.17 188.50,544.70 202.00,545.00 Z
           M 566.00,406.00
           C 555.20,383.18 517.49,392.42 519.09,420.00
             519.09,420.00 525.39,453.00 525.39,453.00
             525.39,453.00 527.67,474.00 527.67,474.00
             527.67,474.00 532.71,494.00 532.71,494.00
             532.71,494.00 534.17,515.00 534.17,515.00
             534.17,515.00 537.30,546.00 537.30,546.00
             537.30,546.00 541.39,567.00 541.39,567.00
             541.39,567.00 543.12,580.00 543.12,580.00
             547.10,597.65 552.37,622.36 576.00,620.91
             579.38,620.70 582.99,619.71 586.00,618.17
             588.68,616.79 590.81,615.14 592.90,612.96
             599.51,606.04 601.18,597.13 599.11,588.00
             599.11,588.00 596.37,578.00 596.37,578.00
             596.37,578.00 595.71,572.00 595.71,572.00
             594.03,559.53 591.02,552.19 591.00,538.00
             590.96,515.33 591.79,508.21 594.71,486.00
             596.13,475.19 595.50,476.05 598.80,465.00
             602.59,452.30 600.20,448.19 608.89,437.00
             610.13,435.40 612.29,432.65 613.95,431.56
             618.52,428.58 621.95,435.85 623.91,439.00
             629.39,447.83 634.54,461.14 638.67,471.00
             638.67,471.00 642.34,482.00 642.34,482.00
             646.53,491.82 648.98,490.47 649.00,502.00
             649.00,502.00 649.00,538.00 649.00,538.00
             649.00,538.00 651.83,564.00 651.83,564.00
             653.42,579.13 656.39,595.50 663.80,609.00
             673.00,625.78 695.69,628.03 707.61,613.00
             713.55,605.50 713.10,597.95 713.00,589.00
             713.00,589.00 711.10,574.00 711.10,574.00
             711.10,574.00 711.96,562.00 711.96,562.00
             711.96,562.00 710.17,545.00 710.17,545.00
             710.17,545.00 707.83,520.00 707.83,520.00
             707.83,520.00 703.02,492.42 703.02,492.42
             703.27,490.67 705.20,486.84 706.00,485.00
             711.45,472.45 716.04,466.60 729.00,461.40
             731.16,460.53 735.79,458.52 737.96,458.47
             742.23,458.38 743.30,462.80 744.77,466.00
             748.56,474.25 751.86,485.10 753.79,494.00
             753.79,494.00 756.22,505.00 756.22,505.00
             756.22,505.00 763.51,526.00 763.51,526.00
             765.14,532.04 765.48,537.88 766.29,544.00
             766.29,544.00 767.71,552.00 767.71,552.00
             767.71,552.00 769.17,573.00 769.17,573.00
             769.17,573.00 771.56,586.00 771.56,586.00
             772.44,591.54 771.77,594.34 774.35,600.00
             781.97,616.70 804.37,620.05 816.90,606.96
             827.83,595.53 823.55,582.49 821.44,569.00
             821.44,569.00 820.83,557.00 820.83,557.00
             820.83,557.00 819.29,548.00 819.29,548.00
             817.09,531.28 817.11,524.83 812.20,508.00
             812.20,508.00 809.14,496.00 809.14,496.00
             809.14,496.00 803.92,483.00 803.92,483.00
             803.92,483.00 800.36,467.00 800.36,467.00
             797.48,456.27 793.38,446.10 788.77,436.00
             786.21,430.39 784.76,425.89 780.67,421.00
             773.30,412.18 760.44,406.05 749.00,406.00
             730.91,405.92 726.22,406.26 709.00,413.00
             695.19,418.41 689.70,423.74 678.00,432.00
             676.74,425.29 672.18,416.78 668.53,411.00
             658.05,394.42 641.18,376.24 620.00,376.00
             611.47,375.91 606.96,376.89 599.00,380.00
             582.26,386.56 577.62,392.61 566.00,406.00 Z
           M 942.00,387.28
           C 934.27,389.30 928.42,392.93 924.36,400.00
             915.05,416.24 926.36,436.76 945.00,437.91
             972.17,439.58 982.54,402.39 958.00,389.83
             954.99,388.29 951.38,387.30 948.00,387.28
             945.63,386.95 944.30,387.15 942.00,387.28 Z
           M 431.00,570.00
           C 432.31,576.97 435.78,580.72 438.69,587.00
             447.45,605.93 455.15,616.23 472.00,628.87
             477.09,632.69 480.22,635.35 486.00,638.24
             506.97,648.73 527.11,634.56 525.91,615.00
             524.83,597.54 506.91,591.60 496.10,580.83
             489.29,574.04 486.72,565.37 482.68,557.00
             482.68,557.00 476.62,546.00 476.62,546.00
             476.62,546.00 469.44,529.00 469.44,529.00
             469.44,529.00 465.14,517.00 465.14,517.00
             465.14,517.00 456.92,500.00 456.92,500.00
             453.53,488.11 456.14,474.82 449.65,463.00
             445.42,455.30 438.74,448.69 430.00,446.68
             430.00,446.68 419.00,445.55 419.00,445.55
             416.12,444.50 413.07,440.93 410.00,438.97
             404.36,435.36 399.44,435.01 393.00,435.00
             384.39,434.99 367.56,434.90 360.00,438.35
             350.76,442.56 343.44,453.59 336.83,461.00
             336.83,461.00 328.68,470.00 328.68,470.00
             328.68,470.00 322.62,479.00 322.62,479.00
             316.81,486.47 312.95,489.37 309.55,499.00
             304.68,512.76 305.98,530.45 306.00,545.00
             306.02,555.46 309.25,566.17 314.96,575.00
             314.96,575.00 320.37,582.00 320.37,582.00
             320.37,582.00 324.63,589.00 324.63,589.00
             330.30,596.89 338.92,602.44 347.00,607.53
             355.23,612.72 365.10,617.88 375.00,618.00
             380.91,618.07 387.39,618.46 393.00,616.45
             403.78,612.60 416.13,595.92 421.65,586.00
             425.03,579.94 425.66,575.24 431.00,570.00 Z
           M 400.00,486.00
           C 400.00,486.00 402.81,501.00 402.81,501.00
             403.40,508.15 397.81,520.37 394.77,527.00
             389.84,537.76 389.50,535.55 385.35,543.00
             385.35,543.00 380.56,553.00 380.56,553.00
             379.19,555.50 376.82,560.51 373.90,561.19
             370.25,562.04 367.10,558.47 365.14,555.96
             359.62,548.89 357.12,546.26 357.00,537.00
             356.93,530.88 356.63,521.51 359.31,516.00
             359.31,516.00 370.18,501.00 370.18,501.00
             375.36,493.64 381.48,486.13 391.00,486.00
             391.00,486.00 400.00,486.00 400.00,486.00 Z
           M 955.00,525.47
           C 950.18,526.61 946.83,527.88 943.02,531.21
             922.97,548.71 939.17,580.41 965.00,575.53
             987.36,571.32 993.42,542.80 975.00,529.64
             968.94,525.30 962.19,524.46 955.00,525.47 Z" />
</svg>
